G04 #@! TF.GenerationSoftware,KiCad,Pcbnew,8.0.5*
G04 #@! TF.CreationDate,2024-09-17T16:22:35-07:00*
G04 #@! TF.ProjectId,RP2040_PCB,52503230-3430-45f5-9043-422e6b696361,rev?*
G04 #@! TF.SameCoordinates,Original*
G04 #@! TF.FileFunction,Paste,Top*
G04 #@! TF.FilePolarity,Positive*
%FSLAX46Y46*%
G04 Gerber Fmt 4.6, Leading zero omitted, Abs format (unit mm)*
G04 Created by KiCad (PCBNEW 8.0.5) date 2024-09-17 16:22:35*
%MOMM*%
%LPD*%
G01*
G04 APERTURE LIST*
G04 Aperture macros list*
%AMRoundRect*
0 Rectangle with rounded corners*
0 $1 Rounding radius*
0 $2 $3 $4 $5 $6 $7 $8 $9 X,Y pos of 4 corners*
0 Add a 4 corners polygon primitive as box body*
4,1,4,$2,$3,$4,$5,$6,$7,$8,$9,$2,$3,0*
0 Add four circle primitives for the rounded corners*
1,1,$1+$1,$2,$3*
1,1,$1+$1,$4,$5*
1,1,$1+$1,$6,$7*
1,1,$1+$1,$8,$9*
0 Add four rect primitives between the rounded corners*
20,1,$1+$1,$2,$3,$4,$5,0*
20,1,$1+$1,$4,$5,$6,$7,0*
20,1,$1+$1,$6,$7,$8,$9,0*
20,1,$1+$1,$8,$9,$2,$3,0*%
%AMFreePoly0*
4,1,6,0.450000,-0.800000,-0.450000,-0.800000,-0.450000,0.530000,-0.180000,0.800000,0.450000,0.800000,0.450000,-0.800000,0.450000,-0.800000,$1*%
G04 Aperture macros list end*
%ADD10RoundRect,0.135000X-0.185000X0.135000X-0.185000X-0.135000X0.185000X-0.135000X0.185000X0.135000X0*%
%ADD11RoundRect,0.250000X-0.250000X-0.475000X0.250000X-0.475000X0.250000X0.475000X-0.250000X0.475000X0*%
%ADD12RoundRect,0.140000X0.140000X0.170000X-0.140000X0.170000X-0.140000X-0.170000X0.140000X-0.170000X0*%
%ADD13RoundRect,0.140000X-0.140000X-0.170000X0.140000X-0.170000X0.140000X0.170000X-0.140000X0.170000X0*%
%ADD14R,1.550000X1.300000*%
%ADD15RoundRect,0.140000X-0.170000X0.140000X-0.170000X-0.140000X0.170000X-0.140000X0.170000X0.140000X0*%
%ADD16RoundRect,0.140000X0.170000X-0.140000X0.170000X0.140000X-0.170000X0.140000X-0.170000X-0.140000X0*%
%ADD17RoundRect,0.135000X0.135000X0.185000X-0.135000X0.185000X-0.135000X-0.185000X0.135000X-0.185000X0*%
%ADD18RoundRect,0.375000X-0.375000X0.625000X-0.375000X-0.625000X0.375000X-0.625000X0.375000X0.625000X0*%
%ADD19RoundRect,0.500000X-1.400000X0.500000X-1.400000X-0.500000X1.400000X-0.500000X1.400000X0.500000X0*%
%ADD20FreePoly0,180.000000*%
%ADD21R,0.550000X0.250000*%
%ADD22RoundRect,0.250000X-0.292217X-0.292217X0.292217X-0.292217X0.292217X0.292217X-0.292217X0.292217X0*%
%ADD23RoundRect,0.050000X-0.387500X-0.050000X0.387500X-0.050000X0.387500X0.050000X-0.387500X0.050000X0*%
%ADD24RoundRect,0.050000X-0.050000X-0.387500X0.050000X-0.387500X0.050000X0.387500X-0.050000X0.387500X0*%
%ADD25R,0.400000X1.750000*%
%ADD26R,1.825000X0.700000*%
%ADD27R,2.000000X1.460000*%
%ADD28RoundRect,0.384800X0.265200X1.240200X-0.265200X1.240200X-0.265200X-1.240200X0.265200X-1.240200X0*%
%ADD29R,1.425000X2.500000*%
%ADD30R,1.400000X1.200000*%
G04 APERTURE END LIST*
D10*
G04 #@! TO.C,R5*
X155500000Y-98151781D03*
X155500000Y-99171781D03*
G04 #@! TD*
D11*
G04 #@! TO.C,C4*
X164456066Y-96711781D03*
X166356066Y-96711781D03*
G04 #@! TD*
D12*
G04 #@! TO.C,C15*
X147886066Y-106211781D03*
X146926066Y-106211781D03*
G04 #@! TD*
D13*
G04 #@! TO.C,C2*
X154926066Y-114711781D03*
X155886066Y-114711781D03*
G04 #@! TD*
D14*
G04 #@! TO.C,SW2*
X140886066Y-89211781D03*
X148836066Y-89211781D03*
X140886066Y-93711781D03*
X148836066Y-93711781D03*
G04 #@! TD*
D15*
G04 #@! TO.C,C13*
X154906066Y-110701781D03*
X154906066Y-111661781D03*
G04 #@! TD*
D13*
G04 #@! TO.C,C9*
X158900000Y-105250000D03*
X159860000Y-105250000D03*
G04 #@! TD*
G04 #@! TO.C,C10*
X161000000Y-100900000D03*
X161960000Y-100900000D03*
G04 #@! TD*
D15*
G04 #@! TO.C,C6*
X156406066Y-110721781D03*
X156406066Y-111681781D03*
G04 #@! TD*
D16*
G04 #@! TO.C,C16*
X157700000Y-99131781D03*
X157700000Y-98171781D03*
G04 #@! TD*
D10*
G04 #@! TO.C,R4*
X154400000Y-98130000D03*
X154400000Y-99150000D03*
G04 #@! TD*
D13*
G04 #@! TO.C,C11*
X158926066Y-106711781D03*
X159886066Y-106711781D03*
G04 #@! TD*
D11*
G04 #@! TO.C,C3*
X163406066Y-83711781D03*
X165306066Y-83711781D03*
G04 #@! TD*
D17*
G04 #@! TO.C,R6*
X146916066Y-102711781D03*
X145896066Y-102711781D03*
G04 #@! TD*
D12*
G04 #@! TO.C,C1*
X152866066Y-114711781D03*
X151906066Y-114711781D03*
G04 #@! TD*
D13*
G04 #@! TO.C,C14*
X160990000Y-99650000D03*
X161950000Y-99650000D03*
G04 #@! TD*
D16*
G04 #@! TO.C,C8*
X156600000Y-99140000D03*
X156600000Y-98180000D03*
G04 #@! TD*
D18*
G04 #@! TO.C,U1*
X167006066Y-87561781D03*
X164706066Y-87561781D03*
D19*
X164706066Y-93861781D03*
D18*
X162406066Y-87561781D03*
G04 #@! TD*
D16*
G04 #@! TO.C,C12*
X153300000Y-98200000D03*
X153300000Y-97240000D03*
G04 #@! TD*
D12*
G04 #@! TO.C,C5*
X141030000Y-101270000D03*
X140070000Y-101270000D03*
G04 #@! TD*
D16*
G04 #@! TO.C,C7*
X152150000Y-98171781D03*
X152150000Y-97211781D03*
G04 #@! TD*
D20*
G04 #@! TO.C,U4*
X142231066Y-103461781D03*
D21*
X143406066Y-104211781D03*
X143406066Y-103711781D03*
X143406066Y-103211781D03*
X143406066Y-102711781D03*
X141056066Y-102711781D03*
X141056066Y-103211781D03*
X141056066Y-103711781D03*
X141056066Y-104211781D03*
G04 #@! TD*
D22*
G04 #@! TO.C,U3*
X152831066Y-104374281D03*
X152831066Y-105649281D03*
X154106066Y-104374281D03*
X154106066Y-105649281D03*
D23*
X150031066Y-102411781D03*
X150031066Y-102811781D03*
X150031066Y-103211781D03*
X150031066Y-103611781D03*
X150031066Y-104011781D03*
X150031066Y-104411781D03*
X150031066Y-104811781D03*
X150031066Y-105211781D03*
X150031066Y-105611781D03*
X150031066Y-106011781D03*
X150031066Y-106411781D03*
X150031066Y-106811781D03*
X150031066Y-107211781D03*
X150031066Y-107611781D03*
D24*
X150868566Y-108449281D03*
X151268566Y-108449281D03*
X151668566Y-108449281D03*
X152068566Y-108449281D03*
X152468566Y-108449281D03*
X152868566Y-108449281D03*
X153268566Y-108449281D03*
X153668566Y-108449281D03*
X154068566Y-108449281D03*
X154468566Y-108449281D03*
X154868566Y-108449281D03*
X155268566Y-108449281D03*
X155668566Y-108449281D03*
X156068566Y-108449281D03*
D23*
X156906066Y-107611781D03*
X156906066Y-107211781D03*
X156906066Y-106811781D03*
X156906066Y-106411781D03*
X156906066Y-106011781D03*
X156906066Y-105611781D03*
X156906066Y-105211781D03*
X156906066Y-104811781D03*
X156906066Y-104411781D03*
X156906066Y-104011781D03*
X156906066Y-103611781D03*
X156906066Y-103211781D03*
X156906066Y-102811781D03*
X156906066Y-102411781D03*
D24*
X156068566Y-101574281D03*
X155668566Y-101574281D03*
X155268566Y-101574281D03*
X154868566Y-101574281D03*
X154468566Y-101574281D03*
X154068566Y-101574281D03*
X153668566Y-101574281D03*
X153268566Y-101574281D03*
X152868566Y-101574281D03*
X152468566Y-101574281D03*
X152068566Y-101574281D03*
X151668566Y-101574281D03*
X151268566Y-101574281D03*
X150868566Y-101574281D03*
G04 #@! TD*
D25*
G04 #@! TO.C,J2*
X156206066Y-81036781D03*
X155556066Y-81036781D03*
X154906066Y-81036781D03*
X154256066Y-81036781D03*
X153606066Y-81036781D03*
D26*
X157893566Y-79911781D03*
D27*
X157806066Y-81241781D03*
D28*
X157631066Y-78636781D03*
D29*
X155868566Y-77961781D03*
X153943566Y-77961781D03*
D28*
X152181066Y-78636781D03*
D27*
X152006066Y-81241781D03*
D26*
X151918566Y-79911781D03*
G04 #@! TD*
D30*
G04 #@! TO.C,Y1*
X152906066Y-118711781D03*
X155106066Y-118711781D03*
X155106066Y-117011781D03*
X152906066Y-117011781D03*
G04 #@! TD*
D10*
G04 #@! TO.C,R3*
X153406066Y-110711781D03*
X153406066Y-111731781D03*
G04 #@! TD*
D17*
G04 #@! TO.C,R2*
X146936066Y-103711781D03*
X145916066Y-103711781D03*
G04 #@! TD*
G04 #@! TO.C,R1*
X148426066Y-100211781D03*
X147406066Y-100211781D03*
G04 #@! TD*
M02*
