G04 #@! TF.GenerationSoftware,KiCad,Pcbnew,8.0.5*
G04 #@! TF.CreationDate,2024-09-17T16:22:35-07:00*
G04 #@! TF.ProjectId,RP2040_PCB,52503230-3430-45f5-9043-422e6b696361,rev?*
G04 #@! TF.SameCoordinates,Original*
G04 #@! TF.FileFunction,Copper,L2,Bot*
G04 #@! TF.FilePolarity,Positive*
%FSLAX46Y46*%
G04 Gerber Fmt 4.6, Leading zero omitted, Abs format (unit mm)*
G04 Created by KiCad (PCBNEW 8.0.5) date 2024-09-17 16:22:35*
%MOMM*%
%LPD*%
G01*
G04 APERTURE LIST*
G04 #@! TA.AperFunction,ComponentPad*
%ADD10C,0.600000*%
G04 #@! TD*
G04 #@! TA.AperFunction,ComponentPad*
%ADD11O,1.300000X1.800000*%
G04 #@! TD*
G04 #@! TA.AperFunction,ComponentPad*
%ADD12O,1.050000X1.450000*%
G04 #@! TD*
G04 #@! TA.AperFunction,ViaPad*
%ADD13C,0.600000*%
G04 #@! TD*
G04 #@! TA.AperFunction,Conductor*
%ADD14C,0.600000*%
G04 #@! TD*
G04 #@! TA.AperFunction,Conductor*
%ADD15C,0.400000*%
G04 #@! TD*
G04 APERTURE END LIST*
D10*
G04 #@! TO.P,U3,57,GND*
G04 #@! TO.N,GND*
X152193566Y-103736781D03*
X152193566Y-105011781D03*
X152193566Y-106286781D03*
X153468566Y-103736781D03*
X153468566Y-105011781D03*
X153468566Y-106286781D03*
X154743566Y-103736781D03*
X154743566Y-105011781D03*
X154743566Y-106286781D03*
G04 #@! TD*
D11*
G04 #@! TO.P,J2,6,Shield*
G04 #@! TO.N,GND*
X157631066Y-78211781D03*
D12*
X157331066Y-81241781D03*
X152481066Y-81241781D03*
D11*
X152181066Y-78211781D03*
G04 #@! TD*
D13*
G04 #@! TO.N,GND*
X157406066Y-114711781D03*
X139050000Y-101250000D03*
X152150000Y-96200000D03*
X150406066Y-118711781D03*
X145906066Y-106211781D03*
X153406066Y-83211781D03*
X151406066Y-110711781D03*
X144406066Y-103711781D03*
X167906066Y-96711781D03*
X160906066Y-106711781D03*
X157406066Y-118711781D03*
X160900000Y-105250000D03*
X150406066Y-114711781D03*
X140906066Y-87211781D03*
X154906066Y-112711781D03*
X166406066Y-85211781D03*
X162960000Y-100900000D03*
X156600000Y-97200000D03*
X162990000Y-99650000D03*
X148906066Y-87211781D03*
X157700000Y-97211781D03*
X139406066Y-104211781D03*
X153300000Y-96211781D03*
X156406066Y-112711781D03*
G04 #@! TO.N,+3V3*
X159766000Y-79883000D03*
X150114000Y-79883000D03*
G04 #@! TO.N,+1V1*
X154940000Y-109728000D03*
X154400000Y-102900000D03*
X152550000Y-100250000D03*
X154250000Y-107150000D03*
G04 #@! TD*
D14*
G04 #@! TO.N,+3V3*
X150114000Y-79883000D02*
X159766000Y-79883000D01*
D15*
G04 #@! TO.N,+1V1*
X152550000Y-100250000D02*
X152550000Y-101050000D01*
X154050000Y-108838000D02*
X154940000Y-109728000D01*
X154050000Y-107200000D02*
X154050000Y-108838000D01*
X152550000Y-101050000D02*
X154400000Y-102900000D01*
G04 #@! TD*
G04 #@! TA.AperFunction,Conductor*
G04 #@! TO.N,GND*
G36*
X151650797Y-76731966D02*
G01*
X151696552Y-76784770D01*
X151706496Y-76853928D01*
X151677471Y-76917484D01*
X151640053Y-76946766D01*
X151578331Y-76978215D01*
X151431896Y-77084604D01*
X151303889Y-77212611D01*
X151197500Y-77359046D01*
X151115318Y-77520333D01*
X151115317Y-77520336D01*
X151059383Y-77692487D01*
X151031066Y-77871274D01*
X151031066Y-77961781D01*
X151831066Y-77961781D01*
X151831066Y-78461781D01*
X151031066Y-78461781D01*
X151031066Y-78552287D01*
X151059383Y-78731074D01*
X151115317Y-78903225D01*
X151115318Y-78903228D01*
X151197500Y-79064515D01*
X151285483Y-79185615D01*
X151308963Y-79251421D01*
X151293137Y-79319475D01*
X151243031Y-79368170D01*
X151185165Y-79382500D01*
X150042039Y-79382500D01*
X149980145Y-79400673D01*
X149977307Y-79401469D01*
X149920817Y-79416606D01*
X149914609Y-79419177D01*
X149904985Y-79422572D01*
X149903949Y-79423045D01*
X149855915Y-79453914D01*
X149850880Y-79456983D01*
X149806689Y-79482497D01*
X149802266Y-79485892D01*
X149786945Y-79498238D01*
X149782877Y-79500852D01*
X149782868Y-79500860D01*
X149750355Y-79538383D01*
X149744324Y-79544860D01*
X149713498Y-79575686D01*
X149710364Y-79581115D01*
X149696701Y-79600303D01*
X149688623Y-79609626D01*
X149688623Y-79609627D01*
X149671088Y-79648019D01*
X149665687Y-79658495D01*
X149647607Y-79689813D01*
X149647606Y-79689816D01*
X149644046Y-79703103D01*
X149637069Y-79722511D01*
X149628835Y-79740541D01*
X149623886Y-79774956D01*
X149620925Y-79789394D01*
X149613500Y-79817105D01*
X149613500Y-79838331D01*
X149612238Y-79855977D01*
X149608353Y-79882999D01*
X149612238Y-79910020D01*
X149613500Y-79927667D01*
X149613500Y-79948894D01*
X149620923Y-79976596D01*
X149623885Y-79991037D01*
X149628835Y-80025456D01*
X149628837Y-80025464D01*
X149637069Y-80043489D01*
X149644050Y-80062907D01*
X149647607Y-80076183D01*
X149647610Y-80076190D01*
X149665681Y-80107491D01*
X149671086Y-80117974D01*
X149688623Y-80156373D01*
X149696694Y-80165687D01*
X149710368Y-80184890D01*
X149713497Y-80190310D01*
X149713501Y-80190315D01*
X149744322Y-80221136D01*
X149750354Y-80227615D01*
X149782870Y-80265141D01*
X149782874Y-80265145D01*
X149786928Y-80267750D01*
X149802211Y-80280066D01*
X149806684Y-80283498D01*
X149806686Y-80283500D01*
X149850887Y-80309019D01*
X149855871Y-80312056D01*
X149903947Y-80342953D01*
X149903950Y-80342954D01*
X149903952Y-80342955D01*
X149904994Y-80343431D01*
X149914621Y-80346827D01*
X149920811Y-80349390D01*
X149920814Y-80349392D01*
X149977246Y-80364512D01*
X149977261Y-80364516D01*
X149980098Y-80365312D01*
X150042039Y-80383500D01*
X151458703Y-80383500D01*
X151525742Y-80403185D01*
X151571497Y-80455989D01*
X151581441Y-80525147D01*
X151573264Y-80554952D01*
X151495456Y-80742797D01*
X151495453Y-80742806D01*
X151456066Y-80940822D01*
X151456066Y-80991781D01*
X152157999Y-80991781D01*
X152156066Y-80998994D01*
X152156066Y-81484568D01*
X152157999Y-81491781D01*
X151456066Y-81491781D01*
X151456066Y-81542739D01*
X151495453Y-81740755D01*
X151495456Y-81740764D01*
X151572718Y-81927294D01*
X151572725Y-81927307D01*
X151684895Y-82095180D01*
X151684898Y-82095184D01*
X151827662Y-82237948D01*
X151827666Y-82237951D01*
X151995539Y-82350121D01*
X151995552Y-82350128D01*
X152182082Y-82427390D01*
X152182091Y-82427393D01*
X152231066Y-82437134D01*
X152231066Y-81651399D01*
X152281512Y-81701845D01*
X152355621Y-81744632D01*
X152438279Y-81766781D01*
X152523853Y-81766781D01*
X152606511Y-81744632D01*
X152680620Y-81701845D01*
X152731066Y-81651399D01*
X152731066Y-82437133D01*
X152780040Y-82427393D01*
X152780049Y-82427390D01*
X152966579Y-82350128D01*
X152966592Y-82350121D01*
X153134465Y-82237951D01*
X153134469Y-82237948D01*
X153277233Y-82095184D01*
X153277236Y-82095180D01*
X153389406Y-81927307D01*
X153389413Y-81927294D01*
X153466675Y-81740764D01*
X153466678Y-81740755D01*
X153506065Y-81542739D01*
X153506066Y-81542736D01*
X153506066Y-81491781D01*
X152804133Y-81491781D01*
X152806066Y-81484568D01*
X152806066Y-80998994D01*
X152804133Y-80991781D01*
X153506066Y-80991781D01*
X153506066Y-80940826D01*
X153506065Y-80940822D01*
X153466678Y-80742806D01*
X153466675Y-80742797D01*
X153388868Y-80554952D01*
X153381399Y-80485483D01*
X153412674Y-80423004D01*
X153472764Y-80387352D01*
X153503429Y-80383500D01*
X156308703Y-80383500D01*
X156375742Y-80403185D01*
X156421497Y-80455989D01*
X156431441Y-80525147D01*
X156423264Y-80554952D01*
X156345456Y-80742797D01*
X156345453Y-80742806D01*
X156306066Y-80940822D01*
X156306066Y-80991781D01*
X157007999Y-80991781D01*
X157006066Y-80998994D01*
X157006066Y-81484568D01*
X157007999Y-81491781D01*
X156306066Y-81491781D01*
X156306066Y-81542739D01*
X156345453Y-81740755D01*
X156345456Y-81740764D01*
X156422718Y-81927294D01*
X156422725Y-81927307D01*
X156534895Y-82095180D01*
X156534898Y-82095184D01*
X156677662Y-82237948D01*
X156677666Y-82237951D01*
X156845539Y-82350121D01*
X156845552Y-82350128D01*
X157032082Y-82427390D01*
X157032091Y-82427393D01*
X157081066Y-82437134D01*
X157081066Y-81651399D01*
X157131512Y-81701845D01*
X157205621Y-81744632D01*
X157288279Y-81766781D01*
X157373853Y-81766781D01*
X157456511Y-81744632D01*
X157530620Y-81701845D01*
X157581066Y-81651399D01*
X157581066Y-82437133D01*
X157630040Y-82427393D01*
X157630049Y-82427390D01*
X157816579Y-82350128D01*
X157816592Y-82350121D01*
X157984465Y-82237951D01*
X157984469Y-82237948D01*
X158127233Y-82095184D01*
X158127236Y-82095180D01*
X158239406Y-81927307D01*
X158239413Y-81927294D01*
X158316675Y-81740764D01*
X158316678Y-81740755D01*
X158356065Y-81542739D01*
X158356066Y-81542736D01*
X158356066Y-81491781D01*
X157654133Y-81491781D01*
X157656066Y-81484568D01*
X157656066Y-81057727D01*
X169555566Y-81057727D01*
X169555566Y-81365834D01*
X169555567Y-81365850D01*
X169595783Y-81671323D01*
X169675530Y-81968943D01*
X169793442Y-82253607D01*
X169793447Y-82253618D01*
X169849164Y-82350121D01*
X169947504Y-82520451D01*
X169947506Y-82520454D01*
X169947507Y-82520455D01*
X170135073Y-82764896D01*
X170135079Y-82764903D01*
X170352943Y-82982767D01*
X170352949Y-82982772D01*
X170597396Y-83170343D01*
X170768896Y-83269359D01*
X170864228Y-83324399D01*
X170864233Y-83324401D01*
X170864236Y-83324403D01*
X171148902Y-83442316D01*
X171446522Y-83522063D01*
X171752006Y-83562281D01*
X171752013Y-83562281D01*
X172060119Y-83562281D01*
X172060126Y-83562281D01*
X172365610Y-83522063D01*
X172663230Y-83442316D01*
X172947896Y-83324403D01*
X173214736Y-83170343D01*
X173459183Y-82982772D01*
X173677057Y-82764898D01*
X173864628Y-82520451D01*
X174018688Y-82253611D01*
X174136601Y-81968945D01*
X174216348Y-81671325D01*
X174256566Y-81365841D01*
X174256566Y-81057721D01*
X174216348Y-80752237D01*
X174136601Y-80454617D01*
X174018688Y-80169951D01*
X174018686Y-80169948D01*
X174018684Y-80169943D01*
X173935268Y-80025464D01*
X173864628Y-79903111D01*
X173700959Y-79689814D01*
X173677058Y-79658665D01*
X173677052Y-79658658D01*
X173459188Y-79440794D01*
X173459181Y-79440788D01*
X173214740Y-79253222D01*
X173214739Y-79253221D01*
X173214736Y-79253219D01*
X173097642Y-79185615D01*
X172947903Y-79099162D01*
X172947892Y-79099157D01*
X172663228Y-78981245D01*
X172365608Y-78901498D01*
X172060135Y-78861282D01*
X172060132Y-78861281D01*
X172060126Y-78861281D01*
X171752006Y-78861281D01*
X171752000Y-78861281D01*
X171751996Y-78861282D01*
X171446523Y-78901498D01*
X171148903Y-78981245D01*
X170864239Y-79099157D01*
X170864228Y-79099162D01*
X170597391Y-79253222D01*
X170352950Y-79440788D01*
X170352943Y-79440794D01*
X170135079Y-79658658D01*
X170135073Y-79658665D01*
X169947507Y-79903106D01*
X169793447Y-80169943D01*
X169793442Y-80169954D01*
X169675530Y-80454618D01*
X169595783Y-80752238D01*
X169555567Y-81057711D01*
X169555566Y-81057727D01*
X157656066Y-81057727D01*
X157656066Y-80998994D01*
X157654133Y-80991781D01*
X158356066Y-80991781D01*
X158356066Y-80940826D01*
X158356065Y-80940822D01*
X158316678Y-80742806D01*
X158316675Y-80742797D01*
X158238868Y-80554952D01*
X158231399Y-80485483D01*
X158262674Y-80423004D01*
X158322764Y-80387352D01*
X158353429Y-80383500D01*
X159837963Y-80383500D01*
X159837963Y-80383499D01*
X159876226Y-80372263D01*
X159899902Y-80365312D01*
X159902681Y-80364531D01*
X159959186Y-80349392D01*
X159959189Y-80349389D01*
X159965367Y-80346832D01*
X159974996Y-80343434D01*
X159976045Y-80342955D01*
X159976053Y-80342953D01*
X160024087Y-80312082D01*
X160029102Y-80309025D01*
X160073314Y-80283500D01*
X160073321Y-80283492D01*
X160077828Y-80280035D01*
X160093067Y-80267752D01*
X160097128Y-80265143D01*
X160129653Y-80227605D01*
X160135673Y-80221140D01*
X160135677Y-80221136D01*
X160166500Y-80190314D01*
X160169628Y-80184894D01*
X160183306Y-80165687D01*
X160191377Y-80156373D01*
X160208912Y-80117974D01*
X160214311Y-80107502D01*
X160232392Y-80076186D01*
X160235952Y-80062898D01*
X160242934Y-80043479D01*
X160251164Y-80025459D01*
X160251163Y-80025459D01*
X160251165Y-80025457D01*
X160256111Y-79991053D01*
X160259074Y-79976606D01*
X160260263Y-79972165D01*
X160266500Y-79948892D01*
X160266500Y-79927667D01*
X160267762Y-79910020D01*
X160271647Y-79882999D01*
X160267762Y-79855977D01*
X160266500Y-79838331D01*
X160266500Y-79817110D01*
X160266500Y-79817108D01*
X160259073Y-79789390D01*
X160256111Y-79774946D01*
X160251165Y-79740545D01*
X160251165Y-79740543D01*
X160242928Y-79722509D01*
X160235949Y-79703091D01*
X160232392Y-79689814D01*
X160214316Y-79658506D01*
X160208911Y-79648020D01*
X160191380Y-79609633D01*
X160191379Y-79609631D01*
X160191377Y-79609627D01*
X160191372Y-79609621D01*
X160183306Y-79600312D01*
X160169628Y-79581104D01*
X160166499Y-79575685D01*
X160135677Y-79544863D01*
X160129659Y-79538401D01*
X160097128Y-79500857D01*
X160097125Y-79500854D01*
X160093066Y-79498246D01*
X160077793Y-79485937D01*
X160073318Y-79482504D01*
X160073314Y-79482500D01*
X160061404Y-79475623D01*
X160029121Y-79456984D01*
X160024085Y-79453915D01*
X160003662Y-79440790D01*
X159976053Y-79423047D01*
X159976051Y-79423046D01*
X159976049Y-79423045D01*
X159975004Y-79422567D01*
X159965375Y-79419171D01*
X159959192Y-79416610D01*
X159959187Y-79416608D01*
X159959186Y-79416608D01*
X159902701Y-79401473D01*
X159899862Y-79400675D01*
X159837963Y-79382500D01*
X159837961Y-79382500D01*
X159831892Y-79382500D01*
X158626967Y-79382500D01*
X158559928Y-79362815D01*
X158514173Y-79310011D01*
X158504229Y-79240853D01*
X158526649Y-79185615D01*
X158614631Y-79064515D01*
X158696813Y-78903228D01*
X158696814Y-78903225D01*
X158752748Y-78731074D01*
X158781066Y-78552287D01*
X158781066Y-78461781D01*
X157981066Y-78461781D01*
X157981066Y-77961781D01*
X158781066Y-77961781D01*
X158781066Y-77871274D01*
X158752748Y-77692487D01*
X158696814Y-77520336D01*
X158696813Y-77520333D01*
X158614631Y-77359046D01*
X158508242Y-77212611D01*
X158380235Y-77084604D01*
X158233800Y-76978215D01*
X158172079Y-76946766D01*
X158121283Y-76898791D01*
X158104488Y-76830970D01*
X158127026Y-76764835D01*
X158181741Y-76721384D01*
X158228374Y-76712281D01*
X176281566Y-76712281D01*
X176348605Y-76731966D01*
X176394360Y-76784770D01*
X176405566Y-76836281D01*
X176405566Y-125587281D01*
X176385881Y-125654320D01*
X176333077Y-125700075D01*
X176281566Y-125711281D01*
X127530566Y-125711281D01*
X127463527Y-125691596D01*
X127417772Y-125638792D01*
X127406566Y-125587281D01*
X127406566Y-121557727D01*
X129555566Y-121557727D01*
X129555566Y-121865834D01*
X129555567Y-121865850D01*
X129595783Y-122171323D01*
X129675530Y-122468943D01*
X129793442Y-122753607D01*
X129793447Y-122753618D01*
X129886080Y-122914061D01*
X129947504Y-123020451D01*
X129947506Y-123020454D01*
X129947507Y-123020455D01*
X130135073Y-123264896D01*
X130135079Y-123264903D01*
X130352943Y-123482767D01*
X130352949Y-123482772D01*
X130597396Y-123670343D01*
X130768896Y-123769359D01*
X130864228Y-123824399D01*
X130864233Y-123824401D01*
X130864236Y-123824403D01*
X131148902Y-123942316D01*
X131446522Y-124022063D01*
X131752006Y-124062281D01*
X131752013Y-124062281D01*
X132060119Y-124062281D01*
X132060126Y-124062281D01*
X132365610Y-124022063D01*
X132663230Y-123942316D01*
X132947896Y-123824403D01*
X133214736Y-123670343D01*
X133459183Y-123482772D01*
X133677057Y-123264898D01*
X133864628Y-123020451D01*
X134018688Y-122753611D01*
X134136601Y-122468945D01*
X134216348Y-122171325D01*
X134256566Y-121865841D01*
X134256566Y-121557727D01*
X170055566Y-121557727D01*
X170055566Y-121865834D01*
X170055567Y-121865850D01*
X170095783Y-122171323D01*
X170175530Y-122468943D01*
X170293442Y-122753607D01*
X170293447Y-122753618D01*
X170386080Y-122914061D01*
X170447504Y-123020451D01*
X170447506Y-123020454D01*
X170447507Y-123020455D01*
X170635073Y-123264896D01*
X170635079Y-123264903D01*
X170852943Y-123482767D01*
X170852949Y-123482772D01*
X171097396Y-123670343D01*
X171268896Y-123769359D01*
X171364228Y-123824399D01*
X171364233Y-123824401D01*
X171364236Y-123824403D01*
X171648902Y-123942316D01*
X171946522Y-124022063D01*
X172252006Y-124062281D01*
X172252013Y-124062281D01*
X172560119Y-124062281D01*
X172560126Y-124062281D01*
X172865610Y-124022063D01*
X173163230Y-123942316D01*
X173447896Y-123824403D01*
X173714736Y-123670343D01*
X173959183Y-123482772D01*
X174177057Y-123264898D01*
X174364628Y-123020451D01*
X174518688Y-122753611D01*
X174636601Y-122468945D01*
X174716348Y-122171325D01*
X174756566Y-121865841D01*
X174756566Y-121557721D01*
X174716348Y-121252237D01*
X174636601Y-120954617D01*
X174518688Y-120669951D01*
X174518686Y-120669948D01*
X174518684Y-120669943D01*
X174463644Y-120574611D01*
X174364628Y-120403111D01*
X174177057Y-120158664D01*
X174177052Y-120158658D01*
X173959188Y-119940794D01*
X173959181Y-119940788D01*
X173714740Y-119753222D01*
X173714739Y-119753221D01*
X173714736Y-119753219D01*
X173608346Y-119691795D01*
X173447903Y-119599162D01*
X173447892Y-119599157D01*
X173163228Y-119481245D01*
X172865608Y-119401498D01*
X172560135Y-119361282D01*
X172560132Y-119361281D01*
X172560126Y-119361281D01*
X172252006Y-119361281D01*
X172252000Y-119361281D01*
X172251996Y-119361282D01*
X171946523Y-119401498D01*
X171648903Y-119481245D01*
X171364239Y-119599157D01*
X171364228Y-119599162D01*
X171097391Y-119753222D01*
X170852950Y-119940788D01*
X170852943Y-119940794D01*
X170635079Y-120158658D01*
X170635073Y-120158665D01*
X170447507Y-120403106D01*
X170293447Y-120669943D01*
X170293442Y-120669954D01*
X170175530Y-120954618D01*
X170095783Y-121252238D01*
X170055567Y-121557711D01*
X170055566Y-121557727D01*
X134256566Y-121557727D01*
X134256566Y-121557721D01*
X134216348Y-121252237D01*
X134136601Y-120954617D01*
X134018688Y-120669951D01*
X134018686Y-120669948D01*
X134018684Y-120669943D01*
X133963644Y-120574611D01*
X133864628Y-120403111D01*
X133677057Y-120158664D01*
X133677052Y-120158658D01*
X133459188Y-119940794D01*
X133459181Y-119940788D01*
X133214740Y-119753222D01*
X133214739Y-119753221D01*
X133214736Y-119753219D01*
X133108346Y-119691795D01*
X132947903Y-119599162D01*
X132947892Y-119599157D01*
X132663228Y-119481245D01*
X132365608Y-119401498D01*
X132060135Y-119361282D01*
X132060132Y-119361281D01*
X132060126Y-119361281D01*
X131752006Y-119361281D01*
X131752000Y-119361281D01*
X131751996Y-119361282D01*
X131446523Y-119401498D01*
X131148903Y-119481245D01*
X130864239Y-119599157D01*
X130864228Y-119599162D01*
X130597391Y-119753222D01*
X130352950Y-119940788D01*
X130352943Y-119940794D01*
X130135079Y-120158658D01*
X130135073Y-120158665D01*
X129947507Y-120403106D01*
X129793447Y-120669943D01*
X129793442Y-120669954D01*
X129675530Y-120954618D01*
X129595783Y-121252238D01*
X129555567Y-121557711D01*
X129555566Y-121557727D01*
X127406566Y-121557727D01*
X127406566Y-107147273D01*
X153649500Y-107147273D01*
X153649500Y-108890726D01*
X153676793Y-108992589D01*
X153703156Y-109038250D01*
X153729520Y-109083913D01*
X153729522Y-109083915D01*
X154415369Y-109769762D01*
X154448854Y-109831085D01*
X154450426Y-109839795D01*
X154454835Y-109870457D01*
X154514623Y-110001373D01*
X154608872Y-110110143D01*
X154729947Y-110187953D01*
X154729950Y-110187954D01*
X154729949Y-110187954D01*
X154868036Y-110228499D01*
X154868038Y-110228500D01*
X154868039Y-110228500D01*
X155011962Y-110228500D01*
X155011962Y-110228499D01*
X155150053Y-110187953D01*
X155271128Y-110110143D01*
X155365377Y-110001373D01*
X155425165Y-109870457D01*
X155445647Y-109728000D01*
X155425165Y-109585543D01*
X155365377Y-109454627D01*
X155271128Y-109345857D01*
X155236581Y-109323655D01*
X155150051Y-109268045D01*
X155033736Y-109233893D01*
X154980990Y-109202597D01*
X154486819Y-108708426D01*
X154453334Y-108647103D01*
X154450500Y-108620745D01*
X154450500Y-107683801D01*
X154470185Y-107616762D01*
X154507458Y-107579487D01*
X154581128Y-107532143D01*
X154675377Y-107423373D01*
X154735165Y-107292457D01*
X154755647Y-107150000D01*
X154735165Y-107007543D01*
X154675377Y-106876627D01*
X154581128Y-106767857D01*
X154460053Y-106690047D01*
X154460051Y-106690046D01*
X154460049Y-106690045D01*
X154460050Y-106690045D01*
X154321963Y-106649500D01*
X154321961Y-106649500D01*
X154178039Y-106649500D01*
X154178036Y-106649500D01*
X154039949Y-106690045D01*
X153918872Y-106767856D01*
X153853818Y-106842932D01*
X153822112Y-106869112D01*
X153804090Y-106879518D01*
X153804084Y-106879522D01*
X153729521Y-106954085D01*
X153676794Y-107045410D01*
X153676793Y-107045413D01*
X153649500Y-107147273D01*
X127406566Y-107147273D01*
X127406566Y-100250000D01*
X152044353Y-100250000D01*
X152064834Y-100392456D01*
X152104123Y-100478485D01*
X152124623Y-100523373D01*
X152124627Y-100523378D01*
X152129418Y-100530833D01*
X152126364Y-100532795D01*
X152148235Y-100580663D01*
X152149500Y-100598332D01*
X152149500Y-101102726D01*
X152176793Y-101204589D01*
X152203156Y-101250250D01*
X152229520Y-101295913D01*
X152229522Y-101295915D01*
X153875369Y-102941762D01*
X153908854Y-103003085D01*
X153910426Y-103011795D01*
X153914835Y-103042457D01*
X153974623Y-103173373D01*
X154068872Y-103282143D01*
X154189947Y-103359953D01*
X154189950Y-103359954D01*
X154189949Y-103359954D01*
X154328036Y-103400499D01*
X154328038Y-103400500D01*
X154328039Y-103400500D01*
X154471962Y-103400500D01*
X154471962Y-103400499D01*
X154610053Y-103359953D01*
X154731128Y-103282143D01*
X154825377Y-103173373D01*
X154885165Y-103042457D01*
X154905647Y-102900000D01*
X154885165Y-102757543D01*
X154825377Y-102626627D01*
X154731128Y-102517857D01*
X154696581Y-102495655D01*
X154610051Y-102440045D01*
X154493736Y-102405893D01*
X154440990Y-102374597D01*
X152986819Y-100920426D01*
X152953334Y-100859103D01*
X152950500Y-100832745D01*
X152950500Y-100598332D01*
X152970185Y-100531293D01*
X152970901Y-100530336D01*
X152975368Y-100523382D01*
X152975377Y-100523373D01*
X153035165Y-100392457D01*
X153055647Y-100250000D01*
X153035165Y-100107543D01*
X152975377Y-99976627D01*
X152881128Y-99867857D01*
X152760053Y-99790047D01*
X152760051Y-99790046D01*
X152760049Y-99790045D01*
X152760050Y-99790045D01*
X152621963Y-99749500D01*
X152621961Y-99749500D01*
X152478039Y-99749500D01*
X152478036Y-99749500D01*
X152339949Y-99790045D01*
X152218873Y-99867856D01*
X152124623Y-99976626D01*
X152124622Y-99976628D01*
X152064834Y-100107543D01*
X152044353Y-100250000D01*
X127406566Y-100250000D01*
X127406566Y-81057727D01*
X129555566Y-81057727D01*
X129555566Y-81365834D01*
X129555567Y-81365850D01*
X129595783Y-81671323D01*
X129675530Y-81968943D01*
X129793442Y-82253607D01*
X129793447Y-82253618D01*
X129849164Y-82350121D01*
X129947504Y-82520451D01*
X129947506Y-82520454D01*
X129947507Y-82520455D01*
X130135073Y-82764896D01*
X130135079Y-82764903D01*
X130352943Y-82982767D01*
X130352949Y-82982772D01*
X130597396Y-83170343D01*
X130768896Y-83269359D01*
X130864228Y-83324399D01*
X130864233Y-83324401D01*
X130864236Y-83324403D01*
X131148902Y-83442316D01*
X131446522Y-83522063D01*
X131752006Y-83562281D01*
X131752013Y-83562281D01*
X132060119Y-83562281D01*
X132060126Y-83562281D01*
X132365610Y-83522063D01*
X132663230Y-83442316D01*
X132947896Y-83324403D01*
X133214736Y-83170343D01*
X133459183Y-82982772D01*
X133677057Y-82764898D01*
X133864628Y-82520451D01*
X134018688Y-82253611D01*
X134136601Y-81968945D01*
X134216348Y-81671325D01*
X134256566Y-81365841D01*
X134256566Y-81057721D01*
X134216348Y-80752237D01*
X134136601Y-80454617D01*
X134018688Y-80169951D01*
X134018686Y-80169948D01*
X134018684Y-80169943D01*
X133935268Y-80025464D01*
X133864628Y-79903111D01*
X133700959Y-79689814D01*
X133677058Y-79658665D01*
X133677052Y-79658658D01*
X133459188Y-79440794D01*
X133459181Y-79440788D01*
X133214740Y-79253222D01*
X133214739Y-79253221D01*
X133214736Y-79253219D01*
X133097642Y-79185615D01*
X132947903Y-79099162D01*
X132947892Y-79099157D01*
X132663228Y-78981245D01*
X132365608Y-78901498D01*
X132060135Y-78861282D01*
X132060132Y-78861281D01*
X132060126Y-78861281D01*
X131752006Y-78861281D01*
X131752000Y-78861281D01*
X131751996Y-78861282D01*
X131446523Y-78901498D01*
X131148903Y-78981245D01*
X130864239Y-79099157D01*
X130864228Y-79099162D01*
X130597391Y-79253222D01*
X130352950Y-79440788D01*
X130352943Y-79440794D01*
X130135079Y-79658658D01*
X130135073Y-79658665D01*
X129947507Y-79903106D01*
X129793447Y-80169943D01*
X129793442Y-80169954D01*
X129675530Y-80454618D01*
X129595783Y-80752238D01*
X129555567Y-81057711D01*
X129555566Y-81057727D01*
X127406566Y-81057727D01*
X127406566Y-76836281D01*
X127426251Y-76769242D01*
X127479055Y-76723487D01*
X127530566Y-76712281D01*
X151583758Y-76712281D01*
X151650797Y-76731966D01*
G37*
G04 #@! TD.AperFunction*
G04 #@! TA.AperFunction,Conductor*
G36*
X157100797Y-76731966D02*
G01*
X157146552Y-76784770D01*
X157156496Y-76853928D01*
X157127471Y-76917484D01*
X157090053Y-76946766D01*
X157028331Y-76978215D01*
X156881896Y-77084604D01*
X156753889Y-77212611D01*
X156647500Y-77359046D01*
X156565318Y-77520333D01*
X156565317Y-77520336D01*
X156509383Y-77692487D01*
X156481066Y-77871274D01*
X156481066Y-77961781D01*
X157281066Y-77961781D01*
X157281066Y-78461781D01*
X156481066Y-78461781D01*
X156481066Y-78552287D01*
X156509383Y-78731074D01*
X156565317Y-78903225D01*
X156565318Y-78903228D01*
X156647500Y-79064515D01*
X156735483Y-79185615D01*
X156758963Y-79251421D01*
X156743137Y-79319475D01*
X156693031Y-79368170D01*
X156635165Y-79382500D01*
X153176967Y-79382500D01*
X153109928Y-79362815D01*
X153064173Y-79310011D01*
X153054229Y-79240853D01*
X153076649Y-79185615D01*
X153164631Y-79064515D01*
X153246813Y-78903228D01*
X153246814Y-78903225D01*
X153302748Y-78731074D01*
X153331066Y-78552287D01*
X153331066Y-78461781D01*
X152531066Y-78461781D01*
X152531066Y-77961781D01*
X153331066Y-77961781D01*
X153331066Y-77871274D01*
X153302748Y-77692487D01*
X153246814Y-77520336D01*
X153246813Y-77520333D01*
X153164631Y-77359046D01*
X153058242Y-77212611D01*
X152930235Y-77084604D01*
X152783800Y-76978215D01*
X152722079Y-76946766D01*
X152671283Y-76898791D01*
X152654488Y-76830970D01*
X152677026Y-76764835D01*
X152731741Y-76721384D01*
X152778374Y-76712281D01*
X157033758Y-76712281D01*
X157100797Y-76731966D01*
G37*
G04 #@! TD.AperFunction*
G04 #@! TD*
M02*
