G04 #@! TF.GenerationSoftware,KiCad,Pcbnew,8.0.5*
G04 #@! TF.CreationDate,2024-09-17T16:22:35-07:00*
G04 #@! TF.ProjectId,RP2040_PCB,52503230-3430-45f5-9043-422e6b696361,rev?*
G04 #@! TF.SameCoordinates,Original*
G04 #@! TF.FileFunction,Copper,L1,Top*
G04 #@! TF.FilePolarity,Positive*
%FSLAX46Y46*%
G04 Gerber Fmt 4.6, Leading zero omitted, Abs format (unit mm)*
G04 Created by KiCad (PCBNEW 8.0.5) date 2024-09-17 16:22:35*
%MOMM*%
%LPD*%
G01*
G04 APERTURE LIST*
G04 Aperture macros list*
%AMRoundRect*
0 Rectangle with rounded corners*
0 $1 Rounding radius*
0 $2 $3 $4 $5 $6 $7 $8 $9 X,Y pos of 4 corners*
0 Add a 4 corners polygon primitive as box body*
4,1,4,$2,$3,$4,$5,$6,$7,$8,$9,$2,$3,0*
0 Add four circle primitives for the rounded corners*
1,1,$1+$1,$2,$3*
1,1,$1+$1,$4,$5*
1,1,$1+$1,$6,$7*
1,1,$1+$1,$8,$9*
0 Add four rect primitives between the rounded corners*
20,1,$1+$1,$2,$3,$4,$5,0*
20,1,$1+$1,$4,$5,$6,$7,0*
20,1,$1+$1,$6,$7,$8,$9,0*
20,1,$1+$1,$8,$9,$2,$3,0*%
%AMFreePoly0*
4,1,6,0.500000,-0.850000,-0.500000,-0.850000,-0.500000,0.550000,-0.200000,0.850000,0.500000,0.850000,0.500000,-0.850000,0.500000,-0.850000,$1*%
G04 Aperture macros list end*
G04 #@! TA.AperFunction,SMDPad,CuDef*
%ADD10RoundRect,0.135000X-0.185000X0.135000X-0.185000X-0.135000X0.185000X-0.135000X0.185000X0.135000X0*%
G04 #@! TD*
G04 #@! TA.AperFunction,SMDPad,CuDef*
%ADD11RoundRect,0.250000X-0.250000X-0.475000X0.250000X-0.475000X0.250000X0.475000X-0.250000X0.475000X0*%
G04 #@! TD*
G04 #@! TA.AperFunction,SMDPad,CuDef*
%ADD12RoundRect,0.140000X0.140000X0.170000X-0.140000X0.170000X-0.140000X-0.170000X0.140000X-0.170000X0*%
G04 #@! TD*
G04 #@! TA.AperFunction,SMDPad,CuDef*
%ADD13RoundRect,0.140000X-0.140000X-0.170000X0.140000X-0.170000X0.140000X0.170000X-0.140000X0.170000X0*%
G04 #@! TD*
G04 #@! TA.AperFunction,SMDPad,CuDef*
%ADD14R,1.550000X1.300000*%
G04 #@! TD*
G04 #@! TA.AperFunction,SMDPad,CuDef*
%ADD15RoundRect,0.140000X-0.170000X0.140000X-0.170000X-0.140000X0.170000X-0.140000X0.170000X0.140000X0*%
G04 #@! TD*
G04 #@! TA.AperFunction,SMDPad,CuDef*
%ADD16RoundRect,0.140000X0.170000X-0.140000X0.170000X0.140000X-0.170000X0.140000X-0.170000X-0.140000X0*%
G04 #@! TD*
G04 #@! TA.AperFunction,SMDPad,CuDef*
%ADD17RoundRect,0.135000X0.135000X0.185000X-0.135000X0.185000X-0.135000X-0.185000X0.135000X-0.185000X0*%
G04 #@! TD*
G04 #@! TA.AperFunction,SMDPad,CuDef*
%ADD18RoundRect,0.375000X-0.375000X0.625000X-0.375000X-0.625000X0.375000X-0.625000X0.375000X0.625000X0*%
G04 #@! TD*
G04 #@! TA.AperFunction,SMDPad,CuDef*
%ADD19RoundRect,0.500000X-1.400000X0.500000X-1.400000X-0.500000X1.400000X-0.500000X1.400000X0.500000X0*%
G04 #@! TD*
G04 #@! TA.AperFunction,SMDPad,CuDef*
%ADD20R,0.550000X0.250000*%
G04 #@! TD*
G04 #@! TA.AperFunction,SMDPad,CuDef*
%ADD21FreePoly0,180.000000*%
G04 #@! TD*
G04 #@! TA.AperFunction,SMDPad,CuDef*
%ADD22RoundRect,0.050000X-0.387500X-0.050000X0.387500X-0.050000X0.387500X0.050000X-0.387500X0.050000X0*%
G04 #@! TD*
G04 #@! TA.AperFunction,SMDPad,CuDef*
%ADD23RoundRect,0.050000X-0.050000X-0.387500X0.050000X-0.387500X0.050000X0.387500X-0.050000X0.387500X0*%
G04 #@! TD*
G04 #@! TA.AperFunction,ComponentPad*
%ADD24C,0.600000*%
G04 #@! TD*
G04 #@! TA.AperFunction,SMDPad,CuDef*
%ADD25RoundRect,0.144000X-1.456000X-1.456000X1.456000X-1.456000X1.456000X1.456000X-1.456000X1.456000X0*%
G04 #@! TD*
G04 #@! TA.AperFunction,SMDPad,CuDef*
%ADD26R,0.400000X1.750000*%
G04 #@! TD*
G04 #@! TA.AperFunction,SMDPad,CuDef*
%ADD27R,1.825000X0.700000*%
G04 #@! TD*
G04 #@! TA.AperFunction,SMDPad,CuDef*
%ADD28R,2.000000X1.460000*%
G04 #@! TD*
G04 #@! TA.AperFunction,SMDPad,CuDef*
%ADD29RoundRect,0.384800X0.265200X1.240200X-0.265200X1.240200X-0.265200X-1.240200X0.265200X-1.240200X0*%
G04 #@! TD*
G04 #@! TA.AperFunction,ComponentPad*
%ADD30O,1.300000X1.800000*%
G04 #@! TD*
G04 #@! TA.AperFunction,ComponentPad*
%ADD31O,1.050000X1.450000*%
G04 #@! TD*
G04 #@! TA.AperFunction,SMDPad,CuDef*
%ADD32R,1.425000X2.500000*%
G04 #@! TD*
G04 #@! TA.AperFunction,SMDPad,CuDef*
%ADD33R,1.400000X1.200000*%
G04 #@! TD*
G04 #@! TA.AperFunction,ViaPad*
%ADD34C,0.600000*%
G04 #@! TD*
G04 #@! TA.AperFunction,Conductor*
%ADD35C,0.200000*%
G04 #@! TD*
G04 #@! TA.AperFunction,Conductor*
%ADD36C,0.400000*%
G04 #@! TD*
G04 APERTURE END LIST*
D10*
G04 #@! TO.P,R5,1*
G04 #@! TO.N,/USB_D-*
X155500000Y-98151781D03*
G04 #@! TO.P,R5,2*
G04 #@! TO.N,Net-(U3-USB_DM)*
X155500000Y-99171781D03*
G04 #@! TD*
D11*
G04 #@! TO.P,C4,1*
G04 #@! TO.N,+3V3*
X164456066Y-96711781D03*
G04 #@! TO.P,C4,2*
G04 #@! TO.N,GND*
X166356066Y-96711781D03*
G04 #@! TD*
D12*
G04 #@! TO.P,C15,1*
G04 #@! TO.N,+3V3*
X147886066Y-106211781D03*
G04 #@! TO.P,C15,2*
G04 #@! TO.N,GND*
X146926066Y-106211781D03*
G04 #@! TD*
D13*
G04 #@! TO.P,C2,1*
G04 #@! TO.N,Net-(C2-Pad1)*
X154926066Y-114711781D03*
G04 #@! TO.P,C2,2*
G04 #@! TO.N,GND*
X155886066Y-114711781D03*
G04 #@! TD*
D14*
G04 #@! TO.P,SW2,1,1*
G04 #@! TO.N,GND*
X140886066Y-89211781D03*
X148836066Y-89211781D03*
G04 #@! TO.P,SW2,2,2*
G04 #@! TO.N,/~{USB_BOOT}*
X140886066Y-93711781D03*
X148836066Y-93711781D03*
G04 #@! TD*
D15*
G04 #@! TO.P,C13,1*
G04 #@! TO.N,+3V3*
X154906066Y-110701781D03*
G04 #@! TO.P,C13,2*
G04 #@! TO.N,GND*
X154906066Y-111661781D03*
G04 #@! TD*
D13*
G04 #@! TO.P,C9,1*
G04 #@! TO.N,+3V3*
X158900000Y-105250000D03*
G04 #@! TO.P,C9,2*
G04 #@! TO.N,GND*
X159860000Y-105250000D03*
G04 #@! TD*
G04 #@! TO.P,C10,1*
G04 #@! TO.N,+3V3*
X161000000Y-100900000D03*
G04 #@! TO.P,C10,2*
G04 #@! TO.N,GND*
X161960000Y-100900000D03*
G04 #@! TD*
D15*
G04 #@! TO.P,C6,1*
G04 #@! TO.N,+1V1*
X156406066Y-110721781D03*
G04 #@! TO.P,C6,2*
G04 #@! TO.N,GND*
X156406066Y-111681781D03*
G04 #@! TD*
D16*
G04 #@! TO.P,C16,1*
G04 #@! TO.N,+3V3*
X157700000Y-99131781D03*
G04 #@! TO.P,C16,2*
G04 #@! TO.N,GND*
X157700000Y-98171781D03*
G04 #@! TD*
D10*
G04 #@! TO.P,R4,1*
G04 #@! TO.N,/USB_D+*
X154400000Y-98130000D03*
G04 #@! TO.P,R4,2*
G04 #@! TO.N,Net-(U3-USB_DP)*
X154400000Y-99150000D03*
G04 #@! TD*
D13*
G04 #@! TO.P,C11,1*
G04 #@! TO.N,+3V3*
X158926066Y-106711781D03*
G04 #@! TO.P,C11,2*
G04 #@! TO.N,GND*
X159886066Y-106711781D03*
G04 #@! TD*
D11*
G04 #@! TO.P,C3,1*
G04 #@! TO.N,VBUS*
X163406066Y-83711781D03*
G04 #@! TO.P,C3,2*
G04 #@! TO.N,GND*
X165306066Y-83711781D03*
G04 #@! TD*
D17*
G04 #@! TO.P,R6,1*
G04 #@! TO.N,/GPIO0*
X146916066Y-102711781D03*
G04 #@! TO.P,R6,2*
G04 #@! TO.N,Net-(U4-SCL)*
X145896066Y-102711781D03*
G04 #@! TD*
D12*
G04 #@! TO.P,C1,1*
G04 #@! TO.N,/XIN*
X152866066Y-114711781D03*
G04 #@! TO.P,C1,2*
G04 #@! TO.N,GND*
X151906066Y-114711781D03*
G04 #@! TD*
D13*
G04 #@! TO.P,C14,1*
G04 #@! TO.N,+3V3*
X160990000Y-99650000D03*
G04 #@! TO.P,C14,2*
G04 #@! TO.N,GND*
X161950000Y-99650000D03*
G04 #@! TD*
D16*
G04 #@! TO.P,C8,1*
G04 #@! TO.N,+1V1*
X156600000Y-99140000D03*
G04 #@! TO.P,C8,2*
G04 #@! TO.N,GND*
X156600000Y-98180000D03*
G04 #@! TD*
D18*
G04 #@! TO.P,U1,1,GND*
G04 #@! TO.N,GND*
X167006066Y-87561781D03*
G04 #@! TO.P,U1,2,VO*
G04 #@! TO.N,+3V3*
X164706066Y-87561781D03*
D19*
X164706066Y-93861781D03*
D18*
G04 #@! TO.P,U1,3,VI*
G04 #@! TO.N,VBUS*
X162406066Y-87561781D03*
G04 #@! TD*
D16*
G04 #@! TO.P,C12,1*
G04 #@! TO.N,+3V3*
X153300000Y-98200000D03*
G04 #@! TO.P,C12,2*
G04 #@! TO.N,GND*
X153300000Y-97240000D03*
G04 #@! TD*
D12*
G04 #@! TO.P,C5,1*
G04 #@! TO.N,+3V3*
X141030000Y-101270000D03*
G04 #@! TO.P,C5,2*
G04 #@! TO.N,GND*
X140070000Y-101270000D03*
G04 #@! TD*
D16*
G04 #@! TO.P,C7,1*
G04 #@! TO.N,+1V1*
X152150000Y-98171781D03*
G04 #@! TO.P,C7,2*
G04 #@! TO.N,GND*
X152150000Y-97211781D03*
G04 #@! TD*
D20*
G04 #@! TO.P,U4,1,SDA*
G04 #@! TO.N,Net-(U4-SDA)*
X143406066Y-104211781D03*
G04 #@! TO.P,U4,2,ADDR*
G04 #@! TO.N,GND*
X143406066Y-103711781D03*
G04 #@! TO.P,U4,3,ALERT*
G04 #@! TO.N,unconnected-(U4-ALERT-Pad3)*
X143406066Y-103211781D03*
G04 #@! TO.P,U4,4,SCL*
G04 #@! TO.N,Net-(U4-SCL)*
X143406066Y-102711781D03*
G04 #@! TO.P,U4,5,VDD*
G04 #@! TO.N,+3V3*
X141056066Y-102711781D03*
G04 #@! TO.P,U4,6,~{RESET}*
G04 #@! TO.N,unconnected-(U4-~{RESET}-Pad6)*
X141056066Y-103211781D03*
G04 #@! TO.P,U4,7,R*
G04 #@! TO.N,GND*
X141056066Y-103711781D03*
G04 #@! TO.P,U4,8,VSS*
X141056066Y-104211781D03*
D21*
G04 #@! TO.P,U4,9,VSS*
X142231066Y-103461781D03*
G04 #@! TD*
D22*
G04 #@! TO.P,U3,1,IOVDD*
G04 #@! TO.N,+3V3*
X150031066Y-102411781D03*
G04 #@! TO.P,U3,2,GPIO0*
G04 #@! TO.N,/GPIO0*
X150031066Y-102811781D03*
G04 #@! TO.P,U3,3,GPIO1*
G04 #@! TO.N,/GPIO1*
X150031066Y-103211781D03*
G04 #@! TO.P,U3,4,GPIO2*
G04 #@! TO.N,unconnected-(U3-GPIO2-Pad4)*
X150031066Y-103611781D03*
G04 #@! TO.P,U3,5,GPIO3*
G04 #@! TO.N,unconnected-(U3-GPIO3-Pad5)*
X150031066Y-104011781D03*
G04 #@! TO.P,U3,6,GPIO4*
G04 #@! TO.N,unconnected-(U3-GPIO4-Pad6)*
X150031066Y-104411781D03*
G04 #@! TO.P,U3,7,GPIO5*
G04 #@! TO.N,unconnected-(U3-GPIO5-Pad7)*
X150031066Y-104811781D03*
G04 #@! TO.P,U3,8,GPIO6*
G04 #@! TO.N,unconnected-(U3-GPIO6-Pad8)*
X150031066Y-105211781D03*
G04 #@! TO.P,U3,9,GPIO7*
G04 #@! TO.N,unconnected-(U3-GPIO7-Pad9)*
X150031066Y-105611781D03*
G04 #@! TO.P,U3,10,IOVDD*
G04 #@! TO.N,+3V3*
X150031066Y-106011781D03*
G04 #@! TO.P,U3,11,GPIO8*
G04 #@! TO.N,unconnected-(U3-GPIO8-Pad11)*
X150031066Y-106411781D03*
G04 #@! TO.P,U3,12,GPIO9*
G04 #@! TO.N,unconnected-(U3-GPIO9-Pad12)*
X150031066Y-106811781D03*
G04 #@! TO.P,U3,13,GPIO10*
G04 #@! TO.N,unconnected-(U3-GPIO10-Pad13)*
X150031066Y-107211781D03*
G04 #@! TO.P,U3,14,GPIO11*
G04 #@! TO.N,unconnected-(U3-GPIO11-Pad14)*
X150031066Y-107611781D03*
D23*
G04 #@! TO.P,U3,15,GPIO12*
G04 #@! TO.N,unconnected-(U3-GPIO12-Pad15)*
X150868566Y-108449281D03*
G04 #@! TO.P,U3,16,GPIO13*
G04 #@! TO.N,unconnected-(U3-GPIO13-Pad16)*
X151268566Y-108449281D03*
G04 #@! TO.P,U3,17,GPIO14*
G04 #@! TO.N,unconnected-(U3-GPIO14-Pad17)*
X151668566Y-108449281D03*
G04 #@! TO.P,U3,18,GPIO15*
G04 #@! TO.N,unconnected-(U3-GPIO15-Pad18)*
X152068566Y-108449281D03*
G04 #@! TO.P,U3,19,TESTEN*
G04 #@! TO.N,GND*
X152468566Y-108449281D03*
G04 #@! TO.P,U3,20,XIN*
G04 #@! TO.N,/XIN*
X152868566Y-108449281D03*
G04 #@! TO.P,U3,21,XOUT*
G04 #@! TO.N,/XOUT*
X153268566Y-108449281D03*
G04 #@! TO.P,U3,22,IOVDD*
G04 #@! TO.N,+3V3*
X153668566Y-108449281D03*
G04 #@! TO.P,U3,23,DVDD*
G04 #@! TO.N,+1V1*
X154068566Y-108449281D03*
G04 #@! TO.P,U3,24,SWCLK*
G04 #@! TO.N,unconnected-(U3-SWCLK-Pad24)*
X154468566Y-108449281D03*
G04 #@! TO.P,U3,25,SWD*
G04 #@! TO.N,unconnected-(U3-SWD-Pad25)*
X154868566Y-108449281D03*
G04 #@! TO.P,U3,26,RUN*
G04 #@! TO.N,/RUN*
X155268566Y-108449281D03*
G04 #@! TO.P,U3,27,GPIO16*
G04 #@! TO.N,unconnected-(U3-GPIO16-Pad27)*
X155668566Y-108449281D03*
G04 #@! TO.P,U3,28,GPIO17*
G04 #@! TO.N,unconnected-(U3-GPIO17-Pad28)*
X156068566Y-108449281D03*
D22*
G04 #@! TO.P,U3,29,GPIO18*
G04 #@! TO.N,unconnected-(U3-GPIO18-Pad29)*
X156906066Y-107611781D03*
G04 #@! TO.P,U3,30,GPIO19*
G04 #@! TO.N,unconnected-(U3-GPIO19-Pad30)*
X156906066Y-107211781D03*
G04 #@! TO.P,U3,31,GPIO20*
G04 #@! TO.N,unconnected-(U3-GPIO20-Pad31)*
X156906066Y-106811781D03*
G04 #@! TO.P,U3,32,GPIO21*
G04 #@! TO.N,unconnected-(U3-GPIO21-Pad32)*
X156906066Y-106411781D03*
G04 #@! TO.P,U3,33,IOVDD*
G04 #@! TO.N,+3V3*
X156906066Y-106011781D03*
G04 #@! TO.P,U3,34,GPIO22*
G04 #@! TO.N,unconnected-(U3-GPIO22-Pad34)*
X156906066Y-105611781D03*
G04 #@! TO.P,U3,35,GPIO23*
G04 #@! TO.N,+3V3*
X156906066Y-105211781D03*
G04 #@! TO.P,U3,36,GPIO24*
G04 #@! TO.N,unconnected-(U3-GPIO24-Pad36)*
X156906066Y-104811781D03*
G04 #@! TO.P,U3,37,GPIO25*
G04 #@! TO.N,unconnected-(U3-GPIO25-Pad37)*
X156906066Y-104411781D03*
G04 #@! TO.P,U3,38,GPIO26_ADC0*
G04 #@! TO.N,unconnected-(U3-GPIO26_ADC0-Pad38)*
X156906066Y-104011781D03*
G04 #@! TO.P,U3,39,GPIO27_ADC1*
G04 #@! TO.N,unconnected-(U3-GPIO27_ADC1-Pad39)*
X156906066Y-103611781D03*
G04 #@! TO.P,U3,40,GPIO28_ADC2*
G04 #@! TO.N,unconnected-(U3-GPIO28_ADC2-Pad40)*
X156906066Y-103211781D03*
G04 #@! TO.P,U3,41,GPIO29_ADC3*
G04 #@! TO.N,unconnected-(U3-GPIO29_ADC3-Pad41)*
X156906066Y-102811781D03*
G04 #@! TO.P,U3,42,IOVDD*
G04 #@! TO.N,+3V3*
X156906066Y-102411781D03*
D23*
G04 #@! TO.P,U3,43,ADC_AVDD*
X156068566Y-101574281D03*
G04 #@! TO.P,U3,44,VREG_IN*
X155668566Y-101574281D03*
G04 #@! TO.P,U3,45,VREG_VOUT*
G04 #@! TO.N,+1V1*
X155268566Y-101574281D03*
G04 #@! TO.P,U3,46,USB_DM*
G04 #@! TO.N,Net-(U3-USB_DM)*
X154868566Y-101574281D03*
G04 #@! TO.P,U3,47,USB_DP*
G04 #@! TO.N,Net-(U3-USB_DP)*
X154468566Y-101574281D03*
G04 #@! TO.P,U3,48,USB_VDD*
G04 #@! TO.N,+3V3*
X154068566Y-101574281D03*
G04 #@! TO.P,U3,49,IOVDD*
X153668566Y-101574281D03*
G04 #@! TO.P,U3,50,DVDD*
G04 #@! TO.N,+1V1*
X153268566Y-101574281D03*
G04 #@! TO.P,U3,51,QSPI_SD3*
G04 #@! TO.N,unconnected-(U3-QSPI_SD3-Pad51)*
X152868566Y-101574281D03*
G04 #@! TO.P,U3,52,QSPI_SCLK*
G04 #@! TO.N,unconnected-(U3-QSPI_SCLK-Pad52)*
X152468566Y-101574281D03*
G04 #@! TO.P,U3,53,QSPI_SD0*
G04 #@! TO.N,unconnected-(U3-QSPI_SD0-Pad53)*
X152068566Y-101574281D03*
G04 #@! TO.P,U3,54,QSPI_SD2*
G04 #@! TO.N,unconnected-(U3-QSPI_SD2-Pad54)*
X151668566Y-101574281D03*
G04 #@! TO.P,U3,55,QSPI_SD1*
G04 #@! TO.N,unconnected-(U3-QSPI_SD1-Pad55)*
X151268566Y-101574281D03*
G04 #@! TO.P,U3,56,QSPI_SS*
G04 #@! TO.N,unconnected-(U3-QSPI_SS-Pad56)*
X150868566Y-101574281D03*
D24*
G04 #@! TO.P,U3,57,GND*
G04 #@! TO.N,GND*
X152193566Y-103736781D03*
X152193566Y-105011781D03*
X152193566Y-106286781D03*
X153468566Y-103736781D03*
X153468566Y-105011781D03*
D25*
X153468566Y-105011781D03*
D24*
X153468566Y-106286781D03*
X154743566Y-103736781D03*
X154743566Y-105011781D03*
X154743566Y-106286781D03*
G04 #@! TD*
D26*
G04 #@! TO.P,J2,1,VBUS*
G04 #@! TO.N,VBUS*
X156206066Y-81036781D03*
G04 #@! TO.P,J2,2,D-*
G04 #@! TO.N,/USB_D-*
X155556066Y-81036781D03*
G04 #@! TO.P,J2,3,D+*
G04 #@! TO.N,/USB_D+*
X154906066Y-81036781D03*
G04 #@! TO.P,J2,4,ID*
G04 #@! TO.N,unconnected-(J2-ID-Pad4)*
X154256066Y-81036781D03*
G04 #@! TO.P,J2,5,GND*
G04 #@! TO.N,GND*
X153606066Y-81036781D03*
D27*
G04 #@! TO.P,J2,6,Shield*
X157893566Y-79911781D03*
D28*
X157806066Y-81241781D03*
D29*
X157631066Y-78636781D03*
D30*
X157631066Y-78211781D03*
D31*
X157331066Y-81241781D03*
D32*
X155868566Y-77961781D03*
X153943566Y-77961781D03*
D31*
X152481066Y-81241781D03*
D29*
X152181066Y-78636781D03*
D30*
X152181066Y-78211781D03*
D28*
X152006066Y-81241781D03*
D27*
X151918566Y-79911781D03*
G04 #@! TD*
D33*
G04 #@! TO.P,Y1,1,1*
G04 #@! TO.N,/XIN*
X152906066Y-118711781D03*
G04 #@! TO.P,Y1,2,2*
G04 #@! TO.N,GND*
X155106066Y-118711781D03*
G04 #@! TO.P,Y1,3,3*
G04 #@! TO.N,Net-(C2-Pad1)*
X155106066Y-117011781D03*
G04 #@! TO.P,Y1,4,4*
G04 #@! TO.N,GND*
X152906066Y-117011781D03*
G04 #@! TD*
D10*
G04 #@! TO.P,R3,1*
G04 #@! TO.N,/XOUT*
X153406066Y-110711781D03*
G04 #@! TO.P,R3,2*
G04 #@! TO.N,Net-(C2-Pad1)*
X153406066Y-111731781D03*
G04 #@! TD*
D17*
G04 #@! TO.P,R2,1*
G04 #@! TO.N,/GPIO1*
X146936066Y-103711781D03*
G04 #@! TO.P,R2,2*
G04 #@! TO.N,Net-(U4-SDA)*
X145916066Y-103711781D03*
G04 #@! TD*
G04 #@! TO.P,R1,1*
G04 #@! TO.N,+3V3*
X148426066Y-100211781D03*
G04 #@! TO.P,R1,2*
G04 #@! TO.N,/~{USB_BOOT}*
X147406066Y-100211781D03*
G04 #@! TD*
D34*
G04 #@! TO.N,GND*
X157406066Y-114711781D03*
X139050000Y-101250000D03*
X152150000Y-96200000D03*
X150406066Y-118711781D03*
X145906066Y-106211781D03*
X153406066Y-83211781D03*
X151406066Y-110711781D03*
X144406066Y-103711781D03*
X167906066Y-96711781D03*
X160906066Y-106711781D03*
X157406066Y-118711781D03*
X160900000Y-105250000D03*
X150406066Y-114711781D03*
X140906066Y-87211781D03*
X154906066Y-112711781D03*
X166406066Y-85211781D03*
X162960000Y-100900000D03*
X156600000Y-97200000D03*
X162990000Y-99650000D03*
X148906066Y-87211781D03*
X157700000Y-97211781D03*
X139406066Y-104211781D03*
X153300000Y-96211781D03*
X156406066Y-112711781D03*
G04 #@! TO.N,+3V3*
X159766000Y-79883000D03*
X150114000Y-79883000D03*
G04 #@! TO.N,+1V1*
X154940000Y-109728000D03*
X154400000Y-102900000D03*
X152550000Y-100250000D03*
X154250000Y-107150000D03*
G04 #@! TD*
D35*
G04 #@! TO.N,GND*
X166356066Y-96711781D02*
X167906066Y-96711781D01*
X152150000Y-97200000D02*
X152150000Y-96200000D01*
X139906066Y-103711781D02*
X139406066Y-104211781D01*
X148836066Y-89211781D02*
X148836066Y-87281781D01*
X151406066Y-110045641D02*
X151406066Y-110711781D01*
X166406066Y-85211781D02*
X167006066Y-85811781D01*
X140050000Y-101250000D02*
X139050000Y-101250000D01*
X152468566Y-108983141D02*
X151406066Y-110045641D01*
X146926066Y-106211781D02*
X145906066Y-106211781D01*
X142231066Y-103461781D02*
X141981066Y-103711781D01*
X153606066Y-81036781D02*
X153606066Y-83011781D01*
X152006066Y-81241781D02*
X152481066Y-81241781D01*
X140886066Y-89211781D02*
X140886066Y-87231781D01*
X157806066Y-81241781D02*
X157331066Y-81241781D01*
X152468566Y-108449281D02*
X152468566Y-108983141D01*
X167006066Y-85811781D02*
X167006066Y-87561781D01*
X142481066Y-103711781D02*
X143406066Y-103711781D01*
X165906066Y-85211781D02*
X165306066Y-84611781D01*
X153606066Y-83011781D02*
X153406066Y-83211781D01*
X161960000Y-100900000D02*
X162960000Y-100900000D01*
X156600000Y-98180000D02*
X156600000Y-97200000D01*
X141056066Y-104211781D02*
X139406066Y-104211781D01*
X157631066Y-78211781D02*
X156118566Y-78211781D01*
X154906066Y-111661781D02*
X154906066Y-112711781D01*
X166406066Y-85211781D02*
X165906066Y-85211781D01*
X143406066Y-103711781D02*
X144406066Y-103711781D01*
X142231066Y-103461781D02*
X142481066Y-103711781D01*
X156406066Y-111681781D02*
X156406066Y-112711781D01*
X159860000Y-105250000D02*
X160900000Y-105250000D01*
X162990000Y-99650000D02*
X161950000Y-99650000D01*
X156118566Y-78211781D02*
X155868566Y-77961781D01*
X141056066Y-103711781D02*
X139906066Y-103711781D01*
X159886066Y-106711781D02*
X160906066Y-106711781D01*
X153300000Y-97251781D02*
X153300000Y-96211781D01*
X157700000Y-98171781D02*
X157700000Y-97211781D01*
X148836066Y-87281781D02*
X148906066Y-87211781D01*
X153693566Y-78211781D02*
X153943566Y-77961781D01*
X165306066Y-84611781D02*
X165306066Y-83711781D01*
X141981066Y-103711781D02*
X141056066Y-103711781D01*
X140886066Y-87231781D02*
X140906066Y-87211781D01*
X152181066Y-78211781D02*
X153693566Y-78211781D01*
G04 #@! TO.N,/XIN*
X152406066Y-114251781D02*
X152406066Y-109711781D01*
X152406066Y-109711781D02*
X152868566Y-109249281D01*
X152866066Y-114711781D02*
X152406066Y-114251781D01*
X153906066Y-117811781D02*
X153906066Y-115751781D01*
X152868566Y-109249281D02*
X152868566Y-108449281D01*
X152906066Y-118711781D02*
X153006066Y-118711781D01*
X153006066Y-118711781D02*
X153906066Y-117811781D01*
X153906066Y-115751781D02*
X152866066Y-114711781D01*
G04 #@! TO.N,Net-(C2-Pad1)*
X154926066Y-114251781D02*
X153406066Y-112731781D01*
X154926066Y-114711781D02*
X154926066Y-116831781D01*
X154926066Y-114711781D02*
X154926066Y-114251781D01*
X154926066Y-116831781D02*
X155106066Y-117011781D01*
X153406066Y-112731781D02*
X153406066Y-111731781D01*
G04 #@! TO.N,VBUS*
X162406066Y-84711781D02*
X162406066Y-87561781D01*
X156206066Y-81036781D02*
X156206066Y-82111781D01*
X157806066Y-83711781D02*
X163406066Y-83711781D01*
X163406066Y-83711781D02*
X162406066Y-84711781D01*
X156206066Y-82111781D02*
X157806066Y-83711781D01*
G04 #@! TO.N,+3V3*
X155668566Y-101574281D02*
X155668566Y-100869281D01*
X148406066Y-100211781D02*
X148406066Y-100786781D01*
X153668566Y-100050000D02*
X153668566Y-101574281D01*
X153449145Y-107696000D02*
X153416000Y-107696000D01*
X150031066Y-102411781D02*
X150925781Y-102411781D01*
X141030000Y-101270000D02*
X141030000Y-102685715D01*
X156906066Y-106011781D02*
X156116219Y-106011781D01*
X154068566Y-101574281D02*
X154068566Y-102217434D01*
X153668566Y-102236434D02*
X153543000Y-102362000D01*
X164456066Y-96711781D02*
X164456066Y-94111781D01*
X155668566Y-100731434D02*
X156400000Y-100000000D01*
X156068566Y-101574281D02*
X156068566Y-100931434D01*
X156068566Y-100931434D02*
X156300000Y-100700000D01*
X153300000Y-99681434D02*
X153668566Y-100050000D01*
X141030000Y-102685715D02*
X141056066Y-102711781D01*
X147886066Y-106211781D02*
X148086066Y-106011781D01*
X156116219Y-106011781D02*
X156083000Y-106045000D01*
X153668566Y-107915421D02*
X153449145Y-107696000D01*
X154906066Y-110701781D02*
X154596067Y-110701781D01*
X154068566Y-102217434D02*
X153924000Y-102362000D01*
X155668566Y-100869281D02*
X155668566Y-100731434D01*
X153668566Y-109774280D02*
X153668566Y-108449281D01*
X156906066Y-105211781D02*
X156154219Y-105211781D01*
X158438219Y-102411781D02*
X158450000Y-102400000D01*
X156906066Y-102411781D02*
X158438219Y-102411781D01*
X148406066Y-100786781D02*
X150031066Y-102411781D01*
X150031066Y-106011781D02*
X150842781Y-106011781D01*
X164456066Y-94111781D02*
X164706066Y-93861781D01*
X154596067Y-110701781D02*
X153668566Y-109774280D01*
X153300000Y-98200000D02*
X153300000Y-99681434D01*
X154068566Y-100450000D02*
X153668566Y-100050000D01*
X154068566Y-101574281D02*
X154068566Y-100450000D01*
X148086066Y-106011781D02*
X150031066Y-106011781D01*
X153668566Y-101574281D02*
X153668566Y-102236434D01*
X156154219Y-105211781D02*
X156083000Y-105283000D01*
X153668566Y-108449281D02*
X153668566Y-107915421D01*
X150925781Y-102411781D02*
X151003000Y-102489000D01*
G04 #@! TO.N,+1V1*
X152150000Y-99921855D02*
X152150000Y-98171781D01*
X153268566Y-101574281D02*
X153268566Y-101040421D01*
X155268566Y-102541434D02*
X155194000Y-102616000D01*
X155268566Y-101574281D02*
X155268566Y-100471434D01*
X155268566Y-100471434D02*
X156600000Y-99140000D01*
X155396066Y-109711781D02*
X154406066Y-109711781D01*
X156406066Y-110721781D02*
X155396066Y-109711781D01*
X155268566Y-101574281D02*
X155268566Y-102541434D01*
X154406066Y-109711781D02*
X154068566Y-109374281D01*
X154068566Y-109374281D02*
X154068566Y-108449281D01*
X153268566Y-101040421D02*
X152150000Y-99921855D01*
D36*
G04 #@! TO.N,/USB_D-*
X155500000Y-82710000D02*
X155500000Y-98150000D01*
X155556066Y-81036781D02*
X155556066Y-82561781D01*
X155556066Y-82561781D02*
X155406066Y-82711781D01*
G04 #@! TO.N,/USB_D+*
X154906066Y-81036781D02*
X154906066Y-82211781D01*
X154406066Y-82711781D02*
X154406066Y-98161781D01*
X154906066Y-82211781D02*
X154406066Y-82711781D01*
D35*
G04 #@! TO.N,/~{USB_BOOT}*
X147406066Y-95711781D02*
X147406066Y-100211781D01*
X140886066Y-93711781D02*
X148836066Y-93711781D01*
X148836066Y-94281781D02*
X147406066Y-95711781D01*
X148836066Y-93711781D02*
X148836066Y-94281781D01*
G04 #@! TO.N,Net-(U4-SDA)*
X143406066Y-104211781D02*
X143506066Y-104311781D01*
X145316066Y-104311781D02*
X145916066Y-103711781D01*
X143506066Y-104311781D02*
X145316066Y-104311781D01*
G04 #@! TO.N,/GPIO1*
X147436066Y-103211781D02*
X146936066Y-103711781D01*
X150031066Y-103211781D02*
X147436066Y-103211781D01*
G04 #@! TO.N,/XOUT*
X153268566Y-110574281D02*
X153268566Y-108449281D01*
X153406066Y-110711781D02*
X153268566Y-110574281D01*
G04 #@! TO.N,Net-(U3-USB_DP)*
X154468566Y-99244281D02*
X154406066Y-99181781D01*
X154468566Y-99218566D02*
X154468566Y-101574281D01*
X154400000Y-99150000D02*
X154468566Y-99218566D01*
G04 #@! TO.N,Net-(U3-USB_DM)*
X155500000Y-99171781D02*
X154868566Y-99803215D01*
X154868566Y-99803215D02*
X154868566Y-101574281D01*
G04 #@! TO.N,/GPIO0*
X150031066Y-102811781D02*
X147016066Y-102811781D01*
X147016066Y-102811781D02*
X146916066Y-102711781D01*
G04 #@! TO.N,Net-(U4-SCL)*
X143406066Y-102711781D02*
X145896066Y-102711781D01*
G04 #@! TD*
G04 #@! TA.AperFunction,Conductor*
G04 #@! TO.N,+3V3*
G36*
X154339081Y-102236012D02*
G01*
X154339081Y-102264885D01*
X154331500Y-102303000D01*
X154331500Y-102343087D01*
X154309826Y-102395413D01*
X154278350Y-102414089D01*
X154256511Y-102420502D01*
X154235661Y-102423500D01*
X154211000Y-102423500D01*
X154188707Y-102427934D01*
X154132364Y-102439141D01*
X154132354Y-102439144D01*
X154080037Y-102460814D01*
X154021739Y-102497445D01*
X154021737Y-102497447D01*
X153968817Y-102572031D01*
X153966420Y-102577820D01*
X153926370Y-102617868D01*
X153898053Y-102623500D01*
X151411000Y-102623500D01*
X151388707Y-102627934D01*
X151332364Y-102639141D01*
X151332354Y-102639144D01*
X151280037Y-102660814D01*
X151221739Y-102697445D01*
X151221737Y-102697447D01*
X151168816Y-102772033D01*
X151147144Y-102824354D01*
X151147141Y-102824364D01*
X151131500Y-102903001D01*
X151131500Y-107154998D01*
X151147141Y-107233635D01*
X151147144Y-107233645D01*
X151168814Y-107285962D01*
X151168816Y-107285966D01*
X151168817Y-107285967D01*
X151205445Y-107344261D01*
X151280033Y-107397183D01*
X151332359Y-107418857D01*
X151411000Y-107434500D01*
X153498054Y-107434500D01*
X153550380Y-107456174D01*
X153566421Y-107480182D01*
X153568817Y-107485967D01*
X153605445Y-107544261D01*
X153680033Y-107597183D01*
X153732359Y-107618857D01*
X153811000Y-107634500D01*
X154112906Y-107634500D01*
X154133754Y-107637497D01*
X154178039Y-107650500D01*
X154321961Y-107650500D01*
X154366246Y-107637497D01*
X154387094Y-107634500D01*
X154462998Y-107634500D01*
X154463000Y-107634500D01*
X154541641Y-107618857D01*
X154593967Y-107597183D01*
X154652261Y-107560555D01*
X154705183Y-107485967D01*
X154726857Y-107433641D01*
X154742500Y-107355000D01*
X154742500Y-107246733D01*
X154743253Y-107236202D01*
X154743622Y-107233635D01*
X154755647Y-107150000D01*
X154743253Y-107063796D01*
X154742500Y-107053265D01*
X154742500Y-106886280D01*
X154764174Y-106833954D01*
X154816500Y-106812280D01*
X154964927Y-106812280D01*
X154964928Y-106812280D01*
X155015105Y-106805675D01*
X155125211Y-106754332D01*
X155211117Y-106668426D01*
X155262460Y-106558320D01*
X155269066Y-106508144D01*
X155269065Y-103515419D01*
X155269065Y-103515417D01*
X155268929Y-103513344D01*
X155287131Y-103459712D01*
X155337926Y-103434659D01*
X155342770Y-103434500D01*
X155462998Y-103434500D01*
X155463000Y-103434500D01*
X155541641Y-103418857D01*
X155593967Y-103397183D01*
X155652261Y-103360555D01*
X155705183Y-103285967D01*
X155726857Y-103233641D01*
X155742500Y-103155000D01*
X155742500Y-102303000D01*
X155727780Y-102229000D01*
X156337000Y-102229000D01*
X156337000Y-102582622D01*
X156282600Y-102664040D01*
X156282600Y-102664041D01*
X156268066Y-102737107D01*
X156268066Y-102886455D01*
X156276284Y-102927770D01*
X156282600Y-102959522D01*
X156290049Y-102970671D01*
X156301097Y-103026221D01*
X156290049Y-103052891D01*
X156282600Y-103064039D01*
X156268066Y-103137108D01*
X156268066Y-103286453D01*
X156282600Y-103359522D01*
X156290049Y-103370671D01*
X156301097Y-103426221D01*
X156290049Y-103452891D01*
X156282600Y-103464039D01*
X156282600Y-103464041D01*
X156272381Y-103515417D01*
X156268066Y-103537108D01*
X156268066Y-103686453D01*
X156282600Y-103759522D01*
X156290049Y-103770671D01*
X156301097Y-103826221D01*
X156290049Y-103852891D01*
X156282600Y-103864039D01*
X156268066Y-103937108D01*
X156268066Y-104086453D01*
X156282600Y-104159522D01*
X156290049Y-104170671D01*
X156301097Y-104226221D01*
X156290049Y-104252891D01*
X156282600Y-104264039D01*
X156268066Y-104337108D01*
X156268066Y-104486453D01*
X156282600Y-104559522D01*
X156290049Y-104570671D01*
X156301097Y-104626221D01*
X156290049Y-104652891D01*
X156282600Y-104664039D01*
X156268066Y-104737108D01*
X156268066Y-104886453D01*
X156282600Y-104959521D01*
X156337000Y-105040938D01*
X156337000Y-105382622D01*
X156282600Y-105464040D01*
X156268066Y-105537108D01*
X156268066Y-105686453D01*
X156282600Y-105759521D01*
X156337000Y-105840938D01*
X156337000Y-106182622D01*
X156282600Y-106264040D01*
X156282600Y-106264041D01*
X156268066Y-106337107D01*
X156268066Y-106486455D01*
X156277755Y-106535165D01*
X156282600Y-106559522D01*
X156290049Y-106570671D01*
X156301097Y-106626221D01*
X156290049Y-106652891D01*
X156282600Y-106664039D01*
X156268066Y-106737108D01*
X156268066Y-106886453D01*
X156282600Y-106959522D01*
X156290049Y-106970671D01*
X156301097Y-107026221D01*
X156290049Y-107052891D01*
X156282600Y-107064039D01*
X156268066Y-107137108D01*
X156268066Y-107286453D01*
X156282600Y-107359522D01*
X156290049Y-107370671D01*
X156301097Y-107426221D01*
X156290049Y-107452891D01*
X156282600Y-107464039D01*
X156268066Y-107537108D01*
X156268066Y-107686453D01*
X156277455Y-107733655D01*
X156266406Y-107789204D01*
X156219314Y-107820670D01*
X156190441Y-107820670D01*
X156143240Y-107811281D01*
X155993892Y-107811281D01*
X155957359Y-107818548D01*
X155920824Y-107825815D01*
X155916057Y-107829000D01*
X155821074Y-107829000D01*
X155816307Y-107825815D01*
X155780748Y-107818742D01*
X155743240Y-107811281D01*
X155593892Y-107811281D01*
X155557359Y-107818548D01*
X155520824Y-107825815D01*
X155516057Y-107829000D01*
X155421074Y-107829000D01*
X155416307Y-107825815D01*
X155380748Y-107818742D01*
X155343240Y-107811281D01*
X155193892Y-107811281D01*
X155157359Y-107818548D01*
X155120824Y-107825815D01*
X155116057Y-107829000D01*
X155021074Y-107829000D01*
X155016307Y-107825815D01*
X154980748Y-107818742D01*
X154943240Y-107811281D01*
X154793892Y-107811281D01*
X154757359Y-107818548D01*
X154720824Y-107825815D01*
X154716057Y-107829000D01*
X154621074Y-107829000D01*
X154616307Y-107825815D01*
X154580748Y-107818742D01*
X154543240Y-107811281D01*
X154393892Y-107811281D01*
X154357359Y-107818548D01*
X154320824Y-107825815D01*
X154316057Y-107829000D01*
X154221074Y-107829000D01*
X154216307Y-107825815D01*
X154180748Y-107818742D01*
X154143240Y-107811281D01*
X153993892Y-107811281D01*
X153956384Y-107818742D01*
X153920825Y-107825815D01*
X153916058Y-107829000D01*
X153421073Y-107829000D01*
X153416306Y-107825815D01*
X153343240Y-107811281D01*
X153193892Y-107811281D01*
X153157359Y-107818548D01*
X153120824Y-107825815D01*
X153116057Y-107829000D01*
X153021074Y-107829000D01*
X153016307Y-107825815D01*
X152980748Y-107818742D01*
X152943240Y-107811281D01*
X152793892Y-107811281D01*
X152757359Y-107818548D01*
X152720824Y-107825815D01*
X152716057Y-107829000D01*
X152621074Y-107829000D01*
X152616307Y-107825815D01*
X152580748Y-107818742D01*
X152543240Y-107811281D01*
X152393892Y-107811281D01*
X152357359Y-107818548D01*
X152320824Y-107825815D01*
X152316057Y-107829000D01*
X152221074Y-107829000D01*
X152216307Y-107825815D01*
X152180748Y-107818742D01*
X152143240Y-107811281D01*
X151993892Y-107811281D01*
X151957359Y-107818548D01*
X151920824Y-107825815D01*
X151916057Y-107829000D01*
X151821074Y-107829000D01*
X151816307Y-107825815D01*
X151780748Y-107818742D01*
X151743240Y-107811281D01*
X151593892Y-107811281D01*
X151557359Y-107818548D01*
X151520824Y-107825815D01*
X151516057Y-107829000D01*
X151421074Y-107829000D01*
X151416307Y-107825815D01*
X151380748Y-107818742D01*
X151343240Y-107811281D01*
X151193892Y-107811281D01*
X151157359Y-107818548D01*
X151120824Y-107825815D01*
X151116057Y-107829000D01*
X151021074Y-107829000D01*
X151016307Y-107825815D01*
X150980748Y-107818742D01*
X150943240Y-107811281D01*
X150793892Y-107811281D01*
X150772270Y-107815581D01*
X150746690Y-107820670D01*
X150737000Y-107818742D01*
X150737000Y-102229000D01*
X153537000Y-102229000D01*
X154334396Y-102229000D01*
X154339081Y-102236012D01*
G37*
G04 #@! TD.AperFunction*
G04 #@! TD*
G04 #@! TA.AperFunction,Conductor*
G04 #@! TO.N,GND*
G36*
X151449105Y-112731466D02*
G01*
X151494860Y-112784270D01*
X151506066Y-112835781D01*
X151506066Y-113211781D01*
X151981566Y-113211781D01*
X152048605Y-113231466D01*
X152094360Y-113284270D01*
X152105566Y-113335781D01*
X152105566Y-114291343D01*
X152126045Y-114367770D01*
X152139453Y-114390994D01*
X152156066Y-114452993D01*
X152156066Y-115516284D01*
X152302261Y-115473812D01*
X152441440Y-115391502D01*
X152441449Y-115391495D01*
X152555780Y-115277164D01*
X152560565Y-115270996D01*
X152562525Y-115272516D01*
X152604649Y-115233163D01*
X152673387Y-115220639D01*
X152676509Y-115221009D01*
X152686165Y-115222281D01*
X152900231Y-115222280D01*
X152967271Y-115241964D01*
X152987913Y-115258599D01*
X153429414Y-115700100D01*
X153462899Y-115761423D01*
X153457915Y-115831115D01*
X153416043Y-115887048D01*
X153350579Y-115911465D01*
X153341733Y-115911781D01*
X153156066Y-115911781D01*
X153156066Y-117137781D01*
X153136381Y-117204820D01*
X153083577Y-117250575D01*
X153032066Y-117261781D01*
X151706066Y-117261781D01*
X151706066Y-117659625D01*
X151712467Y-117719153D01*
X151712469Y-117719160D01*
X151762711Y-117853867D01*
X151762715Y-117853874D01*
X151848875Y-117968968D01*
X151848878Y-117968971D01*
X151955877Y-118049071D01*
X151997748Y-118105004D01*
X152005566Y-118148337D01*
X152005566Y-119331533D01*
X152017197Y-119390010D01*
X152017198Y-119390011D01*
X152061513Y-119456333D01*
X152127835Y-119500648D01*
X152127836Y-119500649D01*
X152186313Y-119512280D01*
X152186316Y-119512281D01*
X152186318Y-119512281D01*
X153625816Y-119512281D01*
X153625817Y-119512280D01*
X153641635Y-119509134D01*
X153684295Y-119500649D01*
X153684295Y-119500648D01*
X153684297Y-119500648D01*
X153750618Y-119456333D01*
X153750617Y-119456333D01*
X153760773Y-119449548D01*
X153763275Y-119453293D01*
X153803153Y-119431375D01*
X153872858Y-119436167D01*
X153928907Y-119477884D01*
X153946027Y-119509134D01*
X153962712Y-119553868D01*
X153962715Y-119553874D01*
X154048875Y-119668968D01*
X154048878Y-119668971D01*
X154163972Y-119755131D01*
X154163979Y-119755135D01*
X154298686Y-119805377D01*
X154298693Y-119805379D01*
X154358221Y-119811780D01*
X154358238Y-119811781D01*
X154856066Y-119811781D01*
X155356066Y-119811781D01*
X155853894Y-119811781D01*
X155853910Y-119811780D01*
X155913438Y-119805379D01*
X155913445Y-119805377D01*
X156048152Y-119755135D01*
X156048159Y-119755131D01*
X156163253Y-119668971D01*
X156163256Y-119668968D01*
X156249416Y-119553874D01*
X156249420Y-119553867D01*
X156299662Y-119419160D01*
X156299664Y-119419153D01*
X156306065Y-119359625D01*
X156306066Y-119359608D01*
X156306066Y-118961781D01*
X155356066Y-118961781D01*
X155356066Y-119811781D01*
X154856066Y-119811781D01*
X154856066Y-118585781D01*
X154875751Y-118518742D01*
X154928555Y-118472987D01*
X154980066Y-118461781D01*
X156306066Y-118461781D01*
X156306066Y-118063953D01*
X156306065Y-118063936D01*
X156299664Y-118004408D01*
X156299662Y-118004401D01*
X156249420Y-117869694D01*
X156249416Y-117869687D01*
X156163256Y-117754593D01*
X156056254Y-117674490D01*
X156014384Y-117618556D01*
X156006566Y-117575224D01*
X156006566Y-116392030D01*
X156006565Y-116392028D01*
X155994934Y-116333551D01*
X155994933Y-116333550D01*
X155950618Y-116267228D01*
X155884296Y-116222913D01*
X155884295Y-116222912D01*
X155825818Y-116211281D01*
X155825814Y-116211281D01*
X155350566Y-116211281D01*
X155283527Y-116191596D01*
X155237772Y-116138792D01*
X155226566Y-116087281D01*
X155226566Y-115535489D01*
X155246251Y-115468450D01*
X155299055Y-115422695D01*
X155368213Y-115412751D01*
X155413688Y-115428757D01*
X155489872Y-115473813D01*
X155636066Y-115516285D01*
X155636066Y-115516284D01*
X156136066Y-115516284D01*
X156282261Y-115473812D01*
X156421440Y-115391502D01*
X156421449Y-115391495D01*
X156535780Y-115277164D01*
X156535787Y-115277155D01*
X156618097Y-115137976D01*
X156618099Y-115137971D01*
X156663210Y-114982699D01*
X156663211Y-114982693D01*
X156664856Y-114961781D01*
X156136066Y-114961781D01*
X156136066Y-115516284D01*
X155636066Y-115516284D01*
X155636066Y-113907275D01*
X156136066Y-113907275D01*
X156136066Y-114461781D01*
X156664856Y-114461781D01*
X156663211Y-114440870D01*
X156618097Y-114285585D01*
X156535787Y-114146406D01*
X156535780Y-114146397D01*
X156421449Y-114032066D01*
X156421440Y-114032059D01*
X156282259Y-113949748D01*
X156282256Y-113949746D01*
X156136067Y-113907274D01*
X156136066Y-113907275D01*
X155636066Y-113907275D01*
X155636064Y-113907274D01*
X155489875Y-113949746D01*
X155489872Y-113949748D01*
X155350691Y-114032059D01*
X155350685Y-114032064D01*
X155328682Y-114054067D01*
X155267358Y-114087551D01*
X155197666Y-114082565D01*
X155153321Y-114054065D01*
X154522718Y-113423462D01*
X154489233Y-113362139D01*
X154494217Y-113292447D01*
X154536089Y-113236514D01*
X154601553Y-113212097D01*
X154610399Y-113211781D01*
X158382066Y-113211781D01*
X158449105Y-113231466D01*
X158494860Y-113284270D01*
X158506066Y-113335781D01*
X158506066Y-120087781D01*
X158486381Y-120154820D01*
X158433577Y-120200575D01*
X158382066Y-120211781D01*
X149630066Y-120211781D01*
X149563027Y-120192096D01*
X149517272Y-120139292D01*
X149506066Y-120087781D01*
X149506066Y-116363936D01*
X151706066Y-116363936D01*
X151706066Y-116761781D01*
X152656066Y-116761781D01*
X152656066Y-115911781D01*
X152158221Y-115911781D01*
X152098693Y-115918182D01*
X152098686Y-115918184D01*
X151963979Y-115968426D01*
X151963972Y-115968430D01*
X151848878Y-116054590D01*
X151848875Y-116054593D01*
X151762715Y-116169687D01*
X151762711Y-116169694D01*
X151712469Y-116304401D01*
X151712467Y-116304408D01*
X151706066Y-116363936D01*
X149506066Y-116363936D01*
X149506066Y-114961781D01*
X151127276Y-114961781D01*
X151128920Y-114982691D01*
X151174034Y-115137976D01*
X151256344Y-115277155D01*
X151256351Y-115277164D01*
X151370682Y-115391495D01*
X151370691Y-115391502D01*
X151509870Y-115473812D01*
X151656066Y-115516285D01*
X151656066Y-114961781D01*
X151127276Y-114961781D01*
X149506066Y-114961781D01*
X149506066Y-114461780D01*
X151127275Y-114461780D01*
X151127276Y-114461781D01*
X151656066Y-114461781D01*
X151656066Y-113907275D01*
X151656064Y-113907274D01*
X151509875Y-113949746D01*
X151509872Y-113949748D01*
X151370691Y-114032059D01*
X151370682Y-114032066D01*
X151256351Y-114146397D01*
X151256344Y-114146406D01*
X151174034Y-114285585D01*
X151174032Y-114285590D01*
X151128921Y-114440862D01*
X151128920Y-114440868D01*
X151127275Y-114461780D01*
X149506066Y-114461780D01*
X149506066Y-112835781D01*
X149525751Y-112768742D01*
X149578555Y-112722987D01*
X149630066Y-112711781D01*
X151382066Y-112711781D01*
X151449105Y-112731466D01*
G37*
G04 #@! TD.AperFunction*
G04 #@! TD*
G04 #@! TA.AperFunction,Conductor*
G04 #@! TO.N,+3V3*
G36*
X151469393Y-76731966D02*
G01*
X151515148Y-76784770D01*
X151525092Y-76853928D01*
X151496067Y-76917484D01*
X151490035Y-76923962D01*
X151409895Y-77004101D01*
X151409889Y-77004109D01*
X151328182Y-77142269D01*
X151328181Y-77142272D01*
X151283401Y-77296403D01*
X151283400Y-77296409D01*
X151280566Y-77332423D01*
X151280566Y-79187281D01*
X151260881Y-79254320D01*
X151208077Y-79300075D01*
X151156566Y-79311281D01*
X150981389Y-79311281D01*
X150908330Y-79325813D01*
X150908326Y-79325814D01*
X150825465Y-79381180D01*
X150770099Y-79464041D01*
X150770098Y-79464045D01*
X150755566Y-79537102D01*
X150755566Y-79537107D01*
X150755566Y-80286455D01*
X150759023Y-80303838D01*
X150770710Y-80362591D01*
X150770710Y-80410971D01*
X150755566Y-80487107D01*
X150755566Y-81996459D01*
X150770098Y-82069516D01*
X150770099Y-82069520D01*
X150770100Y-82069521D01*
X150825465Y-82152382D01*
X150907263Y-82207037D01*
X150908326Y-82207747D01*
X150908330Y-82207748D01*
X150981387Y-82222280D01*
X150981390Y-82222281D01*
X150981392Y-82222281D01*
X153030741Y-82222281D01*
X153053650Y-82217723D01*
X153103806Y-82207747D01*
X153103806Y-82207746D01*
X153107373Y-82207037D01*
X153176965Y-82213264D01*
X153232143Y-82256126D01*
X153255388Y-82322015D01*
X153255566Y-82328654D01*
X153255566Y-82595408D01*
X153235881Y-82662447D01*
X153183077Y-82708202D01*
X153179020Y-82709969D01*
X153128443Y-82730919D01*
X153128441Y-82730920D01*
X153047557Y-82792985D01*
X153013445Y-82819160D01*
X152925203Y-82934158D01*
X152869737Y-83068068D01*
X152869736Y-83068072D01*
X152850816Y-83211780D01*
X152850816Y-83211781D01*
X152869736Y-83355489D01*
X152869737Y-83355493D01*
X152925203Y-83489403D01*
X152925204Y-83489405D01*
X152925205Y-83489406D01*
X153013445Y-83604402D01*
X153128441Y-83692642D01*
X153262357Y-83748111D01*
X153389346Y-83764829D01*
X153406065Y-83767031D01*
X153406066Y-83767031D01*
X153406067Y-83767031D01*
X153421043Y-83765059D01*
X153549775Y-83748111D01*
X153683691Y-83692642D01*
X153756080Y-83637095D01*
X153821248Y-83611901D01*
X153889693Y-83625939D01*
X153939683Y-83674752D01*
X153955566Y-83735471D01*
X153955566Y-95176000D01*
X153935881Y-95243039D01*
X153883077Y-95288794D01*
X153831566Y-95300000D01*
X150774000Y-95300000D01*
X150706961Y-95280315D01*
X150661206Y-95227511D01*
X150650000Y-95176000D01*
X150650000Y-86450000D01*
X138900000Y-86400000D01*
X138900000Y-95300000D01*
X147024982Y-95300000D01*
X147092021Y-95319685D01*
X147137776Y-95372489D01*
X147147720Y-95441647D01*
X147127960Y-95488550D01*
X147129659Y-95489531D01*
X147079453Y-95576490D01*
X147079452Y-95576493D01*
X147055566Y-95665637D01*
X147055566Y-99645740D01*
X147035881Y-99712779D01*
X147019247Y-99733421D01*
X146952989Y-99799678D01*
X146952987Y-99799681D01*
X146896485Y-99915259D01*
X146896484Y-99915261D01*
X146896484Y-99915263D01*
X146885566Y-99990199D01*
X146885566Y-100433363D01*
X146896484Y-100508299D01*
X146896484Y-100508300D01*
X146896485Y-100508302D01*
X146952987Y-100623880D01*
X146952989Y-100623883D01*
X147043963Y-100714857D01*
X147043966Y-100714859D01*
X147145084Y-100764292D01*
X147159548Y-100771363D01*
X147234484Y-100782281D01*
X147234489Y-100782281D01*
X147577643Y-100782281D01*
X147577648Y-100782281D01*
X147652584Y-100771363D01*
X147749505Y-100723981D01*
X147768165Y-100714859D01*
X147768166Y-100714857D01*
X147768168Y-100714857D01*
X147791138Y-100691886D01*
X147852459Y-100658402D01*
X147922151Y-100663386D01*
X147973146Y-100701559D01*
X147973430Y-100701276D01*
X147975400Y-100703246D01*
X147978085Y-100705256D01*
X147978586Y-100705930D01*
X147979999Y-100707845D01*
X148085506Y-100785714D01*
X148085508Y-100785715D01*
X148209273Y-100829023D01*
X148209285Y-100829025D01*
X148238668Y-100831781D01*
X148276066Y-100831781D01*
X148576066Y-100831781D01*
X148613464Y-100831781D01*
X148642846Y-100829025D01*
X148642858Y-100829023D01*
X148766623Y-100785715D01*
X148766625Y-100785714D01*
X148872131Y-100707846D01*
X148949999Y-100602340D01*
X148950000Y-100602338D01*
X148993308Y-100478573D01*
X148993310Y-100478561D01*
X148996066Y-100449179D01*
X148996066Y-100361781D01*
X148576066Y-100361781D01*
X148576066Y-100831781D01*
X148276066Y-100831781D01*
X148276066Y-100061781D01*
X148576066Y-100061781D01*
X148996066Y-100061781D01*
X148996066Y-99974382D01*
X148993310Y-99945000D01*
X148993308Y-99944988D01*
X148950000Y-99821223D01*
X148949999Y-99821221D01*
X148872131Y-99715715D01*
X148766625Y-99637847D01*
X148766623Y-99637846D01*
X148642858Y-99594538D01*
X148642846Y-99594536D01*
X148613464Y-99591781D01*
X148576066Y-99591781D01*
X148576066Y-100061781D01*
X148276066Y-100061781D01*
X148276066Y-99591781D01*
X148238668Y-99591781D01*
X148209285Y-99594536D01*
X148209273Y-99594538D01*
X148085508Y-99637846D01*
X148085506Y-99637847D01*
X147979998Y-99715717D01*
X147973430Y-99722286D01*
X147972418Y-99721274D01*
X147924683Y-99757514D01*
X147855027Y-99762968D01*
X147793479Y-99729898D01*
X147759580Y-99668803D01*
X147756566Y-99641627D01*
X147756566Y-95908324D01*
X147776251Y-95841285D01*
X147792885Y-95820643D01*
X148277209Y-95336319D01*
X148338532Y-95302834D01*
X148364890Y-95300000D01*
X150526000Y-95300000D01*
X150593039Y-95319685D01*
X150638794Y-95372489D01*
X150650000Y-95424000D01*
X150650000Y-100879013D01*
X150630315Y-100946052D01*
X150613682Y-100966693D01*
X150566360Y-101014015D01*
X150520981Y-101116787D01*
X150520981Y-101116789D01*
X150518066Y-101141912D01*
X150518066Y-101887781D01*
X150498381Y-101954820D01*
X150445577Y-102000575D01*
X150394066Y-102011781D01*
X149610348Y-102011781D01*
X149542316Y-102021693D01*
X149437374Y-102072996D01*
X149354778Y-102155592D01*
X149303478Y-102260529D01*
X149303477Y-102260532D01*
X149293566Y-102328561D01*
X149293566Y-102337281D01*
X149273881Y-102404320D01*
X149221077Y-102450075D01*
X149169566Y-102461281D01*
X147525550Y-102461281D01*
X147458511Y-102441596D01*
X147414150Y-102391742D01*
X147369142Y-102299679D01*
X147369142Y-102299678D01*
X147278168Y-102208704D01*
X147278165Y-102208702D01*
X147162587Y-102152200D01*
X147162585Y-102152199D01*
X147162584Y-102152199D01*
X147087648Y-102141281D01*
X146744484Y-102141281D01*
X146669548Y-102152199D01*
X146669546Y-102152199D01*
X146669544Y-102152200D01*
X146553966Y-102208702D01*
X146553963Y-102208704D01*
X146493747Y-102268921D01*
X146432424Y-102302406D01*
X146362732Y-102297422D01*
X146318385Y-102268921D01*
X146258168Y-102208704D01*
X146258165Y-102208702D01*
X146142587Y-102152200D01*
X146142585Y-102152199D01*
X146142584Y-102152199D01*
X146067648Y-102141281D01*
X146026477Y-102141281D01*
X145959438Y-102121596D01*
X145913683Y-102068792D01*
X145902485Y-102018690D01*
X145900000Y-101800000D01*
X145899999Y-101800000D01*
X141684952Y-101800000D01*
X141617913Y-101780315D01*
X141572158Y-101727511D01*
X141562214Y-101658353D01*
X141567911Y-101635045D01*
X141607211Y-101522732D01*
X141607213Y-101522720D01*
X141610000Y-101493007D01*
X141610000Y-101420000D01*
X141004000Y-101420000D01*
X140936961Y-101400315D01*
X140891206Y-101347511D01*
X140880000Y-101296000D01*
X140880000Y-101120000D01*
X141180000Y-101120000D01*
X141609999Y-101120000D01*
X141609999Y-101046999D01*
X141607213Y-101017279D01*
X141563403Y-100892077D01*
X141484641Y-100785358D01*
X141377919Y-100706594D01*
X141252732Y-100662788D01*
X141252720Y-100662786D01*
X141223007Y-100660000D01*
X141180000Y-100660000D01*
X141180000Y-101120000D01*
X140880000Y-101120000D01*
X140880000Y-100660000D01*
X140836999Y-100660000D01*
X140807279Y-100662786D01*
X140682075Y-100706597D01*
X140586017Y-100777491D01*
X140520388Y-100801462D01*
X140452218Y-100786146D01*
X140444409Y-100781170D01*
X140442392Y-100780142D01*
X140442391Y-100780141D01*
X140332175Y-100723983D01*
X140332174Y-100723982D01*
X140332171Y-100723981D01*
X140240735Y-100709500D01*
X139899260Y-100709500D01*
X139899260Y-100709501D01*
X139807829Y-100723981D01*
X139807828Y-100723981D01*
X139697607Y-100780142D01*
X139697603Y-100780145D01*
X139619177Y-100858572D01*
X139557854Y-100892057D01*
X139488162Y-100887073D01*
X139449261Y-100862075D01*
X139449068Y-100862327D01*
X139446051Y-100860012D01*
X139443821Y-100858579D01*
X139442624Y-100857382D01*
X139442622Y-100857380D01*
X139442621Y-100857379D01*
X139327625Y-100769139D01*
X139327624Y-100769138D01*
X139327622Y-100769137D01*
X139193712Y-100713671D01*
X139193710Y-100713670D01*
X139193709Y-100713670D01*
X139099569Y-100701276D01*
X139050001Y-100694750D01*
X139049999Y-100694750D01*
X138906291Y-100713670D01*
X138906287Y-100713671D01*
X138772377Y-100769137D01*
X138657379Y-100857379D01*
X138569137Y-100972377D01*
X138513671Y-101106287D01*
X138513670Y-101106291D01*
X138504279Y-101177625D01*
X138494750Y-101250000D01*
X138511978Y-101380861D01*
X138513670Y-101393708D01*
X138513671Y-101393712D01*
X138569137Y-101527622D01*
X138569138Y-101527624D01*
X138569139Y-101527625D01*
X138657379Y-101642621D01*
X138772375Y-101730861D01*
X138906291Y-101786330D01*
X139033280Y-101803048D01*
X139049999Y-101805250D01*
X139050000Y-101805250D01*
X139050001Y-101805250D01*
X139064977Y-101803278D01*
X139193709Y-101786330D01*
X139228549Y-101771898D01*
X139298016Y-101764430D01*
X139360495Y-101795705D01*
X139396148Y-101855793D01*
X139400000Y-101886460D01*
X139400000Y-103548584D01*
X139380315Y-103615623D01*
X139327511Y-103661378D01*
X139292189Y-103671523D01*
X139262355Y-103675451D01*
X139128443Y-103730918D01*
X139013445Y-103819160D01*
X138925203Y-103934158D01*
X138869737Y-104068068D01*
X138869736Y-104068072D01*
X138850816Y-104211781D01*
X138867753Y-104340431D01*
X138869736Y-104355489D01*
X138869737Y-104355493D01*
X138925203Y-104489403D01*
X138925204Y-104489405D01*
X138925205Y-104489406D01*
X139013445Y-104604402D01*
X139128441Y-104692642D01*
X139262357Y-104748111D01*
X139292185Y-104752038D01*
X139356080Y-104780302D01*
X139394552Y-104838625D01*
X139400000Y-104874976D01*
X139400000Y-106200000D01*
X145240520Y-106200000D01*
X145307559Y-106219685D01*
X145353314Y-106272489D01*
X145363459Y-106307813D01*
X145369736Y-106355489D01*
X145369737Y-106355493D01*
X145425203Y-106489403D01*
X145425204Y-106489405D01*
X145425205Y-106489406D01*
X145513445Y-106604402D01*
X145628441Y-106692642D01*
X145628442Y-106692642D01*
X145628443Y-106692643D01*
X145650164Y-106701640D01*
X145762357Y-106748111D01*
X145889346Y-106764829D01*
X145906065Y-106767031D01*
X145906066Y-106767031D01*
X145906067Y-106767031D01*
X145921043Y-106765059D01*
X146049775Y-106748111D01*
X146183691Y-106692642D01*
X146298687Y-106604402D01*
X146298689Y-106604398D01*
X146301671Y-106602111D01*
X146366839Y-106576916D01*
X146435284Y-106590954D01*
X146464839Y-106612805D01*
X146553669Y-106701635D01*
X146553671Y-106701636D01*
X146553675Y-106701640D01*
X146663891Y-106757798D01*
X146663892Y-106757798D01*
X146663894Y-106757799D01*
X146699013Y-106763360D01*
X146755331Y-106772281D01*
X147096800Y-106772280D01*
X147096805Y-106772280D01*
X147096805Y-106772279D01*
X147142520Y-106765039D01*
X147188236Y-106757799D01*
X147188237Y-106757799D01*
X147188238Y-106757798D01*
X147188241Y-106757798D01*
X147298457Y-106701640D01*
X147298458Y-106701638D01*
X147307152Y-106697209D01*
X147308185Y-106699237D01*
X147361369Y-106680261D01*
X147429423Y-106696086D01*
X147442084Y-106704289D01*
X147538146Y-106775186D01*
X147663333Y-106818992D01*
X147663345Y-106818994D01*
X147693043Y-106821779D01*
X147693072Y-106821780D01*
X147736066Y-106821780D01*
X148036066Y-106821780D01*
X148079066Y-106821780D01*
X148108786Y-106818994D01*
X148233988Y-106775184D01*
X148340707Y-106696422D01*
X148419471Y-106589700D01*
X148463277Y-106464513D01*
X148463279Y-106464501D01*
X148466066Y-106434788D01*
X148466066Y-106361781D01*
X148036066Y-106361781D01*
X148036066Y-106821780D01*
X147736066Y-106821780D01*
X147736066Y-106061781D01*
X148036066Y-106061781D01*
X148466065Y-106061781D01*
X148466065Y-105988780D01*
X148463279Y-105959060D01*
X148419469Y-105833858D01*
X148340707Y-105727139D01*
X148233985Y-105648375D01*
X148108798Y-105604569D01*
X148108786Y-105604567D01*
X148079073Y-105601781D01*
X148036066Y-105601781D01*
X148036066Y-106061781D01*
X147736066Y-106061781D01*
X147736066Y-105601781D01*
X147693065Y-105601781D01*
X147663345Y-105604567D01*
X147538141Y-105648378D01*
X147442083Y-105719272D01*
X147376454Y-105743243D01*
X147308284Y-105727927D01*
X147300475Y-105722951D01*
X147298458Y-105721923D01*
X147298457Y-105721922D01*
X147188241Y-105665764D01*
X147188240Y-105665763D01*
X147188237Y-105665762D01*
X147096801Y-105651281D01*
X146755326Y-105651281D01*
X146755326Y-105651282D01*
X146663895Y-105665762D01*
X146663894Y-105665762D01*
X146553673Y-105721923D01*
X146464839Y-105810757D01*
X146403515Y-105844241D01*
X146333824Y-105839257D01*
X146301671Y-105821450D01*
X146287398Y-105810498D01*
X146199751Y-105743243D01*
X146183692Y-105730920D01*
X146183689Y-105730919D01*
X146049774Y-105675450D01*
X146041924Y-105673347D01*
X146042302Y-105671933D01*
X145986557Y-105647265D01*
X145948093Y-105588937D01*
X145942659Y-105554019D01*
X145929633Y-104407690D01*
X145948555Y-104340431D01*
X146000835Y-104294079D01*
X146053625Y-104282281D01*
X146087643Y-104282281D01*
X146087648Y-104282281D01*
X146162584Y-104271363D01*
X146220376Y-104243110D01*
X146278165Y-104214859D01*
X146278168Y-104214857D01*
X146338385Y-104154641D01*
X146399708Y-104121156D01*
X146469400Y-104126140D01*
X146513747Y-104154641D01*
X146573963Y-104214857D01*
X146573966Y-104214859D01*
X146684722Y-104269003D01*
X146689548Y-104271363D01*
X146764484Y-104282281D01*
X146764489Y-104282281D01*
X147107643Y-104282281D01*
X147107648Y-104282281D01*
X147182584Y-104271363D01*
X147240376Y-104243110D01*
X147298165Y-104214859D01*
X147298168Y-104214857D01*
X147389142Y-104123883D01*
X147389144Y-104123880D01*
X147417395Y-104066091D01*
X147445648Y-104008299D01*
X147456566Y-103933363D01*
X147456566Y-103738325D01*
X147476251Y-103671286D01*
X147492885Y-103650644D01*
X147544929Y-103598600D01*
X147606252Y-103565115D01*
X147632610Y-103562281D01*
X149219067Y-103562281D01*
X149286106Y-103581966D01*
X149331861Y-103634770D01*
X149343067Y-103686281D01*
X149343067Y-103706638D01*
X149343068Y-103706662D01*
X149345979Y-103731766D01*
X149345979Y-103731767D01*
X149345980Y-103731771D01*
X149345981Y-103731772D01*
X149359192Y-103761693D01*
X149359194Y-103761696D01*
X149368263Y-103830975D01*
X149359194Y-103861864D01*
X149345981Y-103891789D01*
X149343066Y-103916912D01*
X149343066Y-104106638D01*
X149343068Y-104106662D01*
X149345979Y-104131766D01*
X149345979Y-104131767D01*
X149345980Y-104131771D01*
X149345981Y-104131772D01*
X149359192Y-104161693D01*
X149359194Y-104161696D01*
X149368263Y-104230975D01*
X149359194Y-104261864D01*
X149345981Y-104291789D01*
X149343066Y-104316912D01*
X149343066Y-104506638D01*
X149343068Y-104506662D01*
X149345979Y-104531766D01*
X149345979Y-104531767D01*
X149345980Y-104531771D01*
X149345981Y-104531772D01*
X149359192Y-104561693D01*
X149359194Y-104561696D01*
X149368263Y-104630975D01*
X149359194Y-104661864D01*
X149345981Y-104691789D01*
X149343066Y-104716912D01*
X149343066Y-104906638D01*
X149343068Y-104906662D01*
X149345979Y-104931766D01*
X149345979Y-104931767D01*
X149345980Y-104931771D01*
X149345981Y-104931772D01*
X149359192Y-104961693D01*
X149359194Y-104961696D01*
X149368263Y-105030975D01*
X149359194Y-105061864D01*
X149345981Y-105091789D01*
X149343066Y-105116912D01*
X149343066Y-105306638D01*
X149343068Y-105306662D01*
X149345979Y-105331766D01*
X149345979Y-105331767D01*
X149345980Y-105331771D01*
X149345981Y-105331772D01*
X149359192Y-105361693D01*
X149359194Y-105361696D01*
X149368263Y-105430975D01*
X149359194Y-105461864D01*
X149345981Y-105491789D01*
X149343066Y-105516912D01*
X149343066Y-105706638D01*
X149343067Y-105706654D01*
X149345714Y-105729477D01*
X149333941Y-105798216D01*
X149303477Y-105860533D01*
X149293566Y-105928561D01*
X149293566Y-106094994D01*
X149303478Y-106163029D01*
X149333941Y-106225342D01*
X149345714Y-106294093D01*
X149343066Y-106316912D01*
X149343066Y-106506638D01*
X149343068Y-106506662D01*
X149345979Y-106531766D01*
X149345979Y-106531767D01*
X149345980Y-106531771D01*
X149345981Y-106531772D01*
X149359192Y-106561693D01*
X149359194Y-106561696D01*
X149368263Y-106630975D01*
X149359194Y-106661864D01*
X149345981Y-106691789D01*
X149343066Y-106716912D01*
X149343066Y-106906638D01*
X149343068Y-106906662D01*
X149345979Y-106931766D01*
X149345979Y-106931767D01*
X149345980Y-106931771D01*
X149345981Y-106931772D01*
X149359192Y-106961693D01*
X149359194Y-106961696D01*
X149368263Y-107030975D01*
X149359194Y-107061864D01*
X149345981Y-107091789D01*
X149343066Y-107116912D01*
X149343066Y-107306638D01*
X149343068Y-107306662D01*
X149345979Y-107331766D01*
X149345979Y-107331767D01*
X149345980Y-107331771D01*
X149345981Y-107331772D01*
X149359192Y-107361693D01*
X149359194Y-107361696D01*
X149368263Y-107430975D01*
X149359194Y-107461864D01*
X149345981Y-107491789D01*
X149343066Y-107516912D01*
X149343066Y-107706638D01*
X149343068Y-107706662D01*
X149345980Y-107731769D01*
X149345981Y-107731772D01*
X149391359Y-107834545D01*
X149391360Y-107834546D01*
X149470801Y-107913987D01*
X149573575Y-107959366D01*
X149598701Y-107962281D01*
X150394066Y-107962280D01*
X150461105Y-107981964D01*
X150506860Y-108034768D01*
X150518066Y-108086280D01*
X150518066Y-108881637D01*
X150518068Y-108881663D01*
X150520979Y-108906768D01*
X150520981Y-108906772D01*
X150566359Y-109009545D01*
X150566360Y-109009546D01*
X150645801Y-109088987D01*
X150748575Y-109134366D01*
X150773701Y-109137281D01*
X150963430Y-109137280D01*
X150988557Y-109134366D01*
X151018479Y-109121153D01*
X151087756Y-109112082D01*
X151118652Y-109121154D01*
X151142997Y-109131903D01*
X151148509Y-109134337D01*
X151148573Y-109134365D01*
X151148575Y-109134366D01*
X151173701Y-109137281D01*
X151363430Y-109137280D01*
X151388557Y-109134366D01*
X151418479Y-109121153D01*
X151487756Y-109112082D01*
X151518652Y-109121154D01*
X151542997Y-109131903D01*
X151548575Y-109134366D01*
X151548577Y-109134366D01*
X151556925Y-109136638D01*
X151616446Y-109173231D01*
X151646734Y-109236194D01*
X151638174Y-109305538D01*
X151612054Y-109343970D01*
X151125597Y-109830427D01*
X151125593Y-109830432D01*
X151079453Y-109910350D01*
X151079452Y-109910353D01*
X151055566Y-109999497D01*
X151055566Y-110225689D01*
X151035881Y-110292728D01*
X151017979Y-110312193D01*
X151019195Y-110313409D01*
X151013450Y-110319153D01*
X150925203Y-110434158D01*
X150869737Y-110568068D01*
X150869736Y-110568072D01*
X150850816Y-110711780D01*
X150850816Y-110711781D01*
X150869736Y-110855489D01*
X150869737Y-110855493D01*
X150925203Y-110989403D01*
X150925204Y-110989405D01*
X150925205Y-110989406D01*
X151013445Y-111104402D01*
X151128441Y-111192642D01*
X151262357Y-111248111D01*
X151389346Y-111264829D01*
X151406065Y-111267031D01*
X151406066Y-111267031D01*
X151406067Y-111267031D01*
X151421043Y-111265059D01*
X151549775Y-111248111D01*
X151683691Y-111192642D01*
X151798687Y-111104402D01*
X151833191Y-111059434D01*
X151889618Y-111018233D01*
X151959364Y-111014078D01*
X152020284Y-111048290D01*
X152053037Y-111110007D01*
X152055566Y-111134922D01*
X152055566Y-112832281D01*
X152035881Y-112899320D01*
X151983077Y-112945075D01*
X151931566Y-112956281D01*
X151885556Y-112956281D01*
X151818517Y-112936596D01*
X151772762Y-112883792D01*
X151761733Y-112838901D01*
X151761566Y-112835782D01*
X151755727Y-112781468D01*
X151744522Y-112729962D01*
X151744521Y-112729957D01*
X151737285Y-112703583D01*
X151733398Y-112696757D01*
X151687960Y-112616962D01*
X151687956Y-112616957D01*
X151687954Y-112616953D01*
X151652163Y-112575648D01*
X151642202Y-112564152D01*
X151609425Y-112532524D01*
X151521088Y-112486315D01*
X151521088Y-112486314D01*
X151454056Y-112466632D01*
X151454044Y-112466629D01*
X151382067Y-112456281D01*
X151382066Y-112456281D01*
X149630066Y-112456281D01*
X149630063Y-112456281D01*
X149575753Y-112462119D01*
X149524247Y-112473324D01*
X149524238Y-112473327D01*
X149497873Y-112480560D01*
X149497862Y-112480564D01*
X149411247Y-112529886D01*
X149411239Y-112529892D01*
X149358437Y-112575644D01*
X149326809Y-112608421D01*
X149280600Y-112696758D01*
X149280599Y-112696758D01*
X149260917Y-112763790D01*
X149260914Y-112763802D01*
X149250566Y-112835779D01*
X149250566Y-120087783D01*
X149256404Y-120142093D01*
X149267609Y-120193599D01*
X149267612Y-120193608D01*
X149274845Y-120219973D01*
X149274849Y-120219984D01*
X149324171Y-120306599D01*
X149324176Y-120306606D01*
X149324178Y-120306609D01*
X149350646Y-120337155D01*
X149369929Y-120359409D01*
X149369932Y-120359412D01*
X149369933Y-120359413D01*
X149402707Y-120391038D01*
X149491042Y-120437246D01*
X149491043Y-120437246D01*
X149491043Y-120437247D01*
X149535284Y-120450237D01*
X149558081Y-120456931D01*
X149558085Y-120456931D01*
X149558087Y-120456932D01*
X149569718Y-120458604D01*
X149630066Y-120467281D01*
X149630067Y-120467281D01*
X158382066Y-120467281D01*
X158436379Y-120461442D01*
X158487890Y-120450236D01*
X158514264Y-120443000D01*
X158584322Y-120403106D01*
X158600884Y-120393675D01*
X158600885Y-120393673D01*
X158600894Y-120393669D01*
X158653698Y-120347914D01*
X158685323Y-120315140D01*
X158731531Y-120226805D01*
X158733536Y-120219979D01*
X158741281Y-120193599D01*
X158751216Y-120159766D01*
X158761566Y-120087781D01*
X158761566Y-113335781D01*
X158755727Y-113281468D01*
X158744521Y-113229957D01*
X158737285Y-113203583D01*
X158737282Y-113203577D01*
X158687960Y-113116962D01*
X158687956Y-113116957D01*
X158687954Y-113116953D01*
X158642199Y-113064149D01*
X158609425Y-113032524D01*
X158521090Y-112986316D01*
X158521089Y-112986315D01*
X158521088Y-112986315D01*
X158521088Y-112986314D01*
X158454056Y-112966632D01*
X158454044Y-112966629D01*
X158382067Y-112956281D01*
X158382066Y-112956281D01*
X157070521Y-112956281D01*
X157003482Y-112936596D01*
X156957727Y-112883792D01*
X156947582Y-112816096D01*
X156961316Y-112711781D01*
X156942396Y-112568072D01*
X156898510Y-112462120D01*
X156886928Y-112434158D01*
X156886927Y-112434157D01*
X156886927Y-112434156D01*
X156798687Y-112319160D01*
X156798684Y-112319158D01*
X156793739Y-112312713D01*
X156795958Y-112311010D01*
X156769001Y-112261611D01*
X156774003Y-112191921D01*
X156802494Y-112147602D01*
X156808455Y-112141640D01*
X156808457Y-112141640D01*
X156895925Y-112054172D01*
X156952083Y-111943956D01*
X156952083Y-111943954D01*
X156952084Y-111943953D01*
X156952084Y-111943952D01*
X156958513Y-111903357D01*
X156966566Y-111852516D01*
X156966565Y-111511047D01*
X156966565Y-111511045D01*
X156966565Y-111511041D01*
X156952084Y-111419610D01*
X156952084Y-111419609D01*
X156952083Y-111419607D01*
X156952083Y-111419606D01*
X156895925Y-111309390D01*
X156895923Y-111309388D01*
X156895920Y-111309384D01*
X156875998Y-111289462D01*
X156842513Y-111228139D01*
X156847497Y-111158447D01*
X156875998Y-111114100D01*
X156895920Y-111094177D01*
X156895925Y-111094172D01*
X156952083Y-110983956D01*
X156952083Y-110983954D01*
X156952084Y-110983953D01*
X156952084Y-110983952D01*
X156961498Y-110924513D01*
X156966566Y-110892516D01*
X156966565Y-110551047D01*
X156966565Y-110551041D01*
X156952084Y-110459610D01*
X156952084Y-110459609D01*
X156952083Y-110459607D01*
X156952083Y-110459606D01*
X156895925Y-110349390D01*
X156895923Y-110349388D01*
X156895920Y-110349384D01*
X156808462Y-110261926D01*
X156808459Y-110261924D01*
X156808457Y-110261922D01*
X156698241Y-110205764D01*
X156698240Y-110205763D01*
X156698237Y-110205762D01*
X156606801Y-110191281D01*
X156422610Y-110191281D01*
X156355571Y-110171596D01*
X156334929Y-110154962D01*
X155611279Y-109431312D01*
X155611274Y-109431308D01*
X155531354Y-109385167D01*
X155529118Y-109384568D01*
X155529116Y-109384567D01*
X155501938Y-109377284D01*
X155442278Y-109340918D01*
X155411750Y-109278070D01*
X155420047Y-109208695D01*
X155464533Y-109154818D01*
X155531086Y-109133545D01*
X155548329Y-109134337D01*
X155548573Y-109134365D01*
X155548575Y-109134366D01*
X155573701Y-109137281D01*
X155763430Y-109137280D01*
X155788557Y-109134366D01*
X155818479Y-109121153D01*
X155887756Y-109112082D01*
X155918652Y-109121154D01*
X155942997Y-109131903D01*
X155948509Y-109134337D01*
X155948573Y-109134365D01*
X155948575Y-109134366D01*
X155973701Y-109137281D01*
X156163430Y-109137280D01*
X156188557Y-109134366D01*
X156291331Y-109088987D01*
X156370772Y-109009546D01*
X156416151Y-108906772D01*
X156419066Y-108881646D01*
X156419065Y-108086279D01*
X156438749Y-108019241D01*
X156491553Y-107973486D01*
X156543060Y-107962280D01*
X157338430Y-107962280D01*
X157338445Y-107962278D01*
X157338448Y-107962278D01*
X157363553Y-107959367D01*
X157363554Y-107959366D01*
X157363557Y-107959366D01*
X157466331Y-107913987D01*
X157545772Y-107834546D01*
X157591151Y-107731772D01*
X157594066Y-107706646D01*
X157594065Y-107516917D01*
X157591151Y-107491790D01*
X157579345Y-107465052D01*
X157577939Y-107461867D01*
X157568867Y-107392589D01*
X157577940Y-107361693D01*
X157591150Y-107331776D01*
X157591150Y-107331775D01*
X157591150Y-107331774D01*
X157591151Y-107331772D01*
X157594066Y-107306646D01*
X157594065Y-107116917D01*
X157591151Y-107091790D01*
X157584247Y-107076155D01*
X157577939Y-107061867D01*
X157568867Y-106992589D01*
X157577940Y-106961693D01*
X157589823Y-106934781D01*
X158346067Y-106934781D01*
X158348852Y-106964501D01*
X158392662Y-107089703D01*
X158471424Y-107196422D01*
X158578146Y-107275186D01*
X158703333Y-107318992D01*
X158703345Y-107318994D01*
X158733043Y-107321779D01*
X158733072Y-107321780D01*
X158776066Y-107321780D01*
X158776066Y-106861781D01*
X158346067Y-106861781D01*
X158346067Y-106934781D01*
X157589823Y-106934781D01*
X157591150Y-106931776D01*
X157591150Y-106931775D01*
X157591150Y-106931774D01*
X157591151Y-106931772D01*
X157594066Y-106906646D01*
X157594065Y-106716917D01*
X157591151Y-106691790D01*
X157584247Y-106676155D01*
X157577939Y-106661867D01*
X157568867Y-106592589D01*
X157577940Y-106561693D01*
X157591150Y-106531776D01*
X157591150Y-106531775D01*
X157591150Y-106531774D01*
X157591151Y-106531772D01*
X157594066Y-106506646D01*
X157594065Y-106316917D01*
X157593009Y-106307813D01*
X157591418Y-106294087D01*
X157603192Y-106225341D01*
X157633654Y-106163029D01*
X157643565Y-106095000D01*
X157643565Y-105928567D01*
X157633653Y-105860532D01*
X157603191Y-105798220D01*
X157591418Y-105729469D01*
X157592174Y-105722951D01*
X157594066Y-105706646D01*
X157594065Y-105516917D01*
X157592419Y-105502720D01*
X157591418Y-105494087D01*
X157603192Y-105425341D01*
X157615580Y-105400000D01*
X158320001Y-105400000D01*
X158320001Y-105473000D01*
X158322786Y-105502720D01*
X158366596Y-105627922D01*
X158445358Y-105734641D01*
X158552080Y-105813405D01*
X158677267Y-105857211D01*
X158677272Y-105857212D01*
X158693911Y-105858772D01*
X158758821Y-105884628D01*
X158799448Y-105941472D01*
X158802893Y-106011256D01*
X158768063Y-106071826D01*
X158708808Y-106103373D01*
X158703350Y-106104565D01*
X158578143Y-106148377D01*
X158471424Y-106227139D01*
X158392660Y-106333861D01*
X158348854Y-106459048D01*
X158348852Y-106459060D01*
X158346066Y-106488773D01*
X158346066Y-106561781D01*
X158952066Y-106561781D01*
X159019105Y-106581466D01*
X159064860Y-106634270D01*
X159076066Y-106685781D01*
X159076066Y-107321780D01*
X159119066Y-107321780D01*
X159148786Y-107318994D01*
X159273988Y-107275184D01*
X159370047Y-107204289D01*
X159435675Y-107180318D01*
X159503846Y-107195633D01*
X159511655Y-107200610D01*
X159513673Y-107201638D01*
X159513675Y-107201640D01*
X159623891Y-107257798D01*
X159623892Y-107257798D01*
X159623894Y-107257799D01*
X159659013Y-107263360D01*
X159715331Y-107272281D01*
X160056800Y-107272280D01*
X160056805Y-107272280D01*
X160056805Y-107272279D01*
X160102520Y-107265039D01*
X160148236Y-107257799D01*
X160148237Y-107257799D01*
X160148238Y-107257798D01*
X160148241Y-107257798D01*
X160258457Y-107201640D01*
X160345925Y-107114172D01*
X160345926Y-107114169D01*
X160347291Y-107112805D01*
X160408614Y-107079320D01*
X160478306Y-107084304D01*
X160510460Y-107102111D01*
X160513444Y-107104400D01*
X160513445Y-107104402D01*
X160529755Y-107116917D01*
X160628439Y-107192641D01*
X160628440Y-107192641D01*
X160628441Y-107192642D01*
X160762357Y-107248111D01*
X160889346Y-107264829D01*
X160906065Y-107267031D01*
X160906066Y-107267031D01*
X160906067Y-107267031D01*
X160921043Y-107265059D01*
X161049775Y-107248111D01*
X161183691Y-107192642D01*
X161298687Y-107104402D01*
X161386927Y-106989406D01*
X161442396Y-106855490D01*
X161461316Y-106711781D01*
X161442396Y-106568072D01*
X161397242Y-106459060D01*
X161386928Y-106434158D01*
X161386927Y-106434157D01*
X161386927Y-106434156D01*
X161298687Y-106319160D01*
X161183691Y-106230920D01*
X161183690Y-106230919D01*
X161183688Y-106230918D01*
X161049778Y-106175452D01*
X161049776Y-106175451D01*
X161049775Y-106175451D01*
X160976181Y-106165762D01*
X160906067Y-106156531D01*
X160906065Y-106156531D01*
X160762357Y-106175451D01*
X160762353Y-106175452D01*
X160628443Y-106230918D01*
X160572545Y-106273810D01*
X160513445Y-106319160D01*
X160513444Y-106319161D01*
X160510460Y-106321451D01*
X160445290Y-106346645D01*
X160376846Y-106332607D01*
X160347292Y-106310756D01*
X160258462Y-106221926D01*
X160258459Y-106221924D01*
X160258457Y-106221922D01*
X160148241Y-106165764D01*
X160148240Y-106165763D01*
X160148237Y-106165762D01*
X160056801Y-106151281D01*
X159715326Y-106151281D01*
X159715326Y-106151282D01*
X159623895Y-106165762D01*
X159623894Y-106165762D01*
X159604879Y-106175451D01*
X159513675Y-106221922D01*
X159513673Y-106221923D01*
X159504980Y-106226353D01*
X159503947Y-106224327D01*
X159450734Y-106243301D01*
X159382683Y-106227462D01*
X159370047Y-106219272D01*
X159273985Y-106148375D01*
X159148798Y-106104569D01*
X159148787Y-106104567D01*
X159132149Y-106103007D01*
X159067241Y-106077149D01*
X159026616Y-106020304D01*
X159023173Y-105950519D01*
X159058005Y-105889951D01*
X159117268Y-105858405D01*
X159122717Y-105857214D01*
X159247922Y-105813403D01*
X159343981Y-105742508D01*
X159409609Y-105718537D01*
X159477780Y-105733852D01*
X159485589Y-105738829D01*
X159487607Y-105739857D01*
X159487609Y-105739859D01*
X159597825Y-105796017D01*
X159597826Y-105796017D01*
X159597828Y-105796018D01*
X159632947Y-105801579D01*
X159689265Y-105810500D01*
X160030734Y-105810499D01*
X160030739Y-105810499D01*
X160030739Y-105810498D01*
X160076454Y-105803258D01*
X160122170Y-105796018D01*
X160122171Y-105796018D01*
X160122172Y-105796017D01*
X160122175Y-105796017D01*
X160232391Y-105739859D01*
X160265612Y-105706638D01*
X160326760Y-105645491D01*
X160328444Y-105647175D01*
X160372858Y-105612919D01*
X160442471Y-105606932D01*
X160500878Y-105637742D01*
X160500932Y-105637673D01*
X160501337Y-105637983D01*
X160504270Y-105639531D01*
X160505535Y-105640778D01*
X160507371Y-105642614D01*
X160507377Y-105642618D01*
X160507379Y-105642621D01*
X160622375Y-105730861D01*
X160622376Y-105730861D01*
X160622377Y-105730862D01*
X160644098Y-105739859D01*
X160756291Y-105786330D01*
X160883280Y-105803048D01*
X160899999Y-105805250D01*
X160900000Y-105805250D01*
X160900001Y-105805250D01*
X160914977Y-105803278D01*
X161043709Y-105786330D01*
X161177625Y-105730861D01*
X161292621Y-105642621D01*
X161380861Y-105527625D01*
X161436330Y-105393709D01*
X161455250Y-105250000D01*
X161436330Y-105106291D01*
X161391176Y-104997279D01*
X161380862Y-104972377D01*
X161380861Y-104972376D01*
X161380861Y-104972375D01*
X161292621Y-104857379D01*
X161177625Y-104769139D01*
X161177624Y-104769138D01*
X161177622Y-104769137D01*
X161043712Y-104713671D01*
X161043710Y-104713670D01*
X161043709Y-104713670D01*
X160970115Y-104703981D01*
X160900001Y-104694750D01*
X160899999Y-104694750D01*
X160756291Y-104713670D01*
X160756287Y-104713671D01*
X160622377Y-104769137D01*
X160573460Y-104806672D01*
X160507379Y-104857379D01*
X160507377Y-104857380D01*
X160507372Y-104857385D01*
X160505530Y-104859227D01*
X160503596Y-104860282D01*
X160500932Y-104862327D01*
X160500612Y-104861911D01*
X160444202Y-104892704D01*
X160374511Y-104887710D01*
X160328221Y-104853047D01*
X160326760Y-104854509D01*
X160232396Y-104760145D01*
X160232393Y-104760143D01*
X160232391Y-104760141D01*
X160122175Y-104703983D01*
X160122174Y-104703982D01*
X160122171Y-104703981D01*
X160030735Y-104689500D01*
X159689260Y-104689500D01*
X159689260Y-104689501D01*
X159597829Y-104703981D01*
X159597828Y-104703981D01*
X159548496Y-104729117D01*
X159487609Y-104760141D01*
X159487607Y-104760142D01*
X159478914Y-104764572D01*
X159477881Y-104762546D01*
X159424668Y-104781520D01*
X159356617Y-104765681D01*
X159343981Y-104757491D01*
X159247919Y-104686594D01*
X159122732Y-104642788D01*
X159122720Y-104642786D01*
X159093007Y-104640000D01*
X159050000Y-104640000D01*
X159050000Y-105276000D01*
X159030315Y-105343039D01*
X158977511Y-105388794D01*
X158926000Y-105400000D01*
X158320001Y-105400000D01*
X157615580Y-105400000D01*
X157633654Y-105363029D01*
X157643565Y-105295000D01*
X157643565Y-105128567D01*
X157633653Y-105060532D01*
X157617257Y-105026992D01*
X158320000Y-105026992D01*
X158320000Y-105100000D01*
X158750000Y-105100000D01*
X158750000Y-104640000D01*
X158706999Y-104640000D01*
X158677279Y-104642786D01*
X158552077Y-104686596D01*
X158445358Y-104765358D01*
X158366594Y-104872080D01*
X158322788Y-104997267D01*
X158322786Y-104997279D01*
X158320000Y-105026992D01*
X157617257Y-105026992D01*
X157603191Y-104998220D01*
X157591418Y-104929469D01*
X157594066Y-104906646D01*
X157594065Y-104716917D01*
X157591151Y-104691790D01*
X157584247Y-104676155D01*
X157577939Y-104661867D01*
X157568867Y-104592589D01*
X157577940Y-104561693D01*
X157591150Y-104531776D01*
X157591150Y-104531775D01*
X157591150Y-104531774D01*
X157591151Y-104531772D01*
X157594066Y-104506646D01*
X157594065Y-104316917D01*
X157591151Y-104291790D01*
X157584247Y-104276155D01*
X157577939Y-104261867D01*
X157568867Y-104192589D01*
X157577940Y-104161693D01*
X157591150Y-104131776D01*
X157591150Y-104131775D01*
X157591150Y-104131774D01*
X157591151Y-104131772D01*
X157594066Y-104106646D01*
X157594065Y-103916917D01*
X157591151Y-103891790D01*
X157584247Y-103876155D01*
X157577939Y-103861867D01*
X157568867Y-103792589D01*
X157577940Y-103761693D01*
X157591150Y-103731776D01*
X157591150Y-103731775D01*
X157591150Y-103731774D01*
X157591151Y-103731772D01*
X157594066Y-103706646D01*
X157594065Y-103516917D01*
X157591151Y-103491790D01*
X157579345Y-103465052D01*
X157577939Y-103461867D01*
X157568867Y-103392589D01*
X157577940Y-103361693D01*
X157591150Y-103331776D01*
X157591150Y-103331775D01*
X157591150Y-103331774D01*
X157591151Y-103331772D01*
X157594066Y-103306646D01*
X157594065Y-103116917D01*
X157591151Y-103091790D01*
X157584247Y-103076155D01*
X157577939Y-103061867D01*
X157568867Y-102992589D01*
X157577940Y-102961693D01*
X157591150Y-102931776D01*
X157591150Y-102931775D01*
X157591150Y-102931774D01*
X157591151Y-102931772D01*
X157594066Y-102906646D01*
X157594065Y-102716917D01*
X157594063Y-102716899D01*
X157591418Y-102694087D01*
X157603192Y-102625341D01*
X157633654Y-102563029D01*
X157643565Y-102495000D01*
X157643565Y-102328567D01*
X157633653Y-102260532D01*
X157582350Y-102155589D01*
X157499754Y-102072993D01*
X157394817Y-102021693D01*
X157394814Y-102021692D01*
X157326786Y-102011781D01*
X156592565Y-102011781D01*
X156525526Y-101992096D01*
X156479771Y-101939292D01*
X156468565Y-101887781D01*
X156468565Y-101153563D01*
X156464112Y-101123000D01*
X160420001Y-101123000D01*
X160422786Y-101152720D01*
X160466596Y-101277922D01*
X160545358Y-101384641D01*
X160652080Y-101463405D01*
X160777267Y-101507211D01*
X160777279Y-101507213D01*
X160806977Y-101509998D01*
X160807006Y-101509999D01*
X160850000Y-101509999D01*
X160850000Y-101050000D01*
X160420001Y-101050000D01*
X160420001Y-101123000D01*
X156464112Y-101123000D01*
X156458653Y-101085531D01*
X156407350Y-100980589D01*
X156324754Y-100897993D01*
X156219817Y-100846693D01*
X156219814Y-100846692D01*
X156151785Y-100836781D01*
X155985352Y-100836781D01*
X155917312Y-100846694D01*
X155908111Y-100849537D01*
X155907205Y-100846606D01*
X155854128Y-100855658D01*
X155829369Y-100848386D01*
X155829014Y-100849536D01*
X155819810Y-100846691D01*
X155751786Y-100836781D01*
X155743066Y-100836781D01*
X155676027Y-100817096D01*
X155630272Y-100764292D01*
X155619066Y-100712781D01*
X155619066Y-100667977D01*
X155638751Y-100600938D01*
X155655381Y-100580300D01*
X156362680Y-99873000D01*
X160410001Y-99873000D01*
X160412786Y-99902720D01*
X160456596Y-100027922D01*
X160535358Y-100134641D01*
X160595354Y-100178920D01*
X160637605Y-100234568D01*
X160643063Y-100304224D01*
X160609995Y-100365773D01*
X160595355Y-100378460D01*
X160545357Y-100415360D01*
X160466594Y-100522080D01*
X160422788Y-100647267D01*
X160422786Y-100647279D01*
X160420000Y-100676992D01*
X160420000Y-100750000D01*
X160850000Y-100750000D01*
X160850000Y-100281119D01*
X160843317Y-100268880D01*
X161140000Y-100268880D01*
X161147166Y-100282004D01*
X161150000Y-100308362D01*
X161150000Y-101509999D01*
X161193000Y-101509999D01*
X161222720Y-101507213D01*
X161347922Y-101463403D01*
X161443981Y-101392508D01*
X161509609Y-101368537D01*
X161577780Y-101383852D01*
X161585589Y-101388829D01*
X161587607Y-101389857D01*
X161587609Y-101389859D01*
X161697825Y-101446017D01*
X161697826Y-101446017D01*
X161697828Y-101446018D01*
X161732947Y-101451579D01*
X161789265Y-101460500D01*
X162130734Y-101460499D01*
X162130739Y-101460499D01*
X162130739Y-101460498D01*
X162176454Y-101453258D01*
X162222170Y-101446018D01*
X162222171Y-101446018D01*
X162222172Y-101446017D01*
X162222175Y-101446017D01*
X162332391Y-101389859D01*
X162412543Y-101309706D01*
X162473864Y-101276223D01*
X162543556Y-101281207D01*
X162575707Y-101299011D01*
X162682375Y-101380861D01*
X162682376Y-101380861D01*
X162682377Y-101380862D01*
X162727013Y-101399350D01*
X162816291Y-101436330D01*
X162943280Y-101453048D01*
X162959999Y-101455250D01*
X162960000Y-101455250D01*
X162960001Y-101455250D01*
X162974977Y-101453278D01*
X163103709Y-101436330D01*
X163237625Y-101380861D01*
X163352621Y-101292621D01*
X163440861Y-101177625D01*
X163496330Y-101043709D01*
X163515250Y-100900000D01*
X163496330Y-100756291D01*
X163451176Y-100647279D01*
X163440862Y-100622377D01*
X163440861Y-100622376D01*
X163440861Y-100622375D01*
X163352621Y-100507379D01*
X163237625Y-100419139D01*
X163181213Y-100395772D01*
X163126812Y-100351934D01*
X163104747Y-100285640D01*
X163122026Y-100217941D01*
X163173162Y-100170330D01*
X163181186Y-100166664D01*
X163267625Y-100130861D01*
X163382621Y-100042621D01*
X163470861Y-99927625D01*
X163526330Y-99793709D01*
X163545250Y-99650000D01*
X163526330Y-99506291D01*
X163481176Y-99397279D01*
X163470862Y-99372377D01*
X163470861Y-99372376D01*
X163470861Y-99372375D01*
X163382621Y-99257379D01*
X163267625Y-99169139D01*
X163267624Y-99169138D01*
X163267622Y-99169137D01*
X163133712Y-99113671D01*
X163133710Y-99113670D01*
X163133709Y-99113670D01*
X163060115Y-99103981D01*
X162990001Y-99094750D01*
X162989999Y-99094750D01*
X162846291Y-99113670D01*
X162846287Y-99113671D01*
X162712377Y-99169137D01*
X162663460Y-99206672D01*
X162597379Y-99257379D01*
X162597377Y-99257380D01*
X162597372Y-99257385D01*
X162595530Y-99259227D01*
X162593596Y-99260282D01*
X162590932Y-99262327D01*
X162590612Y-99261911D01*
X162534202Y-99292704D01*
X162464511Y-99287710D01*
X162418221Y-99253047D01*
X162416760Y-99254509D01*
X162322396Y-99160145D01*
X162322393Y-99160143D01*
X162322391Y-99160141D01*
X162212175Y-99103983D01*
X162212174Y-99103982D01*
X162212171Y-99103981D01*
X162120735Y-99089500D01*
X161779260Y-99089500D01*
X161779260Y-99089501D01*
X161687829Y-99103981D01*
X161687828Y-99103981D01*
X161668813Y-99113670D01*
X161577609Y-99160141D01*
X161577607Y-99160142D01*
X161568914Y-99164572D01*
X161567881Y-99162546D01*
X161514668Y-99181520D01*
X161446617Y-99165681D01*
X161433981Y-99157491D01*
X161337919Y-99086594D01*
X161212732Y-99042788D01*
X161212720Y-99042786D01*
X161183007Y-99040000D01*
X161140000Y-99040000D01*
X161140000Y-100268880D01*
X160843317Y-100268880D01*
X160842834Y-100267996D01*
X160840000Y-100241638D01*
X160840000Y-99800000D01*
X160410001Y-99800000D01*
X160410001Y-99873000D01*
X156362680Y-99873000D01*
X156528863Y-99706817D01*
X156590186Y-99673333D01*
X156616544Y-99670499D01*
X156800739Y-99670499D01*
X156800739Y-99670498D01*
X156856254Y-99661706D01*
X156892170Y-99656018D01*
X156892171Y-99656018D01*
X156892172Y-99656017D01*
X156892175Y-99656017D01*
X157002391Y-99599859D01*
X157028743Y-99573506D01*
X157090064Y-99540022D01*
X157159756Y-99545006D01*
X157207725Y-99580914D01*
X157208788Y-99579852D01*
X157215356Y-99586420D01*
X157322080Y-99665186D01*
X157447267Y-99708992D01*
X157447279Y-99708994D01*
X157476992Y-99711780D01*
X157850000Y-99711780D01*
X157923000Y-99711780D01*
X157952720Y-99708994D01*
X158077922Y-99665184D01*
X158184641Y-99586422D01*
X158263405Y-99479700D01*
X158281849Y-99426992D01*
X160410000Y-99426992D01*
X160410000Y-99500000D01*
X160840000Y-99500000D01*
X160840000Y-99040000D01*
X160796999Y-99040000D01*
X160767279Y-99042786D01*
X160642077Y-99086596D01*
X160535358Y-99165358D01*
X160456594Y-99272080D01*
X160412788Y-99397267D01*
X160412786Y-99397279D01*
X160410000Y-99426992D01*
X158281849Y-99426992D01*
X158307211Y-99354513D01*
X158307213Y-99354501D01*
X158310000Y-99324788D01*
X158310000Y-99281781D01*
X157850000Y-99281781D01*
X157850000Y-99711780D01*
X157476992Y-99711780D01*
X157549999Y-99711779D01*
X157550000Y-99711779D01*
X157550000Y-99105781D01*
X157569685Y-99038742D01*
X157622489Y-98992987D01*
X157674000Y-98981781D01*
X158309999Y-98981781D01*
X158309999Y-98938780D01*
X158307213Y-98909060D01*
X158263403Y-98783858D01*
X158192508Y-98687799D01*
X158168537Y-98622170D01*
X158183852Y-98554000D01*
X158188830Y-98546189D01*
X158189856Y-98544174D01*
X158189859Y-98544172D01*
X158246017Y-98433956D01*
X158246017Y-98433954D01*
X158246018Y-98433953D01*
X158246018Y-98433952D01*
X158255114Y-98376518D01*
X158260500Y-98342516D01*
X158260499Y-98001047D01*
X158260499Y-98001046D01*
X158260499Y-98001041D01*
X158246018Y-97909610D01*
X158246018Y-97909609D01*
X158246017Y-97909607D01*
X158246017Y-97909606D01*
X158189859Y-97799390D01*
X158189857Y-97799388D01*
X158189854Y-97799384D01*
X158127075Y-97736605D01*
X158093590Y-97675282D01*
X158098574Y-97605590D01*
X158116381Y-97573437D01*
X158138718Y-97544328D01*
X158180861Y-97489406D01*
X158236330Y-97355490D01*
X158252873Y-97229834D01*
X163656066Y-97229834D01*
X163666679Y-97318224D01*
X163722145Y-97458876D01*
X163813501Y-97579345D01*
X163933970Y-97670701D01*
X164074622Y-97726167D01*
X164163012Y-97736781D01*
X164306066Y-97736781D01*
X164606066Y-97736781D01*
X164749120Y-97736781D01*
X164837509Y-97726167D01*
X164978161Y-97670701D01*
X165098630Y-97579345D01*
X165189986Y-97458876D01*
X165245452Y-97318224D01*
X165256066Y-97229834D01*
X165256066Y-96861781D01*
X164606066Y-96861781D01*
X164606066Y-97736781D01*
X164306066Y-97736781D01*
X164306066Y-96861781D01*
X163656066Y-96861781D01*
X163656066Y-97229834D01*
X158252873Y-97229834D01*
X158255250Y-97211781D01*
X158236330Y-97068072D01*
X158187261Y-96949606D01*
X158180862Y-96934158D01*
X158180861Y-96934157D01*
X158180861Y-96934156D01*
X158092621Y-96819160D01*
X157977625Y-96730920D01*
X157977624Y-96730919D01*
X157977622Y-96730918D01*
X157843712Y-96675452D01*
X157843710Y-96675451D01*
X157843709Y-96675451D01*
X157754225Y-96663670D01*
X157700001Y-96656531D01*
X157699999Y-96656531D01*
X157556291Y-96675451D01*
X157556287Y-96675452D01*
X157422377Y-96730918D01*
X157307378Y-96819161D01*
X157252894Y-96890165D01*
X157196465Y-96931367D01*
X157126719Y-96935521D01*
X157065799Y-96901307D01*
X157056145Y-96890165D01*
X156992621Y-96807379D01*
X156877625Y-96719139D01*
X156877624Y-96719138D01*
X156877622Y-96719137D01*
X156743712Y-96663671D01*
X156743710Y-96663670D01*
X156743709Y-96663670D01*
X156671854Y-96654210D01*
X156600001Y-96644750D01*
X156599999Y-96644750D01*
X156456291Y-96663670D01*
X156456287Y-96663671D01*
X156322377Y-96719137D01*
X156277333Y-96753701D01*
X156207379Y-96807379D01*
X156207378Y-96807380D01*
X156207377Y-96807381D01*
X156172875Y-96852345D01*
X156116447Y-96893547D01*
X156046701Y-96897702D01*
X155985781Y-96863489D01*
X155953029Y-96801772D01*
X155950500Y-96776858D01*
X155950500Y-96193727D01*
X163656066Y-96193727D01*
X163656066Y-96561781D01*
X164306066Y-96561781D01*
X164606066Y-96561781D01*
X165256066Y-96561781D01*
X165256066Y-96193727D01*
X165255488Y-96188916D01*
X165605566Y-96188916D01*
X165605566Y-97234651D01*
X165605567Y-97234657D01*
X165611974Y-97294264D01*
X165662268Y-97429109D01*
X165662272Y-97429116D01*
X165748518Y-97544325D01*
X165748521Y-97544328D01*
X165863730Y-97630574D01*
X165863737Y-97630578D01*
X165908684Y-97647342D01*
X165998583Y-97680872D01*
X166058193Y-97687281D01*
X166653938Y-97687280D01*
X166713549Y-97680872D01*
X166848397Y-97630577D01*
X166963612Y-97544327D01*
X167049862Y-97429112D01*
X167100157Y-97294264D01*
X167106566Y-97234654D01*
X167106566Y-97186281D01*
X167126251Y-97119242D01*
X167179055Y-97073487D01*
X167230566Y-97062281D01*
X167419974Y-97062281D01*
X167487013Y-97081966D01*
X167506478Y-97099867D01*
X167507694Y-97098652D01*
X167513438Y-97104396D01*
X167513443Y-97104400D01*
X167513445Y-97104402D01*
X167628441Y-97192642D01*
X167762357Y-97248111D01*
X167889346Y-97264829D01*
X167906065Y-97267031D01*
X167906066Y-97267031D01*
X167906067Y-97267031D01*
X167921043Y-97265059D01*
X168049775Y-97248111D01*
X168183691Y-97192642D01*
X168298687Y-97104402D01*
X168386927Y-96989406D01*
X168442396Y-96855490D01*
X168461316Y-96711781D01*
X168442396Y-96568072D01*
X168386927Y-96434156D01*
X168298687Y-96319160D01*
X168183691Y-96230920D01*
X168183690Y-96230919D01*
X168183688Y-96230918D01*
X168049778Y-96175452D01*
X168049776Y-96175451D01*
X168049775Y-96175451D01*
X167977920Y-96165991D01*
X167906067Y-96156531D01*
X167906065Y-96156531D01*
X167762357Y-96175451D01*
X167762353Y-96175452D01*
X167628443Y-96230918D01*
X167513438Y-96319165D01*
X167507694Y-96324910D01*
X167505177Y-96322393D01*
X167461883Y-96353984D01*
X167419974Y-96361281D01*
X167230565Y-96361281D01*
X167163526Y-96341596D01*
X167117771Y-96288792D01*
X167106565Y-96237281D01*
X167106565Y-96188910D01*
X167106564Y-96188904D01*
X167106563Y-96188897D01*
X167100157Y-96129298D01*
X167077321Y-96068072D01*
X167049863Y-95994452D01*
X167049859Y-95994445D01*
X166963613Y-95879236D01*
X166963610Y-95879233D01*
X166848401Y-95792987D01*
X166848394Y-95792983D01*
X166713552Y-95742691D01*
X166713551Y-95742690D01*
X166713549Y-95742690D01*
X166653939Y-95736281D01*
X166653929Y-95736281D01*
X166058195Y-95736281D01*
X166058189Y-95736282D01*
X165998582Y-95742689D01*
X165863737Y-95792983D01*
X165863730Y-95792987D01*
X165748521Y-95879233D01*
X165748518Y-95879236D01*
X165662272Y-95994445D01*
X165662268Y-95994452D01*
X165611974Y-96129298D01*
X165605567Y-96188897D01*
X165605567Y-96188904D01*
X165605566Y-96188916D01*
X165255488Y-96188916D01*
X165245452Y-96105337D01*
X165189986Y-95964685D01*
X165098630Y-95844216D01*
X164978161Y-95752860D01*
X164837509Y-95697394D01*
X164749120Y-95686781D01*
X164606066Y-95686781D01*
X164606066Y-96561781D01*
X164306066Y-96561781D01*
X164306066Y-95686781D01*
X164163012Y-95686781D01*
X164074622Y-95697394D01*
X163933970Y-95752860D01*
X163813501Y-95844216D01*
X163722145Y-95964685D01*
X163666679Y-96105337D01*
X163656066Y-96193727D01*
X155950500Y-96193727D01*
X155950500Y-94406711D01*
X162506066Y-94406711D01*
X162521188Y-94540922D01*
X162580729Y-94711082D01*
X162676643Y-94863729D01*
X162804117Y-94991203D01*
X162956764Y-95087117D01*
X163126924Y-95146658D01*
X163261135Y-95161780D01*
X163261136Y-95161781D01*
X164556066Y-95161781D01*
X164856066Y-95161781D01*
X166150996Y-95161781D01*
X166150996Y-95161780D01*
X166285207Y-95146658D01*
X166455367Y-95087117D01*
X166608014Y-94991203D01*
X166735488Y-94863729D01*
X166831402Y-94711082D01*
X166890943Y-94540922D01*
X166906065Y-94406711D01*
X166906066Y-94406711D01*
X166906066Y-94011781D01*
X164856066Y-94011781D01*
X164856066Y-95161781D01*
X164556066Y-95161781D01*
X164556066Y-94011781D01*
X162506066Y-94011781D01*
X162506066Y-94406711D01*
X155950500Y-94406711D01*
X155950500Y-93316850D01*
X162506066Y-93316850D01*
X162506066Y-93711781D01*
X164556066Y-93711781D01*
X164856066Y-93711781D01*
X166906066Y-93711781D01*
X166906066Y-93316851D01*
X166906065Y-93316850D01*
X166890943Y-93182639D01*
X166831402Y-93012479D01*
X166735488Y-92859832D01*
X166608014Y-92732358D01*
X166455367Y-92636444D01*
X166285207Y-92576903D01*
X166150996Y-92561781D01*
X164856066Y-92561781D01*
X164856066Y-93711781D01*
X164556066Y-93711781D01*
X164556066Y-92561781D01*
X163261136Y-92561781D01*
X163126924Y-92576903D01*
X162956764Y-92636444D01*
X162804117Y-92732358D01*
X162676643Y-92859832D01*
X162580729Y-93012479D01*
X162521188Y-93182639D01*
X162506066Y-93316850D01*
X155950500Y-93316850D01*
X155950500Y-82812826D01*
X155967113Y-82750825D01*
X155975865Y-82735668D01*
X155982351Y-82711456D01*
X155982352Y-82711456D01*
X155982352Y-82711452D01*
X155996018Y-82660451D01*
X156032383Y-82600795D01*
X156095230Y-82570266D01*
X156164606Y-82578563D01*
X156203472Y-82604869D01*
X157590854Y-83992251D01*
X157670778Y-84038395D01*
X157759922Y-84062281D01*
X157759923Y-84062281D01*
X157852210Y-84062281D01*
X162260522Y-84062281D01*
X162327561Y-84081966D01*
X162373316Y-84134770D01*
X162383260Y-84203928D01*
X162354235Y-84267484D01*
X162348203Y-84273962D01*
X162125597Y-84496567D01*
X162125596Y-84496569D01*
X162098025Y-84544325D01*
X162098024Y-84544326D01*
X162098023Y-84544327D01*
X162079453Y-84576490D01*
X162079452Y-84576493D01*
X162055566Y-84665637D01*
X162055566Y-86189757D01*
X162035881Y-86256796D01*
X161983077Y-86302551D01*
X161941296Y-86313375D01*
X161932437Y-86314072D01*
X161780680Y-86358161D01*
X161780675Y-86358163D01*
X161644649Y-86438608D01*
X161644640Y-86438615D01*
X161532900Y-86550355D01*
X161532893Y-86550364D01*
X161452448Y-86686390D01*
X161452446Y-86686395D01*
X161408358Y-86838147D01*
X161408356Y-86838160D01*
X161405566Y-86873610D01*
X161405566Y-88249931D01*
X161405567Y-88249956D01*
X161408357Y-88285408D01*
X161452446Y-88437166D01*
X161452448Y-88437171D01*
X161532893Y-88573197D01*
X161532900Y-88573206D01*
X161644640Y-88684946D01*
X161644644Y-88684949D01*
X161644646Y-88684951D01*
X161780676Y-88765399D01*
X161932439Y-88809490D01*
X161967903Y-88812281D01*
X162844228Y-88812280D01*
X162879693Y-88809490D01*
X163031456Y-88765399D01*
X163167486Y-88684951D01*
X163279236Y-88573201D01*
X163359684Y-88437171D01*
X163403775Y-88285408D01*
X163406566Y-88249944D01*
X163406566Y-88241347D01*
X163656067Y-88241347D01*
X163662244Y-88309342D01*
X163662247Y-88309353D01*
X163711010Y-88465841D01*
X163711012Y-88465845D01*
X163795809Y-88606118D01*
X163795813Y-88606123D01*
X163911723Y-88722033D01*
X163911728Y-88722037D01*
X164052000Y-88806833D01*
X164208503Y-88855601D01*
X164276509Y-88861780D01*
X164556065Y-88861780D01*
X164856066Y-88861780D01*
X165135631Y-88861780D01*
X165203627Y-88855602D01*
X165203638Y-88855599D01*
X165360126Y-88806836D01*
X165360130Y-88806834D01*
X165500403Y-88722037D01*
X165500408Y-88722033D01*
X165616318Y-88606123D01*
X165616322Y-88606118D01*
X165701118Y-88465846D01*
X165749886Y-88309343D01*
X165756066Y-88241337D01*
X165756066Y-87711781D01*
X164856066Y-87711781D01*
X164856066Y-88861780D01*
X164556065Y-88861780D01*
X164556066Y-88861779D01*
X164556066Y-87711781D01*
X163656067Y-87711781D01*
X163656067Y-88241347D01*
X163406566Y-88241347D01*
X163406565Y-86882224D01*
X163656066Y-86882224D01*
X163656066Y-87411781D01*
X164556066Y-87411781D01*
X164856066Y-87411781D01*
X165756065Y-87411781D01*
X165756065Y-86882214D01*
X165749887Y-86814219D01*
X165749884Y-86814208D01*
X165701121Y-86657720D01*
X165701119Y-86657716D01*
X165616322Y-86517443D01*
X165616318Y-86517438D01*
X165500408Y-86401528D01*
X165500403Y-86401524D01*
X165360131Y-86316728D01*
X165203628Y-86267960D01*
X165135622Y-86261781D01*
X164856066Y-86261781D01*
X164856066Y-87411781D01*
X164556066Y-87411781D01*
X164556066Y-86261781D01*
X164276499Y-86261781D01*
X164208504Y-86267959D01*
X164208493Y-86267962D01*
X164052005Y-86316725D01*
X164052001Y-86316727D01*
X163911728Y-86401524D01*
X163911723Y-86401528D01*
X163795813Y-86517438D01*
X163795809Y-86517443D01*
X163711013Y-86657715D01*
X163662245Y-86814218D01*
X163656066Y-86882224D01*
X163406565Y-86882224D01*
X163406565Y-86873619D01*
X163403775Y-86838154D01*
X163359684Y-86686391D01*
X163279236Y-86550361D01*
X163279234Y-86550359D01*
X163279231Y-86550355D01*
X163167491Y-86438615D01*
X163167482Y-86438608D01*
X163031456Y-86358163D01*
X163031451Y-86358161D01*
X162879699Y-86314073D01*
X162879686Y-86314071D01*
X162870838Y-86313375D01*
X162805549Y-86288491D01*
X162764078Y-86232260D01*
X162756566Y-86189757D01*
X162756566Y-84908324D01*
X162776251Y-84841285D01*
X162792881Y-84820647D01*
X162907799Y-84705728D01*
X162969122Y-84672244D01*
X163038812Y-84677227D01*
X163038814Y-84677228D01*
X163038814Y-84677229D01*
X163048577Y-84680870D01*
X163048583Y-84680872D01*
X163108193Y-84687281D01*
X163703938Y-84687280D01*
X163763549Y-84680872D01*
X163898397Y-84630577D01*
X164013612Y-84544327D01*
X164099862Y-84429112D01*
X164150157Y-84294264D01*
X164156566Y-84234654D01*
X164156565Y-83188916D01*
X164555566Y-83188916D01*
X164555566Y-84234651D01*
X164555567Y-84234657D01*
X164561974Y-84294264D01*
X164612268Y-84429109D01*
X164612272Y-84429116D01*
X164698518Y-84544325D01*
X164698520Y-84544327D01*
X164813730Y-84630574D01*
X164813739Y-84630579D01*
X164864148Y-84649380D01*
X164903275Y-84663973D01*
X164959209Y-84705843D01*
X164975718Y-84739823D01*
X164976344Y-84739564D01*
X164979453Y-84747071D01*
X165025593Y-84826989D01*
X165025595Y-84826992D01*
X165025596Y-84826993D01*
X165690854Y-85492251D01*
X165758510Y-85531312D01*
X165770778Y-85538395D01*
X165859922Y-85562281D01*
X165919974Y-85562281D01*
X165987013Y-85581966D01*
X166006478Y-85599867D01*
X166007694Y-85598652D01*
X166013438Y-85604396D01*
X166013443Y-85604400D01*
X166013445Y-85604402D01*
X166128441Y-85692642D01*
X166262357Y-85748111D01*
X166406066Y-85767031D01*
X166414195Y-85767031D01*
X166414195Y-85770609D01*
X166467036Y-85778812D01*
X166501944Y-85803341D01*
X166619247Y-85920644D01*
X166652732Y-85981967D01*
X166655566Y-86008325D01*
X166655566Y-86189757D01*
X166635881Y-86256796D01*
X166583077Y-86302551D01*
X166541296Y-86313375D01*
X166532437Y-86314072D01*
X166380680Y-86358161D01*
X166380675Y-86358163D01*
X166244649Y-86438608D01*
X166244640Y-86438615D01*
X166132900Y-86550355D01*
X166132893Y-86550364D01*
X166052448Y-86686390D01*
X166052446Y-86686395D01*
X166008358Y-86838147D01*
X166008356Y-86838160D01*
X166005566Y-86873610D01*
X166005566Y-88249931D01*
X166005567Y-88249956D01*
X166008357Y-88285408D01*
X166052446Y-88437166D01*
X166052448Y-88437171D01*
X166132893Y-88573197D01*
X166132900Y-88573206D01*
X166244640Y-88684946D01*
X166244644Y-88684949D01*
X166244646Y-88684951D01*
X166380676Y-88765399D01*
X166532439Y-88809490D01*
X166567903Y-88812281D01*
X167444228Y-88812280D01*
X167479693Y-88809490D01*
X167631456Y-88765399D01*
X167767486Y-88684951D01*
X167879236Y-88573201D01*
X167959684Y-88437171D01*
X168003775Y-88285408D01*
X168006566Y-88249944D01*
X168006565Y-86873619D01*
X168003775Y-86838154D01*
X167959684Y-86686391D01*
X167879236Y-86550361D01*
X167879234Y-86550359D01*
X167879231Y-86550355D01*
X167767491Y-86438615D01*
X167767482Y-86438608D01*
X167631456Y-86358163D01*
X167631451Y-86358161D01*
X167479699Y-86314073D01*
X167479686Y-86314071D01*
X167470838Y-86313375D01*
X167405549Y-86288491D01*
X167364078Y-86232260D01*
X167356566Y-86189757D01*
X167356566Y-85765639D01*
X167356566Y-85765637D01*
X167332680Y-85676493D01*
X167298489Y-85617273D01*
X167286536Y-85596569D01*
X167286534Y-85596567D01*
X167286533Y-85596565D01*
X166997626Y-85307658D01*
X166964141Y-85246335D01*
X166963075Y-85219910D01*
X166961316Y-85219910D01*
X166961316Y-85211781D01*
X166942396Y-85068072D01*
X166886927Y-84934156D01*
X166798687Y-84819160D01*
X166683691Y-84730920D01*
X166683690Y-84730919D01*
X166683688Y-84730918D01*
X166549778Y-84675452D01*
X166549776Y-84675451D01*
X166549775Y-84675451D01*
X166462593Y-84663973D01*
X166406067Y-84656531D01*
X166406065Y-84656531D01*
X166262357Y-84675451D01*
X166262353Y-84675452D01*
X166128442Y-84730919D01*
X166128440Y-84730920D01*
X166097274Y-84754835D01*
X166032105Y-84780029D01*
X165963660Y-84765990D01*
X165934107Y-84744140D01*
X165911634Y-84721667D01*
X165878149Y-84660344D01*
X165883133Y-84590652D01*
X165908328Y-84551450D01*
X165908297Y-84551427D01*
X165908623Y-84550990D01*
X165911639Y-84546299D01*
X165913604Y-84544332D01*
X165913612Y-84544327D01*
X165999862Y-84429112D01*
X166050157Y-84294264D01*
X166056566Y-84234654D01*
X166056565Y-83188909D01*
X166050157Y-83129298D01*
X166038009Y-83096728D01*
X165999863Y-82994452D01*
X165999859Y-82994445D01*
X165913613Y-82879236D01*
X165913610Y-82879233D01*
X165798401Y-82792987D01*
X165798394Y-82792983D01*
X165663552Y-82742691D01*
X165663551Y-82742690D01*
X165663549Y-82742690D01*
X165603939Y-82736281D01*
X165603929Y-82736281D01*
X165008195Y-82736281D01*
X165008189Y-82736282D01*
X164948582Y-82742689D01*
X164813737Y-82792983D01*
X164813730Y-82792987D01*
X164698521Y-82879233D01*
X164698518Y-82879236D01*
X164612272Y-82994445D01*
X164612268Y-82994452D01*
X164561974Y-83129298D01*
X164557562Y-83170339D01*
X164555567Y-83188904D01*
X164555566Y-83188916D01*
X164156565Y-83188916D01*
X164156565Y-83188909D01*
X164150157Y-83129298D01*
X164138009Y-83096728D01*
X164099863Y-82994452D01*
X164099859Y-82994445D01*
X164013613Y-82879236D01*
X164013610Y-82879233D01*
X163898401Y-82792987D01*
X163898394Y-82792983D01*
X163763552Y-82742691D01*
X163763551Y-82742690D01*
X163763549Y-82742690D01*
X163703939Y-82736281D01*
X163703929Y-82736281D01*
X163108195Y-82736281D01*
X163108189Y-82736282D01*
X163048582Y-82742689D01*
X162913737Y-82792983D01*
X162913730Y-82792987D01*
X162798521Y-82879233D01*
X162798518Y-82879236D01*
X162712272Y-82994445D01*
X162712268Y-82994452D01*
X162661974Y-83129298D01*
X162657562Y-83170339D01*
X162655567Y-83188904D01*
X162655566Y-83188916D01*
X162655566Y-83237281D01*
X162635881Y-83304320D01*
X162583077Y-83350075D01*
X162531566Y-83361281D01*
X158002610Y-83361281D01*
X157935571Y-83341596D01*
X157914929Y-83324962D01*
X157023929Y-82433962D01*
X156990444Y-82372639D01*
X156995428Y-82302947D01*
X157037300Y-82247014D01*
X157102764Y-82222597D01*
X157111610Y-82222281D01*
X158830742Y-82222281D01*
X158830743Y-82222280D01*
X158903806Y-82207747D01*
X158986667Y-82152382D01*
X159042032Y-82069521D01*
X159056566Y-81996455D01*
X159056566Y-81057727D01*
X169555566Y-81057727D01*
X169555566Y-81365834D01*
X169555567Y-81365850D01*
X169595783Y-81671323D01*
X169675530Y-81968943D01*
X169793442Y-82253607D01*
X169793447Y-82253618D01*
X169836770Y-82328654D01*
X169947504Y-82520451D01*
X169947506Y-82520454D01*
X169947507Y-82520455D01*
X170135073Y-82764896D01*
X170135079Y-82764903D01*
X170352943Y-82982767D01*
X170352950Y-82982773D01*
X170455754Y-83061657D01*
X170597396Y-83170343D01*
X170768896Y-83269359D01*
X170864228Y-83324399D01*
X170864233Y-83324401D01*
X170864236Y-83324403D01*
X171148902Y-83442316D01*
X171446522Y-83522063D01*
X171752006Y-83562281D01*
X171752013Y-83562281D01*
X172060119Y-83562281D01*
X172060126Y-83562281D01*
X172365610Y-83522063D01*
X172663230Y-83442316D01*
X172947896Y-83324403D01*
X173214736Y-83170343D01*
X173459183Y-82982772D01*
X173677057Y-82764898D01*
X173864628Y-82520451D01*
X174018688Y-82253611D01*
X174136601Y-81968945D01*
X174216348Y-81671325D01*
X174256566Y-81365841D01*
X174256566Y-81057721D01*
X174216348Y-80752237D01*
X174136601Y-80454617D01*
X174018688Y-80169951D01*
X174018686Y-80169948D01*
X174018684Y-80169943D01*
X173902138Y-79968081D01*
X173864628Y-79903111D01*
X173677057Y-79658664D01*
X173677052Y-79658658D01*
X173459188Y-79440794D01*
X173459181Y-79440788D01*
X173214740Y-79253222D01*
X173214739Y-79253221D01*
X173214736Y-79253219D01*
X173100528Y-79187281D01*
X172947903Y-79099162D01*
X172947892Y-79099157D01*
X172663228Y-78981245D01*
X172365608Y-78901498D01*
X172060135Y-78861282D01*
X172060132Y-78861281D01*
X172060126Y-78861281D01*
X171752006Y-78861281D01*
X171752000Y-78861281D01*
X171751996Y-78861282D01*
X171446523Y-78901498D01*
X171148903Y-78981245D01*
X170864239Y-79099157D01*
X170864228Y-79099162D01*
X170597391Y-79253222D01*
X170352950Y-79440788D01*
X170352943Y-79440794D01*
X170135079Y-79658658D01*
X170135073Y-79658665D01*
X169947507Y-79903106D01*
X169793447Y-80169943D01*
X169793442Y-80169954D01*
X169675530Y-80454618D01*
X169595783Y-80752238D01*
X169555567Y-81057711D01*
X169555566Y-81057727D01*
X159056566Y-81057727D01*
X159056566Y-80487107D01*
X159056566Y-80487104D01*
X159041422Y-80410973D01*
X159041422Y-80362589D01*
X159056566Y-80286457D01*
X159056566Y-79537104D01*
X159056565Y-79537102D01*
X159042033Y-79464045D01*
X159042032Y-79464041D01*
X159040855Y-79462280D01*
X158986667Y-79381180D01*
X158903806Y-79325815D01*
X158903805Y-79325814D01*
X158903801Y-79325813D01*
X158830743Y-79311281D01*
X158830740Y-79311281D01*
X158655566Y-79311281D01*
X158588527Y-79291596D01*
X158542772Y-79238792D01*
X158531566Y-79187281D01*
X158531566Y-77332435D01*
X158531566Y-77332429D01*
X158528731Y-77296408D01*
X158483949Y-77142268D01*
X158402241Y-77004107D01*
X158402239Y-77004105D01*
X158402236Y-77004101D01*
X158322097Y-76923962D01*
X158288612Y-76862639D01*
X158293596Y-76792947D01*
X158335468Y-76737014D01*
X158400932Y-76712597D01*
X158409778Y-76712281D01*
X176281566Y-76712281D01*
X176348605Y-76731966D01*
X176394360Y-76784770D01*
X176405566Y-76836281D01*
X176405566Y-125587281D01*
X176385881Y-125654320D01*
X176333077Y-125700075D01*
X176281566Y-125711281D01*
X127530566Y-125711281D01*
X127463527Y-125691596D01*
X127417772Y-125638792D01*
X127406566Y-125587281D01*
X127406566Y-121557727D01*
X129555566Y-121557727D01*
X129555566Y-121865834D01*
X129555567Y-121865850D01*
X129595783Y-122171323D01*
X129675530Y-122468943D01*
X129793442Y-122753607D01*
X129793447Y-122753618D01*
X129886080Y-122914061D01*
X129947504Y-123020451D01*
X129947506Y-123020454D01*
X129947507Y-123020455D01*
X130135073Y-123264896D01*
X130135079Y-123264903D01*
X130352943Y-123482767D01*
X130352949Y-123482772D01*
X130597396Y-123670343D01*
X130768896Y-123769359D01*
X130864228Y-123824399D01*
X130864233Y-123824401D01*
X130864236Y-123824403D01*
X131148902Y-123942316D01*
X131446522Y-124022063D01*
X131752006Y-124062281D01*
X131752013Y-124062281D01*
X132060119Y-124062281D01*
X132060126Y-124062281D01*
X132365610Y-124022063D01*
X132663230Y-123942316D01*
X132947896Y-123824403D01*
X133214736Y-123670343D01*
X133459183Y-123482772D01*
X133677057Y-123264898D01*
X133864628Y-123020451D01*
X134018688Y-122753611D01*
X134136601Y-122468945D01*
X134216348Y-122171325D01*
X134256566Y-121865841D01*
X134256566Y-121557727D01*
X170055566Y-121557727D01*
X170055566Y-121865834D01*
X170055567Y-121865850D01*
X170095783Y-122171323D01*
X170175530Y-122468943D01*
X170293442Y-122753607D01*
X170293447Y-122753618D01*
X170386080Y-122914061D01*
X170447504Y-123020451D01*
X170447506Y-123020454D01*
X170447507Y-123020455D01*
X170635073Y-123264896D01*
X170635079Y-123264903D01*
X170852943Y-123482767D01*
X170852949Y-123482772D01*
X171097396Y-123670343D01*
X171268896Y-123769359D01*
X171364228Y-123824399D01*
X171364233Y-123824401D01*
X171364236Y-123824403D01*
X171648902Y-123942316D01*
X171946522Y-124022063D01*
X172252006Y-124062281D01*
X172252013Y-124062281D01*
X172560119Y-124062281D01*
X172560126Y-124062281D01*
X172865610Y-124022063D01*
X173163230Y-123942316D01*
X173447896Y-123824403D01*
X173714736Y-123670343D01*
X173959183Y-123482772D01*
X174177057Y-123264898D01*
X174364628Y-123020451D01*
X174518688Y-122753611D01*
X174636601Y-122468945D01*
X174716348Y-122171325D01*
X174756566Y-121865841D01*
X174756566Y-121557721D01*
X174716348Y-121252237D01*
X174636601Y-120954617D01*
X174518688Y-120669951D01*
X174518686Y-120669948D01*
X174518684Y-120669943D01*
X174463644Y-120574611D01*
X174364628Y-120403111D01*
X174287254Y-120302275D01*
X174177058Y-120158665D01*
X174177052Y-120158658D01*
X173959188Y-119940794D01*
X173959181Y-119940788D01*
X173714740Y-119753222D01*
X173714739Y-119753221D01*
X173714736Y-119753219D01*
X173608346Y-119691795D01*
X173447903Y-119599162D01*
X173447892Y-119599157D01*
X173163228Y-119481245D01*
X172865608Y-119401498D01*
X172560135Y-119361282D01*
X172560132Y-119361281D01*
X172560126Y-119361281D01*
X172252006Y-119361281D01*
X172252000Y-119361281D01*
X172251996Y-119361282D01*
X171946523Y-119401498D01*
X171648903Y-119481245D01*
X171364239Y-119599157D01*
X171364228Y-119599162D01*
X171097391Y-119753222D01*
X170852950Y-119940788D01*
X170852943Y-119940794D01*
X170635079Y-120158658D01*
X170635073Y-120158665D01*
X170447507Y-120403106D01*
X170293447Y-120669943D01*
X170293442Y-120669954D01*
X170175530Y-120954618D01*
X170095783Y-121252238D01*
X170055567Y-121557711D01*
X170055566Y-121557727D01*
X134256566Y-121557727D01*
X134256566Y-121557721D01*
X134216348Y-121252237D01*
X134136601Y-120954617D01*
X134018688Y-120669951D01*
X134018686Y-120669948D01*
X134018684Y-120669943D01*
X133963644Y-120574611D01*
X133864628Y-120403111D01*
X133787254Y-120302275D01*
X133677058Y-120158665D01*
X133677052Y-120158658D01*
X133459188Y-119940794D01*
X133459181Y-119940788D01*
X133214740Y-119753222D01*
X133214739Y-119753221D01*
X133214736Y-119753219D01*
X133108346Y-119691795D01*
X132947903Y-119599162D01*
X132947892Y-119599157D01*
X132663228Y-119481245D01*
X132365608Y-119401498D01*
X132060135Y-119361282D01*
X132060132Y-119361281D01*
X132060126Y-119361281D01*
X131752006Y-119361281D01*
X131752000Y-119361281D01*
X131751996Y-119361282D01*
X131446523Y-119401498D01*
X131148903Y-119481245D01*
X130864239Y-119599157D01*
X130864228Y-119599162D01*
X130597391Y-119753222D01*
X130352950Y-119940788D01*
X130352943Y-119940794D01*
X130135079Y-120158658D01*
X130135073Y-120158665D01*
X129947507Y-120403106D01*
X129793447Y-120669943D01*
X129793442Y-120669954D01*
X129675530Y-120954618D01*
X129595783Y-121252238D01*
X129555567Y-121557711D01*
X129555566Y-121557727D01*
X127406566Y-121557727D01*
X127406566Y-81057727D01*
X129555566Y-81057727D01*
X129555566Y-81365834D01*
X129555567Y-81365850D01*
X129595783Y-81671323D01*
X129675530Y-81968943D01*
X129793442Y-82253607D01*
X129793447Y-82253618D01*
X129836770Y-82328654D01*
X129947504Y-82520451D01*
X129947506Y-82520454D01*
X129947507Y-82520455D01*
X130135073Y-82764896D01*
X130135079Y-82764903D01*
X130352943Y-82982767D01*
X130352950Y-82982773D01*
X130455754Y-83061657D01*
X130597396Y-83170343D01*
X130768896Y-83269359D01*
X130864228Y-83324399D01*
X130864233Y-83324401D01*
X130864236Y-83324403D01*
X131148902Y-83442316D01*
X131446522Y-83522063D01*
X131752006Y-83562281D01*
X131752013Y-83562281D01*
X132060119Y-83562281D01*
X132060126Y-83562281D01*
X132365610Y-83522063D01*
X132663230Y-83442316D01*
X132947896Y-83324403D01*
X133214736Y-83170343D01*
X133459183Y-82982772D01*
X133677057Y-82764898D01*
X133864628Y-82520451D01*
X134018688Y-82253611D01*
X134136601Y-81968945D01*
X134216348Y-81671325D01*
X134256566Y-81365841D01*
X134256566Y-81057721D01*
X134216348Y-80752237D01*
X134136601Y-80454617D01*
X134018688Y-80169951D01*
X134018686Y-80169948D01*
X134018684Y-80169943D01*
X133902138Y-79968081D01*
X133864628Y-79903111D01*
X133677057Y-79658664D01*
X133677052Y-79658658D01*
X133459188Y-79440794D01*
X133459181Y-79440788D01*
X133214740Y-79253222D01*
X133214739Y-79253221D01*
X133214736Y-79253219D01*
X133100528Y-79187281D01*
X132947903Y-79099162D01*
X132947892Y-79099157D01*
X132663228Y-78981245D01*
X132365608Y-78901498D01*
X132060135Y-78861282D01*
X132060132Y-78861281D01*
X132060126Y-78861281D01*
X131752006Y-78861281D01*
X131752000Y-78861281D01*
X131751996Y-78861282D01*
X131446523Y-78901498D01*
X131148903Y-78981245D01*
X130864239Y-79099157D01*
X130864228Y-79099162D01*
X130597391Y-79253222D01*
X130352950Y-79440788D01*
X130352943Y-79440794D01*
X130135079Y-79658658D01*
X130135073Y-79658665D01*
X129947507Y-79903106D01*
X129793447Y-80169943D01*
X129793442Y-80169954D01*
X129675530Y-80454618D01*
X129595783Y-80752238D01*
X129555567Y-81057711D01*
X129555566Y-81057727D01*
X127406566Y-81057727D01*
X127406566Y-76836281D01*
X127426251Y-76769242D01*
X127479055Y-76723487D01*
X127530566Y-76712281D01*
X151402354Y-76712281D01*
X151469393Y-76731966D01*
G37*
G04 #@! TD.AperFunction*
G04 #@! TA.AperFunction,Conductor*
G36*
X153824269Y-109626112D02*
G01*
X153830747Y-109632144D01*
X154190854Y-109992251D01*
X154270778Y-110038395D01*
X154349500Y-110059488D01*
X154409158Y-110095851D01*
X154439688Y-110158698D01*
X154431394Y-110228074D01*
X154417176Y-110252895D01*
X154342660Y-110353861D01*
X154298854Y-110479048D01*
X154298852Y-110479060D01*
X154296066Y-110508773D01*
X154296066Y-110551781D01*
X155516063Y-110551781D01*
X155540542Y-110527302D01*
X155601865Y-110493817D01*
X155671557Y-110498801D01*
X155715905Y-110527302D01*
X155809247Y-110620644D01*
X155842732Y-110681967D01*
X155845566Y-110708324D01*
X155845566Y-110892520D01*
X155860047Y-110983951D01*
X155860047Y-110983952D01*
X155860048Y-110983955D01*
X155860049Y-110983956D01*
X155905869Y-111073883D01*
X155916208Y-111094173D01*
X155916211Y-111094177D01*
X155936134Y-111114100D01*
X155969619Y-111175423D01*
X155964635Y-111245115D01*
X155936134Y-111289462D01*
X155916211Y-111309384D01*
X155916209Y-111309388D01*
X155916207Y-111309390D01*
X155897487Y-111346128D01*
X155860047Y-111419608D01*
X155860047Y-111419609D01*
X155845566Y-111511045D01*
X155845566Y-111852520D01*
X155860047Y-111943951D01*
X155860047Y-111943952D01*
X155860048Y-111943955D01*
X155860049Y-111943956D01*
X155916207Y-112054172D01*
X156003675Y-112141640D01*
X156003676Y-112141640D01*
X156009638Y-112147602D01*
X156043123Y-112208925D01*
X156038139Y-112278617D01*
X156016950Y-112311605D01*
X156018393Y-112312713D01*
X156013447Y-112319158D01*
X156013445Y-112319160D01*
X155954461Y-112396028D01*
X155925203Y-112434158D01*
X155869737Y-112568068D01*
X155869736Y-112568072D01*
X155850816Y-112711781D01*
X155864549Y-112816096D01*
X155853785Y-112885130D01*
X155807405Y-112937386D01*
X155741611Y-112956281D01*
X155570521Y-112956281D01*
X155503482Y-112936596D01*
X155457727Y-112883792D01*
X155447582Y-112816096D01*
X155461316Y-112711781D01*
X155442396Y-112568072D01*
X155398510Y-112462120D01*
X155386928Y-112434158D01*
X155386927Y-112434157D01*
X155386927Y-112434156D01*
X155298687Y-112319160D01*
X155298685Y-112319158D01*
X155298681Y-112319153D01*
X155292937Y-112313409D01*
X155295453Y-112310892D01*
X155263863Y-112267598D01*
X155256566Y-112225689D01*
X155256566Y-112222521D01*
X155276251Y-112155482D01*
X155301628Y-112128612D01*
X155301556Y-112128540D01*
X155304097Y-112125998D01*
X155307687Y-112122198D01*
X155308446Y-112121645D01*
X155308457Y-112121640D01*
X155395925Y-112034172D01*
X155452083Y-111923956D01*
X155452083Y-111923954D01*
X155452084Y-111923953D01*
X155452084Y-111923952D01*
X155455967Y-111899431D01*
X155466566Y-111832516D01*
X155466565Y-111491047D01*
X155466565Y-111491045D01*
X155466565Y-111491041D01*
X155452084Y-111399610D01*
X155452084Y-111399609D01*
X155452083Y-111399607D01*
X155452083Y-111399606D01*
X155395925Y-111289390D01*
X155395923Y-111289388D01*
X155391494Y-111280695D01*
X155393521Y-111279661D01*
X155374546Y-111226465D01*
X155390376Y-111158412D01*
X155398574Y-111145762D01*
X155469471Y-111049700D01*
X155513277Y-110924513D01*
X155513279Y-110924501D01*
X155516066Y-110894788D01*
X155516066Y-110851781D01*
X154296067Y-110851781D01*
X154296067Y-110894781D01*
X154298852Y-110924501D01*
X154342662Y-111049703D01*
X154413557Y-111145762D01*
X154437528Y-111211391D01*
X154422213Y-111279561D01*
X154417236Y-111287370D01*
X154360047Y-111399608D01*
X154360047Y-111399609D01*
X154345566Y-111491045D01*
X154345566Y-111832520D01*
X154360047Y-111923951D01*
X154360047Y-111923952D01*
X154360048Y-111923955D01*
X154360049Y-111923956D01*
X154416207Y-112034172D01*
X154503675Y-112121640D01*
X154503682Y-112121643D01*
X154504445Y-112122198D01*
X154505156Y-112123120D01*
X154510576Y-112128540D01*
X154509875Y-112129240D01*
X154547114Y-112177525D01*
X154555566Y-112222521D01*
X154555566Y-112225689D01*
X154535881Y-112292728D01*
X154517979Y-112312193D01*
X154519195Y-112313409D01*
X154513450Y-112319153D01*
X154425203Y-112434158D01*
X154369737Y-112568068D01*
X154369736Y-112568072D01*
X154350816Y-112711781D01*
X154366680Y-112832281D01*
X154369736Y-112855489D01*
X154369736Y-112855490D01*
X154374618Y-112867276D01*
X154382085Y-112936746D01*
X154350809Y-112999225D01*
X154290720Y-113034876D01*
X154220895Y-113032381D01*
X154172375Y-113002408D01*
X153792885Y-112622918D01*
X153759400Y-112561595D01*
X153756566Y-112535237D01*
X153756566Y-112292377D01*
X153776251Y-112225338D01*
X153811839Y-112193673D01*
X153809807Y-112190827D01*
X153818169Y-112184856D01*
X153909142Y-112093883D01*
X153909144Y-112093880D01*
X153938333Y-112034172D01*
X153965648Y-111978299D01*
X153976566Y-111903363D01*
X153976566Y-111560199D01*
X153965648Y-111485263D01*
X153963288Y-111480437D01*
X153909144Y-111369681D01*
X153909142Y-111369678D01*
X153848926Y-111309462D01*
X153815441Y-111248139D01*
X153820425Y-111178447D01*
X153848926Y-111134100D01*
X153909142Y-111073883D01*
X153909144Y-111073880D01*
X153938379Y-111014078D01*
X153965648Y-110958299D01*
X153976566Y-110883363D01*
X153976566Y-110540199D01*
X153965648Y-110465263D01*
X153950441Y-110434156D01*
X153909144Y-110349681D01*
X153909142Y-110349678D01*
X153818168Y-110258704D01*
X153818165Y-110258702D01*
X153693933Y-110197969D01*
X153694994Y-110195797D01*
X153648219Y-110164798D01*
X153620092Y-110100839D01*
X153619066Y-110084923D01*
X153619066Y-109719825D01*
X153638751Y-109652786D01*
X153691555Y-109607031D01*
X153760713Y-109597087D01*
X153824269Y-109626112D01*
G37*
G04 #@! TD.AperFunction*
G04 #@! TA.AperFunction,Conductor*
G36*
X153118652Y-102246154D02*
G01*
X153148573Y-102259365D01*
X153148575Y-102259366D01*
X153173701Y-102262281D01*
X153363430Y-102262280D01*
X153368568Y-102261684D01*
X153386259Y-102259633D01*
X153455004Y-102271406D01*
X153517318Y-102301869D01*
X153585346Y-102311780D01*
X153751779Y-102311780D01*
X153819814Y-102301868D01*
X153826919Y-102299673D01*
X153896782Y-102298688D01*
X153956087Y-102335630D01*
X153986005Y-102398770D01*
X153977038Y-102468062D01*
X153966630Y-102487037D01*
X153945680Y-102518391D01*
X153892068Y-102563196D01*
X153842578Y-102573500D01*
X151410998Y-102573500D01*
X151313230Y-102592947D01*
X151313224Y-102592949D01*
X151266530Y-102612290D01*
X151261922Y-102613938D01*
X151178010Y-102670006D01*
X151178007Y-102670009D01*
X151122621Y-102752901D01*
X151100950Y-102805220D01*
X151100947Y-102805230D01*
X151081500Y-102902997D01*
X151081500Y-102903000D01*
X151081500Y-107155000D01*
X151081500Y-107155002D01*
X151081499Y-107155002D01*
X151100947Y-107252769D01*
X151100948Y-107252770D01*
X151100949Y-107252775D01*
X151120290Y-107299468D01*
X151121939Y-107304079D01*
X151178006Y-107387989D01*
X151178009Y-107387992D01*
X151260899Y-107443377D01*
X151260900Y-107443377D01*
X151260901Y-107443378D01*
X151305531Y-107461864D01*
X151313225Y-107465051D01*
X151313229Y-107465051D01*
X151313230Y-107465052D01*
X151410997Y-107484500D01*
X151411000Y-107484500D01*
X153442578Y-107484500D01*
X153509617Y-107504185D01*
X153545676Y-107539603D01*
X153551573Y-107548429D01*
X153572454Y-107615103D01*
X153553973Y-107682484D01*
X153502933Y-107728724D01*
X153455003Y-107752155D01*
X153386257Y-107763928D01*
X153363436Y-107761281D01*
X153173708Y-107761281D01*
X153173684Y-107761283D01*
X153148580Y-107764194D01*
X153148576Y-107764195D01*
X153118649Y-107777409D01*
X153049370Y-107786478D01*
X153018481Y-107777408D01*
X152988558Y-107764196D01*
X152963431Y-107761281D01*
X152773708Y-107761281D01*
X152773684Y-107761283D01*
X152748580Y-107764194D01*
X152748576Y-107764195D01*
X152718649Y-107777409D01*
X152649370Y-107786478D01*
X152618481Y-107777408D01*
X152588558Y-107764196D01*
X152563431Y-107761281D01*
X152373708Y-107761281D01*
X152373684Y-107761283D01*
X152348580Y-107764194D01*
X152348576Y-107764195D01*
X152318649Y-107777409D01*
X152249370Y-107786478D01*
X152218481Y-107777408D01*
X152188558Y-107764196D01*
X152163431Y-107761281D01*
X151973708Y-107761281D01*
X151973684Y-107761283D01*
X151948580Y-107764194D01*
X151948576Y-107764195D01*
X151918649Y-107777409D01*
X151849370Y-107786478D01*
X151818481Y-107777408D01*
X151788558Y-107764196D01*
X151763431Y-107761281D01*
X151573708Y-107761281D01*
X151573684Y-107761283D01*
X151548580Y-107764194D01*
X151548576Y-107764195D01*
X151518649Y-107777409D01*
X151449370Y-107786478D01*
X151418481Y-107777408D01*
X151388558Y-107764196D01*
X151363431Y-107761281D01*
X151173708Y-107761281D01*
X151173684Y-107761283D01*
X151148580Y-107764194D01*
X151148576Y-107764195D01*
X151118649Y-107777409D01*
X151049370Y-107786478D01*
X151018481Y-107777408D01*
X150988558Y-107764196D01*
X150963434Y-107761281D01*
X150843065Y-107761281D01*
X150776026Y-107741596D01*
X150730271Y-107688792D01*
X150719065Y-107637283D01*
X150719065Y-107516917D01*
X150716151Y-107491790D01*
X150704345Y-107465052D01*
X150702939Y-107461867D01*
X150693867Y-107392589D01*
X150702940Y-107361693D01*
X150716150Y-107331776D01*
X150716150Y-107331775D01*
X150716150Y-107331774D01*
X150716151Y-107331772D01*
X150719066Y-107306646D01*
X150719065Y-107116917D01*
X150716151Y-107091790D01*
X150709247Y-107076155D01*
X150702939Y-107061867D01*
X150693867Y-106992589D01*
X150702940Y-106961693D01*
X150716150Y-106931776D01*
X150716150Y-106931775D01*
X150716150Y-106931774D01*
X150716151Y-106931772D01*
X150719066Y-106906646D01*
X150719065Y-106716917D01*
X150716151Y-106691790D01*
X150709247Y-106676155D01*
X150702939Y-106661867D01*
X150693867Y-106592589D01*
X150702940Y-106561693D01*
X150716150Y-106531776D01*
X150716150Y-106531775D01*
X150716150Y-106531774D01*
X150716151Y-106531772D01*
X150719066Y-106506646D01*
X150719065Y-106316917D01*
X150718009Y-106307813D01*
X150716418Y-106294087D01*
X150728192Y-106225341D01*
X150758654Y-106163029D01*
X150768565Y-106095000D01*
X150768565Y-105928567D01*
X150758653Y-105860532D01*
X150728191Y-105798220D01*
X150716418Y-105729469D01*
X150717174Y-105722951D01*
X150719066Y-105706646D01*
X150719065Y-105516917D01*
X150716151Y-105491790D01*
X150707854Y-105473000D01*
X150702939Y-105461867D01*
X150693867Y-105392589D01*
X150702940Y-105361693D01*
X150716150Y-105331776D01*
X150716150Y-105331775D01*
X150716150Y-105331774D01*
X150716151Y-105331772D01*
X150719066Y-105306646D01*
X150719065Y-105116917D01*
X150716151Y-105091790D01*
X150709247Y-105076155D01*
X150702939Y-105061867D01*
X150693867Y-104992589D01*
X150702940Y-104961693D01*
X150716150Y-104931776D01*
X150716150Y-104931775D01*
X150716150Y-104931774D01*
X150716151Y-104931772D01*
X150719066Y-104906646D01*
X150719065Y-104716917D01*
X150716151Y-104691790D01*
X150709247Y-104676155D01*
X150702939Y-104661867D01*
X150693867Y-104592589D01*
X150702940Y-104561693D01*
X150716150Y-104531776D01*
X150716150Y-104531775D01*
X150716150Y-104531774D01*
X150716151Y-104531772D01*
X150719066Y-104506646D01*
X150719065Y-104316917D01*
X150716151Y-104291790D01*
X150709247Y-104276155D01*
X150702939Y-104261867D01*
X150693867Y-104192589D01*
X150702940Y-104161693D01*
X150716150Y-104131776D01*
X150716150Y-104131775D01*
X150716150Y-104131774D01*
X150716151Y-104131772D01*
X150719066Y-104106646D01*
X150719065Y-103916917D01*
X150716151Y-103891790D01*
X150709247Y-103876155D01*
X150702939Y-103861867D01*
X150693867Y-103792589D01*
X150702940Y-103761693D01*
X150716150Y-103731776D01*
X150716150Y-103731775D01*
X150716150Y-103731774D01*
X150716151Y-103731772D01*
X150719066Y-103706646D01*
X150719065Y-103516917D01*
X150716151Y-103491790D01*
X150704345Y-103465052D01*
X150702939Y-103461867D01*
X150693867Y-103392589D01*
X150702940Y-103361693D01*
X150716150Y-103331776D01*
X150716150Y-103331775D01*
X150716150Y-103331774D01*
X150716151Y-103331772D01*
X150719066Y-103306646D01*
X150719065Y-103116917D01*
X150716151Y-103091790D01*
X150709247Y-103076155D01*
X150702939Y-103061867D01*
X150693867Y-102992589D01*
X150702940Y-102961693D01*
X150716150Y-102931776D01*
X150716150Y-102931775D01*
X150716150Y-102931774D01*
X150716151Y-102931772D01*
X150719066Y-102906646D01*
X150719065Y-102716917D01*
X150719063Y-102716899D01*
X150716418Y-102694087D01*
X150728192Y-102625341D01*
X150758654Y-102563029D01*
X150768565Y-102495000D01*
X150768565Y-102386281D01*
X150788249Y-102319241D01*
X150841053Y-102273486D01*
X150892563Y-102262280D01*
X150963430Y-102262280D01*
X150988557Y-102259366D01*
X151018479Y-102246153D01*
X151087756Y-102237082D01*
X151118652Y-102246154D01*
X151148573Y-102259365D01*
X151148575Y-102259366D01*
X151173701Y-102262281D01*
X151363430Y-102262280D01*
X151388557Y-102259366D01*
X151418479Y-102246153D01*
X151487756Y-102237082D01*
X151518652Y-102246154D01*
X151548573Y-102259365D01*
X151548575Y-102259366D01*
X151573701Y-102262281D01*
X151763430Y-102262280D01*
X151788557Y-102259366D01*
X151818479Y-102246153D01*
X151887756Y-102237082D01*
X151918652Y-102246154D01*
X151948573Y-102259365D01*
X151948575Y-102259366D01*
X151973701Y-102262281D01*
X152163430Y-102262280D01*
X152188557Y-102259366D01*
X152218479Y-102246153D01*
X152287756Y-102237082D01*
X152318652Y-102246154D01*
X152348573Y-102259365D01*
X152348575Y-102259366D01*
X152373701Y-102262281D01*
X152563430Y-102262280D01*
X152588557Y-102259366D01*
X152618479Y-102246153D01*
X152687756Y-102237082D01*
X152718652Y-102246154D01*
X152748573Y-102259365D01*
X152748575Y-102259366D01*
X152773701Y-102262281D01*
X152963430Y-102262280D01*
X152988557Y-102259366D01*
X153018479Y-102246153D01*
X153087756Y-102237082D01*
X153118652Y-102246154D01*
G37*
G04 #@! TD.AperFunction*
G04 #@! TA.AperFunction,Conductor*
G36*
X155934378Y-102304355D02*
G01*
X155985345Y-102311780D01*
X156044564Y-102311780D01*
X156111604Y-102331464D01*
X156157360Y-102384267D01*
X156168566Y-102435778D01*
X156168566Y-102494993D01*
X156178478Y-102563029D01*
X156208941Y-102625342D01*
X156220714Y-102694093D01*
X156218066Y-102716912D01*
X156218066Y-102906638D01*
X156218068Y-102906662D01*
X156220979Y-102931766D01*
X156220979Y-102931767D01*
X156220980Y-102931771D01*
X156220981Y-102931772D01*
X156234192Y-102961693D01*
X156234194Y-102961696D01*
X156243263Y-103030975D01*
X156234194Y-103061864D01*
X156220981Y-103091789D01*
X156218066Y-103116912D01*
X156218066Y-103306638D01*
X156218068Y-103306662D01*
X156220979Y-103331766D01*
X156220979Y-103331767D01*
X156220980Y-103331771D01*
X156220981Y-103331772D01*
X156234192Y-103361693D01*
X156234194Y-103361696D01*
X156243263Y-103430975D01*
X156234194Y-103461864D01*
X156220981Y-103491789D01*
X156218066Y-103516912D01*
X156218066Y-103706638D01*
X156218068Y-103706662D01*
X156220979Y-103731766D01*
X156220979Y-103731767D01*
X156220980Y-103731771D01*
X156220981Y-103731772D01*
X156234192Y-103761693D01*
X156234194Y-103761696D01*
X156243263Y-103830975D01*
X156234194Y-103861864D01*
X156220981Y-103891789D01*
X156218066Y-103916912D01*
X156218066Y-104106638D01*
X156218068Y-104106662D01*
X156220979Y-104131766D01*
X156220979Y-104131767D01*
X156220980Y-104131771D01*
X156220981Y-104131772D01*
X156234192Y-104161693D01*
X156234194Y-104161696D01*
X156243263Y-104230975D01*
X156234194Y-104261864D01*
X156220981Y-104291789D01*
X156218066Y-104316912D01*
X156218066Y-104506638D01*
X156218068Y-104506662D01*
X156220979Y-104531766D01*
X156220979Y-104531767D01*
X156220980Y-104531771D01*
X156220981Y-104531772D01*
X156234192Y-104561693D01*
X156234194Y-104561696D01*
X156243263Y-104630975D01*
X156234194Y-104661864D01*
X156220981Y-104691789D01*
X156218066Y-104716912D01*
X156218066Y-104906638D01*
X156218067Y-104906654D01*
X156220714Y-104929477D01*
X156208941Y-104998216D01*
X156178477Y-105060533D01*
X156168566Y-105128561D01*
X156168566Y-105294994D01*
X156178478Y-105363029D01*
X156208941Y-105425342D01*
X156220714Y-105494093D01*
X156218066Y-105516912D01*
X156218066Y-105706638D01*
X156218067Y-105706654D01*
X156220714Y-105729477D01*
X156208941Y-105798216D01*
X156178477Y-105860533D01*
X156168566Y-105928561D01*
X156168566Y-106094994D01*
X156178478Y-106163029D01*
X156208941Y-106225342D01*
X156220714Y-106294093D01*
X156218066Y-106316912D01*
X156218066Y-106506638D01*
X156218068Y-106506662D01*
X156220979Y-106531766D01*
X156220979Y-106531767D01*
X156220980Y-106531771D01*
X156220981Y-106531772D01*
X156234192Y-106561693D01*
X156234194Y-106561696D01*
X156243263Y-106630975D01*
X156234194Y-106661864D01*
X156220981Y-106691789D01*
X156218066Y-106716912D01*
X156218066Y-106906638D01*
X156218068Y-106906662D01*
X156220979Y-106931766D01*
X156220979Y-106931767D01*
X156220980Y-106931771D01*
X156220981Y-106931772D01*
X156234192Y-106961693D01*
X156234194Y-106961696D01*
X156243263Y-107030975D01*
X156234194Y-107061864D01*
X156220981Y-107091789D01*
X156218066Y-107116912D01*
X156218066Y-107306638D01*
X156218068Y-107306662D01*
X156220979Y-107331766D01*
X156220979Y-107331767D01*
X156220980Y-107331771D01*
X156220981Y-107331772D01*
X156234192Y-107361693D01*
X156234194Y-107361696D01*
X156243263Y-107430975D01*
X156234194Y-107461864D01*
X156220981Y-107491789D01*
X156218066Y-107516912D01*
X156218066Y-107637281D01*
X156198381Y-107704320D01*
X156145577Y-107750075D01*
X156094067Y-107761281D01*
X155973709Y-107761281D01*
X155973684Y-107761283D01*
X155948580Y-107764194D01*
X155948576Y-107764195D01*
X155918649Y-107777409D01*
X155849370Y-107786478D01*
X155818481Y-107777408D01*
X155788558Y-107764196D01*
X155763431Y-107761281D01*
X155573708Y-107761281D01*
X155573684Y-107761283D01*
X155548580Y-107764194D01*
X155548576Y-107764195D01*
X155518649Y-107777409D01*
X155449370Y-107786478D01*
X155418481Y-107777408D01*
X155388558Y-107764196D01*
X155363431Y-107761281D01*
X155173708Y-107761281D01*
X155173684Y-107761283D01*
X155148580Y-107764194D01*
X155148576Y-107764195D01*
X155118649Y-107777409D01*
X155049370Y-107786478D01*
X155018481Y-107777408D01*
X154988558Y-107764196D01*
X154963434Y-107761281D01*
X154812190Y-107761281D01*
X154745151Y-107741596D01*
X154699396Y-107688792D01*
X154689452Y-107619634D01*
X154709086Y-107568393D01*
X154751377Y-107505101D01*
X154773051Y-107452775D01*
X154785023Y-107392589D01*
X154792500Y-107355002D01*
X154792500Y-107254971D01*
X154793561Y-107238785D01*
X154805250Y-107150000D01*
X154805250Y-107149998D01*
X154793561Y-107061213D01*
X154792500Y-107045028D01*
X154792500Y-106986280D01*
X154812185Y-106919241D01*
X154864989Y-106873486D01*
X154916500Y-106862280D01*
X154955609Y-106862280D01*
X154955610Y-106862280D01*
X155047993Y-106847649D01*
X155159337Y-106790916D01*
X155247701Y-106702552D01*
X155304434Y-106591208D01*
X155304475Y-106590954D01*
X155313847Y-106531775D01*
X155319066Y-106498826D01*
X155319065Y-103608499D01*
X155338750Y-103541461D01*
X155391553Y-103495706D01*
X155443065Y-103484500D01*
X155463002Y-103484500D01*
X155528777Y-103471415D01*
X155560775Y-103465051D01*
X155607478Y-103445705D01*
X155612080Y-103444059D01*
X155613101Y-103443377D01*
X155613102Y-103443377D01*
X155695992Y-103387991D01*
X155751377Y-103305101D01*
X155773051Y-103252775D01*
X155779689Y-103219404D01*
X155792500Y-103155002D01*
X155792500Y-102427059D01*
X155812185Y-102360020D01*
X155864989Y-102314265D01*
X155934147Y-102304321D01*
X155934378Y-102304355D01*
G37*
G04 #@! TD.AperFunction*
G04 #@! TD*
G04 #@! TA.AperFunction,Conductor*
G04 #@! TO.N,+1V1*
G36*
X155515326Y-102250674D02*
G01*
X155537000Y-102303000D01*
X155537000Y-103155000D01*
X155515326Y-103207326D01*
X155463000Y-103229000D01*
X155055342Y-103229000D01*
X155024069Y-103222067D01*
X155015105Y-103217887D01*
X155015103Y-103217886D01*
X154978139Y-103213020D01*
X154964929Y-103211281D01*
X154964927Y-103211281D01*
X151972205Y-103211281D01*
X151922027Y-103217887D01*
X151922023Y-103217888D01*
X151913062Y-103222067D01*
X151881789Y-103229000D01*
X151687000Y-103229000D01*
X151687000Y-103422398D01*
X151680067Y-103453671D01*
X151674672Y-103465240D01*
X151668066Y-103515419D01*
X151668066Y-106508141D01*
X151674671Y-106558315D01*
X151674672Y-106558320D01*
X151680067Y-106569891D01*
X151687000Y-106601162D01*
X151687000Y-106779000D01*
X151848416Y-106779000D01*
X151879689Y-106785933D01*
X151898565Y-106794734D01*
X151922027Y-106805675D01*
X151972203Y-106812281D01*
X154463000Y-106812280D01*
X154515326Y-106833954D01*
X154537000Y-106886280D01*
X154537000Y-107355000D01*
X154515326Y-107407326D01*
X154463000Y-107429000D01*
X153811000Y-107429000D01*
X153758674Y-107407326D01*
X153737000Y-107355000D01*
X153737000Y-107229000D01*
X151411000Y-107229000D01*
X151358674Y-107207326D01*
X151337000Y-107155000D01*
X151337000Y-102903000D01*
X151358674Y-102850674D01*
X151411000Y-102829000D01*
X154137000Y-102829000D01*
X154137000Y-102703000D01*
X154158674Y-102650674D01*
X154211000Y-102629000D01*
X154537000Y-102629000D01*
X154537000Y-102303000D01*
X154558674Y-102250674D01*
X154611000Y-102229000D01*
X155463000Y-102229000D01*
X155515326Y-102250674D01*
G37*
G04 #@! TD.AperFunction*
G04 #@! TD*
M02*
