M48
; DRILL file {KiCad 8.0.5} date 2024-09-17T16:22:35-0700
; FORMAT={-:-/ absolute / metric / decimal}
; #@! TF.CreationDate,2024-09-17T16:22:35-07:00
; #@! TF.GenerationSoftware,Kicad,Pcbnew,8.0.5
; #@! TF.FileFunction,Plated,1,2,PTH
FMAT,2
METRIC
; #@! TA.AperFunction,Plated,PTH,ViaDrill
T1C0.300
; #@! TA.AperFunction,Plated,PTH,ViaDrill
T2C0.350
; #@! TA.AperFunction,Plated,PTH,ComponentDrill
T3C0.350
; #@! TA.AperFunction,Plated,PTH,ComponentDrill
T4C0.650
; #@! TA.AperFunction,Plated,PTH,ComponentDrill
T5C0.700
%
G90
G05
T1
X139.05Y-101.25
X139.406Y-104.212
X140.906Y-87.212
X144.406Y-103.712
X145.906Y-106.212
X148.906Y-87.212
X150.406Y-114.712
X150.406Y-118.712
X151.406Y-110.712
X152.15Y-96.2
X153.3Y-96.212
X153.406Y-83.212
X154.906Y-112.712
X156.406Y-112.712
X156.6Y-97.2
X157.406Y-114.712
X157.406Y-118.712
X157.7Y-97.212
X160.9Y-105.25
X160.906Y-106.712
X162.96Y-100.9
X162.99Y-99.65
X166.406Y-85.212
X167.906Y-96.712
T2
X150.114Y-79.883
X152.55Y-100.25
X154.25Y-107.15
X154.4Y-102.9
X154.94Y-109.728
X159.766Y-79.883
T3
X152.194Y-103.737
X152.194Y-105.012
X152.194Y-106.287
X153.469Y-103.737
X153.469Y-105.012
X153.469Y-106.287
X154.744Y-103.737
X154.744Y-105.012
X154.744Y-106.287
T4
G00X152.481Y-81.042
M15
G01X152.481Y-81.442
M16
G05
G00X157.331Y-81.042
M15
G01X157.331Y-81.442
M16
G05
T5
G00X152.181Y-77.962
M15
G01X152.181Y-78.462
M16
G05
G00X157.631Y-77.962
M15
G01X157.631Y-78.462
M16
G05
M30
