%TF.GenerationSoftware,KiCad,Pcbnew,8.0.5*%
%TF.CreationDate,2024-09-17T16:22:35-07:00*%
%TF.ProjectId,RP2040_PCB,52503230-3430-45f5-9043-422e6b696361,rev?*%
%TF.SameCoordinates,Original*%
%TF.FileFunction,Drillmap*%
%TF.FilePolarity,Positive*%
%FSLAX45Y45*%
G04 Gerber Fmt 4.5, Leading zero omitted, Abs format (unit mm)*
G04 Created by KiCad (PCBNEW 8.0.5) date 2024-09-17 16:22:35*
%MOMM*%
%LPD*%
G01*
G04 APERTURE LIST*
%ADD10C,0.600000*%
%ADD11C,0.200000*%
%ADD12C,0.100000*%
G04 APERTURE END LIST*
D10*
X12690607Y-7621178D02*
X17690607Y-7621178D01*
X17690607Y-12621178D01*
X12690607Y-12621178D01*
X12690607Y-7621178D01*
D11*
D12*
X13890000Y-10110000D02*
X13920000Y-10140000D01*
X13920000Y-10110000D02*
X13890000Y-10140000D01*
X13925607Y-10406178D02*
X13955607Y-10436178D01*
X13955607Y-10406178D02*
X13925607Y-10436178D01*
X14075607Y-8706178D02*
X14105607Y-8736178D01*
X14105607Y-8706178D02*
X14075607Y-8736178D01*
X14425607Y-10356178D02*
X14455607Y-10386178D01*
X14455607Y-10356178D02*
X14425607Y-10386178D01*
X14575607Y-10606178D02*
X14605607Y-10636178D01*
X14605607Y-10606178D02*
X14575607Y-10636178D01*
X14875607Y-8706178D02*
X14905607Y-8736178D01*
X14905607Y-8706178D02*
X14875607Y-8736178D01*
X15025607Y-11456178D02*
X15055607Y-11486178D01*
X15055607Y-11456178D02*
X15025607Y-11486178D01*
X15025607Y-11856178D02*
X15055607Y-11886178D01*
X15055607Y-11856178D02*
X15025607Y-11886178D01*
X15125607Y-11056178D02*
X15155607Y-11086178D01*
X15155607Y-11056178D02*
X15125607Y-11086178D01*
X15200000Y-9605000D02*
X15230000Y-9635000D01*
X15230000Y-9605000D02*
X15200000Y-9635000D01*
X15315000Y-9606178D02*
X15345000Y-9636178D01*
X15345000Y-9606178D02*
X15315000Y-9636178D01*
X15325607Y-8306178D02*
X15355607Y-8336178D01*
X15355607Y-8306178D02*
X15325607Y-8336178D01*
X15475607Y-11256178D02*
X15505607Y-11286178D01*
X15505607Y-11256178D02*
X15475607Y-11286178D01*
X15625607Y-11256178D02*
X15655607Y-11286178D01*
X15655607Y-11256178D02*
X15625607Y-11286178D01*
X15645000Y-9705000D02*
X15675000Y-9735000D01*
X15675000Y-9705000D02*
X15645000Y-9735000D01*
X15725607Y-11456178D02*
X15755607Y-11486178D01*
X15755607Y-11456178D02*
X15725607Y-11486178D01*
X15725607Y-11856178D02*
X15755607Y-11886178D01*
X15755607Y-11856178D02*
X15725607Y-11886178D01*
X15755000Y-9706178D02*
X15785000Y-9736178D01*
X15785000Y-9706178D02*
X15755000Y-9736178D01*
X16075000Y-10510000D02*
X16105000Y-10540000D01*
X16105000Y-10510000D02*
X16075000Y-10540000D01*
X16075607Y-10656178D02*
X16105607Y-10686178D01*
X16105607Y-10656178D02*
X16075607Y-10686178D01*
X16281000Y-10075000D02*
X16311000Y-10105000D01*
X16311000Y-10075000D02*
X16281000Y-10105000D01*
X16284000Y-9950000D02*
X16314000Y-9980000D01*
X16314000Y-9950000D02*
X16284000Y-9980000D01*
X16625607Y-8506178D02*
X16655607Y-8536178D01*
X16655607Y-8506178D02*
X16625607Y-8536178D01*
X16775607Y-9656178D02*
X16805607Y-9686178D01*
X16805607Y-9656178D02*
X16775607Y-9686178D01*
X15028900Y-7988300D02*
G75*
G02*
X14993900Y-7988300I-17500J0D01*
G01*
X14993900Y-7988300D02*
G75*
G02*
X15028900Y-7988300I17500J0D01*
G01*
X15272500Y-10025000D02*
G75*
G02*
X15237500Y-10025000I-17500J0D01*
G01*
X15237500Y-10025000D02*
G75*
G02*
X15272500Y-10025000I17500J0D01*
G01*
X15442500Y-10715000D02*
G75*
G02*
X15407500Y-10715000I-17500J0D01*
G01*
X15407500Y-10715000D02*
G75*
G02*
X15442500Y-10715000I17500J0D01*
G01*
X15457500Y-10290000D02*
G75*
G02*
X15422500Y-10290000I-17500J0D01*
G01*
X15422500Y-10290000D02*
G75*
G02*
X15457500Y-10290000I17500J0D01*
G01*
X15511500Y-10972800D02*
G75*
G02*
X15476500Y-10972800I-17500J0D01*
G01*
X15476500Y-10972800D02*
G75*
G02*
X15511500Y-10972800I17500J0D01*
G01*
X15994100Y-7988300D02*
G75*
G02*
X15959100Y-7988300I-17500J0D01*
G01*
X15959100Y-7988300D02*
G75*
G02*
X15994100Y-7988300I17500J0D01*
G01*
X15219357Y-10356178D02*
X15219357Y-10391178D01*
X15201857Y-10373678D02*
X15236857Y-10373678D01*
X15219357Y-10483678D02*
X15219357Y-10518678D01*
X15201857Y-10501178D02*
X15236857Y-10501178D01*
X15219357Y-10611178D02*
X15219357Y-10646178D01*
X15201857Y-10628678D02*
X15236857Y-10628678D01*
X15346857Y-10356178D02*
X15346857Y-10391178D01*
X15329357Y-10373678D02*
X15364357Y-10373678D01*
X15346857Y-10483678D02*
X15346857Y-10518678D01*
X15329357Y-10501178D02*
X15364357Y-10501178D01*
X15346857Y-10611178D02*
X15346857Y-10646178D01*
X15329357Y-10628678D02*
X15364357Y-10628678D01*
X15474357Y-10356178D02*
X15474357Y-10391178D01*
X15456857Y-10373678D02*
X15491857Y-10373678D01*
X15474357Y-10483678D02*
X15474357Y-10518678D01*
X15456857Y-10501178D02*
X15491857Y-10501178D01*
X15474357Y-10611178D02*
X15474357Y-10646178D01*
X15456857Y-10628678D02*
X15491857Y-10628678D01*
X15271088Y-8147159D02*
X15271088Y-8101197D01*
X15225125Y-8101197D01*
X15225125Y-8147159D01*
X15271088Y-8147159D01*
X15215607Y-8104178D02*
X15215607Y-8144178D01*
X15280607Y-8144178D02*
G75*
G02*
X15215607Y-8144178I-32500J0D01*
G01*
X15280607Y-8144178D02*
X15280607Y-8104178D01*
X15280607Y-8104178D02*
G75*
G03*
X15215607Y-8104178I-32500J0D01*
G01*
X15756088Y-8147159D02*
X15756088Y-8101197D01*
X15710125Y-8101197D01*
X15710125Y-8147159D01*
X15756088Y-8147159D01*
X15700607Y-8104178D02*
X15700607Y-8144178D01*
X15765607Y-8144178D02*
G75*
G02*
X15700607Y-8144178I-32500J0D01*
G01*
X15765607Y-8144178D02*
X15765607Y-8104178D01*
X15765607Y-8104178D02*
G75*
G03*
X15700607Y-8104178I-32500J0D01*
G01*
X15218107Y-7856178D02*
X15253107Y-7821178D01*
X15218107Y-7786178D01*
X15183107Y-7821178D01*
X15218107Y-7856178D01*
X15183107Y-7796178D02*
X15183107Y-7846178D01*
X15253107Y-7846178D02*
G75*
G02*
X15183107Y-7846178I-35000J0D01*
G01*
X15253107Y-7846178D02*
X15253107Y-7796178D01*
X15253107Y-7796178D02*
G75*
G03*
X15183107Y-7796178I-35000J0D01*
G01*
X15763107Y-7856178D02*
X15798107Y-7821178D01*
X15763107Y-7786178D01*
X15728107Y-7821178D01*
X15763107Y-7856178D01*
X15728107Y-7796178D02*
X15728107Y-7846178D01*
X15798107Y-7846178D02*
G75*
G02*
X15728107Y-7846178I-35000J0D01*
G01*
X15798107Y-7846178D02*
X15798107Y-7796178D01*
X15798107Y-7796178D02*
G75*
G03*
X15728107Y-7796178I-35000J0D01*
G01*
D11*
X12921383Y-12962662D02*
X12921383Y-12762662D01*
X12921383Y-12762662D02*
X12969002Y-12762662D01*
X12969002Y-12762662D02*
X12997574Y-12772186D01*
X12997574Y-12772186D02*
X13016621Y-12791233D01*
X13016621Y-12791233D02*
X13026145Y-12810281D01*
X13026145Y-12810281D02*
X13035669Y-12848376D01*
X13035669Y-12848376D02*
X13035669Y-12876948D01*
X13035669Y-12876948D02*
X13026145Y-12915043D01*
X13026145Y-12915043D02*
X13016621Y-12934090D01*
X13016621Y-12934090D02*
X12997574Y-12953138D01*
X12997574Y-12953138D02*
X12969002Y-12962662D01*
X12969002Y-12962662D02*
X12921383Y-12962662D01*
X13121383Y-12962662D02*
X13121383Y-12829328D01*
X13121383Y-12867424D02*
X13130907Y-12848376D01*
X13130907Y-12848376D02*
X13140431Y-12838852D01*
X13140431Y-12838852D02*
X13159479Y-12829328D01*
X13159479Y-12829328D02*
X13178526Y-12829328D01*
X13245193Y-12962662D02*
X13245193Y-12829328D01*
X13245193Y-12762662D02*
X13235669Y-12772186D01*
X13235669Y-12772186D02*
X13245193Y-12781709D01*
X13245193Y-12781709D02*
X13254717Y-12772186D01*
X13254717Y-12772186D02*
X13245193Y-12762662D01*
X13245193Y-12762662D02*
X13245193Y-12781709D01*
X13369002Y-12962662D02*
X13349955Y-12953138D01*
X13349955Y-12953138D02*
X13340431Y-12934090D01*
X13340431Y-12934090D02*
X13340431Y-12762662D01*
X13473764Y-12962662D02*
X13454717Y-12953138D01*
X13454717Y-12953138D02*
X13445193Y-12934090D01*
X13445193Y-12934090D02*
X13445193Y-12762662D01*
X13702336Y-12962662D02*
X13702336Y-12762662D01*
X13702336Y-12762662D02*
X13769002Y-12905519D01*
X13769002Y-12905519D02*
X13835669Y-12762662D01*
X13835669Y-12762662D02*
X13835669Y-12962662D01*
X14016621Y-12962662D02*
X14016621Y-12857900D01*
X14016621Y-12857900D02*
X14007098Y-12838852D01*
X14007098Y-12838852D02*
X13988050Y-12829328D01*
X13988050Y-12829328D02*
X13949955Y-12829328D01*
X13949955Y-12829328D02*
X13930907Y-12838852D01*
X14016621Y-12953138D02*
X13997574Y-12962662D01*
X13997574Y-12962662D02*
X13949955Y-12962662D01*
X13949955Y-12962662D02*
X13930907Y-12953138D01*
X13930907Y-12953138D02*
X13921383Y-12934090D01*
X13921383Y-12934090D02*
X13921383Y-12915043D01*
X13921383Y-12915043D02*
X13930907Y-12895995D01*
X13930907Y-12895995D02*
X13949955Y-12886471D01*
X13949955Y-12886471D02*
X13997574Y-12886471D01*
X13997574Y-12886471D02*
X14016621Y-12876948D01*
X14111860Y-12829328D02*
X14111860Y-13029328D01*
X14111860Y-12838852D02*
X14130907Y-12829328D01*
X14130907Y-12829328D02*
X14169002Y-12829328D01*
X14169002Y-12829328D02*
X14188050Y-12838852D01*
X14188050Y-12838852D02*
X14197574Y-12848376D01*
X14197574Y-12848376D02*
X14207098Y-12867424D01*
X14207098Y-12867424D02*
X14207098Y-12924567D01*
X14207098Y-12924567D02*
X14197574Y-12943614D01*
X14197574Y-12943614D02*
X14188050Y-12953138D01*
X14188050Y-12953138D02*
X14169002Y-12962662D01*
X14169002Y-12962662D02*
X14130907Y-12962662D01*
X14130907Y-12962662D02*
X14111860Y-12953138D01*
X14292812Y-12943614D02*
X14302336Y-12953138D01*
X14302336Y-12953138D02*
X14292812Y-12962662D01*
X14292812Y-12962662D02*
X14283288Y-12953138D01*
X14283288Y-12953138D02*
X14292812Y-12943614D01*
X14292812Y-12943614D02*
X14292812Y-12962662D01*
X14292812Y-12838852D02*
X14302336Y-12848376D01*
X14302336Y-12848376D02*
X14292812Y-12857900D01*
X14292812Y-12857900D02*
X14283288Y-12848376D01*
X14283288Y-12848376D02*
X14292812Y-12838852D01*
X14292812Y-12838852D02*
X14292812Y-12857900D01*
D12*
X12630607Y-13276178D02*
X12660607Y-13306178D01*
X12660607Y-13276178D02*
X12630607Y-13306178D01*
D11*
X12959479Y-13182662D02*
X12978526Y-13182662D01*
X12978526Y-13182662D02*
X12997574Y-13192186D01*
X12997574Y-13192186D02*
X13007098Y-13201709D01*
X13007098Y-13201709D02*
X13016621Y-13220757D01*
X13016621Y-13220757D02*
X13026145Y-13258852D01*
X13026145Y-13258852D02*
X13026145Y-13306471D01*
X13026145Y-13306471D02*
X13016621Y-13344567D01*
X13016621Y-13344567D02*
X13007098Y-13363614D01*
X13007098Y-13363614D02*
X12997574Y-13373138D01*
X12997574Y-13373138D02*
X12978526Y-13382662D01*
X12978526Y-13382662D02*
X12959479Y-13382662D01*
X12959479Y-13382662D02*
X12940431Y-13373138D01*
X12940431Y-13373138D02*
X12930907Y-13363614D01*
X12930907Y-13363614D02*
X12921383Y-13344567D01*
X12921383Y-13344567D02*
X12911860Y-13306471D01*
X12911860Y-13306471D02*
X12911860Y-13258852D01*
X12911860Y-13258852D02*
X12921383Y-13220757D01*
X12921383Y-13220757D02*
X12930907Y-13201709D01*
X12930907Y-13201709D02*
X12940431Y-13192186D01*
X12940431Y-13192186D02*
X12959479Y-13182662D01*
X13111860Y-13363614D02*
X13121383Y-13373138D01*
X13121383Y-13373138D02*
X13111860Y-13382662D01*
X13111860Y-13382662D02*
X13102336Y-13373138D01*
X13102336Y-13373138D02*
X13111860Y-13363614D01*
X13111860Y-13363614D02*
X13111860Y-13382662D01*
X13188050Y-13182662D02*
X13311860Y-13182662D01*
X13311860Y-13182662D02*
X13245193Y-13258852D01*
X13245193Y-13258852D02*
X13273764Y-13258852D01*
X13273764Y-13258852D02*
X13292812Y-13268376D01*
X13292812Y-13268376D02*
X13302336Y-13277900D01*
X13302336Y-13277900D02*
X13311860Y-13296948D01*
X13311860Y-13296948D02*
X13311860Y-13344567D01*
X13311860Y-13344567D02*
X13302336Y-13363614D01*
X13302336Y-13363614D02*
X13292812Y-13373138D01*
X13292812Y-13373138D02*
X13273764Y-13382662D01*
X13273764Y-13382662D02*
X13216621Y-13382662D01*
X13216621Y-13382662D02*
X13197574Y-13373138D01*
X13197574Y-13373138D02*
X13188050Y-13363614D01*
X13435669Y-13182662D02*
X13454717Y-13182662D01*
X13454717Y-13182662D02*
X13473764Y-13192186D01*
X13473764Y-13192186D02*
X13483288Y-13201709D01*
X13483288Y-13201709D02*
X13492812Y-13220757D01*
X13492812Y-13220757D02*
X13502336Y-13258852D01*
X13502336Y-13258852D02*
X13502336Y-13306471D01*
X13502336Y-13306471D02*
X13492812Y-13344567D01*
X13492812Y-13344567D02*
X13483288Y-13363614D01*
X13483288Y-13363614D02*
X13473764Y-13373138D01*
X13473764Y-13373138D02*
X13454717Y-13382662D01*
X13454717Y-13382662D02*
X13435669Y-13382662D01*
X13435669Y-13382662D02*
X13416621Y-13373138D01*
X13416621Y-13373138D02*
X13407098Y-13363614D01*
X13407098Y-13363614D02*
X13397574Y-13344567D01*
X13397574Y-13344567D02*
X13388050Y-13306471D01*
X13388050Y-13306471D02*
X13388050Y-13258852D01*
X13388050Y-13258852D02*
X13397574Y-13220757D01*
X13397574Y-13220757D02*
X13407098Y-13201709D01*
X13407098Y-13201709D02*
X13416621Y-13192186D01*
X13416621Y-13192186D02*
X13435669Y-13182662D01*
X13626145Y-13182662D02*
X13645193Y-13182662D01*
X13645193Y-13182662D02*
X13664241Y-13192186D01*
X13664241Y-13192186D02*
X13673764Y-13201709D01*
X13673764Y-13201709D02*
X13683288Y-13220757D01*
X13683288Y-13220757D02*
X13692812Y-13258852D01*
X13692812Y-13258852D02*
X13692812Y-13306471D01*
X13692812Y-13306471D02*
X13683288Y-13344567D01*
X13683288Y-13344567D02*
X13673764Y-13363614D01*
X13673764Y-13363614D02*
X13664241Y-13373138D01*
X13664241Y-13373138D02*
X13645193Y-13382662D01*
X13645193Y-13382662D02*
X13626145Y-13382662D01*
X13626145Y-13382662D02*
X13607098Y-13373138D01*
X13607098Y-13373138D02*
X13597574Y-13363614D01*
X13597574Y-13363614D02*
X13588050Y-13344567D01*
X13588050Y-13344567D02*
X13578526Y-13306471D01*
X13578526Y-13306471D02*
X13578526Y-13258852D01*
X13578526Y-13258852D02*
X13588050Y-13220757D01*
X13588050Y-13220757D02*
X13597574Y-13201709D01*
X13597574Y-13201709D02*
X13607098Y-13192186D01*
X13607098Y-13192186D02*
X13626145Y-13182662D01*
X13778526Y-13382662D02*
X13778526Y-13249328D01*
X13778526Y-13268376D02*
X13788050Y-13258852D01*
X13788050Y-13258852D02*
X13807098Y-13249328D01*
X13807098Y-13249328D02*
X13835669Y-13249328D01*
X13835669Y-13249328D02*
X13854717Y-13258852D01*
X13854717Y-13258852D02*
X13864241Y-13277900D01*
X13864241Y-13277900D02*
X13864241Y-13382662D01*
X13864241Y-13277900D02*
X13873764Y-13258852D01*
X13873764Y-13258852D02*
X13892812Y-13249328D01*
X13892812Y-13249328D02*
X13921383Y-13249328D01*
X13921383Y-13249328D02*
X13940431Y-13258852D01*
X13940431Y-13258852D02*
X13949955Y-13277900D01*
X13949955Y-13277900D02*
X13949955Y-13382662D01*
X14045193Y-13382662D02*
X14045193Y-13249328D01*
X14045193Y-13268376D02*
X14054717Y-13258852D01*
X14054717Y-13258852D02*
X14073764Y-13249328D01*
X14073764Y-13249328D02*
X14102336Y-13249328D01*
X14102336Y-13249328D02*
X14121383Y-13258852D01*
X14121383Y-13258852D02*
X14130907Y-13277900D01*
X14130907Y-13277900D02*
X14130907Y-13382662D01*
X14130907Y-13277900D02*
X14140431Y-13258852D01*
X14140431Y-13258852D02*
X14159479Y-13249328D01*
X14159479Y-13249328D02*
X14188050Y-13249328D01*
X14188050Y-13249328D02*
X14207098Y-13258852D01*
X14207098Y-13258852D02*
X14216622Y-13277900D01*
X14216622Y-13277900D02*
X14216622Y-13382662D01*
X14607098Y-13173138D02*
X14435669Y-13430281D01*
X14864241Y-13182662D02*
X14883288Y-13182662D01*
X14883288Y-13182662D02*
X14902336Y-13192186D01*
X14902336Y-13192186D02*
X14911860Y-13201709D01*
X14911860Y-13201709D02*
X14921384Y-13220757D01*
X14921384Y-13220757D02*
X14930907Y-13258852D01*
X14930907Y-13258852D02*
X14930907Y-13306471D01*
X14930907Y-13306471D02*
X14921384Y-13344567D01*
X14921384Y-13344567D02*
X14911860Y-13363614D01*
X14911860Y-13363614D02*
X14902336Y-13373138D01*
X14902336Y-13373138D02*
X14883288Y-13382662D01*
X14883288Y-13382662D02*
X14864241Y-13382662D01*
X14864241Y-13382662D02*
X14845193Y-13373138D01*
X14845193Y-13373138D02*
X14835669Y-13363614D01*
X14835669Y-13363614D02*
X14826145Y-13344567D01*
X14826145Y-13344567D02*
X14816622Y-13306471D01*
X14816622Y-13306471D02*
X14816622Y-13258852D01*
X14816622Y-13258852D02*
X14826145Y-13220757D01*
X14826145Y-13220757D02*
X14835669Y-13201709D01*
X14835669Y-13201709D02*
X14845193Y-13192186D01*
X14845193Y-13192186D02*
X14864241Y-13182662D01*
X15016622Y-13363614D02*
X15026145Y-13373138D01*
X15026145Y-13373138D02*
X15016622Y-13382662D01*
X15016622Y-13382662D02*
X15007098Y-13373138D01*
X15007098Y-13373138D02*
X15016622Y-13363614D01*
X15016622Y-13363614D02*
X15016622Y-13382662D01*
X15149955Y-13182662D02*
X15169003Y-13182662D01*
X15169003Y-13182662D02*
X15188050Y-13192186D01*
X15188050Y-13192186D02*
X15197574Y-13201709D01*
X15197574Y-13201709D02*
X15207098Y-13220757D01*
X15207098Y-13220757D02*
X15216622Y-13258852D01*
X15216622Y-13258852D02*
X15216622Y-13306471D01*
X15216622Y-13306471D02*
X15207098Y-13344567D01*
X15207098Y-13344567D02*
X15197574Y-13363614D01*
X15197574Y-13363614D02*
X15188050Y-13373138D01*
X15188050Y-13373138D02*
X15169003Y-13382662D01*
X15169003Y-13382662D02*
X15149955Y-13382662D01*
X15149955Y-13382662D02*
X15130907Y-13373138D01*
X15130907Y-13373138D02*
X15121384Y-13363614D01*
X15121384Y-13363614D02*
X15111860Y-13344567D01*
X15111860Y-13344567D02*
X15102336Y-13306471D01*
X15102336Y-13306471D02*
X15102336Y-13258852D01*
X15102336Y-13258852D02*
X15111860Y-13220757D01*
X15111860Y-13220757D02*
X15121384Y-13201709D01*
X15121384Y-13201709D02*
X15130907Y-13192186D01*
X15130907Y-13192186D02*
X15149955Y-13182662D01*
X15407098Y-13382662D02*
X15292812Y-13382662D01*
X15349955Y-13382662D02*
X15349955Y-13182662D01*
X15349955Y-13182662D02*
X15330907Y-13211233D01*
X15330907Y-13211233D02*
X15311860Y-13230281D01*
X15311860Y-13230281D02*
X15292812Y-13239805D01*
X15597574Y-13382662D02*
X15483288Y-13382662D01*
X15540431Y-13382662D02*
X15540431Y-13182662D01*
X15540431Y-13182662D02*
X15521384Y-13211233D01*
X15521384Y-13211233D02*
X15502336Y-13230281D01*
X15502336Y-13230281D02*
X15483288Y-13239805D01*
X15711860Y-13268376D02*
X15692812Y-13258852D01*
X15692812Y-13258852D02*
X15683288Y-13249328D01*
X15683288Y-13249328D02*
X15673765Y-13230281D01*
X15673765Y-13230281D02*
X15673765Y-13220757D01*
X15673765Y-13220757D02*
X15683288Y-13201709D01*
X15683288Y-13201709D02*
X15692812Y-13192186D01*
X15692812Y-13192186D02*
X15711860Y-13182662D01*
X15711860Y-13182662D02*
X15749955Y-13182662D01*
X15749955Y-13182662D02*
X15769003Y-13192186D01*
X15769003Y-13192186D02*
X15778526Y-13201709D01*
X15778526Y-13201709D02*
X15788050Y-13220757D01*
X15788050Y-13220757D02*
X15788050Y-13230281D01*
X15788050Y-13230281D02*
X15778526Y-13249328D01*
X15778526Y-13249328D02*
X15769003Y-13258852D01*
X15769003Y-13258852D02*
X15749955Y-13268376D01*
X15749955Y-13268376D02*
X15711860Y-13268376D01*
X15711860Y-13268376D02*
X15692812Y-13277900D01*
X15692812Y-13277900D02*
X15683288Y-13287424D01*
X15683288Y-13287424D02*
X15673765Y-13306471D01*
X15673765Y-13306471D02*
X15673765Y-13344567D01*
X15673765Y-13344567D02*
X15683288Y-13363614D01*
X15683288Y-13363614D02*
X15692812Y-13373138D01*
X15692812Y-13373138D02*
X15711860Y-13382662D01*
X15711860Y-13382662D02*
X15749955Y-13382662D01*
X15749955Y-13382662D02*
X15769003Y-13373138D01*
X15769003Y-13373138D02*
X15778526Y-13363614D01*
X15778526Y-13363614D02*
X15788050Y-13344567D01*
X15788050Y-13344567D02*
X15788050Y-13306471D01*
X15788050Y-13306471D02*
X15778526Y-13287424D01*
X15778526Y-13287424D02*
X15769003Y-13277900D01*
X15769003Y-13277900D02*
X15749955Y-13268376D01*
X15864241Y-13182662D02*
X15864241Y-13220757D01*
X15940431Y-13182662D02*
X15940431Y-13220757D01*
X16235669Y-13458852D02*
X16226146Y-13449328D01*
X16226146Y-13449328D02*
X16207098Y-13420757D01*
X16207098Y-13420757D02*
X16197574Y-13401709D01*
X16197574Y-13401709D02*
X16188050Y-13373138D01*
X16188050Y-13373138D02*
X16178527Y-13325519D01*
X16178527Y-13325519D02*
X16178527Y-13287424D01*
X16178527Y-13287424D02*
X16188050Y-13239805D01*
X16188050Y-13239805D02*
X16197574Y-13211233D01*
X16197574Y-13211233D02*
X16207098Y-13192186D01*
X16207098Y-13192186D02*
X16226146Y-13163614D01*
X16226146Y-13163614D02*
X16235669Y-13154090D01*
X16302336Y-13201709D02*
X16311860Y-13192186D01*
X16311860Y-13192186D02*
X16330907Y-13182662D01*
X16330907Y-13182662D02*
X16378527Y-13182662D01*
X16378527Y-13182662D02*
X16397574Y-13192186D01*
X16397574Y-13192186D02*
X16407098Y-13201709D01*
X16407098Y-13201709D02*
X16416622Y-13220757D01*
X16416622Y-13220757D02*
X16416622Y-13239805D01*
X16416622Y-13239805D02*
X16407098Y-13268376D01*
X16407098Y-13268376D02*
X16292812Y-13382662D01*
X16292812Y-13382662D02*
X16416622Y-13382662D01*
X16588050Y-13249328D02*
X16588050Y-13382662D01*
X16540431Y-13173138D02*
X16492812Y-13315995D01*
X16492812Y-13315995D02*
X16616622Y-13315995D01*
X16845193Y-13382662D02*
X16845193Y-13182662D01*
X16930908Y-13382662D02*
X16930908Y-13277900D01*
X16930908Y-13277900D02*
X16921384Y-13258852D01*
X16921384Y-13258852D02*
X16902336Y-13249328D01*
X16902336Y-13249328D02*
X16873765Y-13249328D01*
X16873765Y-13249328D02*
X16854717Y-13258852D01*
X16854717Y-13258852D02*
X16845193Y-13268376D01*
X17054717Y-13382662D02*
X17035670Y-13373138D01*
X17035670Y-13373138D02*
X17026146Y-13363614D01*
X17026146Y-13363614D02*
X17016622Y-13344567D01*
X17016622Y-13344567D02*
X17016622Y-13287424D01*
X17016622Y-13287424D02*
X17026146Y-13268376D01*
X17026146Y-13268376D02*
X17035670Y-13258852D01*
X17035670Y-13258852D02*
X17054717Y-13249328D01*
X17054717Y-13249328D02*
X17083289Y-13249328D01*
X17083289Y-13249328D02*
X17102336Y-13258852D01*
X17102336Y-13258852D02*
X17111860Y-13268376D01*
X17111860Y-13268376D02*
X17121384Y-13287424D01*
X17121384Y-13287424D02*
X17121384Y-13344567D01*
X17121384Y-13344567D02*
X17111860Y-13363614D01*
X17111860Y-13363614D02*
X17102336Y-13373138D01*
X17102336Y-13373138D02*
X17083289Y-13382662D01*
X17083289Y-13382662D02*
X17054717Y-13382662D01*
X17235670Y-13382662D02*
X17216622Y-13373138D01*
X17216622Y-13373138D02*
X17207098Y-13354090D01*
X17207098Y-13354090D02*
X17207098Y-13182662D01*
X17388051Y-13373138D02*
X17369003Y-13382662D01*
X17369003Y-13382662D02*
X17330908Y-13382662D01*
X17330908Y-13382662D02*
X17311860Y-13373138D01*
X17311860Y-13373138D02*
X17302336Y-13354090D01*
X17302336Y-13354090D02*
X17302336Y-13277900D01*
X17302336Y-13277900D02*
X17311860Y-13258852D01*
X17311860Y-13258852D02*
X17330908Y-13249328D01*
X17330908Y-13249328D02*
X17369003Y-13249328D01*
X17369003Y-13249328D02*
X17388051Y-13258852D01*
X17388051Y-13258852D02*
X17397574Y-13277900D01*
X17397574Y-13277900D02*
X17397574Y-13296948D01*
X17397574Y-13296948D02*
X17302336Y-13315995D01*
X17473765Y-13373138D02*
X17492812Y-13382662D01*
X17492812Y-13382662D02*
X17530908Y-13382662D01*
X17530908Y-13382662D02*
X17549955Y-13373138D01*
X17549955Y-13373138D02*
X17559479Y-13354090D01*
X17559479Y-13354090D02*
X17559479Y-13344567D01*
X17559479Y-13344567D02*
X17549955Y-13325519D01*
X17549955Y-13325519D02*
X17530908Y-13315995D01*
X17530908Y-13315995D02*
X17502336Y-13315995D01*
X17502336Y-13315995D02*
X17483289Y-13306471D01*
X17483289Y-13306471D02*
X17473765Y-13287424D01*
X17473765Y-13287424D02*
X17473765Y-13277900D01*
X17473765Y-13277900D02*
X17483289Y-13258852D01*
X17483289Y-13258852D02*
X17502336Y-13249328D01*
X17502336Y-13249328D02*
X17530908Y-13249328D01*
X17530908Y-13249328D02*
X17549955Y-13258852D01*
X17626146Y-13458852D02*
X17635670Y-13449328D01*
X17635670Y-13449328D02*
X17654717Y-13420757D01*
X17654717Y-13420757D02*
X17664241Y-13401709D01*
X17664241Y-13401709D02*
X17673765Y-13373138D01*
X17673765Y-13373138D02*
X17683289Y-13325519D01*
X17683289Y-13325519D02*
X17683289Y-13287424D01*
X17683289Y-13287424D02*
X17673765Y-13239805D01*
X17673765Y-13239805D02*
X17664241Y-13211233D01*
X17664241Y-13211233D02*
X17654717Y-13192186D01*
X17654717Y-13192186D02*
X17635670Y-13163614D01*
X17635670Y-13163614D02*
X17626146Y-13154090D01*
D12*
X12660607Y-13555178D02*
G75*
G02*
X12625607Y-13555178I-17500J0D01*
G01*
X12625607Y-13555178D02*
G75*
G02*
X12660607Y-13555178I17500J0D01*
G01*
D11*
X12959479Y-13446662D02*
X12978526Y-13446662D01*
X12978526Y-13446662D02*
X12997574Y-13456186D01*
X12997574Y-13456186D02*
X13007098Y-13465709D01*
X13007098Y-13465709D02*
X13016621Y-13484757D01*
X13016621Y-13484757D02*
X13026145Y-13522852D01*
X13026145Y-13522852D02*
X13026145Y-13570471D01*
X13026145Y-13570471D02*
X13016621Y-13608567D01*
X13016621Y-13608567D02*
X13007098Y-13627614D01*
X13007098Y-13627614D02*
X12997574Y-13637138D01*
X12997574Y-13637138D02*
X12978526Y-13646662D01*
X12978526Y-13646662D02*
X12959479Y-13646662D01*
X12959479Y-13646662D02*
X12940431Y-13637138D01*
X12940431Y-13637138D02*
X12930907Y-13627614D01*
X12930907Y-13627614D02*
X12921383Y-13608567D01*
X12921383Y-13608567D02*
X12911860Y-13570471D01*
X12911860Y-13570471D02*
X12911860Y-13522852D01*
X12911860Y-13522852D02*
X12921383Y-13484757D01*
X12921383Y-13484757D02*
X12930907Y-13465709D01*
X12930907Y-13465709D02*
X12940431Y-13456186D01*
X12940431Y-13456186D02*
X12959479Y-13446662D01*
X13111860Y-13627614D02*
X13121383Y-13637138D01*
X13121383Y-13637138D02*
X13111860Y-13646662D01*
X13111860Y-13646662D02*
X13102336Y-13637138D01*
X13102336Y-13637138D02*
X13111860Y-13627614D01*
X13111860Y-13627614D02*
X13111860Y-13646662D01*
X13188050Y-13446662D02*
X13311860Y-13446662D01*
X13311860Y-13446662D02*
X13245193Y-13522852D01*
X13245193Y-13522852D02*
X13273764Y-13522852D01*
X13273764Y-13522852D02*
X13292812Y-13532376D01*
X13292812Y-13532376D02*
X13302336Y-13541900D01*
X13302336Y-13541900D02*
X13311860Y-13560948D01*
X13311860Y-13560948D02*
X13311860Y-13608567D01*
X13311860Y-13608567D02*
X13302336Y-13627614D01*
X13302336Y-13627614D02*
X13292812Y-13637138D01*
X13292812Y-13637138D02*
X13273764Y-13646662D01*
X13273764Y-13646662D02*
X13216621Y-13646662D01*
X13216621Y-13646662D02*
X13197574Y-13637138D01*
X13197574Y-13637138D02*
X13188050Y-13627614D01*
X13492812Y-13446662D02*
X13397574Y-13446662D01*
X13397574Y-13446662D02*
X13388050Y-13541900D01*
X13388050Y-13541900D02*
X13397574Y-13532376D01*
X13397574Y-13532376D02*
X13416621Y-13522852D01*
X13416621Y-13522852D02*
X13464241Y-13522852D01*
X13464241Y-13522852D02*
X13483288Y-13532376D01*
X13483288Y-13532376D02*
X13492812Y-13541900D01*
X13492812Y-13541900D02*
X13502336Y-13560948D01*
X13502336Y-13560948D02*
X13502336Y-13608567D01*
X13502336Y-13608567D02*
X13492812Y-13627614D01*
X13492812Y-13627614D02*
X13483288Y-13637138D01*
X13483288Y-13637138D02*
X13464241Y-13646662D01*
X13464241Y-13646662D02*
X13416621Y-13646662D01*
X13416621Y-13646662D02*
X13397574Y-13637138D01*
X13397574Y-13637138D02*
X13388050Y-13627614D01*
X13626145Y-13446662D02*
X13645193Y-13446662D01*
X13645193Y-13446662D02*
X13664241Y-13456186D01*
X13664241Y-13456186D02*
X13673764Y-13465709D01*
X13673764Y-13465709D02*
X13683288Y-13484757D01*
X13683288Y-13484757D02*
X13692812Y-13522852D01*
X13692812Y-13522852D02*
X13692812Y-13570471D01*
X13692812Y-13570471D02*
X13683288Y-13608567D01*
X13683288Y-13608567D02*
X13673764Y-13627614D01*
X13673764Y-13627614D02*
X13664241Y-13637138D01*
X13664241Y-13637138D02*
X13645193Y-13646662D01*
X13645193Y-13646662D02*
X13626145Y-13646662D01*
X13626145Y-13646662D02*
X13607098Y-13637138D01*
X13607098Y-13637138D02*
X13597574Y-13627614D01*
X13597574Y-13627614D02*
X13588050Y-13608567D01*
X13588050Y-13608567D02*
X13578526Y-13570471D01*
X13578526Y-13570471D02*
X13578526Y-13522852D01*
X13578526Y-13522852D02*
X13588050Y-13484757D01*
X13588050Y-13484757D02*
X13597574Y-13465709D01*
X13597574Y-13465709D02*
X13607098Y-13456186D01*
X13607098Y-13456186D02*
X13626145Y-13446662D01*
X13778526Y-13646662D02*
X13778526Y-13513328D01*
X13778526Y-13532376D02*
X13788050Y-13522852D01*
X13788050Y-13522852D02*
X13807098Y-13513328D01*
X13807098Y-13513328D02*
X13835669Y-13513328D01*
X13835669Y-13513328D02*
X13854717Y-13522852D01*
X13854717Y-13522852D02*
X13864241Y-13541900D01*
X13864241Y-13541900D02*
X13864241Y-13646662D01*
X13864241Y-13541900D02*
X13873764Y-13522852D01*
X13873764Y-13522852D02*
X13892812Y-13513328D01*
X13892812Y-13513328D02*
X13921383Y-13513328D01*
X13921383Y-13513328D02*
X13940431Y-13522852D01*
X13940431Y-13522852D02*
X13949955Y-13541900D01*
X13949955Y-13541900D02*
X13949955Y-13646662D01*
X14045193Y-13646662D02*
X14045193Y-13513328D01*
X14045193Y-13532376D02*
X14054717Y-13522852D01*
X14054717Y-13522852D02*
X14073764Y-13513328D01*
X14073764Y-13513328D02*
X14102336Y-13513328D01*
X14102336Y-13513328D02*
X14121383Y-13522852D01*
X14121383Y-13522852D02*
X14130907Y-13541900D01*
X14130907Y-13541900D02*
X14130907Y-13646662D01*
X14130907Y-13541900D02*
X14140431Y-13522852D01*
X14140431Y-13522852D02*
X14159479Y-13513328D01*
X14159479Y-13513328D02*
X14188050Y-13513328D01*
X14188050Y-13513328D02*
X14207098Y-13522852D01*
X14207098Y-13522852D02*
X14216622Y-13541900D01*
X14216622Y-13541900D02*
X14216622Y-13646662D01*
X14607098Y-13437138D02*
X14435669Y-13694281D01*
X14864241Y-13446662D02*
X14883288Y-13446662D01*
X14883288Y-13446662D02*
X14902336Y-13456186D01*
X14902336Y-13456186D02*
X14911860Y-13465709D01*
X14911860Y-13465709D02*
X14921384Y-13484757D01*
X14921384Y-13484757D02*
X14930907Y-13522852D01*
X14930907Y-13522852D02*
X14930907Y-13570471D01*
X14930907Y-13570471D02*
X14921384Y-13608567D01*
X14921384Y-13608567D02*
X14911860Y-13627614D01*
X14911860Y-13627614D02*
X14902336Y-13637138D01*
X14902336Y-13637138D02*
X14883288Y-13646662D01*
X14883288Y-13646662D02*
X14864241Y-13646662D01*
X14864241Y-13646662D02*
X14845193Y-13637138D01*
X14845193Y-13637138D02*
X14835669Y-13627614D01*
X14835669Y-13627614D02*
X14826145Y-13608567D01*
X14826145Y-13608567D02*
X14816622Y-13570471D01*
X14816622Y-13570471D02*
X14816622Y-13522852D01*
X14816622Y-13522852D02*
X14826145Y-13484757D01*
X14826145Y-13484757D02*
X14835669Y-13465709D01*
X14835669Y-13465709D02*
X14845193Y-13456186D01*
X14845193Y-13456186D02*
X14864241Y-13446662D01*
X15016622Y-13627614D02*
X15026145Y-13637138D01*
X15026145Y-13637138D02*
X15016622Y-13646662D01*
X15016622Y-13646662D02*
X15007098Y-13637138D01*
X15007098Y-13637138D02*
X15016622Y-13627614D01*
X15016622Y-13627614D02*
X15016622Y-13646662D01*
X15149955Y-13446662D02*
X15169003Y-13446662D01*
X15169003Y-13446662D02*
X15188050Y-13456186D01*
X15188050Y-13456186D02*
X15197574Y-13465709D01*
X15197574Y-13465709D02*
X15207098Y-13484757D01*
X15207098Y-13484757D02*
X15216622Y-13522852D01*
X15216622Y-13522852D02*
X15216622Y-13570471D01*
X15216622Y-13570471D02*
X15207098Y-13608567D01*
X15207098Y-13608567D02*
X15197574Y-13627614D01*
X15197574Y-13627614D02*
X15188050Y-13637138D01*
X15188050Y-13637138D02*
X15169003Y-13646662D01*
X15169003Y-13646662D02*
X15149955Y-13646662D01*
X15149955Y-13646662D02*
X15130907Y-13637138D01*
X15130907Y-13637138D02*
X15121384Y-13627614D01*
X15121384Y-13627614D02*
X15111860Y-13608567D01*
X15111860Y-13608567D02*
X15102336Y-13570471D01*
X15102336Y-13570471D02*
X15102336Y-13522852D01*
X15102336Y-13522852D02*
X15111860Y-13484757D01*
X15111860Y-13484757D02*
X15121384Y-13465709D01*
X15121384Y-13465709D02*
X15130907Y-13456186D01*
X15130907Y-13456186D02*
X15149955Y-13446662D01*
X15407098Y-13646662D02*
X15292812Y-13646662D01*
X15349955Y-13646662D02*
X15349955Y-13446662D01*
X15349955Y-13446662D02*
X15330907Y-13475233D01*
X15330907Y-13475233D02*
X15311860Y-13494281D01*
X15311860Y-13494281D02*
X15292812Y-13503805D01*
X15473765Y-13446662D02*
X15597574Y-13446662D01*
X15597574Y-13446662D02*
X15530907Y-13522852D01*
X15530907Y-13522852D02*
X15559479Y-13522852D01*
X15559479Y-13522852D02*
X15578526Y-13532376D01*
X15578526Y-13532376D02*
X15588050Y-13541900D01*
X15588050Y-13541900D02*
X15597574Y-13560948D01*
X15597574Y-13560948D02*
X15597574Y-13608567D01*
X15597574Y-13608567D02*
X15588050Y-13627614D01*
X15588050Y-13627614D02*
X15578526Y-13637138D01*
X15578526Y-13637138D02*
X15559479Y-13646662D01*
X15559479Y-13646662D02*
X15502336Y-13646662D01*
X15502336Y-13646662D02*
X15483288Y-13637138D01*
X15483288Y-13637138D02*
X15473765Y-13627614D01*
X15711860Y-13532376D02*
X15692812Y-13522852D01*
X15692812Y-13522852D02*
X15683288Y-13513328D01*
X15683288Y-13513328D02*
X15673765Y-13494281D01*
X15673765Y-13494281D02*
X15673765Y-13484757D01*
X15673765Y-13484757D02*
X15683288Y-13465709D01*
X15683288Y-13465709D02*
X15692812Y-13456186D01*
X15692812Y-13456186D02*
X15711860Y-13446662D01*
X15711860Y-13446662D02*
X15749955Y-13446662D01*
X15749955Y-13446662D02*
X15769003Y-13456186D01*
X15769003Y-13456186D02*
X15778526Y-13465709D01*
X15778526Y-13465709D02*
X15788050Y-13484757D01*
X15788050Y-13484757D02*
X15788050Y-13494281D01*
X15788050Y-13494281D02*
X15778526Y-13513328D01*
X15778526Y-13513328D02*
X15769003Y-13522852D01*
X15769003Y-13522852D02*
X15749955Y-13532376D01*
X15749955Y-13532376D02*
X15711860Y-13532376D01*
X15711860Y-13532376D02*
X15692812Y-13541900D01*
X15692812Y-13541900D02*
X15683288Y-13551424D01*
X15683288Y-13551424D02*
X15673765Y-13570471D01*
X15673765Y-13570471D02*
X15673765Y-13608567D01*
X15673765Y-13608567D02*
X15683288Y-13627614D01*
X15683288Y-13627614D02*
X15692812Y-13637138D01*
X15692812Y-13637138D02*
X15711860Y-13646662D01*
X15711860Y-13646662D02*
X15749955Y-13646662D01*
X15749955Y-13646662D02*
X15769003Y-13637138D01*
X15769003Y-13637138D02*
X15778526Y-13627614D01*
X15778526Y-13627614D02*
X15788050Y-13608567D01*
X15788050Y-13608567D02*
X15788050Y-13570471D01*
X15788050Y-13570471D02*
X15778526Y-13551424D01*
X15778526Y-13551424D02*
X15769003Y-13541900D01*
X15769003Y-13541900D02*
X15749955Y-13532376D01*
X15864241Y-13446662D02*
X15864241Y-13484757D01*
X15940431Y-13446662D02*
X15940431Y-13484757D01*
X16235669Y-13722852D02*
X16226146Y-13713328D01*
X16226146Y-13713328D02*
X16207098Y-13684757D01*
X16207098Y-13684757D02*
X16197574Y-13665709D01*
X16197574Y-13665709D02*
X16188050Y-13637138D01*
X16188050Y-13637138D02*
X16178527Y-13589519D01*
X16178527Y-13589519D02*
X16178527Y-13551424D01*
X16178527Y-13551424D02*
X16188050Y-13503805D01*
X16188050Y-13503805D02*
X16197574Y-13475233D01*
X16197574Y-13475233D02*
X16207098Y-13456186D01*
X16207098Y-13456186D02*
X16226146Y-13427614D01*
X16226146Y-13427614D02*
X16235669Y-13418090D01*
X16397574Y-13446662D02*
X16359479Y-13446662D01*
X16359479Y-13446662D02*
X16340431Y-13456186D01*
X16340431Y-13456186D02*
X16330907Y-13465709D01*
X16330907Y-13465709D02*
X16311860Y-13494281D01*
X16311860Y-13494281D02*
X16302336Y-13532376D01*
X16302336Y-13532376D02*
X16302336Y-13608567D01*
X16302336Y-13608567D02*
X16311860Y-13627614D01*
X16311860Y-13627614D02*
X16321384Y-13637138D01*
X16321384Y-13637138D02*
X16340431Y-13646662D01*
X16340431Y-13646662D02*
X16378527Y-13646662D01*
X16378527Y-13646662D02*
X16397574Y-13637138D01*
X16397574Y-13637138D02*
X16407098Y-13627614D01*
X16407098Y-13627614D02*
X16416622Y-13608567D01*
X16416622Y-13608567D02*
X16416622Y-13560948D01*
X16416622Y-13560948D02*
X16407098Y-13541900D01*
X16407098Y-13541900D02*
X16397574Y-13532376D01*
X16397574Y-13532376D02*
X16378527Y-13522852D01*
X16378527Y-13522852D02*
X16340431Y-13522852D01*
X16340431Y-13522852D02*
X16321384Y-13532376D01*
X16321384Y-13532376D02*
X16311860Y-13541900D01*
X16311860Y-13541900D02*
X16302336Y-13560948D01*
X16654717Y-13646662D02*
X16654717Y-13446662D01*
X16740431Y-13646662D02*
X16740431Y-13541900D01*
X16740431Y-13541900D02*
X16730908Y-13522852D01*
X16730908Y-13522852D02*
X16711860Y-13513328D01*
X16711860Y-13513328D02*
X16683288Y-13513328D01*
X16683288Y-13513328D02*
X16664241Y-13522852D01*
X16664241Y-13522852D02*
X16654717Y-13532376D01*
X16864241Y-13646662D02*
X16845193Y-13637138D01*
X16845193Y-13637138D02*
X16835670Y-13627614D01*
X16835670Y-13627614D02*
X16826146Y-13608567D01*
X16826146Y-13608567D02*
X16826146Y-13551424D01*
X16826146Y-13551424D02*
X16835670Y-13532376D01*
X16835670Y-13532376D02*
X16845193Y-13522852D01*
X16845193Y-13522852D02*
X16864241Y-13513328D01*
X16864241Y-13513328D02*
X16892812Y-13513328D01*
X16892812Y-13513328D02*
X16911860Y-13522852D01*
X16911860Y-13522852D02*
X16921384Y-13532376D01*
X16921384Y-13532376D02*
X16930908Y-13551424D01*
X16930908Y-13551424D02*
X16930908Y-13608567D01*
X16930908Y-13608567D02*
X16921384Y-13627614D01*
X16921384Y-13627614D02*
X16911860Y-13637138D01*
X16911860Y-13637138D02*
X16892812Y-13646662D01*
X16892812Y-13646662D02*
X16864241Y-13646662D01*
X17045193Y-13646662D02*
X17026146Y-13637138D01*
X17026146Y-13637138D02*
X17016622Y-13618090D01*
X17016622Y-13618090D02*
X17016622Y-13446662D01*
X17197574Y-13637138D02*
X17178527Y-13646662D01*
X17178527Y-13646662D02*
X17140431Y-13646662D01*
X17140431Y-13646662D02*
X17121384Y-13637138D01*
X17121384Y-13637138D02*
X17111860Y-13618090D01*
X17111860Y-13618090D02*
X17111860Y-13541900D01*
X17111860Y-13541900D02*
X17121384Y-13522852D01*
X17121384Y-13522852D02*
X17140431Y-13513328D01*
X17140431Y-13513328D02*
X17178527Y-13513328D01*
X17178527Y-13513328D02*
X17197574Y-13522852D01*
X17197574Y-13522852D02*
X17207098Y-13541900D01*
X17207098Y-13541900D02*
X17207098Y-13560948D01*
X17207098Y-13560948D02*
X17111860Y-13579995D01*
X17283289Y-13637138D02*
X17302336Y-13646662D01*
X17302336Y-13646662D02*
X17340431Y-13646662D01*
X17340431Y-13646662D02*
X17359479Y-13637138D01*
X17359479Y-13637138D02*
X17369003Y-13618090D01*
X17369003Y-13618090D02*
X17369003Y-13608567D01*
X17369003Y-13608567D02*
X17359479Y-13589519D01*
X17359479Y-13589519D02*
X17340431Y-13579995D01*
X17340431Y-13579995D02*
X17311860Y-13579995D01*
X17311860Y-13579995D02*
X17292812Y-13570471D01*
X17292812Y-13570471D02*
X17283289Y-13551424D01*
X17283289Y-13551424D02*
X17283289Y-13541900D01*
X17283289Y-13541900D02*
X17292812Y-13522852D01*
X17292812Y-13522852D02*
X17311860Y-13513328D01*
X17311860Y-13513328D02*
X17340431Y-13513328D01*
X17340431Y-13513328D02*
X17359479Y-13522852D01*
X17435670Y-13722852D02*
X17445193Y-13713328D01*
X17445193Y-13713328D02*
X17464241Y-13684757D01*
X17464241Y-13684757D02*
X17473765Y-13665709D01*
X17473765Y-13665709D02*
X17483289Y-13637138D01*
X17483289Y-13637138D02*
X17492812Y-13589519D01*
X17492812Y-13589519D02*
X17492812Y-13551424D01*
X17492812Y-13551424D02*
X17483289Y-13503805D01*
X17483289Y-13503805D02*
X17473765Y-13475233D01*
X17473765Y-13475233D02*
X17464241Y-13456186D01*
X17464241Y-13456186D02*
X17445193Y-13427614D01*
X17445193Y-13427614D02*
X17435670Y-13418090D01*
D12*
X12643107Y-13801678D02*
X12643107Y-13836678D01*
X12625607Y-13819178D02*
X12660607Y-13819178D01*
D11*
X12959479Y-13710662D02*
X12978526Y-13710662D01*
X12978526Y-13710662D02*
X12997574Y-13720186D01*
X12997574Y-13720186D02*
X13007098Y-13729709D01*
X13007098Y-13729709D02*
X13016621Y-13748757D01*
X13016621Y-13748757D02*
X13026145Y-13786852D01*
X13026145Y-13786852D02*
X13026145Y-13834471D01*
X13026145Y-13834471D02*
X13016621Y-13872567D01*
X13016621Y-13872567D02*
X13007098Y-13891614D01*
X13007098Y-13891614D02*
X12997574Y-13901138D01*
X12997574Y-13901138D02*
X12978526Y-13910662D01*
X12978526Y-13910662D02*
X12959479Y-13910662D01*
X12959479Y-13910662D02*
X12940431Y-13901138D01*
X12940431Y-13901138D02*
X12930907Y-13891614D01*
X12930907Y-13891614D02*
X12921383Y-13872567D01*
X12921383Y-13872567D02*
X12911860Y-13834471D01*
X12911860Y-13834471D02*
X12911860Y-13786852D01*
X12911860Y-13786852D02*
X12921383Y-13748757D01*
X12921383Y-13748757D02*
X12930907Y-13729709D01*
X12930907Y-13729709D02*
X12940431Y-13720186D01*
X12940431Y-13720186D02*
X12959479Y-13710662D01*
X13111860Y-13891614D02*
X13121383Y-13901138D01*
X13121383Y-13901138D02*
X13111860Y-13910662D01*
X13111860Y-13910662D02*
X13102336Y-13901138D01*
X13102336Y-13901138D02*
X13111860Y-13891614D01*
X13111860Y-13891614D02*
X13111860Y-13910662D01*
X13188050Y-13710662D02*
X13311860Y-13710662D01*
X13311860Y-13710662D02*
X13245193Y-13786852D01*
X13245193Y-13786852D02*
X13273764Y-13786852D01*
X13273764Y-13786852D02*
X13292812Y-13796376D01*
X13292812Y-13796376D02*
X13302336Y-13805900D01*
X13302336Y-13805900D02*
X13311860Y-13824948D01*
X13311860Y-13824948D02*
X13311860Y-13872567D01*
X13311860Y-13872567D02*
X13302336Y-13891614D01*
X13302336Y-13891614D02*
X13292812Y-13901138D01*
X13292812Y-13901138D02*
X13273764Y-13910662D01*
X13273764Y-13910662D02*
X13216621Y-13910662D01*
X13216621Y-13910662D02*
X13197574Y-13901138D01*
X13197574Y-13901138D02*
X13188050Y-13891614D01*
X13492812Y-13710662D02*
X13397574Y-13710662D01*
X13397574Y-13710662D02*
X13388050Y-13805900D01*
X13388050Y-13805900D02*
X13397574Y-13796376D01*
X13397574Y-13796376D02*
X13416621Y-13786852D01*
X13416621Y-13786852D02*
X13464241Y-13786852D01*
X13464241Y-13786852D02*
X13483288Y-13796376D01*
X13483288Y-13796376D02*
X13492812Y-13805900D01*
X13492812Y-13805900D02*
X13502336Y-13824948D01*
X13502336Y-13824948D02*
X13502336Y-13872567D01*
X13502336Y-13872567D02*
X13492812Y-13891614D01*
X13492812Y-13891614D02*
X13483288Y-13901138D01*
X13483288Y-13901138D02*
X13464241Y-13910662D01*
X13464241Y-13910662D02*
X13416621Y-13910662D01*
X13416621Y-13910662D02*
X13397574Y-13901138D01*
X13397574Y-13901138D02*
X13388050Y-13891614D01*
X13626145Y-13710662D02*
X13645193Y-13710662D01*
X13645193Y-13710662D02*
X13664241Y-13720186D01*
X13664241Y-13720186D02*
X13673764Y-13729709D01*
X13673764Y-13729709D02*
X13683288Y-13748757D01*
X13683288Y-13748757D02*
X13692812Y-13786852D01*
X13692812Y-13786852D02*
X13692812Y-13834471D01*
X13692812Y-13834471D02*
X13683288Y-13872567D01*
X13683288Y-13872567D02*
X13673764Y-13891614D01*
X13673764Y-13891614D02*
X13664241Y-13901138D01*
X13664241Y-13901138D02*
X13645193Y-13910662D01*
X13645193Y-13910662D02*
X13626145Y-13910662D01*
X13626145Y-13910662D02*
X13607098Y-13901138D01*
X13607098Y-13901138D02*
X13597574Y-13891614D01*
X13597574Y-13891614D02*
X13588050Y-13872567D01*
X13588050Y-13872567D02*
X13578526Y-13834471D01*
X13578526Y-13834471D02*
X13578526Y-13786852D01*
X13578526Y-13786852D02*
X13588050Y-13748757D01*
X13588050Y-13748757D02*
X13597574Y-13729709D01*
X13597574Y-13729709D02*
X13607098Y-13720186D01*
X13607098Y-13720186D02*
X13626145Y-13710662D01*
X13778526Y-13910662D02*
X13778526Y-13777328D01*
X13778526Y-13796376D02*
X13788050Y-13786852D01*
X13788050Y-13786852D02*
X13807098Y-13777328D01*
X13807098Y-13777328D02*
X13835669Y-13777328D01*
X13835669Y-13777328D02*
X13854717Y-13786852D01*
X13854717Y-13786852D02*
X13864241Y-13805900D01*
X13864241Y-13805900D02*
X13864241Y-13910662D01*
X13864241Y-13805900D02*
X13873764Y-13786852D01*
X13873764Y-13786852D02*
X13892812Y-13777328D01*
X13892812Y-13777328D02*
X13921383Y-13777328D01*
X13921383Y-13777328D02*
X13940431Y-13786852D01*
X13940431Y-13786852D02*
X13949955Y-13805900D01*
X13949955Y-13805900D02*
X13949955Y-13910662D01*
X14045193Y-13910662D02*
X14045193Y-13777328D01*
X14045193Y-13796376D02*
X14054717Y-13786852D01*
X14054717Y-13786852D02*
X14073764Y-13777328D01*
X14073764Y-13777328D02*
X14102336Y-13777328D01*
X14102336Y-13777328D02*
X14121383Y-13786852D01*
X14121383Y-13786852D02*
X14130907Y-13805900D01*
X14130907Y-13805900D02*
X14130907Y-13910662D01*
X14130907Y-13805900D02*
X14140431Y-13786852D01*
X14140431Y-13786852D02*
X14159479Y-13777328D01*
X14159479Y-13777328D02*
X14188050Y-13777328D01*
X14188050Y-13777328D02*
X14207098Y-13786852D01*
X14207098Y-13786852D02*
X14216622Y-13805900D01*
X14216622Y-13805900D02*
X14216622Y-13910662D01*
X14607098Y-13701138D02*
X14435669Y-13958281D01*
X14864241Y-13710662D02*
X14883288Y-13710662D01*
X14883288Y-13710662D02*
X14902336Y-13720186D01*
X14902336Y-13720186D02*
X14911860Y-13729709D01*
X14911860Y-13729709D02*
X14921384Y-13748757D01*
X14921384Y-13748757D02*
X14930907Y-13786852D01*
X14930907Y-13786852D02*
X14930907Y-13834471D01*
X14930907Y-13834471D02*
X14921384Y-13872567D01*
X14921384Y-13872567D02*
X14911860Y-13891614D01*
X14911860Y-13891614D02*
X14902336Y-13901138D01*
X14902336Y-13901138D02*
X14883288Y-13910662D01*
X14883288Y-13910662D02*
X14864241Y-13910662D01*
X14864241Y-13910662D02*
X14845193Y-13901138D01*
X14845193Y-13901138D02*
X14835669Y-13891614D01*
X14835669Y-13891614D02*
X14826145Y-13872567D01*
X14826145Y-13872567D02*
X14816622Y-13834471D01*
X14816622Y-13834471D02*
X14816622Y-13786852D01*
X14816622Y-13786852D02*
X14826145Y-13748757D01*
X14826145Y-13748757D02*
X14835669Y-13729709D01*
X14835669Y-13729709D02*
X14845193Y-13720186D01*
X14845193Y-13720186D02*
X14864241Y-13710662D01*
X15016622Y-13891614D02*
X15026145Y-13901138D01*
X15026145Y-13901138D02*
X15016622Y-13910662D01*
X15016622Y-13910662D02*
X15007098Y-13901138D01*
X15007098Y-13901138D02*
X15016622Y-13891614D01*
X15016622Y-13891614D02*
X15016622Y-13910662D01*
X15149955Y-13710662D02*
X15169003Y-13710662D01*
X15169003Y-13710662D02*
X15188050Y-13720186D01*
X15188050Y-13720186D02*
X15197574Y-13729709D01*
X15197574Y-13729709D02*
X15207098Y-13748757D01*
X15207098Y-13748757D02*
X15216622Y-13786852D01*
X15216622Y-13786852D02*
X15216622Y-13834471D01*
X15216622Y-13834471D02*
X15207098Y-13872567D01*
X15207098Y-13872567D02*
X15197574Y-13891614D01*
X15197574Y-13891614D02*
X15188050Y-13901138D01*
X15188050Y-13901138D02*
X15169003Y-13910662D01*
X15169003Y-13910662D02*
X15149955Y-13910662D01*
X15149955Y-13910662D02*
X15130907Y-13901138D01*
X15130907Y-13901138D02*
X15121384Y-13891614D01*
X15121384Y-13891614D02*
X15111860Y-13872567D01*
X15111860Y-13872567D02*
X15102336Y-13834471D01*
X15102336Y-13834471D02*
X15102336Y-13786852D01*
X15102336Y-13786852D02*
X15111860Y-13748757D01*
X15111860Y-13748757D02*
X15121384Y-13729709D01*
X15121384Y-13729709D02*
X15130907Y-13720186D01*
X15130907Y-13720186D02*
X15149955Y-13710662D01*
X15407098Y-13910662D02*
X15292812Y-13910662D01*
X15349955Y-13910662D02*
X15349955Y-13710662D01*
X15349955Y-13710662D02*
X15330907Y-13739233D01*
X15330907Y-13739233D02*
X15311860Y-13758281D01*
X15311860Y-13758281D02*
X15292812Y-13767805D01*
X15473765Y-13710662D02*
X15597574Y-13710662D01*
X15597574Y-13710662D02*
X15530907Y-13786852D01*
X15530907Y-13786852D02*
X15559479Y-13786852D01*
X15559479Y-13786852D02*
X15578526Y-13796376D01*
X15578526Y-13796376D02*
X15588050Y-13805900D01*
X15588050Y-13805900D02*
X15597574Y-13824948D01*
X15597574Y-13824948D02*
X15597574Y-13872567D01*
X15597574Y-13872567D02*
X15588050Y-13891614D01*
X15588050Y-13891614D02*
X15578526Y-13901138D01*
X15578526Y-13901138D02*
X15559479Y-13910662D01*
X15559479Y-13910662D02*
X15502336Y-13910662D01*
X15502336Y-13910662D02*
X15483288Y-13901138D01*
X15483288Y-13901138D02*
X15473765Y-13891614D01*
X15711860Y-13796376D02*
X15692812Y-13786852D01*
X15692812Y-13786852D02*
X15683288Y-13777328D01*
X15683288Y-13777328D02*
X15673765Y-13758281D01*
X15673765Y-13758281D02*
X15673765Y-13748757D01*
X15673765Y-13748757D02*
X15683288Y-13729709D01*
X15683288Y-13729709D02*
X15692812Y-13720186D01*
X15692812Y-13720186D02*
X15711860Y-13710662D01*
X15711860Y-13710662D02*
X15749955Y-13710662D01*
X15749955Y-13710662D02*
X15769003Y-13720186D01*
X15769003Y-13720186D02*
X15778526Y-13729709D01*
X15778526Y-13729709D02*
X15788050Y-13748757D01*
X15788050Y-13748757D02*
X15788050Y-13758281D01*
X15788050Y-13758281D02*
X15778526Y-13777328D01*
X15778526Y-13777328D02*
X15769003Y-13786852D01*
X15769003Y-13786852D02*
X15749955Y-13796376D01*
X15749955Y-13796376D02*
X15711860Y-13796376D01*
X15711860Y-13796376D02*
X15692812Y-13805900D01*
X15692812Y-13805900D02*
X15683288Y-13815424D01*
X15683288Y-13815424D02*
X15673765Y-13834471D01*
X15673765Y-13834471D02*
X15673765Y-13872567D01*
X15673765Y-13872567D02*
X15683288Y-13891614D01*
X15683288Y-13891614D02*
X15692812Y-13901138D01*
X15692812Y-13901138D02*
X15711860Y-13910662D01*
X15711860Y-13910662D02*
X15749955Y-13910662D01*
X15749955Y-13910662D02*
X15769003Y-13901138D01*
X15769003Y-13901138D02*
X15778526Y-13891614D01*
X15778526Y-13891614D02*
X15788050Y-13872567D01*
X15788050Y-13872567D02*
X15788050Y-13834471D01*
X15788050Y-13834471D02*
X15778526Y-13815424D01*
X15778526Y-13815424D02*
X15769003Y-13805900D01*
X15769003Y-13805900D02*
X15749955Y-13796376D01*
X15864241Y-13710662D02*
X15864241Y-13748757D01*
X15940431Y-13710662D02*
X15940431Y-13748757D01*
X16235669Y-13986852D02*
X16226146Y-13977328D01*
X16226146Y-13977328D02*
X16207098Y-13948757D01*
X16207098Y-13948757D02*
X16197574Y-13929709D01*
X16197574Y-13929709D02*
X16188050Y-13901138D01*
X16188050Y-13901138D02*
X16178527Y-13853519D01*
X16178527Y-13853519D02*
X16178527Y-13815424D01*
X16178527Y-13815424D02*
X16188050Y-13767805D01*
X16188050Y-13767805D02*
X16197574Y-13739233D01*
X16197574Y-13739233D02*
X16207098Y-13720186D01*
X16207098Y-13720186D02*
X16226146Y-13691614D01*
X16226146Y-13691614D02*
X16235669Y-13682090D01*
X16321384Y-13910662D02*
X16359479Y-13910662D01*
X16359479Y-13910662D02*
X16378527Y-13901138D01*
X16378527Y-13901138D02*
X16388050Y-13891614D01*
X16388050Y-13891614D02*
X16407098Y-13863043D01*
X16407098Y-13863043D02*
X16416622Y-13824948D01*
X16416622Y-13824948D02*
X16416622Y-13748757D01*
X16416622Y-13748757D02*
X16407098Y-13729709D01*
X16407098Y-13729709D02*
X16397574Y-13720186D01*
X16397574Y-13720186D02*
X16378527Y-13710662D01*
X16378527Y-13710662D02*
X16340431Y-13710662D01*
X16340431Y-13710662D02*
X16321384Y-13720186D01*
X16321384Y-13720186D02*
X16311860Y-13729709D01*
X16311860Y-13729709D02*
X16302336Y-13748757D01*
X16302336Y-13748757D02*
X16302336Y-13796376D01*
X16302336Y-13796376D02*
X16311860Y-13815424D01*
X16311860Y-13815424D02*
X16321384Y-13824948D01*
X16321384Y-13824948D02*
X16340431Y-13834471D01*
X16340431Y-13834471D02*
X16378527Y-13834471D01*
X16378527Y-13834471D02*
X16397574Y-13824948D01*
X16397574Y-13824948D02*
X16407098Y-13815424D01*
X16407098Y-13815424D02*
X16416622Y-13796376D01*
X16654717Y-13910662D02*
X16654717Y-13710662D01*
X16740431Y-13910662D02*
X16740431Y-13805900D01*
X16740431Y-13805900D02*
X16730908Y-13786852D01*
X16730908Y-13786852D02*
X16711860Y-13777328D01*
X16711860Y-13777328D02*
X16683288Y-13777328D01*
X16683288Y-13777328D02*
X16664241Y-13786852D01*
X16664241Y-13786852D02*
X16654717Y-13796376D01*
X16864241Y-13910662D02*
X16845193Y-13901138D01*
X16845193Y-13901138D02*
X16835670Y-13891614D01*
X16835670Y-13891614D02*
X16826146Y-13872567D01*
X16826146Y-13872567D02*
X16826146Y-13815424D01*
X16826146Y-13815424D02*
X16835670Y-13796376D01*
X16835670Y-13796376D02*
X16845193Y-13786852D01*
X16845193Y-13786852D02*
X16864241Y-13777328D01*
X16864241Y-13777328D02*
X16892812Y-13777328D01*
X16892812Y-13777328D02*
X16911860Y-13786852D01*
X16911860Y-13786852D02*
X16921384Y-13796376D01*
X16921384Y-13796376D02*
X16930908Y-13815424D01*
X16930908Y-13815424D02*
X16930908Y-13872567D01*
X16930908Y-13872567D02*
X16921384Y-13891614D01*
X16921384Y-13891614D02*
X16911860Y-13901138D01*
X16911860Y-13901138D02*
X16892812Y-13910662D01*
X16892812Y-13910662D02*
X16864241Y-13910662D01*
X17045193Y-13910662D02*
X17026146Y-13901138D01*
X17026146Y-13901138D02*
X17016622Y-13882090D01*
X17016622Y-13882090D02*
X17016622Y-13710662D01*
X17197574Y-13901138D02*
X17178527Y-13910662D01*
X17178527Y-13910662D02*
X17140431Y-13910662D01*
X17140431Y-13910662D02*
X17121384Y-13901138D01*
X17121384Y-13901138D02*
X17111860Y-13882090D01*
X17111860Y-13882090D02*
X17111860Y-13805900D01*
X17111860Y-13805900D02*
X17121384Y-13786852D01*
X17121384Y-13786852D02*
X17140431Y-13777328D01*
X17140431Y-13777328D02*
X17178527Y-13777328D01*
X17178527Y-13777328D02*
X17197574Y-13786852D01*
X17197574Y-13786852D02*
X17207098Y-13805900D01*
X17207098Y-13805900D02*
X17207098Y-13824948D01*
X17207098Y-13824948D02*
X17111860Y-13843995D01*
X17283289Y-13901138D02*
X17302336Y-13910662D01*
X17302336Y-13910662D02*
X17340431Y-13910662D01*
X17340431Y-13910662D02*
X17359479Y-13901138D01*
X17359479Y-13901138D02*
X17369003Y-13882090D01*
X17369003Y-13882090D02*
X17369003Y-13872567D01*
X17369003Y-13872567D02*
X17359479Y-13853519D01*
X17359479Y-13853519D02*
X17340431Y-13843995D01*
X17340431Y-13843995D02*
X17311860Y-13843995D01*
X17311860Y-13843995D02*
X17292812Y-13834471D01*
X17292812Y-13834471D02*
X17283289Y-13815424D01*
X17283289Y-13815424D02*
X17283289Y-13805900D01*
X17283289Y-13805900D02*
X17292812Y-13786852D01*
X17292812Y-13786852D02*
X17311860Y-13777328D01*
X17311860Y-13777328D02*
X17340431Y-13777328D01*
X17340431Y-13777328D02*
X17359479Y-13786852D01*
X17435670Y-13986852D02*
X17445193Y-13977328D01*
X17445193Y-13977328D02*
X17464241Y-13948757D01*
X17464241Y-13948757D02*
X17473765Y-13929709D01*
X17473765Y-13929709D02*
X17483289Y-13901138D01*
X17483289Y-13901138D02*
X17492812Y-13853519D01*
X17492812Y-13853519D02*
X17492812Y-13815424D01*
X17492812Y-13815424D02*
X17483289Y-13767805D01*
X17483289Y-13767805D02*
X17473765Y-13739233D01*
X17473765Y-13739233D02*
X17464241Y-13720186D01*
X17464241Y-13720186D02*
X17445193Y-13691614D01*
X17445193Y-13691614D02*
X17435670Y-13682090D01*
D12*
X12651088Y-14106159D02*
X12651088Y-14060197D01*
X12605125Y-14060197D01*
X12605125Y-14106159D01*
X12651088Y-14106159D01*
D11*
X12959479Y-13974662D02*
X12978526Y-13974662D01*
X12978526Y-13974662D02*
X12997574Y-13984186D01*
X12997574Y-13984186D02*
X13007098Y-13993709D01*
X13007098Y-13993709D02*
X13016621Y-14012757D01*
X13016621Y-14012757D02*
X13026145Y-14050852D01*
X13026145Y-14050852D02*
X13026145Y-14098471D01*
X13026145Y-14098471D02*
X13016621Y-14136567D01*
X13016621Y-14136567D02*
X13007098Y-14155614D01*
X13007098Y-14155614D02*
X12997574Y-14165138D01*
X12997574Y-14165138D02*
X12978526Y-14174662D01*
X12978526Y-14174662D02*
X12959479Y-14174662D01*
X12959479Y-14174662D02*
X12940431Y-14165138D01*
X12940431Y-14165138D02*
X12930907Y-14155614D01*
X12930907Y-14155614D02*
X12921383Y-14136567D01*
X12921383Y-14136567D02*
X12911860Y-14098471D01*
X12911860Y-14098471D02*
X12911860Y-14050852D01*
X12911860Y-14050852D02*
X12921383Y-14012757D01*
X12921383Y-14012757D02*
X12930907Y-13993709D01*
X12930907Y-13993709D02*
X12940431Y-13984186D01*
X12940431Y-13984186D02*
X12959479Y-13974662D01*
X13111860Y-14155614D02*
X13121383Y-14165138D01*
X13121383Y-14165138D02*
X13111860Y-14174662D01*
X13111860Y-14174662D02*
X13102336Y-14165138D01*
X13102336Y-14165138D02*
X13111860Y-14155614D01*
X13111860Y-14155614D02*
X13111860Y-14174662D01*
X13292812Y-13974662D02*
X13254717Y-13974662D01*
X13254717Y-13974662D02*
X13235669Y-13984186D01*
X13235669Y-13984186D02*
X13226145Y-13993709D01*
X13226145Y-13993709D02*
X13207098Y-14022281D01*
X13207098Y-14022281D02*
X13197574Y-14060376D01*
X13197574Y-14060376D02*
X13197574Y-14136567D01*
X13197574Y-14136567D02*
X13207098Y-14155614D01*
X13207098Y-14155614D02*
X13216621Y-14165138D01*
X13216621Y-14165138D02*
X13235669Y-14174662D01*
X13235669Y-14174662D02*
X13273764Y-14174662D01*
X13273764Y-14174662D02*
X13292812Y-14165138D01*
X13292812Y-14165138D02*
X13302336Y-14155614D01*
X13302336Y-14155614D02*
X13311860Y-14136567D01*
X13311860Y-14136567D02*
X13311860Y-14088948D01*
X13311860Y-14088948D02*
X13302336Y-14069900D01*
X13302336Y-14069900D02*
X13292812Y-14060376D01*
X13292812Y-14060376D02*
X13273764Y-14050852D01*
X13273764Y-14050852D02*
X13235669Y-14050852D01*
X13235669Y-14050852D02*
X13216621Y-14060376D01*
X13216621Y-14060376D02*
X13207098Y-14069900D01*
X13207098Y-14069900D02*
X13197574Y-14088948D01*
X13492812Y-13974662D02*
X13397574Y-13974662D01*
X13397574Y-13974662D02*
X13388050Y-14069900D01*
X13388050Y-14069900D02*
X13397574Y-14060376D01*
X13397574Y-14060376D02*
X13416621Y-14050852D01*
X13416621Y-14050852D02*
X13464241Y-14050852D01*
X13464241Y-14050852D02*
X13483288Y-14060376D01*
X13483288Y-14060376D02*
X13492812Y-14069900D01*
X13492812Y-14069900D02*
X13502336Y-14088948D01*
X13502336Y-14088948D02*
X13502336Y-14136567D01*
X13502336Y-14136567D02*
X13492812Y-14155614D01*
X13492812Y-14155614D02*
X13483288Y-14165138D01*
X13483288Y-14165138D02*
X13464241Y-14174662D01*
X13464241Y-14174662D02*
X13416621Y-14174662D01*
X13416621Y-14174662D02*
X13397574Y-14165138D01*
X13397574Y-14165138D02*
X13388050Y-14155614D01*
X13626145Y-13974662D02*
X13645193Y-13974662D01*
X13645193Y-13974662D02*
X13664241Y-13984186D01*
X13664241Y-13984186D02*
X13673764Y-13993709D01*
X13673764Y-13993709D02*
X13683288Y-14012757D01*
X13683288Y-14012757D02*
X13692812Y-14050852D01*
X13692812Y-14050852D02*
X13692812Y-14098471D01*
X13692812Y-14098471D02*
X13683288Y-14136567D01*
X13683288Y-14136567D02*
X13673764Y-14155614D01*
X13673764Y-14155614D02*
X13664241Y-14165138D01*
X13664241Y-14165138D02*
X13645193Y-14174662D01*
X13645193Y-14174662D02*
X13626145Y-14174662D01*
X13626145Y-14174662D02*
X13607098Y-14165138D01*
X13607098Y-14165138D02*
X13597574Y-14155614D01*
X13597574Y-14155614D02*
X13588050Y-14136567D01*
X13588050Y-14136567D02*
X13578526Y-14098471D01*
X13578526Y-14098471D02*
X13578526Y-14050852D01*
X13578526Y-14050852D02*
X13588050Y-14012757D01*
X13588050Y-14012757D02*
X13597574Y-13993709D01*
X13597574Y-13993709D02*
X13607098Y-13984186D01*
X13607098Y-13984186D02*
X13626145Y-13974662D01*
X13778526Y-14174662D02*
X13778526Y-14041328D01*
X13778526Y-14060376D02*
X13788050Y-14050852D01*
X13788050Y-14050852D02*
X13807098Y-14041328D01*
X13807098Y-14041328D02*
X13835669Y-14041328D01*
X13835669Y-14041328D02*
X13854717Y-14050852D01*
X13854717Y-14050852D02*
X13864241Y-14069900D01*
X13864241Y-14069900D02*
X13864241Y-14174662D01*
X13864241Y-14069900D02*
X13873764Y-14050852D01*
X13873764Y-14050852D02*
X13892812Y-14041328D01*
X13892812Y-14041328D02*
X13921383Y-14041328D01*
X13921383Y-14041328D02*
X13940431Y-14050852D01*
X13940431Y-14050852D02*
X13949955Y-14069900D01*
X13949955Y-14069900D02*
X13949955Y-14174662D01*
X14045193Y-14174662D02*
X14045193Y-14041328D01*
X14045193Y-14060376D02*
X14054717Y-14050852D01*
X14054717Y-14050852D02*
X14073764Y-14041328D01*
X14073764Y-14041328D02*
X14102336Y-14041328D01*
X14102336Y-14041328D02*
X14121383Y-14050852D01*
X14121383Y-14050852D02*
X14130907Y-14069900D01*
X14130907Y-14069900D02*
X14130907Y-14174662D01*
X14130907Y-14069900D02*
X14140431Y-14050852D01*
X14140431Y-14050852D02*
X14159479Y-14041328D01*
X14159479Y-14041328D02*
X14188050Y-14041328D01*
X14188050Y-14041328D02*
X14207098Y-14050852D01*
X14207098Y-14050852D02*
X14216622Y-14069900D01*
X14216622Y-14069900D02*
X14216622Y-14174662D01*
X14607098Y-13965138D02*
X14435669Y-14222281D01*
X14864241Y-13974662D02*
X14883288Y-13974662D01*
X14883288Y-13974662D02*
X14902336Y-13984186D01*
X14902336Y-13984186D02*
X14911860Y-13993709D01*
X14911860Y-13993709D02*
X14921384Y-14012757D01*
X14921384Y-14012757D02*
X14930907Y-14050852D01*
X14930907Y-14050852D02*
X14930907Y-14098471D01*
X14930907Y-14098471D02*
X14921384Y-14136567D01*
X14921384Y-14136567D02*
X14911860Y-14155614D01*
X14911860Y-14155614D02*
X14902336Y-14165138D01*
X14902336Y-14165138D02*
X14883288Y-14174662D01*
X14883288Y-14174662D02*
X14864241Y-14174662D01*
X14864241Y-14174662D02*
X14845193Y-14165138D01*
X14845193Y-14165138D02*
X14835669Y-14155614D01*
X14835669Y-14155614D02*
X14826145Y-14136567D01*
X14826145Y-14136567D02*
X14816622Y-14098471D01*
X14816622Y-14098471D02*
X14816622Y-14050852D01*
X14816622Y-14050852D02*
X14826145Y-14012757D01*
X14826145Y-14012757D02*
X14835669Y-13993709D01*
X14835669Y-13993709D02*
X14845193Y-13984186D01*
X14845193Y-13984186D02*
X14864241Y-13974662D01*
X15016622Y-14155614D02*
X15026145Y-14165138D01*
X15026145Y-14165138D02*
X15016622Y-14174662D01*
X15016622Y-14174662D02*
X15007098Y-14165138D01*
X15007098Y-14165138D02*
X15016622Y-14155614D01*
X15016622Y-14155614D02*
X15016622Y-14174662D01*
X15149955Y-13974662D02*
X15169003Y-13974662D01*
X15169003Y-13974662D02*
X15188050Y-13984186D01*
X15188050Y-13984186D02*
X15197574Y-13993709D01*
X15197574Y-13993709D02*
X15207098Y-14012757D01*
X15207098Y-14012757D02*
X15216622Y-14050852D01*
X15216622Y-14050852D02*
X15216622Y-14098471D01*
X15216622Y-14098471D02*
X15207098Y-14136567D01*
X15207098Y-14136567D02*
X15197574Y-14155614D01*
X15197574Y-14155614D02*
X15188050Y-14165138D01*
X15188050Y-14165138D02*
X15169003Y-14174662D01*
X15169003Y-14174662D02*
X15149955Y-14174662D01*
X15149955Y-14174662D02*
X15130907Y-14165138D01*
X15130907Y-14165138D02*
X15121384Y-14155614D01*
X15121384Y-14155614D02*
X15111860Y-14136567D01*
X15111860Y-14136567D02*
X15102336Y-14098471D01*
X15102336Y-14098471D02*
X15102336Y-14050852D01*
X15102336Y-14050852D02*
X15111860Y-14012757D01*
X15111860Y-14012757D02*
X15121384Y-13993709D01*
X15121384Y-13993709D02*
X15130907Y-13984186D01*
X15130907Y-13984186D02*
X15149955Y-13974662D01*
X15292812Y-13993709D02*
X15302336Y-13984186D01*
X15302336Y-13984186D02*
X15321384Y-13974662D01*
X15321384Y-13974662D02*
X15369003Y-13974662D01*
X15369003Y-13974662D02*
X15388050Y-13984186D01*
X15388050Y-13984186D02*
X15397574Y-13993709D01*
X15397574Y-13993709D02*
X15407098Y-14012757D01*
X15407098Y-14012757D02*
X15407098Y-14031805D01*
X15407098Y-14031805D02*
X15397574Y-14060376D01*
X15397574Y-14060376D02*
X15283288Y-14174662D01*
X15283288Y-14174662D02*
X15407098Y-14174662D01*
X15588050Y-13974662D02*
X15492812Y-13974662D01*
X15492812Y-13974662D02*
X15483288Y-14069900D01*
X15483288Y-14069900D02*
X15492812Y-14060376D01*
X15492812Y-14060376D02*
X15511860Y-14050852D01*
X15511860Y-14050852D02*
X15559479Y-14050852D01*
X15559479Y-14050852D02*
X15578526Y-14060376D01*
X15578526Y-14060376D02*
X15588050Y-14069900D01*
X15588050Y-14069900D02*
X15597574Y-14088948D01*
X15597574Y-14088948D02*
X15597574Y-14136567D01*
X15597574Y-14136567D02*
X15588050Y-14155614D01*
X15588050Y-14155614D02*
X15578526Y-14165138D01*
X15578526Y-14165138D02*
X15559479Y-14174662D01*
X15559479Y-14174662D02*
X15511860Y-14174662D01*
X15511860Y-14174662D02*
X15492812Y-14165138D01*
X15492812Y-14165138D02*
X15483288Y-14155614D01*
X15769003Y-13974662D02*
X15730907Y-13974662D01*
X15730907Y-13974662D02*
X15711860Y-13984186D01*
X15711860Y-13984186D02*
X15702336Y-13993709D01*
X15702336Y-13993709D02*
X15683288Y-14022281D01*
X15683288Y-14022281D02*
X15673765Y-14060376D01*
X15673765Y-14060376D02*
X15673765Y-14136567D01*
X15673765Y-14136567D02*
X15683288Y-14155614D01*
X15683288Y-14155614D02*
X15692812Y-14165138D01*
X15692812Y-14165138D02*
X15711860Y-14174662D01*
X15711860Y-14174662D02*
X15749955Y-14174662D01*
X15749955Y-14174662D02*
X15769003Y-14165138D01*
X15769003Y-14165138D02*
X15778526Y-14155614D01*
X15778526Y-14155614D02*
X15788050Y-14136567D01*
X15788050Y-14136567D02*
X15788050Y-14088948D01*
X15788050Y-14088948D02*
X15778526Y-14069900D01*
X15778526Y-14069900D02*
X15769003Y-14060376D01*
X15769003Y-14060376D02*
X15749955Y-14050852D01*
X15749955Y-14050852D02*
X15711860Y-14050852D01*
X15711860Y-14050852D02*
X15692812Y-14060376D01*
X15692812Y-14060376D02*
X15683288Y-14069900D01*
X15683288Y-14069900D02*
X15673765Y-14088948D01*
X15864241Y-13974662D02*
X15864241Y-14012757D01*
X15940431Y-13974662D02*
X15940431Y-14012757D01*
X16235669Y-14250852D02*
X16226146Y-14241328D01*
X16226146Y-14241328D02*
X16207098Y-14212757D01*
X16207098Y-14212757D02*
X16197574Y-14193709D01*
X16197574Y-14193709D02*
X16188050Y-14165138D01*
X16188050Y-14165138D02*
X16178527Y-14117519D01*
X16178527Y-14117519D02*
X16178527Y-14079424D01*
X16178527Y-14079424D02*
X16188050Y-14031805D01*
X16188050Y-14031805D02*
X16197574Y-14003233D01*
X16197574Y-14003233D02*
X16207098Y-13984186D01*
X16207098Y-13984186D02*
X16226146Y-13955614D01*
X16226146Y-13955614D02*
X16235669Y-13946090D01*
X16349955Y-13974662D02*
X16369003Y-13974662D01*
X16369003Y-13974662D02*
X16388050Y-13984186D01*
X16388050Y-13984186D02*
X16397574Y-13993709D01*
X16397574Y-13993709D02*
X16407098Y-14012757D01*
X16407098Y-14012757D02*
X16416622Y-14050852D01*
X16416622Y-14050852D02*
X16416622Y-14098471D01*
X16416622Y-14098471D02*
X16407098Y-14136567D01*
X16407098Y-14136567D02*
X16397574Y-14155614D01*
X16397574Y-14155614D02*
X16388050Y-14165138D01*
X16388050Y-14165138D02*
X16369003Y-14174662D01*
X16369003Y-14174662D02*
X16349955Y-14174662D01*
X16349955Y-14174662D02*
X16330907Y-14165138D01*
X16330907Y-14165138D02*
X16321384Y-14155614D01*
X16321384Y-14155614D02*
X16311860Y-14136567D01*
X16311860Y-14136567D02*
X16302336Y-14098471D01*
X16302336Y-14098471D02*
X16302336Y-14050852D01*
X16302336Y-14050852D02*
X16311860Y-14012757D01*
X16311860Y-14012757D02*
X16321384Y-13993709D01*
X16321384Y-13993709D02*
X16330907Y-13984186D01*
X16330907Y-13984186D02*
X16349955Y-13974662D01*
X16654717Y-14174662D02*
X16654717Y-13974662D01*
X16740431Y-14174662D02*
X16740431Y-14069900D01*
X16740431Y-14069900D02*
X16730908Y-14050852D01*
X16730908Y-14050852D02*
X16711860Y-14041328D01*
X16711860Y-14041328D02*
X16683288Y-14041328D01*
X16683288Y-14041328D02*
X16664241Y-14050852D01*
X16664241Y-14050852D02*
X16654717Y-14060376D01*
X16864241Y-14174662D02*
X16845193Y-14165138D01*
X16845193Y-14165138D02*
X16835670Y-14155614D01*
X16835670Y-14155614D02*
X16826146Y-14136567D01*
X16826146Y-14136567D02*
X16826146Y-14079424D01*
X16826146Y-14079424D02*
X16835670Y-14060376D01*
X16835670Y-14060376D02*
X16845193Y-14050852D01*
X16845193Y-14050852D02*
X16864241Y-14041328D01*
X16864241Y-14041328D02*
X16892812Y-14041328D01*
X16892812Y-14041328D02*
X16911860Y-14050852D01*
X16911860Y-14050852D02*
X16921384Y-14060376D01*
X16921384Y-14060376D02*
X16930908Y-14079424D01*
X16930908Y-14079424D02*
X16930908Y-14136567D01*
X16930908Y-14136567D02*
X16921384Y-14155614D01*
X16921384Y-14155614D02*
X16911860Y-14165138D01*
X16911860Y-14165138D02*
X16892812Y-14174662D01*
X16892812Y-14174662D02*
X16864241Y-14174662D01*
X17045193Y-14174662D02*
X17026146Y-14165138D01*
X17026146Y-14165138D02*
X17016622Y-14146090D01*
X17016622Y-14146090D02*
X17016622Y-13974662D01*
X17197574Y-14165138D02*
X17178527Y-14174662D01*
X17178527Y-14174662D02*
X17140431Y-14174662D01*
X17140431Y-14174662D02*
X17121384Y-14165138D01*
X17121384Y-14165138D02*
X17111860Y-14146090D01*
X17111860Y-14146090D02*
X17111860Y-14069900D01*
X17111860Y-14069900D02*
X17121384Y-14050852D01*
X17121384Y-14050852D02*
X17140431Y-14041328D01*
X17140431Y-14041328D02*
X17178527Y-14041328D01*
X17178527Y-14041328D02*
X17197574Y-14050852D01*
X17197574Y-14050852D02*
X17207098Y-14069900D01*
X17207098Y-14069900D02*
X17207098Y-14088948D01*
X17207098Y-14088948D02*
X17111860Y-14107995D01*
X17283289Y-14165138D02*
X17302336Y-14174662D01*
X17302336Y-14174662D02*
X17340431Y-14174662D01*
X17340431Y-14174662D02*
X17359479Y-14165138D01*
X17359479Y-14165138D02*
X17369003Y-14146090D01*
X17369003Y-14146090D02*
X17369003Y-14136567D01*
X17369003Y-14136567D02*
X17359479Y-14117519D01*
X17359479Y-14117519D02*
X17340431Y-14107995D01*
X17340431Y-14107995D02*
X17311860Y-14107995D01*
X17311860Y-14107995D02*
X17292812Y-14098471D01*
X17292812Y-14098471D02*
X17283289Y-14079424D01*
X17283289Y-14079424D02*
X17283289Y-14069900D01*
X17283289Y-14069900D02*
X17292812Y-14050852D01*
X17292812Y-14050852D02*
X17311860Y-14041328D01*
X17311860Y-14041328D02*
X17340431Y-14041328D01*
X17340431Y-14041328D02*
X17359479Y-14050852D01*
X17607098Y-14098471D02*
X17759479Y-14098471D01*
X17683289Y-14174662D02*
X17683289Y-14022281D01*
X17997574Y-13993709D02*
X18007098Y-13984186D01*
X18007098Y-13984186D02*
X18026146Y-13974662D01*
X18026146Y-13974662D02*
X18073765Y-13974662D01*
X18073765Y-13974662D02*
X18092813Y-13984186D01*
X18092813Y-13984186D02*
X18102336Y-13993709D01*
X18102336Y-13993709D02*
X18111860Y-14012757D01*
X18111860Y-14012757D02*
X18111860Y-14031805D01*
X18111860Y-14031805D02*
X18102336Y-14060376D01*
X18102336Y-14060376D02*
X17988051Y-14174662D01*
X17988051Y-14174662D02*
X18111860Y-14174662D01*
X18340432Y-14165138D02*
X18359479Y-14174662D01*
X18359479Y-14174662D02*
X18397574Y-14174662D01*
X18397574Y-14174662D02*
X18416622Y-14165138D01*
X18416622Y-14165138D02*
X18426146Y-14146090D01*
X18426146Y-14146090D02*
X18426146Y-14136567D01*
X18426146Y-14136567D02*
X18416622Y-14117519D01*
X18416622Y-14117519D02*
X18397574Y-14107995D01*
X18397574Y-14107995D02*
X18369003Y-14107995D01*
X18369003Y-14107995D02*
X18349955Y-14098471D01*
X18349955Y-14098471D02*
X18340432Y-14079424D01*
X18340432Y-14079424D02*
X18340432Y-14069900D01*
X18340432Y-14069900D02*
X18349955Y-14050852D01*
X18349955Y-14050852D02*
X18369003Y-14041328D01*
X18369003Y-14041328D02*
X18397574Y-14041328D01*
X18397574Y-14041328D02*
X18416622Y-14050852D01*
X18540432Y-14174662D02*
X18521384Y-14165138D01*
X18521384Y-14165138D02*
X18511860Y-14146090D01*
X18511860Y-14146090D02*
X18511860Y-13974662D01*
X18645194Y-14174662D02*
X18626146Y-14165138D01*
X18626146Y-14165138D02*
X18616622Y-14155614D01*
X18616622Y-14155614D02*
X18607098Y-14136567D01*
X18607098Y-14136567D02*
X18607098Y-14079424D01*
X18607098Y-14079424D02*
X18616622Y-14060376D01*
X18616622Y-14060376D02*
X18626146Y-14050852D01*
X18626146Y-14050852D02*
X18645194Y-14041328D01*
X18645194Y-14041328D02*
X18673765Y-14041328D01*
X18673765Y-14041328D02*
X18692813Y-14050852D01*
X18692813Y-14050852D02*
X18702336Y-14060376D01*
X18702336Y-14060376D02*
X18711860Y-14079424D01*
X18711860Y-14079424D02*
X18711860Y-14136567D01*
X18711860Y-14136567D02*
X18702336Y-14155614D01*
X18702336Y-14155614D02*
X18692813Y-14165138D01*
X18692813Y-14165138D02*
X18673765Y-14174662D01*
X18673765Y-14174662D02*
X18645194Y-14174662D01*
X18769003Y-14041328D02*
X18845194Y-14041328D01*
X18797575Y-13974662D02*
X18797575Y-14146090D01*
X18797575Y-14146090D02*
X18807098Y-14165138D01*
X18807098Y-14165138D02*
X18826146Y-14174662D01*
X18826146Y-14174662D02*
X18845194Y-14174662D01*
X18902336Y-14165138D02*
X18921384Y-14174662D01*
X18921384Y-14174662D02*
X18959479Y-14174662D01*
X18959479Y-14174662D02*
X18978527Y-14165138D01*
X18978527Y-14165138D02*
X18988051Y-14146090D01*
X18988051Y-14146090D02*
X18988051Y-14136567D01*
X18988051Y-14136567D02*
X18978527Y-14117519D01*
X18978527Y-14117519D02*
X18959479Y-14107995D01*
X18959479Y-14107995D02*
X18930908Y-14107995D01*
X18930908Y-14107995D02*
X18911860Y-14098471D01*
X18911860Y-14098471D02*
X18902336Y-14079424D01*
X18902336Y-14079424D02*
X18902336Y-14069900D01*
X18902336Y-14069900D02*
X18911860Y-14050852D01*
X18911860Y-14050852D02*
X18930908Y-14041328D01*
X18930908Y-14041328D02*
X18959479Y-14041328D01*
X18959479Y-14041328D02*
X18978527Y-14050852D01*
X19054717Y-14250852D02*
X19064241Y-14241328D01*
X19064241Y-14241328D02*
X19083289Y-14212757D01*
X19083289Y-14212757D02*
X19092813Y-14193709D01*
X19092813Y-14193709D02*
X19102336Y-14165138D01*
X19102336Y-14165138D02*
X19111860Y-14117519D01*
X19111860Y-14117519D02*
X19111860Y-14079424D01*
X19111860Y-14079424D02*
X19102336Y-14031805D01*
X19102336Y-14031805D02*
X19092813Y-14003233D01*
X19092813Y-14003233D02*
X19083289Y-13984186D01*
X19083289Y-13984186D02*
X19064241Y-13955614D01*
X19064241Y-13955614D02*
X19054717Y-13946090D01*
D12*
X12625607Y-14382178D02*
X12660607Y-14347178D01*
X12625607Y-14312178D01*
X12590607Y-14347178D01*
X12625607Y-14382178D01*
D11*
X12959479Y-14238662D02*
X12978526Y-14238662D01*
X12978526Y-14238662D02*
X12997574Y-14248186D01*
X12997574Y-14248186D02*
X13007098Y-14257709D01*
X13007098Y-14257709D02*
X13016621Y-14276757D01*
X13016621Y-14276757D02*
X13026145Y-14314852D01*
X13026145Y-14314852D02*
X13026145Y-14362471D01*
X13026145Y-14362471D02*
X13016621Y-14400567D01*
X13016621Y-14400567D02*
X13007098Y-14419614D01*
X13007098Y-14419614D02*
X12997574Y-14429138D01*
X12997574Y-14429138D02*
X12978526Y-14438662D01*
X12978526Y-14438662D02*
X12959479Y-14438662D01*
X12959479Y-14438662D02*
X12940431Y-14429138D01*
X12940431Y-14429138D02*
X12930907Y-14419614D01*
X12930907Y-14419614D02*
X12921383Y-14400567D01*
X12921383Y-14400567D02*
X12911860Y-14362471D01*
X12911860Y-14362471D02*
X12911860Y-14314852D01*
X12911860Y-14314852D02*
X12921383Y-14276757D01*
X12921383Y-14276757D02*
X12930907Y-14257709D01*
X12930907Y-14257709D02*
X12940431Y-14248186D01*
X12940431Y-14248186D02*
X12959479Y-14238662D01*
X13111860Y-14419614D02*
X13121383Y-14429138D01*
X13121383Y-14429138D02*
X13111860Y-14438662D01*
X13111860Y-14438662D02*
X13102336Y-14429138D01*
X13102336Y-14429138D02*
X13111860Y-14419614D01*
X13111860Y-14419614D02*
X13111860Y-14438662D01*
X13188050Y-14238662D02*
X13321383Y-14238662D01*
X13321383Y-14238662D02*
X13235669Y-14438662D01*
X13435669Y-14238662D02*
X13454717Y-14238662D01*
X13454717Y-14238662D02*
X13473764Y-14248186D01*
X13473764Y-14248186D02*
X13483288Y-14257709D01*
X13483288Y-14257709D02*
X13492812Y-14276757D01*
X13492812Y-14276757D02*
X13502336Y-14314852D01*
X13502336Y-14314852D02*
X13502336Y-14362471D01*
X13502336Y-14362471D02*
X13492812Y-14400567D01*
X13492812Y-14400567D02*
X13483288Y-14419614D01*
X13483288Y-14419614D02*
X13473764Y-14429138D01*
X13473764Y-14429138D02*
X13454717Y-14438662D01*
X13454717Y-14438662D02*
X13435669Y-14438662D01*
X13435669Y-14438662D02*
X13416621Y-14429138D01*
X13416621Y-14429138D02*
X13407098Y-14419614D01*
X13407098Y-14419614D02*
X13397574Y-14400567D01*
X13397574Y-14400567D02*
X13388050Y-14362471D01*
X13388050Y-14362471D02*
X13388050Y-14314852D01*
X13388050Y-14314852D02*
X13397574Y-14276757D01*
X13397574Y-14276757D02*
X13407098Y-14257709D01*
X13407098Y-14257709D02*
X13416621Y-14248186D01*
X13416621Y-14248186D02*
X13435669Y-14238662D01*
X13626145Y-14238662D02*
X13645193Y-14238662D01*
X13645193Y-14238662D02*
X13664241Y-14248186D01*
X13664241Y-14248186D02*
X13673764Y-14257709D01*
X13673764Y-14257709D02*
X13683288Y-14276757D01*
X13683288Y-14276757D02*
X13692812Y-14314852D01*
X13692812Y-14314852D02*
X13692812Y-14362471D01*
X13692812Y-14362471D02*
X13683288Y-14400567D01*
X13683288Y-14400567D02*
X13673764Y-14419614D01*
X13673764Y-14419614D02*
X13664241Y-14429138D01*
X13664241Y-14429138D02*
X13645193Y-14438662D01*
X13645193Y-14438662D02*
X13626145Y-14438662D01*
X13626145Y-14438662D02*
X13607098Y-14429138D01*
X13607098Y-14429138D02*
X13597574Y-14419614D01*
X13597574Y-14419614D02*
X13588050Y-14400567D01*
X13588050Y-14400567D02*
X13578526Y-14362471D01*
X13578526Y-14362471D02*
X13578526Y-14314852D01*
X13578526Y-14314852D02*
X13588050Y-14276757D01*
X13588050Y-14276757D02*
X13597574Y-14257709D01*
X13597574Y-14257709D02*
X13607098Y-14248186D01*
X13607098Y-14248186D02*
X13626145Y-14238662D01*
X13778526Y-14438662D02*
X13778526Y-14305328D01*
X13778526Y-14324376D02*
X13788050Y-14314852D01*
X13788050Y-14314852D02*
X13807098Y-14305328D01*
X13807098Y-14305328D02*
X13835669Y-14305328D01*
X13835669Y-14305328D02*
X13854717Y-14314852D01*
X13854717Y-14314852D02*
X13864241Y-14333900D01*
X13864241Y-14333900D02*
X13864241Y-14438662D01*
X13864241Y-14333900D02*
X13873764Y-14314852D01*
X13873764Y-14314852D02*
X13892812Y-14305328D01*
X13892812Y-14305328D02*
X13921383Y-14305328D01*
X13921383Y-14305328D02*
X13940431Y-14314852D01*
X13940431Y-14314852D02*
X13949955Y-14333900D01*
X13949955Y-14333900D02*
X13949955Y-14438662D01*
X14045193Y-14438662D02*
X14045193Y-14305328D01*
X14045193Y-14324376D02*
X14054717Y-14314852D01*
X14054717Y-14314852D02*
X14073764Y-14305328D01*
X14073764Y-14305328D02*
X14102336Y-14305328D01*
X14102336Y-14305328D02*
X14121383Y-14314852D01*
X14121383Y-14314852D02*
X14130907Y-14333900D01*
X14130907Y-14333900D02*
X14130907Y-14438662D01*
X14130907Y-14333900D02*
X14140431Y-14314852D01*
X14140431Y-14314852D02*
X14159479Y-14305328D01*
X14159479Y-14305328D02*
X14188050Y-14305328D01*
X14188050Y-14305328D02*
X14207098Y-14314852D01*
X14207098Y-14314852D02*
X14216622Y-14333900D01*
X14216622Y-14333900D02*
X14216622Y-14438662D01*
X14607098Y-14229138D02*
X14435669Y-14486281D01*
X14864241Y-14238662D02*
X14883288Y-14238662D01*
X14883288Y-14238662D02*
X14902336Y-14248186D01*
X14902336Y-14248186D02*
X14911860Y-14257709D01*
X14911860Y-14257709D02*
X14921384Y-14276757D01*
X14921384Y-14276757D02*
X14930907Y-14314852D01*
X14930907Y-14314852D02*
X14930907Y-14362471D01*
X14930907Y-14362471D02*
X14921384Y-14400567D01*
X14921384Y-14400567D02*
X14911860Y-14419614D01*
X14911860Y-14419614D02*
X14902336Y-14429138D01*
X14902336Y-14429138D02*
X14883288Y-14438662D01*
X14883288Y-14438662D02*
X14864241Y-14438662D01*
X14864241Y-14438662D02*
X14845193Y-14429138D01*
X14845193Y-14429138D02*
X14835669Y-14419614D01*
X14835669Y-14419614D02*
X14826145Y-14400567D01*
X14826145Y-14400567D02*
X14816622Y-14362471D01*
X14816622Y-14362471D02*
X14816622Y-14314852D01*
X14816622Y-14314852D02*
X14826145Y-14276757D01*
X14826145Y-14276757D02*
X14835669Y-14257709D01*
X14835669Y-14257709D02*
X14845193Y-14248186D01*
X14845193Y-14248186D02*
X14864241Y-14238662D01*
X15016622Y-14419614D02*
X15026145Y-14429138D01*
X15026145Y-14429138D02*
X15016622Y-14438662D01*
X15016622Y-14438662D02*
X15007098Y-14429138D01*
X15007098Y-14429138D02*
X15016622Y-14419614D01*
X15016622Y-14419614D02*
X15016622Y-14438662D01*
X15149955Y-14238662D02*
X15169003Y-14238662D01*
X15169003Y-14238662D02*
X15188050Y-14248186D01*
X15188050Y-14248186D02*
X15197574Y-14257709D01*
X15197574Y-14257709D02*
X15207098Y-14276757D01*
X15207098Y-14276757D02*
X15216622Y-14314852D01*
X15216622Y-14314852D02*
X15216622Y-14362471D01*
X15216622Y-14362471D02*
X15207098Y-14400567D01*
X15207098Y-14400567D02*
X15197574Y-14419614D01*
X15197574Y-14419614D02*
X15188050Y-14429138D01*
X15188050Y-14429138D02*
X15169003Y-14438662D01*
X15169003Y-14438662D02*
X15149955Y-14438662D01*
X15149955Y-14438662D02*
X15130907Y-14429138D01*
X15130907Y-14429138D02*
X15121384Y-14419614D01*
X15121384Y-14419614D02*
X15111860Y-14400567D01*
X15111860Y-14400567D02*
X15102336Y-14362471D01*
X15102336Y-14362471D02*
X15102336Y-14314852D01*
X15102336Y-14314852D02*
X15111860Y-14276757D01*
X15111860Y-14276757D02*
X15121384Y-14257709D01*
X15121384Y-14257709D02*
X15130907Y-14248186D01*
X15130907Y-14248186D02*
X15149955Y-14238662D01*
X15292812Y-14257709D02*
X15302336Y-14248186D01*
X15302336Y-14248186D02*
X15321384Y-14238662D01*
X15321384Y-14238662D02*
X15369003Y-14238662D01*
X15369003Y-14238662D02*
X15388050Y-14248186D01*
X15388050Y-14248186D02*
X15397574Y-14257709D01*
X15397574Y-14257709D02*
X15407098Y-14276757D01*
X15407098Y-14276757D02*
X15407098Y-14295805D01*
X15407098Y-14295805D02*
X15397574Y-14324376D01*
X15397574Y-14324376D02*
X15283288Y-14438662D01*
X15283288Y-14438662D02*
X15407098Y-14438662D01*
X15473765Y-14238662D02*
X15607098Y-14238662D01*
X15607098Y-14238662D02*
X15521384Y-14438662D01*
X15769003Y-14238662D02*
X15730907Y-14238662D01*
X15730907Y-14238662D02*
X15711860Y-14248186D01*
X15711860Y-14248186D02*
X15702336Y-14257709D01*
X15702336Y-14257709D02*
X15683288Y-14286281D01*
X15683288Y-14286281D02*
X15673765Y-14324376D01*
X15673765Y-14324376D02*
X15673765Y-14400567D01*
X15673765Y-14400567D02*
X15683288Y-14419614D01*
X15683288Y-14419614D02*
X15692812Y-14429138D01*
X15692812Y-14429138D02*
X15711860Y-14438662D01*
X15711860Y-14438662D02*
X15749955Y-14438662D01*
X15749955Y-14438662D02*
X15769003Y-14429138D01*
X15769003Y-14429138D02*
X15778526Y-14419614D01*
X15778526Y-14419614D02*
X15788050Y-14400567D01*
X15788050Y-14400567D02*
X15788050Y-14352948D01*
X15788050Y-14352948D02*
X15778526Y-14333900D01*
X15778526Y-14333900D02*
X15769003Y-14324376D01*
X15769003Y-14324376D02*
X15749955Y-14314852D01*
X15749955Y-14314852D02*
X15711860Y-14314852D01*
X15711860Y-14314852D02*
X15692812Y-14324376D01*
X15692812Y-14324376D02*
X15683288Y-14333900D01*
X15683288Y-14333900D02*
X15673765Y-14352948D01*
X15864241Y-14238662D02*
X15864241Y-14276757D01*
X15940431Y-14238662D02*
X15940431Y-14276757D01*
X16235669Y-14514852D02*
X16226146Y-14505328D01*
X16226146Y-14505328D02*
X16207098Y-14476757D01*
X16207098Y-14476757D02*
X16197574Y-14457709D01*
X16197574Y-14457709D02*
X16188050Y-14429138D01*
X16188050Y-14429138D02*
X16178527Y-14381519D01*
X16178527Y-14381519D02*
X16178527Y-14343424D01*
X16178527Y-14343424D02*
X16188050Y-14295805D01*
X16188050Y-14295805D02*
X16197574Y-14267233D01*
X16197574Y-14267233D02*
X16207098Y-14248186D01*
X16207098Y-14248186D02*
X16226146Y-14219614D01*
X16226146Y-14219614D02*
X16235669Y-14210090D01*
X16349955Y-14238662D02*
X16369003Y-14238662D01*
X16369003Y-14238662D02*
X16388050Y-14248186D01*
X16388050Y-14248186D02*
X16397574Y-14257709D01*
X16397574Y-14257709D02*
X16407098Y-14276757D01*
X16407098Y-14276757D02*
X16416622Y-14314852D01*
X16416622Y-14314852D02*
X16416622Y-14362471D01*
X16416622Y-14362471D02*
X16407098Y-14400567D01*
X16407098Y-14400567D02*
X16397574Y-14419614D01*
X16397574Y-14419614D02*
X16388050Y-14429138D01*
X16388050Y-14429138D02*
X16369003Y-14438662D01*
X16369003Y-14438662D02*
X16349955Y-14438662D01*
X16349955Y-14438662D02*
X16330907Y-14429138D01*
X16330907Y-14429138D02*
X16321384Y-14419614D01*
X16321384Y-14419614D02*
X16311860Y-14400567D01*
X16311860Y-14400567D02*
X16302336Y-14362471D01*
X16302336Y-14362471D02*
X16302336Y-14314852D01*
X16302336Y-14314852D02*
X16311860Y-14276757D01*
X16311860Y-14276757D02*
X16321384Y-14257709D01*
X16321384Y-14257709D02*
X16330907Y-14248186D01*
X16330907Y-14248186D02*
X16349955Y-14238662D01*
X16654717Y-14438662D02*
X16654717Y-14238662D01*
X16740431Y-14438662D02*
X16740431Y-14333900D01*
X16740431Y-14333900D02*
X16730908Y-14314852D01*
X16730908Y-14314852D02*
X16711860Y-14305328D01*
X16711860Y-14305328D02*
X16683288Y-14305328D01*
X16683288Y-14305328D02*
X16664241Y-14314852D01*
X16664241Y-14314852D02*
X16654717Y-14324376D01*
X16864241Y-14438662D02*
X16845193Y-14429138D01*
X16845193Y-14429138D02*
X16835670Y-14419614D01*
X16835670Y-14419614D02*
X16826146Y-14400567D01*
X16826146Y-14400567D02*
X16826146Y-14343424D01*
X16826146Y-14343424D02*
X16835670Y-14324376D01*
X16835670Y-14324376D02*
X16845193Y-14314852D01*
X16845193Y-14314852D02*
X16864241Y-14305328D01*
X16864241Y-14305328D02*
X16892812Y-14305328D01*
X16892812Y-14305328D02*
X16911860Y-14314852D01*
X16911860Y-14314852D02*
X16921384Y-14324376D01*
X16921384Y-14324376D02*
X16930908Y-14343424D01*
X16930908Y-14343424D02*
X16930908Y-14400567D01*
X16930908Y-14400567D02*
X16921384Y-14419614D01*
X16921384Y-14419614D02*
X16911860Y-14429138D01*
X16911860Y-14429138D02*
X16892812Y-14438662D01*
X16892812Y-14438662D02*
X16864241Y-14438662D01*
X17045193Y-14438662D02*
X17026146Y-14429138D01*
X17026146Y-14429138D02*
X17016622Y-14410090D01*
X17016622Y-14410090D02*
X17016622Y-14238662D01*
X17197574Y-14429138D02*
X17178527Y-14438662D01*
X17178527Y-14438662D02*
X17140431Y-14438662D01*
X17140431Y-14438662D02*
X17121384Y-14429138D01*
X17121384Y-14429138D02*
X17111860Y-14410090D01*
X17111860Y-14410090D02*
X17111860Y-14333900D01*
X17111860Y-14333900D02*
X17121384Y-14314852D01*
X17121384Y-14314852D02*
X17140431Y-14305328D01*
X17140431Y-14305328D02*
X17178527Y-14305328D01*
X17178527Y-14305328D02*
X17197574Y-14314852D01*
X17197574Y-14314852D02*
X17207098Y-14333900D01*
X17207098Y-14333900D02*
X17207098Y-14352948D01*
X17207098Y-14352948D02*
X17111860Y-14371995D01*
X17283289Y-14429138D02*
X17302336Y-14438662D01*
X17302336Y-14438662D02*
X17340431Y-14438662D01*
X17340431Y-14438662D02*
X17359479Y-14429138D01*
X17359479Y-14429138D02*
X17369003Y-14410090D01*
X17369003Y-14410090D02*
X17369003Y-14400567D01*
X17369003Y-14400567D02*
X17359479Y-14381519D01*
X17359479Y-14381519D02*
X17340431Y-14371995D01*
X17340431Y-14371995D02*
X17311860Y-14371995D01*
X17311860Y-14371995D02*
X17292812Y-14362471D01*
X17292812Y-14362471D02*
X17283289Y-14343424D01*
X17283289Y-14343424D02*
X17283289Y-14333900D01*
X17283289Y-14333900D02*
X17292812Y-14314852D01*
X17292812Y-14314852D02*
X17311860Y-14305328D01*
X17311860Y-14305328D02*
X17340431Y-14305328D01*
X17340431Y-14305328D02*
X17359479Y-14314852D01*
X17607098Y-14362471D02*
X17759479Y-14362471D01*
X17683289Y-14438662D02*
X17683289Y-14286281D01*
X17997574Y-14257709D02*
X18007098Y-14248186D01*
X18007098Y-14248186D02*
X18026146Y-14238662D01*
X18026146Y-14238662D02*
X18073765Y-14238662D01*
X18073765Y-14238662D02*
X18092813Y-14248186D01*
X18092813Y-14248186D02*
X18102336Y-14257709D01*
X18102336Y-14257709D02*
X18111860Y-14276757D01*
X18111860Y-14276757D02*
X18111860Y-14295805D01*
X18111860Y-14295805D02*
X18102336Y-14324376D01*
X18102336Y-14324376D02*
X17988051Y-14438662D01*
X17988051Y-14438662D02*
X18111860Y-14438662D01*
X18340432Y-14429138D02*
X18359479Y-14438662D01*
X18359479Y-14438662D02*
X18397574Y-14438662D01*
X18397574Y-14438662D02*
X18416622Y-14429138D01*
X18416622Y-14429138D02*
X18426146Y-14410090D01*
X18426146Y-14410090D02*
X18426146Y-14400567D01*
X18426146Y-14400567D02*
X18416622Y-14381519D01*
X18416622Y-14381519D02*
X18397574Y-14371995D01*
X18397574Y-14371995D02*
X18369003Y-14371995D01*
X18369003Y-14371995D02*
X18349955Y-14362471D01*
X18349955Y-14362471D02*
X18340432Y-14343424D01*
X18340432Y-14343424D02*
X18340432Y-14333900D01*
X18340432Y-14333900D02*
X18349955Y-14314852D01*
X18349955Y-14314852D02*
X18369003Y-14305328D01*
X18369003Y-14305328D02*
X18397574Y-14305328D01*
X18397574Y-14305328D02*
X18416622Y-14314852D01*
X18540432Y-14438662D02*
X18521384Y-14429138D01*
X18521384Y-14429138D02*
X18511860Y-14410090D01*
X18511860Y-14410090D02*
X18511860Y-14238662D01*
X18645194Y-14438662D02*
X18626146Y-14429138D01*
X18626146Y-14429138D02*
X18616622Y-14419614D01*
X18616622Y-14419614D02*
X18607098Y-14400567D01*
X18607098Y-14400567D02*
X18607098Y-14343424D01*
X18607098Y-14343424D02*
X18616622Y-14324376D01*
X18616622Y-14324376D02*
X18626146Y-14314852D01*
X18626146Y-14314852D02*
X18645194Y-14305328D01*
X18645194Y-14305328D02*
X18673765Y-14305328D01*
X18673765Y-14305328D02*
X18692813Y-14314852D01*
X18692813Y-14314852D02*
X18702336Y-14324376D01*
X18702336Y-14324376D02*
X18711860Y-14343424D01*
X18711860Y-14343424D02*
X18711860Y-14400567D01*
X18711860Y-14400567D02*
X18702336Y-14419614D01*
X18702336Y-14419614D02*
X18692813Y-14429138D01*
X18692813Y-14429138D02*
X18673765Y-14438662D01*
X18673765Y-14438662D02*
X18645194Y-14438662D01*
X18769003Y-14305328D02*
X18845194Y-14305328D01*
X18797575Y-14238662D02*
X18797575Y-14410090D01*
X18797575Y-14410090D02*
X18807098Y-14429138D01*
X18807098Y-14429138D02*
X18826146Y-14438662D01*
X18826146Y-14438662D02*
X18845194Y-14438662D01*
X18902336Y-14429138D02*
X18921384Y-14438662D01*
X18921384Y-14438662D02*
X18959479Y-14438662D01*
X18959479Y-14438662D02*
X18978527Y-14429138D01*
X18978527Y-14429138D02*
X18988051Y-14410090D01*
X18988051Y-14410090D02*
X18988051Y-14400567D01*
X18988051Y-14400567D02*
X18978527Y-14381519D01*
X18978527Y-14381519D02*
X18959479Y-14371995D01*
X18959479Y-14371995D02*
X18930908Y-14371995D01*
X18930908Y-14371995D02*
X18911860Y-14362471D01*
X18911860Y-14362471D02*
X18902336Y-14343424D01*
X18902336Y-14343424D02*
X18902336Y-14333900D01*
X18902336Y-14333900D02*
X18911860Y-14314852D01*
X18911860Y-14314852D02*
X18930908Y-14305328D01*
X18930908Y-14305328D02*
X18959479Y-14305328D01*
X18959479Y-14305328D02*
X18978527Y-14314852D01*
X19054717Y-14514852D02*
X19064241Y-14505328D01*
X19064241Y-14505328D02*
X19083289Y-14476757D01*
X19083289Y-14476757D02*
X19092813Y-14457709D01*
X19092813Y-14457709D02*
X19102336Y-14429138D01*
X19102336Y-14429138D02*
X19111860Y-14381519D01*
X19111860Y-14381519D02*
X19111860Y-14343424D01*
X19111860Y-14343424D02*
X19102336Y-14295805D01*
X19102336Y-14295805D02*
X19092813Y-14267233D01*
X19092813Y-14267233D02*
X19083289Y-14248186D01*
X19083289Y-14248186D02*
X19064241Y-14219614D01*
X19064241Y-14219614D02*
X19054717Y-14210090D01*
M02*
