G04 #@! TF.GenerationSoftware,KiCad,Pcbnew,8.0.5*
G04 #@! TF.CreationDate,2024-09-17T16:22:35-07:00*
G04 #@! TF.ProjectId,RP2040_PCB,52503230-3430-45f5-9043-422e6b696361,rev?*
G04 #@! TF.SameCoordinates,Original*
G04 #@! TF.FileFunction,AssemblyDrawing,Top*
%FSLAX46Y46*%
G04 Gerber Fmt 4.6, Leading zero omitted, Abs format (unit mm)*
G04 Created by KiCad (PCBNEW 8.0.5) date 2024-09-17 16:22:35*
%MOMM*%
%LPD*%
G01*
G04 APERTURE LIST*
%ADD10C,0.150000*%
%ADD11C,0.040000*%
%ADD12C,0.080000*%
%ADD13C,0.120000*%
%ADD14C,0.060000*%
%ADD15C,0.105000*%
%ADD16C,0.100000*%
G04 APERTURE END LIST*
D10*
X167120351Y-85366600D02*
X167120351Y-84366600D01*
X167120351Y-84366600D02*
X167453684Y-85080885D01*
X167453684Y-85080885D02*
X167787017Y-84366600D01*
X167787017Y-84366600D02*
X167787017Y-85366600D01*
X168406065Y-85366600D02*
X168310827Y-85318981D01*
X168310827Y-85318981D02*
X168263208Y-85271361D01*
X168263208Y-85271361D02*
X168215589Y-85176123D01*
X168215589Y-85176123D02*
X168215589Y-84890409D01*
X168215589Y-84890409D02*
X168263208Y-84795171D01*
X168263208Y-84795171D02*
X168310827Y-84747552D01*
X168310827Y-84747552D02*
X168406065Y-84699933D01*
X168406065Y-84699933D02*
X168548922Y-84699933D01*
X168548922Y-84699933D02*
X168644160Y-84747552D01*
X168644160Y-84747552D02*
X168691779Y-84795171D01*
X168691779Y-84795171D02*
X168739398Y-84890409D01*
X168739398Y-84890409D02*
X168739398Y-85176123D01*
X168739398Y-85176123D02*
X168691779Y-85271361D01*
X168691779Y-85271361D02*
X168644160Y-85318981D01*
X168644160Y-85318981D02*
X168548922Y-85366600D01*
X168548922Y-85366600D02*
X168406065Y-85366600D01*
X169596541Y-84699933D02*
X169596541Y-85366600D01*
X169167970Y-84699933D02*
X169167970Y-85223742D01*
X169167970Y-85223742D02*
X169215589Y-85318981D01*
X169215589Y-85318981D02*
X169310827Y-85366600D01*
X169310827Y-85366600D02*
X169453684Y-85366600D01*
X169453684Y-85366600D02*
X169548922Y-85318981D01*
X169548922Y-85318981D02*
X169596541Y-85271361D01*
X170072732Y-84699933D02*
X170072732Y-85366600D01*
X170072732Y-84795171D02*
X170120351Y-84747552D01*
X170120351Y-84747552D02*
X170215589Y-84699933D01*
X170215589Y-84699933D02*
X170358446Y-84699933D01*
X170358446Y-84699933D02*
X170453684Y-84747552D01*
X170453684Y-84747552D02*
X170501303Y-84842790D01*
X170501303Y-84842790D02*
X170501303Y-85366600D01*
X170834637Y-84699933D02*
X171215589Y-84699933D01*
X170977494Y-84366600D02*
X170977494Y-85223742D01*
X170977494Y-85223742D02*
X171025113Y-85318981D01*
X171025113Y-85318981D02*
X171120351Y-85366600D01*
X171120351Y-85366600D02*
X171215589Y-85366600D01*
X171548923Y-85366600D02*
X171548923Y-84699933D01*
X171548923Y-84366600D02*
X171501304Y-84414219D01*
X171501304Y-84414219D02*
X171548923Y-84461838D01*
X171548923Y-84461838D02*
X171596542Y-84414219D01*
X171596542Y-84414219D02*
X171548923Y-84366600D01*
X171548923Y-84366600D02*
X171548923Y-84461838D01*
X172025113Y-84699933D02*
X172025113Y-85366600D01*
X172025113Y-84795171D02*
X172072732Y-84747552D01*
X172072732Y-84747552D02*
X172167970Y-84699933D01*
X172167970Y-84699933D02*
X172310827Y-84699933D01*
X172310827Y-84699933D02*
X172406065Y-84747552D01*
X172406065Y-84747552D02*
X172453684Y-84842790D01*
X172453684Y-84842790D02*
X172453684Y-85366600D01*
X173358446Y-84699933D02*
X173358446Y-85509457D01*
X173358446Y-85509457D02*
X173310827Y-85604695D01*
X173310827Y-85604695D02*
X173263208Y-85652314D01*
X173263208Y-85652314D02*
X173167970Y-85699933D01*
X173167970Y-85699933D02*
X173025113Y-85699933D01*
X173025113Y-85699933D02*
X172929875Y-85652314D01*
X173358446Y-85318981D02*
X173263208Y-85366600D01*
X173263208Y-85366600D02*
X173072732Y-85366600D01*
X173072732Y-85366600D02*
X172977494Y-85318981D01*
X172977494Y-85318981D02*
X172929875Y-85271361D01*
X172929875Y-85271361D02*
X172882256Y-85176123D01*
X172882256Y-85176123D02*
X172882256Y-84890409D01*
X172882256Y-84890409D02*
X172929875Y-84795171D01*
X172929875Y-84795171D02*
X172977494Y-84747552D01*
X172977494Y-84747552D02*
X173072732Y-84699933D01*
X173072732Y-84699933D02*
X173263208Y-84699933D01*
X173263208Y-84699933D02*
X173358446Y-84747552D01*
X173834637Y-85366600D02*
X173834637Y-84366600D01*
X173834637Y-84842790D02*
X174406065Y-84842790D01*
X174406065Y-85366600D02*
X174406065Y-84366600D01*
X175025113Y-85366600D02*
X174929875Y-85318981D01*
X174929875Y-85318981D02*
X174882256Y-85271361D01*
X174882256Y-85271361D02*
X174834637Y-85176123D01*
X174834637Y-85176123D02*
X174834637Y-84890409D01*
X174834637Y-84890409D02*
X174882256Y-84795171D01*
X174882256Y-84795171D02*
X174929875Y-84747552D01*
X174929875Y-84747552D02*
X175025113Y-84699933D01*
X175025113Y-84699933D02*
X175167970Y-84699933D01*
X175167970Y-84699933D02*
X175263208Y-84747552D01*
X175263208Y-84747552D02*
X175310827Y-84795171D01*
X175310827Y-84795171D02*
X175358446Y-84890409D01*
X175358446Y-84890409D02*
X175358446Y-85176123D01*
X175358446Y-85176123D02*
X175310827Y-85271361D01*
X175310827Y-85271361D02*
X175263208Y-85318981D01*
X175263208Y-85318981D02*
X175167970Y-85366600D01*
X175167970Y-85366600D02*
X175025113Y-85366600D01*
X175929875Y-85366600D02*
X175834637Y-85318981D01*
X175834637Y-85318981D02*
X175787018Y-85223742D01*
X175787018Y-85223742D02*
X175787018Y-84366600D01*
X176691780Y-85318981D02*
X176596542Y-85366600D01*
X176596542Y-85366600D02*
X176406066Y-85366600D01*
X176406066Y-85366600D02*
X176310828Y-85318981D01*
X176310828Y-85318981D02*
X176263209Y-85223742D01*
X176263209Y-85223742D02*
X176263209Y-84842790D01*
X176263209Y-84842790D02*
X176310828Y-84747552D01*
X176310828Y-84747552D02*
X176406066Y-84699933D01*
X176406066Y-84699933D02*
X176596542Y-84699933D01*
X176596542Y-84699933D02*
X176691780Y-84747552D01*
X176691780Y-84747552D02*
X176739399Y-84842790D01*
X176739399Y-84842790D02*
X176739399Y-84938028D01*
X176739399Y-84938028D02*
X176263209Y-85033266D01*
X171144161Y-81666600D02*
X171144161Y-80666600D01*
X171144161Y-81142790D02*
X171715589Y-81142790D01*
X171715589Y-81666600D02*
X171715589Y-80666600D01*
X172144161Y-80761838D02*
X172191780Y-80714219D01*
X172191780Y-80714219D02*
X172287018Y-80666600D01*
X172287018Y-80666600D02*
X172525113Y-80666600D01*
X172525113Y-80666600D02*
X172620351Y-80714219D01*
X172620351Y-80714219D02*
X172667970Y-80761838D01*
X172667970Y-80761838D02*
X172715589Y-80857076D01*
X172715589Y-80857076D02*
X172715589Y-80952314D01*
X172715589Y-80952314D02*
X172667970Y-81095171D01*
X172667970Y-81095171D02*
X172096542Y-81666600D01*
X172096542Y-81666600D02*
X172715589Y-81666600D01*
X153880057Y-99423685D02*
X153832438Y-99376066D01*
X153832438Y-99376066D02*
X153784819Y-99280828D01*
X153784819Y-99280828D02*
X153784819Y-99042733D01*
X153784819Y-99042733D02*
X153832438Y-98947495D01*
X153832438Y-98947495D02*
X153880057Y-98899876D01*
X153880057Y-98899876D02*
X153975295Y-98852257D01*
X153975295Y-98852257D02*
X154070533Y-98852257D01*
X154070533Y-98852257D02*
X154213390Y-98899876D01*
X154213390Y-98899876D02*
X154784819Y-99471304D01*
X154784819Y-99471304D02*
X154784819Y-98852257D01*
X153784819Y-98518923D02*
X153784819Y-97852257D01*
X153784819Y-97852257D02*
X154784819Y-98280828D01*
D11*
X155618200Y-98705113D02*
X155494391Y-98791780D01*
X155618200Y-98853685D02*
X155358200Y-98853685D01*
X155358200Y-98853685D02*
X155358200Y-98754637D01*
X155358200Y-98754637D02*
X155370581Y-98729875D01*
X155370581Y-98729875D02*
X155382962Y-98717494D01*
X155382962Y-98717494D02*
X155407724Y-98705113D01*
X155407724Y-98705113D02*
X155444867Y-98705113D01*
X155444867Y-98705113D02*
X155469629Y-98717494D01*
X155469629Y-98717494D02*
X155482010Y-98729875D01*
X155482010Y-98729875D02*
X155494391Y-98754637D01*
X155494391Y-98754637D02*
X155494391Y-98853685D01*
X155358200Y-98469875D02*
X155358200Y-98593685D01*
X155358200Y-98593685D02*
X155482010Y-98606066D01*
X155482010Y-98606066D02*
X155469629Y-98593685D01*
X155469629Y-98593685D02*
X155457248Y-98568923D01*
X155457248Y-98568923D02*
X155457248Y-98507018D01*
X155457248Y-98507018D02*
X155469629Y-98482256D01*
X155469629Y-98482256D02*
X155482010Y-98469875D01*
X155482010Y-98469875D02*
X155506772Y-98457494D01*
X155506772Y-98457494D02*
X155568677Y-98457494D01*
X155568677Y-98457494D02*
X155593439Y-98469875D01*
X155593439Y-98469875D02*
X155605820Y-98482256D01*
X155605820Y-98482256D02*
X155618200Y-98507018D01*
X155618200Y-98507018D02*
X155618200Y-98568923D01*
X155618200Y-98568923D02*
X155605820Y-98593685D01*
X155605820Y-98593685D02*
X155593439Y-98606066D01*
D10*
X127120351Y-125866600D02*
X127120351Y-124866600D01*
X127120351Y-124866600D02*
X127453684Y-125580885D01*
X127453684Y-125580885D02*
X127787017Y-124866600D01*
X127787017Y-124866600D02*
X127787017Y-125866600D01*
X128406065Y-125866600D02*
X128310827Y-125818981D01*
X128310827Y-125818981D02*
X128263208Y-125771361D01*
X128263208Y-125771361D02*
X128215589Y-125676123D01*
X128215589Y-125676123D02*
X128215589Y-125390409D01*
X128215589Y-125390409D02*
X128263208Y-125295171D01*
X128263208Y-125295171D02*
X128310827Y-125247552D01*
X128310827Y-125247552D02*
X128406065Y-125199933D01*
X128406065Y-125199933D02*
X128548922Y-125199933D01*
X128548922Y-125199933D02*
X128644160Y-125247552D01*
X128644160Y-125247552D02*
X128691779Y-125295171D01*
X128691779Y-125295171D02*
X128739398Y-125390409D01*
X128739398Y-125390409D02*
X128739398Y-125676123D01*
X128739398Y-125676123D02*
X128691779Y-125771361D01*
X128691779Y-125771361D02*
X128644160Y-125818981D01*
X128644160Y-125818981D02*
X128548922Y-125866600D01*
X128548922Y-125866600D02*
X128406065Y-125866600D01*
X129596541Y-125199933D02*
X129596541Y-125866600D01*
X129167970Y-125199933D02*
X129167970Y-125723742D01*
X129167970Y-125723742D02*
X129215589Y-125818981D01*
X129215589Y-125818981D02*
X129310827Y-125866600D01*
X129310827Y-125866600D02*
X129453684Y-125866600D01*
X129453684Y-125866600D02*
X129548922Y-125818981D01*
X129548922Y-125818981D02*
X129596541Y-125771361D01*
X130072732Y-125199933D02*
X130072732Y-125866600D01*
X130072732Y-125295171D02*
X130120351Y-125247552D01*
X130120351Y-125247552D02*
X130215589Y-125199933D01*
X130215589Y-125199933D02*
X130358446Y-125199933D01*
X130358446Y-125199933D02*
X130453684Y-125247552D01*
X130453684Y-125247552D02*
X130501303Y-125342790D01*
X130501303Y-125342790D02*
X130501303Y-125866600D01*
X130834637Y-125199933D02*
X131215589Y-125199933D01*
X130977494Y-124866600D02*
X130977494Y-125723742D01*
X130977494Y-125723742D02*
X131025113Y-125818981D01*
X131025113Y-125818981D02*
X131120351Y-125866600D01*
X131120351Y-125866600D02*
X131215589Y-125866600D01*
X131548923Y-125866600D02*
X131548923Y-125199933D01*
X131548923Y-124866600D02*
X131501304Y-124914219D01*
X131501304Y-124914219D02*
X131548923Y-124961838D01*
X131548923Y-124961838D02*
X131596542Y-124914219D01*
X131596542Y-124914219D02*
X131548923Y-124866600D01*
X131548923Y-124866600D02*
X131548923Y-124961838D01*
X132025113Y-125199933D02*
X132025113Y-125866600D01*
X132025113Y-125295171D02*
X132072732Y-125247552D01*
X132072732Y-125247552D02*
X132167970Y-125199933D01*
X132167970Y-125199933D02*
X132310827Y-125199933D01*
X132310827Y-125199933D02*
X132406065Y-125247552D01*
X132406065Y-125247552D02*
X132453684Y-125342790D01*
X132453684Y-125342790D02*
X132453684Y-125866600D01*
X133358446Y-125199933D02*
X133358446Y-126009457D01*
X133358446Y-126009457D02*
X133310827Y-126104695D01*
X133310827Y-126104695D02*
X133263208Y-126152314D01*
X133263208Y-126152314D02*
X133167970Y-126199933D01*
X133167970Y-126199933D02*
X133025113Y-126199933D01*
X133025113Y-126199933D02*
X132929875Y-126152314D01*
X133358446Y-125818981D02*
X133263208Y-125866600D01*
X133263208Y-125866600D02*
X133072732Y-125866600D01*
X133072732Y-125866600D02*
X132977494Y-125818981D01*
X132977494Y-125818981D02*
X132929875Y-125771361D01*
X132929875Y-125771361D02*
X132882256Y-125676123D01*
X132882256Y-125676123D02*
X132882256Y-125390409D01*
X132882256Y-125390409D02*
X132929875Y-125295171D01*
X132929875Y-125295171D02*
X132977494Y-125247552D01*
X132977494Y-125247552D02*
X133072732Y-125199933D01*
X133072732Y-125199933D02*
X133263208Y-125199933D01*
X133263208Y-125199933D02*
X133358446Y-125247552D01*
X133834637Y-125866600D02*
X133834637Y-124866600D01*
X133834637Y-125342790D02*
X134406065Y-125342790D01*
X134406065Y-125866600D02*
X134406065Y-124866600D01*
X135025113Y-125866600D02*
X134929875Y-125818981D01*
X134929875Y-125818981D02*
X134882256Y-125771361D01*
X134882256Y-125771361D02*
X134834637Y-125676123D01*
X134834637Y-125676123D02*
X134834637Y-125390409D01*
X134834637Y-125390409D02*
X134882256Y-125295171D01*
X134882256Y-125295171D02*
X134929875Y-125247552D01*
X134929875Y-125247552D02*
X135025113Y-125199933D01*
X135025113Y-125199933D02*
X135167970Y-125199933D01*
X135167970Y-125199933D02*
X135263208Y-125247552D01*
X135263208Y-125247552D02*
X135310827Y-125295171D01*
X135310827Y-125295171D02*
X135358446Y-125390409D01*
X135358446Y-125390409D02*
X135358446Y-125676123D01*
X135358446Y-125676123D02*
X135310827Y-125771361D01*
X135310827Y-125771361D02*
X135263208Y-125818981D01*
X135263208Y-125818981D02*
X135167970Y-125866600D01*
X135167970Y-125866600D02*
X135025113Y-125866600D01*
X135929875Y-125866600D02*
X135834637Y-125818981D01*
X135834637Y-125818981D02*
X135787018Y-125723742D01*
X135787018Y-125723742D02*
X135787018Y-124866600D01*
X136691780Y-125818981D02*
X136596542Y-125866600D01*
X136596542Y-125866600D02*
X136406066Y-125866600D01*
X136406066Y-125866600D02*
X136310828Y-125818981D01*
X136310828Y-125818981D02*
X136263209Y-125723742D01*
X136263209Y-125723742D02*
X136263209Y-125342790D01*
X136263209Y-125342790D02*
X136310828Y-125247552D01*
X136310828Y-125247552D02*
X136406066Y-125199933D01*
X136406066Y-125199933D02*
X136596542Y-125199933D01*
X136596542Y-125199933D02*
X136691780Y-125247552D01*
X136691780Y-125247552D02*
X136739399Y-125342790D01*
X136739399Y-125342790D02*
X136739399Y-125438028D01*
X136739399Y-125438028D02*
X136263209Y-125533266D01*
X131144161Y-122166600D02*
X131144161Y-121166600D01*
X131144161Y-121642790D02*
X131715589Y-121642790D01*
X131715589Y-122166600D02*
X131715589Y-121166600D01*
X132620351Y-121499933D02*
X132620351Y-122166600D01*
X132382256Y-121118981D02*
X132144161Y-121833266D01*
X132144161Y-121833266D02*
X132763208Y-121833266D01*
X164763208Y-98846600D02*
X164191780Y-98846600D01*
X164477494Y-98846600D02*
X164477494Y-97846600D01*
X164477494Y-97846600D02*
X164382256Y-97989457D01*
X164382256Y-97989457D02*
X164287018Y-98084695D01*
X164287018Y-98084695D02*
X164191780Y-98132314D01*
X165382256Y-97846600D02*
X165477494Y-97846600D01*
X165477494Y-97846600D02*
X165572732Y-97894219D01*
X165572732Y-97894219D02*
X165620351Y-97941838D01*
X165620351Y-97941838D02*
X165667970Y-98037076D01*
X165667970Y-98037076D02*
X165715589Y-98227552D01*
X165715589Y-98227552D02*
X165715589Y-98465647D01*
X165715589Y-98465647D02*
X165667970Y-98656123D01*
X165667970Y-98656123D02*
X165620351Y-98751361D01*
X165620351Y-98751361D02*
X165572732Y-98798981D01*
X165572732Y-98798981D02*
X165477494Y-98846600D01*
X165477494Y-98846600D02*
X165382256Y-98846600D01*
X165382256Y-98846600D02*
X165287018Y-98798981D01*
X165287018Y-98798981D02*
X165239399Y-98751361D01*
X165239399Y-98751361D02*
X165191780Y-98656123D01*
X165191780Y-98656123D02*
X165144161Y-98465647D01*
X165144161Y-98465647D02*
X165144161Y-98227552D01*
X165144161Y-98227552D02*
X165191780Y-98037076D01*
X165191780Y-98037076D02*
X165239399Y-97941838D01*
X165239399Y-97941838D02*
X165287018Y-97894219D01*
X165287018Y-97894219D02*
X165382256Y-97846600D01*
X166572732Y-98179933D02*
X166572732Y-98846600D01*
X166144161Y-98179933D02*
X166144161Y-98703742D01*
X166144161Y-98703742D02*
X166191780Y-98798981D01*
X166191780Y-98798981D02*
X166287018Y-98846600D01*
X166287018Y-98846600D02*
X166429875Y-98846600D01*
X166429875Y-98846600D02*
X166525113Y-98798981D01*
X166525113Y-98798981D02*
X166572732Y-98751361D01*
D12*
X165322732Y-96891311D02*
X165298923Y-96915121D01*
X165298923Y-96915121D02*
X165227494Y-96938930D01*
X165227494Y-96938930D02*
X165179875Y-96938930D01*
X165179875Y-96938930D02*
X165108447Y-96915121D01*
X165108447Y-96915121D02*
X165060828Y-96867501D01*
X165060828Y-96867501D02*
X165037018Y-96819882D01*
X165037018Y-96819882D02*
X165013209Y-96724644D01*
X165013209Y-96724644D02*
X165013209Y-96653216D01*
X165013209Y-96653216D02*
X165037018Y-96557978D01*
X165037018Y-96557978D02*
X165060828Y-96510359D01*
X165060828Y-96510359D02*
X165108447Y-96462740D01*
X165108447Y-96462740D02*
X165179875Y-96438930D01*
X165179875Y-96438930D02*
X165227494Y-96438930D01*
X165227494Y-96438930D02*
X165298923Y-96462740D01*
X165298923Y-96462740D02*
X165322732Y-96486549D01*
X165751304Y-96605597D02*
X165751304Y-96938930D01*
X165632256Y-96415121D02*
X165513209Y-96772263D01*
X165513209Y-96772263D02*
X165822732Y-96772263D01*
D10*
X146287018Y-105506600D02*
X145715590Y-105506600D01*
X146001304Y-105506600D02*
X146001304Y-104506600D01*
X146001304Y-104506600D02*
X145906066Y-104649457D01*
X145906066Y-104649457D02*
X145810828Y-104744695D01*
X145810828Y-104744695D02*
X145715590Y-104792314D01*
X146906066Y-104506600D02*
X147001304Y-104506600D01*
X147001304Y-104506600D02*
X147096542Y-104554219D01*
X147096542Y-104554219D02*
X147144161Y-104601838D01*
X147144161Y-104601838D02*
X147191780Y-104697076D01*
X147191780Y-104697076D02*
X147239399Y-104887552D01*
X147239399Y-104887552D02*
X147239399Y-105125647D01*
X147239399Y-105125647D02*
X147191780Y-105316123D01*
X147191780Y-105316123D02*
X147144161Y-105411361D01*
X147144161Y-105411361D02*
X147096542Y-105458981D01*
X147096542Y-105458981D02*
X147001304Y-105506600D01*
X147001304Y-105506600D02*
X146906066Y-105506600D01*
X146906066Y-105506600D02*
X146810828Y-105458981D01*
X146810828Y-105458981D02*
X146763209Y-105411361D01*
X146763209Y-105411361D02*
X146715590Y-105316123D01*
X146715590Y-105316123D02*
X146667971Y-105125647D01*
X146667971Y-105125647D02*
X146667971Y-104887552D01*
X146667971Y-104887552D02*
X146715590Y-104697076D01*
X146715590Y-104697076D02*
X146763209Y-104601838D01*
X146763209Y-104601838D02*
X146810828Y-104554219D01*
X146810828Y-104554219D02*
X146906066Y-104506600D01*
X147858447Y-104506600D02*
X147953685Y-104506600D01*
X147953685Y-104506600D02*
X148048923Y-104554219D01*
X148048923Y-104554219D02*
X148096542Y-104601838D01*
X148096542Y-104601838D02*
X148144161Y-104697076D01*
X148144161Y-104697076D02*
X148191780Y-104887552D01*
X148191780Y-104887552D02*
X148191780Y-105125647D01*
X148191780Y-105125647D02*
X148144161Y-105316123D01*
X148144161Y-105316123D02*
X148096542Y-105411361D01*
X148096542Y-105411361D02*
X148048923Y-105458981D01*
X148048923Y-105458981D02*
X147953685Y-105506600D01*
X147953685Y-105506600D02*
X147858447Y-105506600D01*
X147858447Y-105506600D02*
X147763209Y-105458981D01*
X147763209Y-105458981D02*
X147715590Y-105411361D01*
X147715590Y-105411361D02*
X147667971Y-105316123D01*
X147667971Y-105316123D02*
X147620352Y-105125647D01*
X147620352Y-105125647D02*
X147620352Y-104887552D01*
X147620352Y-104887552D02*
X147667971Y-104697076D01*
X147667971Y-104697076D02*
X147715590Y-104601838D01*
X147715590Y-104601838D02*
X147763209Y-104554219D01*
X147763209Y-104554219D02*
X147858447Y-104506600D01*
X148620352Y-104839933D02*
X148620352Y-105506600D01*
X148620352Y-104935171D02*
X148667971Y-104887552D01*
X148667971Y-104887552D02*
X148763209Y-104839933D01*
X148763209Y-104839933D02*
X148906066Y-104839933D01*
X148906066Y-104839933D02*
X149001304Y-104887552D01*
X149001304Y-104887552D02*
X149048923Y-104982790D01*
X149048923Y-104982790D02*
X149048923Y-105506600D01*
D11*
X147245351Y-106301546D02*
X147233447Y-106313451D01*
X147233447Y-106313451D02*
X147197732Y-106325355D01*
X147197732Y-106325355D02*
X147173923Y-106325355D01*
X147173923Y-106325355D02*
X147138209Y-106313451D01*
X147138209Y-106313451D02*
X147114399Y-106289641D01*
X147114399Y-106289641D02*
X147102494Y-106265831D01*
X147102494Y-106265831D02*
X147090590Y-106218212D01*
X147090590Y-106218212D02*
X147090590Y-106182498D01*
X147090590Y-106182498D02*
X147102494Y-106134879D01*
X147102494Y-106134879D02*
X147114399Y-106111070D01*
X147114399Y-106111070D02*
X147138209Y-106087260D01*
X147138209Y-106087260D02*
X147173923Y-106075355D01*
X147173923Y-106075355D02*
X147197732Y-106075355D01*
X147197732Y-106075355D02*
X147233447Y-106087260D01*
X147233447Y-106087260D02*
X147245351Y-106099165D01*
X147483447Y-106325355D02*
X147340590Y-106325355D01*
X147412018Y-106325355D02*
X147412018Y-106075355D01*
X147412018Y-106075355D02*
X147388209Y-106111070D01*
X147388209Y-106111070D02*
X147364399Y-106134879D01*
X147364399Y-106134879D02*
X147340590Y-106146784D01*
X147709637Y-106075355D02*
X147590589Y-106075355D01*
X147590589Y-106075355D02*
X147578685Y-106194403D01*
X147578685Y-106194403D02*
X147590589Y-106182498D01*
X147590589Y-106182498D02*
X147614399Y-106170593D01*
X147614399Y-106170593D02*
X147673923Y-106170593D01*
X147673923Y-106170593D02*
X147697732Y-106182498D01*
X147697732Y-106182498D02*
X147709637Y-106194403D01*
X147709637Y-106194403D02*
X147721542Y-106218212D01*
X147721542Y-106218212D02*
X147721542Y-106277736D01*
X147721542Y-106277736D02*
X147709637Y-106301546D01*
X147709637Y-106301546D02*
X147697732Y-106313451D01*
X147697732Y-106313451D02*
X147673923Y-106325355D01*
X147673923Y-106325355D02*
X147614399Y-106325355D01*
X147614399Y-106325355D02*
X147590589Y-106313451D01*
X147590589Y-106313451D02*
X147578685Y-106301546D01*
D10*
X154763208Y-116326600D02*
X154191780Y-116326600D01*
X154477494Y-116326600D02*
X154477494Y-115326600D01*
X154477494Y-115326600D02*
X154382256Y-115469457D01*
X154382256Y-115469457D02*
X154287018Y-115564695D01*
X154287018Y-115564695D02*
X154191780Y-115612314D01*
X155667970Y-115326600D02*
X155191780Y-115326600D01*
X155191780Y-115326600D02*
X155144161Y-115802790D01*
X155144161Y-115802790D02*
X155191780Y-115755171D01*
X155191780Y-115755171D02*
X155287018Y-115707552D01*
X155287018Y-115707552D02*
X155525113Y-115707552D01*
X155525113Y-115707552D02*
X155620351Y-115755171D01*
X155620351Y-115755171D02*
X155667970Y-115802790D01*
X155667970Y-115802790D02*
X155715589Y-115898028D01*
X155715589Y-115898028D02*
X155715589Y-116136123D01*
X155715589Y-116136123D02*
X155667970Y-116231361D01*
X155667970Y-116231361D02*
X155620351Y-116278981D01*
X155620351Y-116278981D02*
X155525113Y-116326600D01*
X155525113Y-116326600D02*
X155287018Y-116326600D01*
X155287018Y-116326600D02*
X155191780Y-116278981D01*
X155191780Y-116278981D02*
X155144161Y-116231361D01*
X156144161Y-115659933D02*
X156144161Y-116659933D01*
X156144161Y-115707552D02*
X156239399Y-115659933D01*
X156239399Y-115659933D02*
X156429875Y-115659933D01*
X156429875Y-115659933D02*
X156525113Y-115707552D01*
X156525113Y-115707552D02*
X156572732Y-115755171D01*
X156572732Y-115755171D02*
X156620351Y-115850409D01*
X156620351Y-115850409D02*
X156620351Y-116136123D01*
X156620351Y-116136123D02*
X156572732Y-116231361D01*
X156572732Y-116231361D02*
X156525113Y-116278981D01*
X156525113Y-116278981D02*
X156429875Y-116326600D01*
X156429875Y-116326600D02*
X156239399Y-116326600D01*
X156239399Y-116326600D02*
X156144161Y-116278981D01*
D11*
X155364399Y-114801546D02*
X155352495Y-114813451D01*
X155352495Y-114813451D02*
X155316780Y-114825355D01*
X155316780Y-114825355D02*
X155292971Y-114825355D01*
X155292971Y-114825355D02*
X155257257Y-114813451D01*
X155257257Y-114813451D02*
X155233447Y-114789641D01*
X155233447Y-114789641D02*
X155221542Y-114765831D01*
X155221542Y-114765831D02*
X155209638Y-114718212D01*
X155209638Y-114718212D02*
X155209638Y-114682498D01*
X155209638Y-114682498D02*
X155221542Y-114634879D01*
X155221542Y-114634879D02*
X155233447Y-114611070D01*
X155233447Y-114611070D02*
X155257257Y-114587260D01*
X155257257Y-114587260D02*
X155292971Y-114575355D01*
X155292971Y-114575355D02*
X155316780Y-114575355D01*
X155316780Y-114575355D02*
X155352495Y-114587260D01*
X155352495Y-114587260D02*
X155364399Y-114599165D01*
X155459638Y-114599165D02*
X155471542Y-114587260D01*
X155471542Y-114587260D02*
X155495352Y-114575355D01*
X155495352Y-114575355D02*
X155554876Y-114575355D01*
X155554876Y-114575355D02*
X155578685Y-114587260D01*
X155578685Y-114587260D02*
X155590590Y-114599165D01*
X155590590Y-114599165D02*
X155602495Y-114622974D01*
X155602495Y-114622974D02*
X155602495Y-114646784D01*
X155602495Y-114646784D02*
X155590590Y-114682498D01*
X155590590Y-114682498D02*
X155447733Y-114825355D01*
X155447733Y-114825355D02*
X155602495Y-114825355D01*
D10*
X143170590Y-95066600D02*
X143170590Y-95876123D01*
X143170590Y-95876123D02*
X143218209Y-95971361D01*
X143218209Y-95971361D02*
X143265828Y-96018981D01*
X143265828Y-96018981D02*
X143361066Y-96066600D01*
X143361066Y-96066600D02*
X143551542Y-96066600D01*
X143551542Y-96066600D02*
X143646780Y-96018981D01*
X143646780Y-96018981D02*
X143694399Y-95971361D01*
X143694399Y-95971361D02*
X143742018Y-95876123D01*
X143742018Y-95876123D02*
X143742018Y-95066600D01*
X144551542Y-95542790D02*
X144694399Y-95590409D01*
X144694399Y-95590409D02*
X144742018Y-95638028D01*
X144742018Y-95638028D02*
X144789637Y-95733266D01*
X144789637Y-95733266D02*
X144789637Y-95876123D01*
X144789637Y-95876123D02*
X144742018Y-95971361D01*
X144742018Y-95971361D02*
X144694399Y-96018981D01*
X144694399Y-96018981D02*
X144599161Y-96066600D01*
X144599161Y-96066600D02*
X144218209Y-96066600D01*
X144218209Y-96066600D02*
X144218209Y-95066600D01*
X144218209Y-95066600D02*
X144551542Y-95066600D01*
X144551542Y-95066600D02*
X144646780Y-95114219D01*
X144646780Y-95114219D02*
X144694399Y-95161838D01*
X144694399Y-95161838D02*
X144742018Y-95257076D01*
X144742018Y-95257076D02*
X144742018Y-95352314D01*
X144742018Y-95352314D02*
X144694399Y-95447552D01*
X144694399Y-95447552D02*
X144646780Y-95495171D01*
X144646780Y-95495171D02*
X144551542Y-95542790D01*
X144551542Y-95542790D02*
X144218209Y-95542790D01*
X145218209Y-95066600D02*
X145218209Y-95876123D01*
X145218209Y-95876123D02*
X145265828Y-95971361D01*
X145265828Y-95971361D02*
X145313447Y-96018981D01*
X145313447Y-96018981D02*
X145408685Y-96066600D01*
X145408685Y-96066600D02*
X145599161Y-96066600D01*
X145599161Y-96066600D02*
X145694399Y-96018981D01*
X145694399Y-96018981D02*
X145742018Y-95971361D01*
X145742018Y-95971361D02*
X145789637Y-95876123D01*
X145789637Y-95876123D02*
X145789637Y-95066600D01*
X146122971Y-95066600D02*
X146694399Y-95066600D01*
X146408685Y-96066600D02*
X146408685Y-95066600D01*
X143527733Y-87818981D02*
X143670590Y-87866600D01*
X143670590Y-87866600D02*
X143908685Y-87866600D01*
X143908685Y-87866600D02*
X144003923Y-87818981D01*
X144003923Y-87818981D02*
X144051542Y-87771361D01*
X144051542Y-87771361D02*
X144099161Y-87676123D01*
X144099161Y-87676123D02*
X144099161Y-87580885D01*
X144099161Y-87580885D02*
X144051542Y-87485647D01*
X144051542Y-87485647D02*
X144003923Y-87438028D01*
X144003923Y-87438028D02*
X143908685Y-87390409D01*
X143908685Y-87390409D02*
X143718209Y-87342790D01*
X143718209Y-87342790D02*
X143622971Y-87295171D01*
X143622971Y-87295171D02*
X143575352Y-87247552D01*
X143575352Y-87247552D02*
X143527733Y-87152314D01*
X143527733Y-87152314D02*
X143527733Y-87057076D01*
X143527733Y-87057076D02*
X143575352Y-86961838D01*
X143575352Y-86961838D02*
X143622971Y-86914219D01*
X143622971Y-86914219D02*
X143718209Y-86866600D01*
X143718209Y-86866600D02*
X143956304Y-86866600D01*
X143956304Y-86866600D02*
X144099161Y-86914219D01*
X144432495Y-86866600D02*
X144670590Y-87866600D01*
X144670590Y-87866600D02*
X144861066Y-87152314D01*
X144861066Y-87152314D02*
X145051542Y-87866600D01*
X145051542Y-87866600D02*
X145289638Y-86866600D01*
X145622971Y-86961838D02*
X145670590Y-86914219D01*
X145670590Y-86914219D02*
X145765828Y-86866600D01*
X145765828Y-86866600D02*
X146003923Y-86866600D01*
X146003923Y-86866600D02*
X146099161Y-86914219D01*
X146099161Y-86914219D02*
X146146780Y-86961838D01*
X146146780Y-86961838D02*
X146194399Y-87057076D01*
X146194399Y-87057076D02*
X146194399Y-87152314D01*
X146194399Y-87152314D02*
X146146780Y-87295171D01*
X146146780Y-87295171D02*
X145575352Y-87866600D01*
X145575352Y-87866600D02*
X146194399Y-87866600D01*
X154200885Y-112300828D02*
X154200885Y-112872256D01*
X154200885Y-112586542D02*
X153200885Y-112586542D01*
X153200885Y-112586542D02*
X153343742Y-112681780D01*
X153343742Y-112681780D02*
X153438980Y-112777018D01*
X153438980Y-112777018D02*
X153486599Y-112872256D01*
X153200885Y-111681780D02*
X153200885Y-111586542D01*
X153200885Y-111586542D02*
X153248504Y-111491304D01*
X153248504Y-111491304D02*
X153296123Y-111443685D01*
X153296123Y-111443685D02*
X153391361Y-111396066D01*
X153391361Y-111396066D02*
X153581837Y-111348447D01*
X153581837Y-111348447D02*
X153819932Y-111348447D01*
X153819932Y-111348447D02*
X154010408Y-111396066D01*
X154010408Y-111396066D02*
X154105646Y-111443685D01*
X154105646Y-111443685D02*
X154153266Y-111491304D01*
X154153266Y-111491304D02*
X154200885Y-111586542D01*
X154200885Y-111586542D02*
X154200885Y-111681780D01*
X154200885Y-111681780D02*
X154153266Y-111777018D01*
X154153266Y-111777018D02*
X154105646Y-111824637D01*
X154105646Y-111824637D02*
X154010408Y-111872256D01*
X154010408Y-111872256D02*
X153819932Y-111919875D01*
X153819932Y-111919875D02*
X153581837Y-111919875D01*
X153581837Y-111919875D02*
X153391361Y-111872256D01*
X153391361Y-111872256D02*
X153296123Y-111824637D01*
X153296123Y-111824637D02*
X153248504Y-111777018D01*
X153248504Y-111777018D02*
X153200885Y-111681780D01*
X153200885Y-110729399D02*
X153200885Y-110634161D01*
X153200885Y-110634161D02*
X153248504Y-110538923D01*
X153248504Y-110538923D02*
X153296123Y-110491304D01*
X153296123Y-110491304D02*
X153391361Y-110443685D01*
X153391361Y-110443685D02*
X153581837Y-110396066D01*
X153581837Y-110396066D02*
X153819932Y-110396066D01*
X153819932Y-110396066D02*
X154010408Y-110443685D01*
X154010408Y-110443685D02*
X154105646Y-110491304D01*
X154105646Y-110491304D02*
X154153266Y-110538923D01*
X154153266Y-110538923D02*
X154200885Y-110634161D01*
X154200885Y-110634161D02*
X154200885Y-110729399D01*
X154200885Y-110729399D02*
X154153266Y-110824637D01*
X154153266Y-110824637D02*
X154105646Y-110872256D01*
X154105646Y-110872256D02*
X154010408Y-110919875D01*
X154010408Y-110919875D02*
X153819932Y-110967494D01*
X153819932Y-110967494D02*
X153581837Y-110967494D01*
X153581837Y-110967494D02*
X153391361Y-110919875D01*
X153391361Y-110919875D02*
X153296123Y-110872256D01*
X153296123Y-110872256D02*
X153248504Y-110824637D01*
X153248504Y-110824637D02*
X153200885Y-110729399D01*
X153534218Y-109967494D02*
X154200885Y-109967494D01*
X153629456Y-109967494D02*
X153581837Y-109919875D01*
X153581837Y-109919875D02*
X153534218Y-109824637D01*
X153534218Y-109824637D02*
X153534218Y-109681780D01*
X153534218Y-109681780D02*
X153581837Y-109586542D01*
X153581837Y-109586542D02*
X153677075Y-109538923D01*
X153677075Y-109538923D02*
X154200885Y-109538923D01*
D11*
X154995831Y-111342495D02*
X155007736Y-111354399D01*
X155007736Y-111354399D02*
X155019640Y-111390114D01*
X155019640Y-111390114D02*
X155019640Y-111413923D01*
X155019640Y-111413923D02*
X155007736Y-111449637D01*
X155007736Y-111449637D02*
X154983926Y-111473447D01*
X154983926Y-111473447D02*
X154960116Y-111485352D01*
X154960116Y-111485352D02*
X154912497Y-111497256D01*
X154912497Y-111497256D02*
X154876783Y-111497256D01*
X154876783Y-111497256D02*
X154829164Y-111485352D01*
X154829164Y-111485352D02*
X154805355Y-111473447D01*
X154805355Y-111473447D02*
X154781545Y-111449637D01*
X154781545Y-111449637D02*
X154769640Y-111413923D01*
X154769640Y-111413923D02*
X154769640Y-111390114D01*
X154769640Y-111390114D02*
X154781545Y-111354399D01*
X154781545Y-111354399D02*
X154793450Y-111342495D01*
X155019640Y-111104399D02*
X155019640Y-111247256D01*
X155019640Y-111175828D02*
X154769640Y-111175828D01*
X154769640Y-111175828D02*
X154805355Y-111199637D01*
X154805355Y-111199637D02*
X154829164Y-111223447D01*
X154829164Y-111223447D02*
X154841069Y-111247256D01*
X154769640Y-111021066D02*
X154769640Y-110866304D01*
X154769640Y-110866304D02*
X154864878Y-110949638D01*
X154864878Y-110949638D02*
X154864878Y-110913923D01*
X154864878Y-110913923D02*
X154876783Y-110890114D01*
X154876783Y-110890114D02*
X154888688Y-110878209D01*
X154888688Y-110878209D02*
X154912497Y-110866304D01*
X154912497Y-110866304D02*
X154972021Y-110866304D01*
X154972021Y-110866304D02*
X154995831Y-110878209D01*
X154995831Y-110878209D02*
X155007736Y-110890114D01*
X155007736Y-110890114D02*
X155019640Y-110913923D01*
X155019640Y-110913923D02*
X155019640Y-110985352D01*
X155019640Y-110985352D02*
X155007736Y-111009161D01*
X155007736Y-111009161D02*
X154995831Y-111021066D01*
D10*
X158260952Y-106864819D02*
X157689524Y-106864819D01*
X157975238Y-106864819D02*
X157975238Y-105864819D01*
X157975238Y-105864819D02*
X157880000Y-106007676D01*
X157880000Y-106007676D02*
X157784762Y-106102914D01*
X157784762Y-106102914D02*
X157689524Y-106150533D01*
X158880000Y-105864819D02*
X158975238Y-105864819D01*
X158975238Y-105864819D02*
X159070476Y-105912438D01*
X159070476Y-105912438D02*
X159118095Y-105960057D01*
X159118095Y-105960057D02*
X159165714Y-106055295D01*
X159165714Y-106055295D02*
X159213333Y-106245771D01*
X159213333Y-106245771D02*
X159213333Y-106483866D01*
X159213333Y-106483866D02*
X159165714Y-106674342D01*
X159165714Y-106674342D02*
X159118095Y-106769580D01*
X159118095Y-106769580D02*
X159070476Y-106817200D01*
X159070476Y-106817200D02*
X158975238Y-106864819D01*
X158975238Y-106864819D02*
X158880000Y-106864819D01*
X158880000Y-106864819D02*
X158784762Y-106817200D01*
X158784762Y-106817200D02*
X158737143Y-106769580D01*
X158737143Y-106769580D02*
X158689524Y-106674342D01*
X158689524Y-106674342D02*
X158641905Y-106483866D01*
X158641905Y-106483866D02*
X158641905Y-106245771D01*
X158641905Y-106245771D02*
X158689524Y-106055295D01*
X158689524Y-106055295D02*
X158737143Y-105960057D01*
X158737143Y-105960057D02*
X158784762Y-105912438D01*
X158784762Y-105912438D02*
X158880000Y-105864819D01*
X159832381Y-105864819D02*
X159927619Y-105864819D01*
X159927619Y-105864819D02*
X160022857Y-105912438D01*
X160022857Y-105912438D02*
X160070476Y-105960057D01*
X160070476Y-105960057D02*
X160118095Y-106055295D01*
X160118095Y-106055295D02*
X160165714Y-106245771D01*
X160165714Y-106245771D02*
X160165714Y-106483866D01*
X160165714Y-106483866D02*
X160118095Y-106674342D01*
X160118095Y-106674342D02*
X160070476Y-106769580D01*
X160070476Y-106769580D02*
X160022857Y-106817200D01*
X160022857Y-106817200D02*
X159927619Y-106864819D01*
X159927619Y-106864819D02*
X159832381Y-106864819D01*
X159832381Y-106864819D02*
X159737143Y-106817200D01*
X159737143Y-106817200D02*
X159689524Y-106769580D01*
X159689524Y-106769580D02*
X159641905Y-106674342D01*
X159641905Y-106674342D02*
X159594286Y-106483866D01*
X159594286Y-106483866D02*
X159594286Y-106245771D01*
X159594286Y-106245771D02*
X159641905Y-106055295D01*
X159641905Y-106055295D02*
X159689524Y-105960057D01*
X159689524Y-105960057D02*
X159737143Y-105912438D01*
X159737143Y-105912438D02*
X159832381Y-105864819D01*
X160594286Y-106198152D02*
X160594286Y-106864819D01*
X160594286Y-106293390D02*
X160641905Y-106245771D01*
X160641905Y-106245771D02*
X160737143Y-106198152D01*
X160737143Y-106198152D02*
X160880000Y-106198152D01*
X160880000Y-106198152D02*
X160975238Y-106245771D01*
X160975238Y-106245771D02*
X161022857Y-106341009D01*
X161022857Y-106341009D02*
X161022857Y-106864819D01*
D11*
X159338333Y-105339765D02*
X159326429Y-105351670D01*
X159326429Y-105351670D02*
X159290714Y-105363574D01*
X159290714Y-105363574D02*
X159266905Y-105363574D01*
X159266905Y-105363574D02*
X159231191Y-105351670D01*
X159231191Y-105351670D02*
X159207381Y-105327860D01*
X159207381Y-105327860D02*
X159195476Y-105304050D01*
X159195476Y-105304050D02*
X159183572Y-105256431D01*
X159183572Y-105256431D02*
X159183572Y-105220717D01*
X159183572Y-105220717D02*
X159195476Y-105173098D01*
X159195476Y-105173098D02*
X159207381Y-105149289D01*
X159207381Y-105149289D02*
X159231191Y-105125479D01*
X159231191Y-105125479D02*
X159266905Y-105113574D01*
X159266905Y-105113574D02*
X159290714Y-105113574D01*
X159290714Y-105113574D02*
X159326429Y-105125479D01*
X159326429Y-105125479D02*
X159338333Y-105137384D01*
X159457381Y-105363574D02*
X159505000Y-105363574D01*
X159505000Y-105363574D02*
X159528810Y-105351670D01*
X159528810Y-105351670D02*
X159540714Y-105339765D01*
X159540714Y-105339765D02*
X159564524Y-105304050D01*
X159564524Y-105304050D02*
X159576429Y-105256431D01*
X159576429Y-105256431D02*
X159576429Y-105161193D01*
X159576429Y-105161193D02*
X159564524Y-105137384D01*
X159564524Y-105137384D02*
X159552619Y-105125479D01*
X159552619Y-105125479D02*
X159528810Y-105113574D01*
X159528810Y-105113574D02*
X159481191Y-105113574D01*
X159481191Y-105113574D02*
X159457381Y-105125479D01*
X159457381Y-105125479D02*
X159445476Y-105137384D01*
X159445476Y-105137384D02*
X159433572Y-105161193D01*
X159433572Y-105161193D02*
X159433572Y-105220717D01*
X159433572Y-105220717D02*
X159445476Y-105244527D01*
X159445476Y-105244527D02*
X159457381Y-105256431D01*
X159457381Y-105256431D02*
X159481191Y-105268336D01*
X159481191Y-105268336D02*
X159528810Y-105268336D01*
X159528810Y-105268336D02*
X159552619Y-105256431D01*
X159552619Y-105256431D02*
X159564524Y-105244527D01*
X159564524Y-105244527D02*
X159576429Y-105220717D01*
D10*
X161313333Y-102514819D02*
X160741905Y-102514819D01*
X161027619Y-102514819D02*
X161027619Y-101514819D01*
X161027619Y-101514819D02*
X160932381Y-101657676D01*
X160932381Y-101657676D02*
X160837143Y-101752914D01*
X160837143Y-101752914D02*
X160741905Y-101800533D01*
X162170476Y-101848152D02*
X162170476Y-102514819D01*
X161741905Y-101848152D02*
X161741905Y-102371961D01*
X161741905Y-102371961D02*
X161789524Y-102467200D01*
X161789524Y-102467200D02*
X161884762Y-102514819D01*
X161884762Y-102514819D02*
X162027619Y-102514819D01*
X162027619Y-102514819D02*
X162122857Y-102467200D01*
X162122857Y-102467200D02*
X162170476Y-102419580D01*
D11*
X161319285Y-100989765D02*
X161307381Y-101001670D01*
X161307381Y-101001670D02*
X161271666Y-101013574D01*
X161271666Y-101013574D02*
X161247857Y-101013574D01*
X161247857Y-101013574D02*
X161212143Y-101001670D01*
X161212143Y-101001670D02*
X161188333Y-100977860D01*
X161188333Y-100977860D02*
X161176428Y-100954050D01*
X161176428Y-100954050D02*
X161164524Y-100906431D01*
X161164524Y-100906431D02*
X161164524Y-100870717D01*
X161164524Y-100870717D02*
X161176428Y-100823098D01*
X161176428Y-100823098D02*
X161188333Y-100799289D01*
X161188333Y-100799289D02*
X161212143Y-100775479D01*
X161212143Y-100775479D02*
X161247857Y-100763574D01*
X161247857Y-100763574D02*
X161271666Y-100763574D01*
X161271666Y-100763574D02*
X161307381Y-100775479D01*
X161307381Y-100775479D02*
X161319285Y-100787384D01*
X161557381Y-101013574D02*
X161414524Y-101013574D01*
X161485952Y-101013574D02*
X161485952Y-100763574D01*
X161485952Y-100763574D02*
X161462143Y-100799289D01*
X161462143Y-100799289D02*
X161438333Y-100823098D01*
X161438333Y-100823098D02*
X161414524Y-100835003D01*
X161712142Y-100763574D02*
X161735952Y-100763574D01*
X161735952Y-100763574D02*
X161759761Y-100775479D01*
X161759761Y-100775479D02*
X161771666Y-100787384D01*
X161771666Y-100787384D02*
X161783571Y-100811193D01*
X161783571Y-100811193D02*
X161795476Y-100858812D01*
X161795476Y-100858812D02*
X161795476Y-100918336D01*
X161795476Y-100918336D02*
X161783571Y-100965955D01*
X161783571Y-100965955D02*
X161771666Y-100989765D01*
X161771666Y-100989765D02*
X161759761Y-101001670D01*
X161759761Y-101001670D02*
X161735952Y-101013574D01*
X161735952Y-101013574D02*
X161712142Y-101013574D01*
X161712142Y-101013574D02*
X161688333Y-101001670D01*
X161688333Y-101001670D02*
X161676428Y-100989765D01*
X161676428Y-100989765D02*
X161664523Y-100965955D01*
X161664523Y-100965955D02*
X161652619Y-100918336D01*
X161652619Y-100918336D02*
X161652619Y-100858812D01*
X161652619Y-100858812D02*
X161664523Y-100811193D01*
X161664523Y-100811193D02*
X161676428Y-100787384D01*
X161676428Y-100787384D02*
X161688333Y-100775479D01*
X161688333Y-100775479D02*
X161712142Y-100763574D01*
D10*
X155700885Y-112320828D02*
X155700885Y-112892256D01*
X155700885Y-112606542D02*
X154700885Y-112606542D01*
X154700885Y-112606542D02*
X154843742Y-112701780D01*
X154843742Y-112701780D02*
X154938980Y-112797018D01*
X154938980Y-112797018D02*
X154986599Y-112892256D01*
X154700885Y-111701780D02*
X154700885Y-111606542D01*
X154700885Y-111606542D02*
X154748504Y-111511304D01*
X154748504Y-111511304D02*
X154796123Y-111463685D01*
X154796123Y-111463685D02*
X154891361Y-111416066D01*
X154891361Y-111416066D02*
X155081837Y-111368447D01*
X155081837Y-111368447D02*
X155319932Y-111368447D01*
X155319932Y-111368447D02*
X155510408Y-111416066D01*
X155510408Y-111416066D02*
X155605646Y-111463685D01*
X155605646Y-111463685D02*
X155653266Y-111511304D01*
X155653266Y-111511304D02*
X155700885Y-111606542D01*
X155700885Y-111606542D02*
X155700885Y-111701780D01*
X155700885Y-111701780D02*
X155653266Y-111797018D01*
X155653266Y-111797018D02*
X155605646Y-111844637D01*
X155605646Y-111844637D02*
X155510408Y-111892256D01*
X155510408Y-111892256D02*
X155319932Y-111939875D01*
X155319932Y-111939875D02*
X155081837Y-111939875D01*
X155081837Y-111939875D02*
X154891361Y-111892256D01*
X154891361Y-111892256D02*
X154796123Y-111844637D01*
X154796123Y-111844637D02*
X154748504Y-111797018D01*
X154748504Y-111797018D02*
X154700885Y-111701780D01*
X154700885Y-110749399D02*
X154700885Y-110654161D01*
X154700885Y-110654161D02*
X154748504Y-110558923D01*
X154748504Y-110558923D02*
X154796123Y-110511304D01*
X154796123Y-110511304D02*
X154891361Y-110463685D01*
X154891361Y-110463685D02*
X155081837Y-110416066D01*
X155081837Y-110416066D02*
X155319932Y-110416066D01*
X155319932Y-110416066D02*
X155510408Y-110463685D01*
X155510408Y-110463685D02*
X155605646Y-110511304D01*
X155605646Y-110511304D02*
X155653266Y-110558923D01*
X155653266Y-110558923D02*
X155700885Y-110654161D01*
X155700885Y-110654161D02*
X155700885Y-110749399D01*
X155700885Y-110749399D02*
X155653266Y-110844637D01*
X155653266Y-110844637D02*
X155605646Y-110892256D01*
X155605646Y-110892256D02*
X155510408Y-110939875D01*
X155510408Y-110939875D02*
X155319932Y-110987494D01*
X155319932Y-110987494D02*
X155081837Y-110987494D01*
X155081837Y-110987494D02*
X154891361Y-110939875D01*
X154891361Y-110939875D02*
X154796123Y-110892256D01*
X154796123Y-110892256D02*
X154748504Y-110844637D01*
X154748504Y-110844637D02*
X154700885Y-110749399D01*
X155034218Y-109987494D02*
X155700885Y-109987494D01*
X155129456Y-109987494D02*
X155081837Y-109939875D01*
X155081837Y-109939875D02*
X155034218Y-109844637D01*
X155034218Y-109844637D02*
X155034218Y-109701780D01*
X155034218Y-109701780D02*
X155081837Y-109606542D01*
X155081837Y-109606542D02*
X155177075Y-109558923D01*
X155177075Y-109558923D02*
X155700885Y-109558923D01*
D11*
X156495831Y-111243447D02*
X156507736Y-111255351D01*
X156507736Y-111255351D02*
X156519640Y-111291066D01*
X156519640Y-111291066D02*
X156519640Y-111314875D01*
X156519640Y-111314875D02*
X156507736Y-111350589D01*
X156507736Y-111350589D02*
X156483926Y-111374399D01*
X156483926Y-111374399D02*
X156460116Y-111386304D01*
X156460116Y-111386304D02*
X156412497Y-111398208D01*
X156412497Y-111398208D02*
X156376783Y-111398208D01*
X156376783Y-111398208D02*
X156329164Y-111386304D01*
X156329164Y-111386304D02*
X156305355Y-111374399D01*
X156305355Y-111374399D02*
X156281545Y-111350589D01*
X156281545Y-111350589D02*
X156269640Y-111314875D01*
X156269640Y-111314875D02*
X156269640Y-111291066D01*
X156269640Y-111291066D02*
X156281545Y-111255351D01*
X156281545Y-111255351D02*
X156293450Y-111243447D01*
X156269640Y-111029161D02*
X156269640Y-111076780D01*
X156269640Y-111076780D02*
X156281545Y-111100589D01*
X156281545Y-111100589D02*
X156293450Y-111112494D01*
X156293450Y-111112494D02*
X156329164Y-111136304D01*
X156329164Y-111136304D02*
X156376783Y-111148208D01*
X156376783Y-111148208D02*
X156472021Y-111148208D01*
X156472021Y-111148208D02*
X156495831Y-111136304D01*
X156495831Y-111136304D02*
X156507736Y-111124399D01*
X156507736Y-111124399D02*
X156519640Y-111100589D01*
X156519640Y-111100589D02*
X156519640Y-111052970D01*
X156519640Y-111052970D02*
X156507736Y-111029161D01*
X156507736Y-111029161D02*
X156495831Y-111017256D01*
X156495831Y-111017256D02*
X156472021Y-111005351D01*
X156472021Y-111005351D02*
X156412497Y-111005351D01*
X156412497Y-111005351D02*
X156388688Y-111017256D01*
X156388688Y-111017256D02*
X156376783Y-111029161D01*
X156376783Y-111029161D02*
X156364878Y-111052970D01*
X156364878Y-111052970D02*
X156364878Y-111100589D01*
X156364878Y-111100589D02*
X156376783Y-111124399D01*
X156376783Y-111124399D02*
X156388688Y-111136304D01*
X156388688Y-111136304D02*
X156412497Y-111148208D01*
D10*
X159314819Y-99770828D02*
X159314819Y-100342256D01*
X159314819Y-100056542D02*
X158314819Y-100056542D01*
X158314819Y-100056542D02*
X158457676Y-100151780D01*
X158457676Y-100151780D02*
X158552914Y-100247018D01*
X158552914Y-100247018D02*
X158600533Y-100342256D01*
X158314819Y-99151780D02*
X158314819Y-99056542D01*
X158314819Y-99056542D02*
X158362438Y-98961304D01*
X158362438Y-98961304D02*
X158410057Y-98913685D01*
X158410057Y-98913685D02*
X158505295Y-98866066D01*
X158505295Y-98866066D02*
X158695771Y-98818447D01*
X158695771Y-98818447D02*
X158933866Y-98818447D01*
X158933866Y-98818447D02*
X159124342Y-98866066D01*
X159124342Y-98866066D02*
X159219580Y-98913685D01*
X159219580Y-98913685D02*
X159267200Y-98961304D01*
X159267200Y-98961304D02*
X159314819Y-99056542D01*
X159314819Y-99056542D02*
X159314819Y-99151780D01*
X159314819Y-99151780D02*
X159267200Y-99247018D01*
X159267200Y-99247018D02*
X159219580Y-99294637D01*
X159219580Y-99294637D02*
X159124342Y-99342256D01*
X159124342Y-99342256D02*
X158933866Y-99389875D01*
X158933866Y-99389875D02*
X158695771Y-99389875D01*
X158695771Y-99389875D02*
X158505295Y-99342256D01*
X158505295Y-99342256D02*
X158410057Y-99294637D01*
X158410057Y-99294637D02*
X158362438Y-99247018D01*
X158362438Y-99247018D02*
X158314819Y-99151780D01*
X158314819Y-98199399D02*
X158314819Y-98104161D01*
X158314819Y-98104161D02*
X158362438Y-98008923D01*
X158362438Y-98008923D02*
X158410057Y-97961304D01*
X158410057Y-97961304D02*
X158505295Y-97913685D01*
X158505295Y-97913685D02*
X158695771Y-97866066D01*
X158695771Y-97866066D02*
X158933866Y-97866066D01*
X158933866Y-97866066D02*
X159124342Y-97913685D01*
X159124342Y-97913685D02*
X159219580Y-97961304D01*
X159219580Y-97961304D02*
X159267200Y-98008923D01*
X159267200Y-98008923D02*
X159314819Y-98104161D01*
X159314819Y-98104161D02*
X159314819Y-98199399D01*
X159314819Y-98199399D02*
X159267200Y-98294637D01*
X159267200Y-98294637D02*
X159219580Y-98342256D01*
X159219580Y-98342256D02*
X159124342Y-98389875D01*
X159124342Y-98389875D02*
X158933866Y-98437494D01*
X158933866Y-98437494D02*
X158695771Y-98437494D01*
X158695771Y-98437494D02*
X158505295Y-98389875D01*
X158505295Y-98389875D02*
X158410057Y-98342256D01*
X158410057Y-98342256D02*
X158362438Y-98294637D01*
X158362438Y-98294637D02*
X158314819Y-98199399D01*
X158648152Y-97437494D02*
X159314819Y-97437494D01*
X158743390Y-97437494D02*
X158695771Y-97389875D01*
X158695771Y-97389875D02*
X158648152Y-97294637D01*
X158648152Y-97294637D02*
X158648152Y-97151780D01*
X158648152Y-97151780D02*
X158695771Y-97056542D01*
X158695771Y-97056542D02*
X158791009Y-97008923D01*
X158791009Y-97008923D02*
X159314819Y-97008923D01*
D11*
X157789765Y-98812495D02*
X157801670Y-98824399D01*
X157801670Y-98824399D02*
X157813574Y-98860114D01*
X157813574Y-98860114D02*
X157813574Y-98883923D01*
X157813574Y-98883923D02*
X157801670Y-98919637D01*
X157801670Y-98919637D02*
X157777860Y-98943447D01*
X157777860Y-98943447D02*
X157754050Y-98955352D01*
X157754050Y-98955352D02*
X157706431Y-98967256D01*
X157706431Y-98967256D02*
X157670717Y-98967256D01*
X157670717Y-98967256D02*
X157623098Y-98955352D01*
X157623098Y-98955352D02*
X157599289Y-98943447D01*
X157599289Y-98943447D02*
X157575479Y-98919637D01*
X157575479Y-98919637D02*
X157563574Y-98883923D01*
X157563574Y-98883923D02*
X157563574Y-98860114D01*
X157563574Y-98860114D02*
X157575479Y-98824399D01*
X157575479Y-98824399D02*
X157587384Y-98812495D01*
X157813574Y-98574399D02*
X157813574Y-98717256D01*
X157813574Y-98645828D02*
X157563574Y-98645828D01*
X157563574Y-98645828D02*
X157599289Y-98669637D01*
X157599289Y-98669637D02*
X157623098Y-98693447D01*
X157623098Y-98693447D02*
X157635003Y-98717256D01*
X157563574Y-98360114D02*
X157563574Y-98407733D01*
X157563574Y-98407733D02*
X157575479Y-98431542D01*
X157575479Y-98431542D02*
X157587384Y-98443447D01*
X157587384Y-98443447D02*
X157623098Y-98467257D01*
X157623098Y-98467257D02*
X157670717Y-98479161D01*
X157670717Y-98479161D02*
X157765955Y-98479161D01*
X157765955Y-98479161D02*
X157789765Y-98467257D01*
X157789765Y-98467257D02*
X157801670Y-98455352D01*
X157801670Y-98455352D02*
X157813574Y-98431542D01*
X157813574Y-98431542D02*
X157813574Y-98383923D01*
X157813574Y-98383923D02*
X157801670Y-98360114D01*
X157801670Y-98360114D02*
X157789765Y-98348209D01*
X157789765Y-98348209D02*
X157765955Y-98336304D01*
X157765955Y-98336304D02*
X157706431Y-98336304D01*
X157706431Y-98336304D02*
X157682622Y-98348209D01*
X157682622Y-98348209D02*
X157670717Y-98360114D01*
X157670717Y-98360114D02*
X157658812Y-98383923D01*
X157658812Y-98383923D02*
X157658812Y-98431542D01*
X157658812Y-98431542D02*
X157670717Y-98455352D01*
X157670717Y-98455352D02*
X157682622Y-98467257D01*
X157682622Y-98467257D02*
X157706431Y-98479161D01*
D10*
X152780057Y-99401904D02*
X152732438Y-99354285D01*
X152732438Y-99354285D02*
X152684819Y-99259047D01*
X152684819Y-99259047D02*
X152684819Y-99020952D01*
X152684819Y-99020952D02*
X152732438Y-98925714D01*
X152732438Y-98925714D02*
X152780057Y-98878095D01*
X152780057Y-98878095D02*
X152875295Y-98830476D01*
X152875295Y-98830476D02*
X152970533Y-98830476D01*
X152970533Y-98830476D02*
X153113390Y-98878095D01*
X153113390Y-98878095D02*
X153684819Y-99449523D01*
X153684819Y-99449523D02*
X153684819Y-98830476D01*
X152684819Y-98497142D02*
X152684819Y-97830476D01*
X152684819Y-97830476D02*
X153684819Y-98259047D01*
D11*
X154518200Y-98683332D02*
X154394391Y-98769999D01*
X154518200Y-98831904D02*
X154258200Y-98831904D01*
X154258200Y-98831904D02*
X154258200Y-98732856D01*
X154258200Y-98732856D02*
X154270581Y-98708094D01*
X154270581Y-98708094D02*
X154282962Y-98695713D01*
X154282962Y-98695713D02*
X154307724Y-98683332D01*
X154307724Y-98683332D02*
X154344867Y-98683332D01*
X154344867Y-98683332D02*
X154369629Y-98695713D01*
X154369629Y-98695713D02*
X154382010Y-98708094D01*
X154382010Y-98708094D02*
X154394391Y-98732856D01*
X154394391Y-98732856D02*
X154394391Y-98831904D01*
X154344867Y-98460475D02*
X154518200Y-98460475D01*
X154245820Y-98522380D02*
X154431534Y-98584285D01*
X154431534Y-98584285D02*
X154431534Y-98423332D01*
D10*
X158287018Y-108326600D02*
X157715590Y-108326600D01*
X158001304Y-108326600D02*
X158001304Y-107326600D01*
X158001304Y-107326600D02*
X157906066Y-107469457D01*
X157906066Y-107469457D02*
X157810828Y-107564695D01*
X157810828Y-107564695D02*
X157715590Y-107612314D01*
X158906066Y-107326600D02*
X159001304Y-107326600D01*
X159001304Y-107326600D02*
X159096542Y-107374219D01*
X159096542Y-107374219D02*
X159144161Y-107421838D01*
X159144161Y-107421838D02*
X159191780Y-107517076D01*
X159191780Y-107517076D02*
X159239399Y-107707552D01*
X159239399Y-107707552D02*
X159239399Y-107945647D01*
X159239399Y-107945647D02*
X159191780Y-108136123D01*
X159191780Y-108136123D02*
X159144161Y-108231361D01*
X159144161Y-108231361D02*
X159096542Y-108278981D01*
X159096542Y-108278981D02*
X159001304Y-108326600D01*
X159001304Y-108326600D02*
X158906066Y-108326600D01*
X158906066Y-108326600D02*
X158810828Y-108278981D01*
X158810828Y-108278981D02*
X158763209Y-108231361D01*
X158763209Y-108231361D02*
X158715590Y-108136123D01*
X158715590Y-108136123D02*
X158667971Y-107945647D01*
X158667971Y-107945647D02*
X158667971Y-107707552D01*
X158667971Y-107707552D02*
X158715590Y-107517076D01*
X158715590Y-107517076D02*
X158763209Y-107421838D01*
X158763209Y-107421838D02*
X158810828Y-107374219D01*
X158810828Y-107374219D02*
X158906066Y-107326600D01*
X159858447Y-107326600D02*
X159953685Y-107326600D01*
X159953685Y-107326600D02*
X160048923Y-107374219D01*
X160048923Y-107374219D02*
X160096542Y-107421838D01*
X160096542Y-107421838D02*
X160144161Y-107517076D01*
X160144161Y-107517076D02*
X160191780Y-107707552D01*
X160191780Y-107707552D02*
X160191780Y-107945647D01*
X160191780Y-107945647D02*
X160144161Y-108136123D01*
X160144161Y-108136123D02*
X160096542Y-108231361D01*
X160096542Y-108231361D02*
X160048923Y-108278981D01*
X160048923Y-108278981D02*
X159953685Y-108326600D01*
X159953685Y-108326600D02*
X159858447Y-108326600D01*
X159858447Y-108326600D02*
X159763209Y-108278981D01*
X159763209Y-108278981D02*
X159715590Y-108231361D01*
X159715590Y-108231361D02*
X159667971Y-108136123D01*
X159667971Y-108136123D02*
X159620352Y-107945647D01*
X159620352Y-107945647D02*
X159620352Y-107707552D01*
X159620352Y-107707552D02*
X159667971Y-107517076D01*
X159667971Y-107517076D02*
X159715590Y-107421838D01*
X159715590Y-107421838D02*
X159763209Y-107374219D01*
X159763209Y-107374219D02*
X159858447Y-107326600D01*
X160620352Y-107659933D02*
X160620352Y-108326600D01*
X160620352Y-107755171D02*
X160667971Y-107707552D01*
X160667971Y-107707552D02*
X160763209Y-107659933D01*
X160763209Y-107659933D02*
X160906066Y-107659933D01*
X160906066Y-107659933D02*
X161001304Y-107707552D01*
X161001304Y-107707552D02*
X161048923Y-107802790D01*
X161048923Y-107802790D02*
X161048923Y-108326600D01*
D11*
X159245351Y-106801546D02*
X159233447Y-106813451D01*
X159233447Y-106813451D02*
X159197732Y-106825355D01*
X159197732Y-106825355D02*
X159173923Y-106825355D01*
X159173923Y-106825355D02*
X159138209Y-106813451D01*
X159138209Y-106813451D02*
X159114399Y-106789641D01*
X159114399Y-106789641D02*
X159102494Y-106765831D01*
X159102494Y-106765831D02*
X159090590Y-106718212D01*
X159090590Y-106718212D02*
X159090590Y-106682498D01*
X159090590Y-106682498D02*
X159102494Y-106634879D01*
X159102494Y-106634879D02*
X159114399Y-106611070D01*
X159114399Y-106611070D02*
X159138209Y-106587260D01*
X159138209Y-106587260D02*
X159173923Y-106575355D01*
X159173923Y-106575355D02*
X159197732Y-106575355D01*
X159197732Y-106575355D02*
X159233447Y-106587260D01*
X159233447Y-106587260D02*
X159245351Y-106599165D01*
X159483447Y-106825355D02*
X159340590Y-106825355D01*
X159412018Y-106825355D02*
X159412018Y-106575355D01*
X159412018Y-106575355D02*
X159388209Y-106611070D01*
X159388209Y-106611070D02*
X159364399Y-106634879D01*
X159364399Y-106634879D02*
X159340590Y-106646784D01*
X159721542Y-106825355D02*
X159578685Y-106825355D01*
X159650113Y-106825355D02*
X159650113Y-106575355D01*
X159650113Y-106575355D02*
X159626304Y-106611070D01*
X159626304Y-106611070D02*
X159602494Y-106634879D01*
X159602494Y-106634879D02*
X159578685Y-106646784D01*
D10*
X163713208Y-85846600D02*
X163141780Y-85846600D01*
X163427494Y-85846600D02*
X163427494Y-84846600D01*
X163427494Y-84846600D02*
X163332256Y-84989457D01*
X163332256Y-84989457D02*
X163237018Y-85084695D01*
X163237018Y-85084695D02*
X163141780Y-85132314D01*
X164332256Y-84846600D02*
X164427494Y-84846600D01*
X164427494Y-84846600D02*
X164522732Y-84894219D01*
X164522732Y-84894219D02*
X164570351Y-84941838D01*
X164570351Y-84941838D02*
X164617970Y-85037076D01*
X164617970Y-85037076D02*
X164665589Y-85227552D01*
X164665589Y-85227552D02*
X164665589Y-85465647D01*
X164665589Y-85465647D02*
X164617970Y-85656123D01*
X164617970Y-85656123D02*
X164570351Y-85751361D01*
X164570351Y-85751361D02*
X164522732Y-85798981D01*
X164522732Y-85798981D02*
X164427494Y-85846600D01*
X164427494Y-85846600D02*
X164332256Y-85846600D01*
X164332256Y-85846600D02*
X164237018Y-85798981D01*
X164237018Y-85798981D02*
X164189399Y-85751361D01*
X164189399Y-85751361D02*
X164141780Y-85656123D01*
X164141780Y-85656123D02*
X164094161Y-85465647D01*
X164094161Y-85465647D02*
X164094161Y-85227552D01*
X164094161Y-85227552D02*
X164141780Y-85037076D01*
X164141780Y-85037076D02*
X164189399Y-84941838D01*
X164189399Y-84941838D02*
X164237018Y-84894219D01*
X164237018Y-84894219D02*
X164332256Y-84846600D01*
X165522732Y-85179933D02*
X165522732Y-85846600D01*
X165094161Y-85179933D02*
X165094161Y-85703742D01*
X165094161Y-85703742D02*
X165141780Y-85798981D01*
X165141780Y-85798981D02*
X165237018Y-85846600D01*
X165237018Y-85846600D02*
X165379875Y-85846600D01*
X165379875Y-85846600D02*
X165475113Y-85798981D01*
X165475113Y-85798981D02*
X165522732Y-85751361D01*
D12*
X164272732Y-83891311D02*
X164248923Y-83915121D01*
X164248923Y-83915121D02*
X164177494Y-83938930D01*
X164177494Y-83938930D02*
X164129875Y-83938930D01*
X164129875Y-83938930D02*
X164058447Y-83915121D01*
X164058447Y-83915121D02*
X164010828Y-83867501D01*
X164010828Y-83867501D02*
X163987018Y-83819882D01*
X163987018Y-83819882D02*
X163963209Y-83724644D01*
X163963209Y-83724644D02*
X163963209Y-83653216D01*
X163963209Y-83653216D02*
X163987018Y-83557978D01*
X163987018Y-83557978D02*
X164010828Y-83510359D01*
X164010828Y-83510359D02*
X164058447Y-83462740D01*
X164058447Y-83462740D02*
X164129875Y-83438930D01*
X164129875Y-83438930D02*
X164177494Y-83438930D01*
X164177494Y-83438930D02*
X164248923Y-83462740D01*
X164248923Y-83462740D02*
X164272732Y-83486549D01*
X164439399Y-83438930D02*
X164748923Y-83438930D01*
X164748923Y-83438930D02*
X164582256Y-83629406D01*
X164582256Y-83629406D02*
X164653685Y-83629406D01*
X164653685Y-83629406D02*
X164701304Y-83653216D01*
X164701304Y-83653216D02*
X164725113Y-83677025D01*
X164725113Y-83677025D02*
X164748923Y-83724644D01*
X164748923Y-83724644D02*
X164748923Y-83843692D01*
X164748923Y-83843692D02*
X164725113Y-83891311D01*
X164725113Y-83891311D02*
X164701304Y-83915121D01*
X164701304Y-83915121D02*
X164653685Y-83938930D01*
X164653685Y-83938930D02*
X164510828Y-83938930D01*
X164510828Y-83938930D02*
X164463209Y-83915121D01*
X164463209Y-83915121D02*
X164439399Y-83891311D01*
D10*
X145882256Y-101329933D02*
X145882256Y-101996600D01*
X145644161Y-100948981D02*
X145406066Y-101663266D01*
X145406066Y-101663266D02*
X146025113Y-101663266D01*
X146406066Y-101901361D02*
X146453685Y-101948981D01*
X146453685Y-101948981D02*
X146406066Y-101996600D01*
X146406066Y-101996600D02*
X146358447Y-101948981D01*
X146358447Y-101948981D02*
X146406066Y-101901361D01*
X146406066Y-101901361D02*
X146406066Y-101996600D01*
X146787018Y-100996600D02*
X147453684Y-100996600D01*
X147453684Y-100996600D02*
X147025113Y-101996600D01*
D11*
X146362733Y-102829981D02*
X146276066Y-102706172D01*
X146214161Y-102829981D02*
X146214161Y-102569981D01*
X146214161Y-102569981D02*
X146313209Y-102569981D01*
X146313209Y-102569981D02*
X146337971Y-102582362D01*
X146337971Y-102582362D02*
X146350352Y-102594743D01*
X146350352Y-102594743D02*
X146362733Y-102619505D01*
X146362733Y-102619505D02*
X146362733Y-102656648D01*
X146362733Y-102656648D02*
X146350352Y-102681410D01*
X146350352Y-102681410D02*
X146337971Y-102693791D01*
X146337971Y-102693791D02*
X146313209Y-102706172D01*
X146313209Y-102706172D02*
X146214161Y-102706172D01*
X146585590Y-102569981D02*
X146536066Y-102569981D01*
X146536066Y-102569981D02*
X146511304Y-102582362D01*
X146511304Y-102582362D02*
X146498923Y-102594743D01*
X146498923Y-102594743D02*
X146474161Y-102631886D01*
X146474161Y-102631886D02*
X146461780Y-102681410D01*
X146461780Y-102681410D02*
X146461780Y-102780458D01*
X146461780Y-102780458D02*
X146474161Y-102805220D01*
X146474161Y-102805220D02*
X146486542Y-102817601D01*
X146486542Y-102817601D02*
X146511304Y-102829981D01*
X146511304Y-102829981D02*
X146560828Y-102829981D01*
X146560828Y-102829981D02*
X146585590Y-102817601D01*
X146585590Y-102817601D02*
X146597971Y-102805220D01*
X146597971Y-102805220D02*
X146610352Y-102780458D01*
X146610352Y-102780458D02*
X146610352Y-102718553D01*
X146610352Y-102718553D02*
X146597971Y-102693791D01*
X146597971Y-102693791D02*
X146585590Y-102681410D01*
X146585590Y-102681410D02*
X146560828Y-102669029D01*
X146560828Y-102669029D02*
X146511304Y-102669029D01*
X146511304Y-102669029D02*
X146486542Y-102681410D01*
X146486542Y-102681410D02*
X146474161Y-102693791D01*
X146474161Y-102693791D02*
X146461780Y-102718553D01*
D10*
X151743208Y-114006600D02*
X151171780Y-114006600D01*
X151457494Y-114006600D02*
X151457494Y-113006600D01*
X151457494Y-113006600D02*
X151362256Y-113149457D01*
X151362256Y-113149457D02*
X151267018Y-113244695D01*
X151267018Y-113244695D02*
X151171780Y-113292314D01*
X152647970Y-113006600D02*
X152171780Y-113006600D01*
X152171780Y-113006600D02*
X152124161Y-113482790D01*
X152124161Y-113482790D02*
X152171780Y-113435171D01*
X152171780Y-113435171D02*
X152267018Y-113387552D01*
X152267018Y-113387552D02*
X152505113Y-113387552D01*
X152505113Y-113387552D02*
X152600351Y-113435171D01*
X152600351Y-113435171D02*
X152647970Y-113482790D01*
X152647970Y-113482790D02*
X152695589Y-113578028D01*
X152695589Y-113578028D02*
X152695589Y-113816123D01*
X152695589Y-113816123D02*
X152647970Y-113911361D01*
X152647970Y-113911361D02*
X152600351Y-113958981D01*
X152600351Y-113958981D02*
X152505113Y-114006600D01*
X152505113Y-114006600D02*
X152267018Y-114006600D01*
X152267018Y-114006600D02*
X152171780Y-113958981D01*
X152171780Y-113958981D02*
X152124161Y-113911361D01*
X153124161Y-113339933D02*
X153124161Y-114339933D01*
X153124161Y-113387552D02*
X153219399Y-113339933D01*
X153219399Y-113339933D02*
X153409875Y-113339933D01*
X153409875Y-113339933D02*
X153505113Y-113387552D01*
X153505113Y-113387552D02*
X153552732Y-113435171D01*
X153552732Y-113435171D02*
X153600351Y-113530409D01*
X153600351Y-113530409D02*
X153600351Y-113816123D01*
X153600351Y-113816123D02*
X153552732Y-113911361D01*
X153552732Y-113911361D02*
X153505113Y-113958981D01*
X153505113Y-113958981D02*
X153409875Y-114006600D01*
X153409875Y-114006600D02*
X153219399Y-114006600D01*
X153219399Y-114006600D02*
X153124161Y-113958981D01*
D11*
X152344399Y-114801546D02*
X152332495Y-114813451D01*
X152332495Y-114813451D02*
X152296780Y-114825355D01*
X152296780Y-114825355D02*
X152272971Y-114825355D01*
X152272971Y-114825355D02*
X152237257Y-114813451D01*
X152237257Y-114813451D02*
X152213447Y-114789641D01*
X152213447Y-114789641D02*
X152201542Y-114765831D01*
X152201542Y-114765831D02*
X152189638Y-114718212D01*
X152189638Y-114718212D02*
X152189638Y-114682498D01*
X152189638Y-114682498D02*
X152201542Y-114634879D01*
X152201542Y-114634879D02*
X152213447Y-114611070D01*
X152213447Y-114611070D02*
X152237257Y-114587260D01*
X152237257Y-114587260D02*
X152272971Y-114575355D01*
X152272971Y-114575355D02*
X152296780Y-114575355D01*
X152296780Y-114575355D02*
X152332495Y-114587260D01*
X152332495Y-114587260D02*
X152344399Y-114599165D01*
X152582495Y-114825355D02*
X152439638Y-114825355D01*
X152511066Y-114825355D02*
X152511066Y-114575355D01*
X152511066Y-114575355D02*
X152487257Y-114611070D01*
X152487257Y-114611070D02*
X152463447Y-114634879D01*
X152463447Y-114634879D02*
X152439638Y-114646784D01*
D10*
X160350952Y-101264819D02*
X159779524Y-101264819D01*
X160065238Y-101264819D02*
X160065238Y-100264819D01*
X160065238Y-100264819D02*
X159970000Y-100407676D01*
X159970000Y-100407676D02*
X159874762Y-100502914D01*
X159874762Y-100502914D02*
X159779524Y-100550533D01*
X160970000Y-100264819D02*
X161065238Y-100264819D01*
X161065238Y-100264819D02*
X161160476Y-100312438D01*
X161160476Y-100312438D02*
X161208095Y-100360057D01*
X161208095Y-100360057D02*
X161255714Y-100455295D01*
X161255714Y-100455295D02*
X161303333Y-100645771D01*
X161303333Y-100645771D02*
X161303333Y-100883866D01*
X161303333Y-100883866D02*
X161255714Y-101074342D01*
X161255714Y-101074342D02*
X161208095Y-101169580D01*
X161208095Y-101169580D02*
X161160476Y-101217200D01*
X161160476Y-101217200D02*
X161065238Y-101264819D01*
X161065238Y-101264819D02*
X160970000Y-101264819D01*
X160970000Y-101264819D02*
X160874762Y-101217200D01*
X160874762Y-101217200D02*
X160827143Y-101169580D01*
X160827143Y-101169580D02*
X160779524Y-101074342D01*
X160779524Y-101074342D02*
X160731905Y-100883866D01*
X160731905Y-100883866D02*
X160731905Y-100645771D01*
X160731905Y-100645771D02*
X160779524Y-100455295D01*
X160779524Y-100455295D02*
X160827143Y-100360057D01*
X160827143Y-100360057D02*
X160874762Y-100312438D01*
X160874762Y-100312438D02*
X160970000Y-100264819D01*
X161922381Y-100264819D02*
X162017619Y-100264819D01*
X162017619Y-100264819D02*
X162112857Y-100312438D01*
X162112857Y-100312438D02*
X162160476Y-100360057D01*
X162160476Y-100360057D02*
X162208095Y-100455295D01*
X162208095Y-100455295D02*
X162255714Y-100645771D01*
X162255714Y-100645771D02*
X162255714Y-100883866D01*
X162255714Y-100883866D02*
X162208095Y-101074342D01*
X162208095Y-101074342D02*
X162160476Y-101169580D01*
X162160476Y-101169580D02*
X162112857Y-101217200D01*
X162112857Y-101217200D02*
X162017619Y-101264819D01*
X162017619Y-101264819D02*
X161922381Y-101264819D01*
X161922381Y-101264819D02*
X161827143Y-101217200D01*
X161827143Y-101217200D02*
X161779524Y-101169580D01*
X161779524Y-101169580D02*
X161731905Y-101074342D01*
X161731905Y-101074342D02*
X161684286Y-100883866D01*
X161684286Y-100883866D02*
X161684286Y-100645771D01*
X161684286Y-100645771D02*
X161731905Y-100455295D01*
X161731905Y-100455295D02*
X161779524Y-100360057D01*
X161779524Y-100360057D02*
X161827143Y-100312438D01*
X161827143Y-100312438D02*
X161922381Y-100264819D01*
X162684286Y-100598152D02*
X162684286Y-101264819D01*
X162684286Y-100693390D02*
X162731905Y-100645771D01*
X162731905Y-100645771D02*
X162827143Y-100598152D01*
X162827143Y-100598152D02*
X162970000Y-100598152D01*
X162970000Y-100598152D02*
X163065238Y-100645771D01*
X163065238Y-100645771D02*
X163112857Y-100741009D01*
X163112857Y-100741009D02*
X163112857Y-101264819D01*
D11*
X161309285Y-99739765D02*
X161297381Y-99751670D01*
X161297381Y-99751670D02*
X161261666Y-99763574D01*
X161261666Y-99763574D02*
X161237857Y-99763574D01*
X161237857Y-99763574D02*
X161202143Y-99751670D01*
X161202143Y-99751670D02*
X161178333Y-99727860D01*
X161178333Y-99727860D02*
X161166428Y-99704050D01*
X161166428Y-99704050D02*
X161154524Y-99656431D01*
X161154524Y-99656431D02*
X161154524Y-99620717D01*
X161154524Y-99620717D02*
X161166428Y-99573098D01*
X161166428Y-99573098D02*
X161178333Y-99549289D01*
X161178333Y-99549289D02*
X161202143Y-99525479D01*
X161202143Y-99525479D02*
X161237857Y-99513574D01*
X161237857Y-99513574D02*
X161261666Y-99513574D01*
X161261666Y-99513574D02*
X161297381Y-99525479D01*
X161297381Y-99525479D02*
X161309285Y-99537384D01*
X161547381Y-99763574D02*
X161404524Y-99763574D01*
X161475952Y-99763574D02*
X161475952Y-99513574D01*
X161475952Y-99513574D02*
X161452143Y-99549289D01*
X161452143Y-99549289D02*
X161428333Y-99573098D01*
X161428333Y-99573098D02*
X161404524Y-99585003D01*
X161761666Y-99596908D02*
X161761666Y-99763574D01*
X161702142Y-99501670D02*
X161642619Y-99680241D01*
X161642619Y-99680241D02*
X161797380Y-99680241D01*
D10*
X158214819Y-98826666D02*
X158214819Y-99398094D01*
X158214819Y-99112380D02*
X157214819Y-99112380D01*
X157214819Y-99112380D02*
X157357676Y-99207618D01*
X157357676Y-99207618D02*
X157452914Y-99302856D01*
X157452914Y-99302856D02*
X157500533Y-99398094D01*
X157548152Y-97969523D02*
X158214819Y-97969523D01*
X157548152Y-98398094D02*
X158071961Y-98398094D01*
X158071961Y-98398094D02*
X158167200Y-98350475D01*
X158167200Y-98350475D02*
X158214819Y-98255237D01*
X158214819Y-98255237D02*
X158214819Y-98112380D01*
X158214819Y-98112380D02*
X158167200Y-98017142D01*
X158167200Y-98017142D02*
X158119580Y-97969523D01*
D11*
X156689765Y-98701666D02*
X156701670Y-98713570D01*
X156701670Y-98713570D02*
X156713574Y-98749285D01*
X156713574Y-98749285D02*
X156713574Y-98773094D01*
X156713574Y-98773094D02*
X156701670Y-98808808D01*
X156701670Y-98808808D02*
X156677860Y-98832618D01*
X156677860Y-98832618D02*
X156654050Y-98844523D01*
X156654050Y-98844523D02*
X156606431Y-98856427D01*
X156606431Y-98856427D02*
X156570717Y-98856427D01*
X156570717Y-98856427D02*
X156523098Y-98844523D01*
X156523098Y-98844523D02*
X156499289Y-98832618D01*
X156499289Y-98832618D02*
X156475479Y-98808808D01*
X156475479Y-98808808D02*
X156463574Y-98773094D01*
X156463574Y-98773094D02*
X156463574Y-98749285D01*
X156463574Y-98749285D02*
X156475479Y-98713570D01*
X156475479Y-98713570D02*
X156487384Y-98701666D01*
X156570717Y-98558808D02*
X156558812Y-98582618D01*
X156558812Y-98582618D02*
X156546908Y-98594523D01*
X156546908Y-98594523D02*
X156523098Y-98606427D01*
X156523098Y-98606427D02*
X156511193Y-98606427D01*
X156511193Y-98606427D02*
X156487384Y-98594523D01*
X156487384Y-98594523D02*
X156475479Y-98582618D01*
X156475479Y-98582618D02*
X156463574Y-98558808D01*
X156463574Y-98558808D02*
X156463574Y-98511189D01*
X156463574Y-98511189D02*
X156475479Y-98487380D01*
X156475479Y-98487380D02*
X156487384Y-98475475D01*
X156487384Y-98475475D02*
X156511193Y-98463570D01*
X156511193Y-98463570D02*
X156523098Y-98463570D01*
X156523098Y-98463570D02*
X156546908Y-98475475D01*
X156546908Y-98475475D02*
X156558812Y-98487380D01*
X156558812Y-98487380D02*
X156570717Y-98511189D01*
X156570717Y-98511189D02*
X156570717Y-98558808D01*
X156570717Y-98558808D02*
X156582622Y-98582618D01*
X156582622Y-98582618D02*
X156594527Y-98594523D01*
X156594527Y-98594523D02*
X156618336Y-98606427D01*
X156618336Y-98606427D02*
X156665955Y-98606427D01*
X156665955Y-98606427D02*
X156689765Y-98594523D01*
X156689765Y-98594523D02*
X156701670Y-98582618D01*
X156701670Y-98582618D02*
X156713574Y-98558808D01*
X156713574Y-98558808D02*
X156713574Y-98511189D01*
X156713574Y-98511189D02*
X156701670Y-98487380D01*
X156701670Y-98487380D02*
X156689765Y-98475475D01*
X156689765Y-98475475D02*
X156665955Y-98463570D01*
X156665955Y-98463570D02*
X156618336Y-98463570D01*
X156618336Y-98463570D02*
X156594527Y-98475475D01*
X156594527Y-98475475D02*
X156582622Y-98487380D01*
X156582622Y-98487380D02*
X156570717Y-98511189D01*
D10*
X160660885Y-98902256D02*
X159660885Y-98902256D01*
X159660885Y-98902256D02*
X160660885Y-98330828D01*
X160660885Y-98330828D02*
X159660885Y-98330828D01*
X160565646Y-97283209D02*
X160613266Y-97330828D01*
X160613266Y-97330828D02*
X160660885Y-97473685D01*
X160660885Y-97473685D02*
X160660885Y-97568923D01*
X160660885Y-97568923D02*
X160613266Y-97711780D01*
X160613266Y-97711780D02*
X160518027Y-97807018D01*
X160518027Y-97807018D02*
X160422789Y-97854637D01*
X160422789Y-97854637D02*
X160232313Y-97902256D01*
X160232313Y-97902256D02*
X160089456Y-97902256D01*
X160089456Y-97902256D02*
X159898980Y-97854637D01*
X159898980Y-97854637D02*
X159803742Y-97807018D01*
X159803742Y-97807018D02*
X159708504Y-97711780D01*
X159708504Y-97711780D02*
X159660885Y-97568923D01*
X159660885Y-97568923D02*
X159660885Y-97473685D01*
X159660885Y-97473685D02*
X159708504Y-97330828D01*
X159708504Y-97330828D02*
X159756123Y-97283209D01*
X160660885Y-96854637D02*
X159660885Y-96854637D01*
X159660885Y-96854637D02*
X159660885Y-96473685D01*
X159660885Y-96473685D02*
X159708504Y-96378447D01*
X159708504Y-96378447D02*
X159756123Y-96330828D01*
X159756123Y-96330828D02*
X159851361Y-96283209D01*
X159851361Y-96283209D02*
X159994218Y-96283209D01*
X159994218Y-96283209D02*
X160089456Y-96330828D01*
X160089456Y-96330828D02*
X160137075Y-96378447D01*
X160137075Y-96378447D02*
X160184694Y-96473685D01*
X160184694Y-96473685D02*
X160184694Y-96854637D01*
X160660885Y-95330828D02*
X160660885Y-95902256D01*
X160660885Y-95616542D02*
X159660885Y-95616542D01*
X159660885Y-95616542D02*
X159803742Y-95711780D01*
X159803742Y-95711780D02*
X159898980Y-95807018D01*
X159898980Y-95807018D02*
X159946599Y-95902256D01*
X160660885Y-94378447D02*
X160660885Y-94949875D01*
X160660885Y-94664161D02*
X159660885Y-94664161D01*
X159660885Y-94664161D02*
X159803742Y-94759399D01*
X159803742Y-94759399D02*
X159898980Y-94854637D01*
X159898980Y-94854637D02*
X159946599Y-94949875D01*
X160660885Y-93426066D02*
X160660885Y-93997494D01*
X160660885Y-93711780D02*
X159660885Y-93711780D01*
X159660885Y-93711780D02*
X159803742Y-93807018D01*
X159803742Y-93807018D02*
X159898980Y-93902256D01*
X159898980Y-93902256D02*
X159946599Y-93997494D01*
X159660885Y-93092732D02*
X159660885Y-92426066D01*
X159660885Y-92426066D02*
X160660885Y-92854637D01*
X160279932Y-92045113D02*
X160279932Y-91283209D01*
X159660885Y-90902256D02*
X159660885Y-90283209D01*
X159660885Y-90283209D02*
X160041837Y-90616542D01*
X160041837Y-90616542D02*
X160041837Y-90473685D01*
X160041837Y-90473685D02*
X160089456Y-90378447D01*
X160089456Y-90378447D02*
X160137075Y-90330828D01*
X160137075Y-90330828D02*
X160232313Y-90283209D01*
X160232313Y-90283209D02*
X160470408Y-90283209D01*
X160470408Y-90283209D02*
X160565646Y-90330828D01*
X160565646Y-90330828D02*
X160613266Y-90378447D01*
X160613266Y-90378447D02*
X160660885Y-90473685D01*
X160660885Y-90473685D02*
X160660885Y-90759399D01*
X160660885Y-90759399D02*
X160613266Y-90854637D01*
X160613266Y-90854637D02*
X160565646Y-90902256D01*
X160565646Y-89854637D02*
X160613266Y-89807018D01*
X160613266Y-89807018D02*
X160660885Y-89854637D01*
X160660885Y-89854637D02*
X160613266Y-89902256D01*
X160613266Y-89902256D02*
X160565646Y-89854637D01*
X160565646Y-89854637D02*
X160660885Y-89854637D01*
X159660885Y-89473685D02*
X159660885Y-88854638D01*
X159660885Y-88854638D02*
X160041837Y-89187971D01*
X160041837Y-89187971D02*
X160041837Y-89045114D01*
X160041837Y-89045114D02*
X160089456Y-88949876D01*
X160089456Y-88949876D02*
X160137075Y-88902257D01*
X160137075Y-88902257D02*
X160232313Y-88854638D01*
X160232313Y-88854638D02*
X160470408Y-88854638D01*
X160470408Y-88854638D02*
X160565646Y-88902257D01*
X160565646Y-88902257D02*
X160613266Y-88949876D01*
X160613266Y-88949876D02*
X160660885Y-89045114D01*
X160660885Y-89045114D02*
X160660885Y-89330828D01*
X160660885Y-89330828D02*
X160613266Y-89426066D01*
X160613266Y-89426066D02*
X160565646Y-89473685D01*
X160756123Y-88664162D02*
X160756123Y-87902257D01*
X160613266Y-87711780D02*
X160660885Y-87568923D01*
X160660885Y-87568923D02*
X160660885Y-87330828D01*
X160660885Y-87330828D02*
X160613266Y-87235590D01*
X160613266Y-87235590D02*
X160565646Y-87187971D01*
X160565646Y-87187971D02*
X160470408Y-87140352D01*
X160470408Y-87140352D02*
X160375170Y-87140352D01*
X160375170Y-87140352D02*
X160279932Y-87187971D01*
X160279932Y-87187971D02*
X160232313Y-87235590D01*
X160232313Y-87235590D02*
X160184694Y-87330828D01*
X160184694Y-87330828D02*
X160137075Y-87521304D01*
X160137075Y-87521304D02*
X160089456Y-87616542D01*
X160089456Y-87616542D02*
X160041837Y-87664161D01*
X160041837Y-87664161D02*
X159946599Y-87711780D01*
X159946599Y-87711780D02*
X159851361Y-87711780D01*
X159851361Y-87711780D02*
X159756123Y-87664161D01*
X159756123Y-87664161D02*
X159708504Y-87616542D01*
X159708504Y-87616542D02*
X159660885Y-87521304D01*
X159660885Y-87521304D02*
X159660885Y-87283209D01*
X159660885Y-87283209D02*
X159708504Y-87140352D01*
X159660885Y-86521304D02*
X159660885Y-86330828D01*
X159660885Y-86330828D02*
X159708504Y-86235590D01*
X159708504Y-86235590D02*
X159803742Y-86140352D01*
X159803742Y-86140352D02*
X159994218Y-86092733D01*
X159994218Y-86092733D02*
X160327551Y-86092733D01*
X160327551Y-86092733D02*
X160518027Y-86140352D01*
X160518027Y-86140352D02*
X160613266Y-86235590D01*
X160613266Y-86235590D02*
X160660885Y-86330828D01*
X160660885Y-86330828D02*
X160660885Y-86521304D01*
X160660885Y-86521304D02*
X160613266Y-86616542D01*
X160613266Y-86616542D02*
X160518027Y-86711780D01*
X160518027Y-86711780D02*
X160327551Y-86759399D01*
X160327551Y-86759399D02*
X159994218Y-86759399D01*
X159994218Y-86759399D02*
X159803742Y-86711780D01*
X159803742Y-86711780D02*
X159708504Y-86616542D01*
X159708504Y-86616542D02*
X159660885Y-86521304D01*
X159660885Y-85807018D02*
X159660885Y-85235590D01*
X160660885Y-85521304D02*
X159660885Y-85521304D01*
X159756123Y-84949875D02*
X159708504Y-84902256D01*
X159708504Y-84902256D02*
X159660885Y-84807018D01*
X159660885Y-84807018D02*
X159660885Y-84568923D01*
X159660885Y-84568923D02*
X159708504Y-84473685D01*
X159708504Y-84473685D02*
X159756123Y-84426066D01*
X159756123Y-84426066D02*
X159851361Y-84378447D01*
X159851361Y-84378447D02*
X159946599Y-84378447D01*
X159946599Y-84378447D02*
X160089456Y-84426066D01*
X160089456Y-84426066D02*
X160660885Y-84997494D01*
X160660885Y-84997494D02*
X160660885Y-84378447D01*
X159756123Y-83997494D02*
X159708504Y-83949875D01*
X159708504Y-83949875D02*
X159660885Y-83854637D01*
X159660885Y-83854637D02*
X159660885Y-83616542D01*
X159660885Y-83616542D02*
X159708504Y-83521304D01*
X159708504Y-83521304D02*
X159756123Y-83473685D01*
X159756123Y-83473685D02*
X159851361Y-83426066D01*
X159851361Y-83426066D02*
X159946599Y-83426066D01*
X159946599Y-83426066D02*
X160089456Y-83473685D01*
X160089456Y-83473685D02*
X160660885Y-84045113D01*
X160660885Y-84045113D02*
X160660885Y-83426066D01*
X159660885Y-83092732D02*
X159660885Y-82473685D01*
X159660885Y-82473685D02*
X160041837Y-82807018D01*
X160041837Y-82807018D02*
X160041837Y-82664161D01*
X160041837Y-82664161D02*
X160089456Y-82568923D01*
X160089456Y-82568923D02*
X160137075Y-82521304D01*
X160137075Y-82521304D02*
X160232313Y-82473685D01*
X160232313Y-82473685D02*
X160470408Y-82473685D01*
X160470408Y-82473685D02*
X160565646Y-82521304D01*
X160565646Y-82521304D02*
X160613266Y-82568923D01*
X160613266Y-82568923D02*
X160660885Y-82664161D01*
X160660885Y-82664161D02*
X160660885Y-82949875D01*
X160660885Y-82949875D02*
X160613266Y-83045113D01*
X160613266Y-83045113D02*
X160565646Y-83092732D01*
D13*
X164096542Y-90275636D02*
X164096542Y-90923255D01*
X164096542Y-90923255D02*
X164134637Y-90999445D01*
X164134637Y-90999445D02*
X164172732Y-91037541D01*
X164172732Y-91037541D02*
X164248923Y-91075636D01*
X164248923Y-91075636D02*
X164401304Y-91075636D01*
X164401304Y-91075636D02*
X164477494Y-91037541D01*
X164477494Y-91037541D02*
X164515589Y-90999445D01*
X164515589Y-90999445D02*
X164553685Y-90923255D01*
X164553685Y-90923255D02*
X164553685Y-90275636D01*
X165353684Y-91075636D02*
X164896541Y-91075636D01*
X165125113Y-91075636D02*
X165125113Y-90275636D01*
X165125113Y-90275636D02*
X165048922Y-90389921D01*
X165048922Y-90389921D02*
X164972732Y-90466112D01*
X164972732Y-90466112D02*
X164896541Y-90504207D01*
D10*
X154914819Y-98839047D02*
X154914819Y-99410475D01*
X154914819Y-99124761D02*
X153914819Y-99124761D01*
X153914819Y-99124761D02*
X154057676Y-99219999D01*
X154057676Y-99219999D02*
X154152914Y-99315237D01*
X154152914Y-99315237D02*
X154200533Y-99410475D01*
X153914819Y-98219999D02*
X153914819Y-98124761D01*
X153914819Y-98124761D02*
X153962438Y-98029523D01*
X153962438Y-98029523D02*
X154010057Y-97981904D01*
X154010057Y-97981904D02*
X154105295Y-97934285D01*
X154105295Y-97934285D02*
X154295771Y-97886666D01*
X154295771Y-97886666D02*
X154533866Y-97886666D01*
X154533866Y-97886666D02*
X154724342Y-97934285D01*
X154724342Y-97934285D02*
X154819580Y-97981904D01*
X154819580Y-97981904D02*
X154867200Y-98029523D01*
X154867200Y-98029523D02*
X154914819Y-98124761D01*
X154914819Y-98124761D02*
X154914819Y-98219999D01*
X154914819Y-98219999D02*
X154867200Y-98315237D01*
X154867200Y-98315237D02*
X154819580Y-98362856D01*
X154819580Y-98362856D02*
X154724342Y-98410475D01*
X154724342Y-98410475D02*
X154533866Y-98458094D01*
X154533866Y-98458094D02*
X154295771Y-98458094D01*
X154295771Y-98458094D02*
X154105295Y-98410475D01*
X154105295Y-98410475D02*
X154010057Y-98362856D01*
X154010057Y-98362856D02*
X153962438Y-98315237D01*
X153962438Y-98315237D02*
X153914819Y-98219999D01*
X153914819Y-97267618D02*
X153914819Y-97172380D01*
X153914819Y-97172380D02*
X153962438Y-97077142D01*
X153962438Y-97077142D02*
X154010057Y-97029523D01*
X154010057Y-97029523D02*
X154105295Y-96981904D01*
X154105295Y-96981904D02*
X154295771Y-96934285D01*
X154295771Y-96934285D02*
X154533866Y-96934285D01*
X154533866Y-96934285D02*
X154724342Y-96981904D01*
X154724342Y-96981904D02*
X154819580Y-97029523D01*
X154819580Y-97029523D02*
X154867200Y-97077142D01*
X154867200Y-97077142D02*
X154914819Y-97172380D01*
X154914819Y-97172380D02*
X154914819Y-97267618D01*
X154914819Y-97267618D02*
X154867200Y-97362856D01*
X154867200Y-97362856D02*
X154819580Y-97410475D01*
X154819580Y-97410475D02*
X154724342Y-97458094D01*
X154724342Y-97458094D02*
X154533866Y-97505713D01*
X154533866Y-97505713D02*
X154295771Y-97505713D01*
X154295771Y-97505713D02*
X154105295Y-97458094D01*
X154105295Y-97458094D02*
X154010057Y-97410475D01*
X154010057Y-97410475D02*
X153962438Y-97362856D01*
X153962438Y-97362856D02*
X153914819Y-97267618D01*
X154248152Y-96505713D02*
X154914819Y-96505713D01*
X154343390Y-96505713D02*
X154295771Y-96458094D01*
X154295771Y-96458094D02*
X154248152Y-96362856D01*
X154248152Y-96362856D02*
X154248152Y-96219999D01*
X154248152Y-96219999D02*
X154295771Y-96124761D01*
X154295771Y-96124761D02*
X154391009Y-96077142D01*
X154391009Y-96077142D02*
X154914819Y-96077142D01*
D11*
X153389765Y-97880714D02*
X153401670Y-97892618D01*
X153401670Y-97892618D02*
X153413574Y-97928333D01*
X153413574Y-97928333D02*
X153413574Y-97952142D01*
X153413574Y-97952142D02*
X153401670Y-97987856D01*
X153401670Y-97987856D02*
X153377860Y-98011666D01*
X153377860Y-98011666D02*
X153354050Y-98023571D01*
X153354050Y-98023571D02*
X153306431Y-98035475D01*
X153306431Y-98035475D02*
X153270717Y-98035475D01*
X153270717Y-98035475D02*
X153223098Y-98023571D01*
X153223098Y-98023571D02*
X153199289Y-98011666D01*
X153199289Y-98011666D02*
X153175479Y-97987856D01*
X153175479Y-97987856D02*
X153163574Y-97952142D01*
X153163574Y-97952142D02*
X153163574Y-97928333D01*
X153163574Y-97928333D02*
X153175479Y-97892618D01*
X153175479Y-97892618D02*
X153187384Y-97880714D01*
X153413574Y-97642618D02*
X153413574Y-97785475D01*
X153413574Y-97714047D02*
X153163574Y-97714047D01*
X153163574Y-97714047D02*
X153199289Y-97737856D01*
X153199289Y-97737856D02*
X153223098Y-97761666D01*
X153223098Y-97761666D02*
X153235003Y-97785475D01*
X153187384Y-97547380D02*
X153175479Y-97535476D01*
X153175479Y-97535476D02*
X153163574Y-97511666D01*
X153163574Y-97511666D02*
X153163574Y-97452142D01*
X153163574Y-97452142D02*
X153175479Y-97428333D01*
X153175479Y-97428333D02*
X153187384Y-97416428D01*
X153187384Y-97416428D02*
X153211193Y-97404523D01*
X153211193Y-97404523D02*
X153235003Y-97404523D01*
X153235003Y-97404523D02*
X153270717Y-97416428D01*
X153270717Y-97416428D02*
X153413574Y-97559285D01*
X153413574Y-97559285D02*
X153413574Y-97404523D01*
D10*
X139430952Y-100564819D02*
X138859524Y-100564819D01*
X139145238Y-100564819D02*
X139145238Y-99564819D01*
X139145238Y-99564819D02*
X139050000Y-99707676D01*
X139050000Y-99707676D02*
X138954762Y-99802914D01*
X138954762Y-99802914D02*
X138859524Y-99850533D01*
X140050000Y-99564819D02*
X140145238Y-99564819D01*
X140145238Y-99564819D02*
X140240476Y-99612438D01*
X140240476Y-99612438D02*
X140288095Y-99660057D01*
X140288095Y-99660057D02*
X140335714Y-99755295D01*
X140335714Y-99755295D02*
X140383333Y-99945771D01*
X140383333Y-99945771D02*
X140383333Y-100183866D01*
X140383333Y-100183866D02*
X140335714Y-100374342D01*
X140335714Y-100374342D02*
X140288095Y-100469580D01*
X140288095Y-100469580D02*
X140240476Y-100517200D01*
X140240476Y-100517200D02*
X140145238Y-100564819D01*
X140145238Y-100564819D02*
X140050000Y-100564819D01*
X140050000Y-100564819D02*
X139954762Y-100517200D01*
X139954762Y-100517200D02*
X139907143Y-100469580D01*
X139907143Y-100469580D02*
X139859524Y-100374342D01*
X139859524Y-100374342D02*
X139811905Y-100183866D01*
X139811905Y-100183866D02*
X139811905Y-99945771D01*
X139811905Y-99945771D02*
X139859524Y-99755295D01*
X139859524Y-99755295D02*
X139907143Y-99660057D01*
X139907143Y-99660057D02*
X139954762Y-99612438D01*
X139954762Y-99612438D02*
X140050000Y-99564819D01*
X141002381Y-99564819D02*
X141097619Y-99564819D01*
X141097619Y-99564819D02*
X141192857Y-99612438D01*
X141192857Y-99612438D02*
X141240476Y-99660057D01*
X141240476Y-99660057D02*
X141288095Y-99755295D01*
X141288095Y-99755295D02*
X141335714Y-99945771D01*
X141335714Y-99945771D02*
X141335714Y-100183866D01*
X141335714Y-100183866D02*
X141288095Y-100374342D01*
X141288095Y-100374342D02*
X141240476Y-100469580D01*
X141240476Y-100469580D02*
X141192857Y-100517200D01*
X141192857Y-100517200D02*
X141097619Y-100564819D01*
X141097619Y-100564819D02*
X141002381Y-100564819D01*
X141002381Y-100564819D02*
X140907143Y-100517200D01*
X140907143Y-100517200D02*
X140859524Y-100469580D01*
X140859524Y-100469580D02*
X140811905Y-100374342D01*
X140811905Y-100374342D02*
X140764286Y-100183866D01*
X140764286Y-100183866D02*
X140764286Y-99945771D01*
X140764286Y-99945771D02*
X140811905Y-99755295D01*
X140811905Y-99755295D02*
X140859524Y-99660057D01*
X140859524Y-99660057D02*
X140907143Y-99612438D01*
X140907143Y-99612438D02*
X141002381Y-99564819D01*
X141764286Y-99898152D02*
X141764286Y-100564819D01*
X141764286Y-99993390D02*
X141811905Y-99945771D01*
X141811905Y-99945771D02*
X141907143Y-99898152D01*
X141907143Y-99898152D02*
X142050000Y-99898152D01*
X142050000Y-99898152D02*
X142145238Y-99945771D01*
X142145238Y-99945771D02*
X142192857Y-100041009D01*
X142192857Y-100041009D02*
X142192857Y-100564819D01*
D11*
X140508333Y-101359765D02*
X140496429Y-101371670D01*
X140496429Y-101371670D02*
X140460714Y-101383574D01*
X140460714Y-101383574D02*
X140436905Y-101383574D01*
X140436905Y-101383574D02*
X140401191Y-101371670D01*
X140401191Y-101371670D02*
X140377381Y-101347860D01*
X140377381Y-101347860D02*
X140365476Y-101324050D01*
X140365476Y-101324050D02*
X140353572Y-101276431D01*
X140353572Y-101276431D02*
X140353572Y-101240717D01*
X140353572Y-101240717D02*
X140365476Y-101193098D01*
X140365476Y-101193098D02*
X140377381Y-101169289D01*
X140377381Y-101169289D02*
X140401191Y-101145479D01*
X140401191Y-101145479D02*
X140436905Y-101133574D01*
X140436905Y-101133574D02*
X140460714Y-101133574D01*
X140460714Y-101133574D02*
X140496429Y-101145479D01*
X140496429Y-101145479D02*
X140508333Y-101157384D01*
X140734524Y-101133574D02*
X140615476Y-101133574D01*
X140615476Y-101133574D02*
X140603572Y-101252622D01*
X140603572Y-101252622D02*
X140615476Y-101240717D01*
X140615476Y-101240717D02*
X140639286Y-101228812D01*
X140639286Y-101228812D02*
X140698810Y-101228812D01*
X140698810Y-101228812D02*
X140722619Y-101240717D01*
X140722619Y-101240717D02*
X140734524Y-101252622D01*
X140734524Y-101252622D02*
X140746429Y-101276431D01*
X140746429Y-101276431D02*
X140746429Y-101335955D01*
X140746429Y-101335955D02*
X140734524Y-101359765D01*
X140734524Y-101359765D02*
X140722619Y-101371670D01*
X140722619Y-101371670D02*
X140698810Y-101383574D01*
X140698810Y-101383574D02*
X140639286Y-101383574D01*
X140639286Y-101383574D02*
X140615476Y-101371670D01*
X140615476Y-101371670D02*
X140603572Y-101359765D01*
D10*
X153764819Y-98810828D02*
X153764819Y-99382256D01*
X153764819Y-99096542D02*
X152764819Y-99096542D01*
X152764819Y-99096542D02*
X152907676Y-99191780D01*
X152907676Y-99191780D02*
X153002914Y-99287018D01*
X153002914Y-99287018D02*
X153050533Y-99382256D01*
X152764819Y-98191780D02*
X152764819Y-98096542D01*
X152764819Y-98096542D02*
X152812438Y-98001304D01*
X152812438Y-98001304D02*
X152860057Y-97953685D01*
X152860057Y-97953685D02*
X152955295Y-97906066D01*
X152955295Y-97906066D02*
X153145771Y-97858447D01*
X153145771Y-97858447D02*
X153383866Y-97858447D01*
X153383866Y-97858447D02*
X153574342Y-97906066D01*
X153574342Y-97906066D02*
X153669580Y-97953685D01*
X153669580Y-97953685D02*
X153717200Y-98001304D01*
X153717200Y-98001304D02*
X153764819Y-98096542D01*
X153764819Y-98096542D02*
X153764819Y-98191780D01*
X153764819Y-98191780D02*
X153717200Y-98287018D01*
X153717200Y-98287018D02*
X153669580Y-98334637D01*
X153669580Y-98334637D02*
X153574342Y-98382256D01*
X153574342Y-98382256D02*
X153383866Y-98429875D01*
X153383866Y-98429875D02*
X153145771Y-98429875D01*
X153145771Y-98429875D02*
X152955295Y-98382256D01*
X152955295Y-98382256D02*
X152860057Y-98334637D01*
X152860057Y-98334637D02*
X152812438Y-98287018D01*
X152812438Y-98287018D02*
X152764819Y-98191780D01*
X152764819Y-97239399D02*
X152764819Y-97144161D01*
X152764819Y-97144161D02*
X152812438Y-97048923D01*
X152812438Y-97048923D02*
X152860057Y-97001304D01*
X152860057Y-97001304D02*
X152955295Y-96953685D01*
X152955295Y-96953685D02*
X153145771Y-96906066D01*
X153145771Y-96906066D02*
X153383866Y-96906066D01*
X153383866Y-96906066D02*
X153574342Y-96953685D01*
X153574342Y-96953685D02*
X153669580Y-97001304D01*
X153669580Y-97001304D02*
X153717200Y-97048923D01*
X153717200Y-97048923D02*
X153764819Y-97144161D01*
X153764819Y-97144161D02*
X153764819Y-97239399D01*
X153764819Y-97239399D02*
X153717200Y-97334637D01*
X153717200Y-97334637D02*
X153669580Y-97382256D01*
X153669580Y-97382256D02*
X153574342Y-97429875D01*
X153574342Y-97429875D02*
X153383866Y-97477494D01*
X153383866Y-97477494D02*
X153145771Y-97477494D01*
X153145771Y-97477494D02*
X152955295Y-97429875D01*
X152955295Y-97429875D02*
X152860057Y-97382256D01*
X152860057Y-97382256D02*
X152812438Y-97334637D01*
X152812438Y-97334637D02*
X152764819Y-97239399D01*
X153098152Y-96477494D02*
X153764819Y-96477494D01*
X153193390Y-96477494D02*
X153145771Y-96429875D01*
X153145771Y-96429875D02*
X153098152Y-96334637D01*
X153098152Y-96334637D02*
X153098152Y-96191780D01*
X153098152Y-96191780D02*
X153145771Y-96096542D01*
X153145771Y-96096542D02*
X153241009Y-96048923D01*
X153241009Y-96048923D02*
X153764819Y-96048923D01*
D11*
X152239765Y-97733447D02*
X152251670Y-97745351D01*
X152251670Y-97745351D02*
X152263574Y-97781066D01*
X152263574Y-97781066D02*
X152263574Y-97804875D01*
X152263574Y-97804875D02*
X152251670Y-97840589D01*
X152251670Y-97840589D02*
X152227860Y-97864399D01*
X152227860Y-97864399D02*
X152204050Y-97876304D01*
X152204050Y-97876304D02*
X152156431Y-97888208D01*
X152156431Y-97888208D02*
X152120717Y-97888208D01*
X152120717Y-97888208D02*
X152073098Y-97876304D01*
X152073098Y-97876304D02*
X152049289Y-97864399D01*
X152049289Y-97864399D02*
X152025479Y-97840589D01*
X152025479Y-97840589D02*
X152013574Y-97804875D01*
X152013574Y-97804875D02*
X152013574Y-97781066D01*
X152013574Y-97781066D02*
X152025479Y-97745351D01*
X152025479Y-97745351D02*
X152037384Y-97733447D01*
X152013574Y-97650113D02*
X152013574Y-97483447D01*
X152013574Y-97483447D02*
X152263574Y-97590589D01*
D10*
X127120351Y-85366600D02*
X127120351Y-84366600D01*
X127120351Y-84366600D02*
X127453684Y-85080885D01*
X127453684Y-85080885D02*
X127787017Y-84366600D01*
X127787017Y-84366600D02*
X127787017Y-85366600D01*
X128406065Y-85366600D02*
X128310827Y-85318981D01*
X128310827Y-85318981D02*
X128263208Y-85271361D01*
X128263208Y-85271361D02*
X128215589Y-85176123D01*
X128215589Y-85176123D02*
X128215589Y-84890409D01*
X128215589Y-84890409D02*
X128263208Y-84795171D01*
X128263208Y-84795171D02*
X128310827Y-84747552D01*
X128310827Y-84747552D02*
X128406065Y-84699933D01*
X128406065Y-84699933D02*
X128548922Y-84699933D01*
X128548922Y-84699933D02*
X128644160Y-84747552D01*
X128644160Y-84747552D02*
X128691779Y-84795171D01*
X128691779Y-84795171D02*
X128739398Y-84890409D01*
X128739398Y-84890409D02*
X128739398Y-85176123D01*
X128739398Y-85176123D02*
X128691779Y-85271361D01*
X128691779Y-85271361D02*
X128644160Y-85318981D01*
X128644160Y-85318981D02*
X128548922Y-85366600D01*
X128548922Y-85366600D02*
X128406065Y-85366600D01*
X129596541Y-84699933D02*
X129596541Y-85366600D01*
X129167970Y-84699933D02*
X129167970Y-85223742D01*
X129167970Y-85223742D02*
X129215589Y-85318981D01*
X129215589Y-85318981D02*
X129310827Y-85366600D01*
X129310827Y-85366600D02*
X129453684Y-85366600D01*
X129453684Y-85366600D02*
X129548922Y-85318981D01*
X129548922Y-85318981D02*
X129596541Y-85271361D01*
X130072732Y-84699933D02*
X130072732Y-85366600D01*
X130072732Y-84795171D02*
X130120351Y-84747552D01*
X130120351Y-84747552D02*
X130215589Y-84699933D01*
X130215589Y-84699933D02*
X130358446Y-84699933D01*
X130358446Y-84699933D02*
X130453684Y-84747552D01*
X130453684Y-84747552D02*
X130501303Y-84842790D01*
X130501303Y-84842790D02*
X130501303Y-85366600D01*
X130834637Y-84699933D02*
X131215589Y-84699933D01*
X130977494Y-84366600D02*
X130977494Y-85223742D01*
X130977494Y-85223742D02*
X131025113Y-85318981D01*
X131025113Y-85318981D02*
X131120351Y-85366600D01*
X131120351Y-85366600D02*
X131215589Y-85366600D01*
X131548923Y-85366600D02*
X131548923Y-84699933D01*
X131548923Y-84366600D02*
X131501304Y-84414219D01*
X131501304Y-84414219D02*
X131548923Y-84461838D01*
X131548923Y-84461838D02*
X131596542Y-84414219D01*
X131596542Y-84414219D02*
X131548923Y-84366600D01*
X131548923Y-84366600D02*
X131548923Y-84461838D01*
X132025113Y-84699933D02*
X132025113Y-85366600D01*
X132025113Y-84795171D02*
X132072732Y-84747552D01*
X132072732Y-84747552D02*
X132167970Y-84699933D01*
X132167970Y-84699933D02*
X132310827Y-84699933D01*
X132310827Y-84699933D02*
X132406065Y-84747552D01*
X132406065Y-84747552D02*
X132453684Y-84842790D01*
X132453684Y-84842790D02*
X132453684Y-85366600D01*
X133358446Y-84699933D02*
X133358446Y-85509457D01*
X133358446Y-85509457D02*
X133310827Y-85604695D01*
X133310827Y-85604695D02*
X133263208Y-85652314D01*
X133263208Y-85652314D02*
X133167970Y-85699933D01*
X133167970Y-85699933D02*
X133025113Y-85699933D01*
X133025113Y-85699933D02*
X132929875Y-85652314D01*
X133358446Y-85318981D02*
X133263208Y-85366600D01*
X133263208Y-85366600D02*
X133072732Y-85366600D01*
X133072732Y-85366600D02*
X132977494Y-85318981D01*
X132977494Y-85318981D02*
X132929875Y-85271361D01*
X132929875Y-85271361D02*
X132882256Y-85176123D01*
X132882256Y-85176123D02*
X132882256Y-84890409D01*
X132882256Y-84890409D02*
X132929875Y-84795171D01*
X132929875Y-84795171D02*
X132977494Y-84747552D01*
X132977494Y-84747552D02*
X133072732Y-84699933D01*
X133072732Y-84699933D02*
X133263208Y-84699933D01*
X133263208Y-84699933D02*
X133358446Y-84747552D01*
X133834637Y-85366600D02*
X133834637Y-84366600D01*
X133834637Y-84842790D02*
X134406065Y-84842790D01*
X134406065Y-85366600D02*
X134406065Y-84366600D01*
X135025113Y-85366600D02*
X134929875Y-85318981D01*
X134929875Y-85318981D02*
X134882256Y-85271361D01*
X134882256Y-85271361D02*
X134834637Y-85176123D01*
X134834637Y-85176123D02*
X134834637Y-84890409D01*
X134834637Y-84890409D02*
X134882256Y-84795171D01*
X134882256Y-84795171D02*
X134929875Y-84747552D01*
X134929875Y-84747552D02*
X135025113Y-84699933D01*
X135025113Y-84699933D02*
X135167970Y-84699933D01*
X135167970Y-84699933D02*
X135263208Y-84747552D01*
X135263208Y-84747552D02*
X135310827Y-84795171D01*
X135310827Y-84795171D02*
X135358446Y-84890409D01*
X135358446Y-84890409D02*
X135358446Y-85176123D01*
X135358446Y-85176123D02*
X135310827Y-85271361D01*
X135310827Y-85271361D02*
X135263208Y-85318981D01*
X135263208Y-85318981D02*
X135167970Y-85366600D01*
X135167970Y-85366600D02*
X135025113Y-85366600D01*
X135929875Y-85366600D02*
X135834637Y-85318981D01*
X135834637Y-85318981D02*
X135787018Y-85223742D01*
X135787018Y-85223742D02*
X135787018Y-84366600D01*
X136691780Y-85318981D02*
X136596542Y-85366600D01*
X136596542Y-85366600D02*
X136406066Y-85366600D01*
X136406066Y-85366600D02*
X136310828Y-85318981D01*
X136310828Y-85318981D02*
X136263209Y-85223742D01*
X136263209Y-85223742D02*
X136263209Y-84842790D01*
X136263209Y-84842790D02*
X136310828Y-84747552D01*
X136310828Y-84747552D02*
X136406066Y-84699933D01*
X136406066Y-84699933D02*
X136596542Y-84699933D01*
X136596542Y-84699933D02*
X136691780Y-84747552D01*
X136691780Y-84747552D02*
X136739399Y-84842790D01*
X136739399Y-84842790D02*
X136739399Y-84938028D01*
X136739399Y-84938028D02*
X136263209Y-85033266D01*
X131144161Y-81666600D02*
X131144161Y-80666600D01*
X131144161Y-81142790D02*
X131715589Y-81142790D01*
X131715589Y-81666600D02*
X131715589Y-80666600D01*
X132715589Y-81666600D02*
X132144161Y-81666600D01*
X132429875Y-81666600D02*
X132429875Y-80666600D01*
X132429875Y-80666600D02*
X132334637Y-80809457D01*
X132334637Y-80809457D02*
X132239399Y-80904695D01*
X132239399Y-80904695D02*
X132144161Y-80952314D01*
X138254876Y-101368981D02*
X138397733Y-101416600D01*
X138397733Y-101416600D02*
X138635828Y-101416600D01*
X138635828Y-101416600D02*
X138731066Y-101368981D01*
X138731066Y-101368981D02*
X138778685Y-101321361D01*
X138778685Y-101321361D02*
X138826304Y-101226123D01*
X138826304Y-101226123D02*
X138826304Y-101130885D01*
X138826304Y-101130885D02*
X138778685Y-101035647D01*
X138778685Y-101035647D02*
X138731066Y-100988028D01*
X138731066Y-100988028D02*
X138635828Y-100940409D01*
X138635828Y-100940409D02*
X138445352Y-100892790D01*
X138445352Y-100892790D02*
X138350114Y-100845171D01*
X138350114Y-100845171D02*
X138302495Y-100797552D01*
X138302495Y-100797552D02*
X138254876Y-100702314D01*
X138254876Y-100702314D02*
X138254876Y-100607076D01*
X138254876Y-100607076D02*
X138302495Y-100511838D01*
X138302495Y-100511838D02*
X138350114Y-100464219D01*
X138350114Y-100464219D02*
X138445352Y-100416600D01*
X138445352Y-100416600D02*
X138683447Y-100416600D01*
X138683447Y-100416600D02*
X138826304Y-100464219D01*
X139254876Y-101416600D02*
X139254876Y-100416600D01*
X139254876Y-100892790D02*
X139826304Y-100892790D01*
X139826304Y-101416600D02*
X139826304Y-100416600D01*
X140159638Y-100416600D02*
X140731066Y-100416600D01*
X140445352Y-101416600D02*
X140445352Y-100416600D01*
X140969162Y-100416600D02*
X141588209Y-100416600D01*
X141588209Y-100416600D02*
X141254876Y-100797552D01*
X141254876Y-100797552D02*
X141397733Y-100797552D01*
X141397733Y-100797552D02*
X141492971Y-100845171D01*
X141492971Y-100845171D02*
X141540590Y-100892790D01*
X141540590Y-100892790D02*
X141588209Y-100988028D01*
X141588209Y-100988028D02*
X141588209Y-101226123D01*
X141588209Y-101226123D02*
X141540590Y-101321361D01*
X141540590Y-101321361D02*
X141492971Y-101368981D01*
X141492971Y-101368981D02*
X141397733Y-101416600D01*
X141397733Y-101416600D02*
X141112019Y-101416600D01*
X141112019Y-101416600D02*
X141016781Y-101368981D01*
X141016781Y-101368981D02*
X140969162Y-101321361D01*
X142540590Y-101416600D02*
X141969162Y-101416600D01*
X142254876Y-101416600D02*
X142254876Y-100416600D01*
X142254876Y-100416600D02*
X142159638Y-100559457D01*
X142159638Y-100559457D02*
X142064400Y-100654695D01*
X142064400Y-100654695D02*
X141969162Y-100702314D01*
X142969162Y-101035647D02*
X143731067Y-101035647D01*
X144207257Y-101416600D02*
X144207257Y-100416600D01*
X144207257Y-100416600D02*
X144445352Y-100416600D01*
X144445352Y-100416600D02*
X144588209Y-100464219D01*
X144588209Y-100464219D02*
X144683447Y-100559457D01*
X144683447Y-100559457D02*
X144731066Y-100654695D01*
X144731066Y-100654695D02*
X144778685Y-100845171D01*
X144778685Y-100845171D02*
X144778685Y-100988028D01*
X144778685Y-100988028D02*
X144731066Y-101178504D01*
X144731066Y-101178504D02*
X144683447Y-101273742D01*
X144683447Y-101273742D02*
X144588209Y-101368981D01*
X144588209Y-101368981D02*
X144445352Y-101416600D01*
X144445352Y-101416600D02*
X144207257Y-101416600D01*
X145207257Y-101416600D02*
X145207257Y-100416600D01*
X145635828Y-101368981D02*
X145778685Y-101416600D01*
X145778685Y-101416600D02*
X146016780Y-101416600D01*
X146016780Y-101416600D02*
X146112018Y-101368981D01*
X146112018Y-101368981D02*
X146159637Y-101321361D01*
X146159637Y-101321361D02*
X146207256Y-101226123D01*
X146207256Y-101226123D02*
X146207256Y-101130885D01*
X146207256Y-101130885D02*
X146159637Y-101035647D01*
X146159637Y-101035647D02*
X146112018Y-100988028D01*
X146112018Y-100988028D02*
X146016780Y-100940409D01*
X146016780Y-100940409D02*
X145826304Y-100892790D01*
X145826304Y-100892790D02*
X145731066Y-100845171D01*
X145731066Y-100845171D02*
X145683447Y-100797552D01*
X145683447Y-100797552D02*
X145635828Y-100702314D01*
X145635828Y-100702314D02*
X145635828Y-100607076D01*
X145635828Y-100607076D02*
X145683447Y-100511838D01*
X145683447Y-100511838D02*
X145731066Y-100464219D01*
X145731066Y-100464219D02*
X145826304Y-100416600D01*
X145826304Y-100416600D02*
X146064399Y-100416600D01*
X146064399Y-100416600D02*
X146207256Y-100464219D01*
D14*
X141926304Y-103243708D02*
X141926304Y-103567518D01*
X141926304Y-103567518D02*
X141945351Y-103605613D01*
X141945351Y-103605613D02*
X141964399Y-103624661D01*
X141964399Y-103624661D02*
X142002494Y-103643708D01*
X142002494Y-103643708D02*
X142078685Y-103643708D01*
X142078685Y-103643708D02*
X142116780Y-103624661D01*
X142116780Y-103624661D02*
X142135827Y-103605613D01*
X142135827Y-103605613D02*
X142154875Y-103567518D01*
X142154875Y-103567518D02*
X142154875Y-103243708D01*
X142516780Y-103377041D02*
X142516780Y-103643708D01*
X142421542Y-103224661D02*
X142326304Y-103510375D01*
X142326304Y-103510375D02*
X142573923Y-103510375D01*
D10*
X151373327Y-110286600D02*
X151039994Y-109810409D01*
X150801899Y-110286600D02*
X150801899Y-109286600D01*
X150801899Y-109286600D02*
X151182851Y-109286600D01*
X151182851Y-109286600D02*
X151278089Y-109334219D01*
X151278089Y-109334219D02*
X151325708Y-109381838D01*
X151325708Y-109381838D02*
X151373327Y-109477076D01*
X151373327Y-109477076D02*
X151373327Y-109619933D01*
X151373327Y-109619933D02*
X151325708Y-109715171D01*
X151325708Y-109715171D02*
X151278089Y-109762790D01*
X151278089Y-109762790D02*
X151182851Y-109810409D01*
X151182851Y-109810409D02*
X150801899Y-109810409D01*
X151801899Y-110286600D02*
X151801899Y-109286600D01*
X151801899Y-109286600D02*
X152182851Y-109286600D01*
X152182851Y-109286600D02*
X152278089Y-109334219D01*
X152278089Y-109334219D02*
X152325708Y-109381838D01*
X152325708Y-109381838D02*
X152373327Y-109477076D01*
X152373327Y-109477076D02*
X152373327Y-109619933D01*
X152373327Y-109619933D02*
X152325708Y-109715171D01*
X152325708Y-109715171D02*
X152278089Y-109762790D01*
X152278089Y-109762790D02*
X152182851Y-109810409D01*
X152182851Y-109810409D02*
X151801899Y-109810409D01*
X152754280Y-109381838D02*
X152801899Y-109334219D01*
X152801899Y-109334219D02*
X152897137Y-109286600D01*
X152897137Y-109286600D02*
X153135232Y-109286600D01*
X153135232Y-109286600D02*
X153230470Y-109334219D01*
X153230470Y-109334219D02*
X153278089Y-109381838D01*
X153278089Y-109381838D02*
X153325708Y-109477076D01*
X153325708Y-109477076D02*
X153325708Y-109572314D01*
X153325708Y-109572314D02*
X153278089Y-109715171D01*
X153278089Y-109715171D02*
X152706661Y-110286600D01*
X152706661Y-110286600D02*
X153325708Y-110286600D01*
X153944756Y-109286600D02*
X154039994Y-109286600D01*
X154039994Y-109286600D02*
X154135232Y-109334219D01*
X154135232Y-109334219D02*
X154182851Y-109381838D01*
X154182851Y-109381838D02*
X154230470Y-109477076D01*
X154230470Y-109477076D02*
X154278089Y-109667552D01*
X154278089Y-109667552D02*
X154278089Y-109905647D01*
X154278089Y-109905647D02*
X154230470Y-110096123D01*
X154230470Y-110096123D02*
X154182851Y-110191361D01*
X154182851Y-110191361D02*
X154135232Y-110238981D01*
X154135232Y-110238981D02*
X154039994Y-110286600D01*
X154039994Y-110286600D02*
X153944756Y-110286600D01*
X153944756Y-110286600D02*
X153849518Y-110238981D01*
X153849518Y-110238981D02*
X153801899Y-110191361D01*
X153801899Y-110191361D02*
X153754280Y-110096123D01*
X153754280Y-110096123D02*
X153706661Y-109905647D01*
X153706661Y-109905647D02*
X153706661Y-109667552D01*
X153706661Y-109667552D02*
X153754280Y-109477076D01*
X153754280Y-109477076D02*
X153801899Y-109381838D01*
X153801899Y-109381838D02*
X153849518Y-109334219D01*
X153849518Y-109334219D02*
X153944756Y-109286600D01*
X155135232Y-109619933D02*
X155135232Y-110286600D01*
X154897137Y-109238981D02*
X154659042Y-109953266D01*
X154659042Y-109953266D02*
X155278089Y-109953266D01*
X155849518Y-109286600D02*
X155944756Y-109286600D01*
X155944756Y-109286600D02*
X156039994Y-109334219D01*
X156039994Y-109334219D02*
X156087613Y-109381838D01*
X156087613Y-109381838D02*
X156135232Y-109477076D01*
X156135232Y-109477076D02*
X156182851Y-109667552D01*
X156182851Y-109667552D02*
X156182851Y-109905647D01*
X156182851Y-109905647D02*
X156135232Y-110096123D01*
X156135232Y-110096123D02*
X156087613Y-110191361D01*
X156087613Y-110191361D02*
X156039994Y-110238981D01*
X156039994Y-110238981D02*
X155944756Y-110286600D01*
X155944756Y-110286600D02*
X155849518Y-110286600D01*
X155849518Y-110286600D02*
X155754280Y-110238981D01*
X155754280Y-110238981D02*
X155706661Y-110191361D01*
X155706661Y-110191361D02*
X155659042Y-110096123D01*
X155659042Y-110096123D02*
X155611423Y-109905647D01*
X155611423Y-109905647D02*
X155611423Y-109667552D01*
X155611423Y-109667552D02*
X155659042Y-109477076D01*
X155659042Y-109477076D02*
X155706661Y-109381838D01*
X155706661Y-109381838D02*
X155754280Y-109334219D01*
X155754280Y-109334219D02*
X155849518Y-109286600D01*
X152706661Y-104466600D02*
X152706661Y-105276123D01*
X152706661Y-105276123D02*
X152754280Y-105371361D01*
X152754280Y-105371361D02*
X152801899Y-105418981D01*
X152801899Y-105418981D02*
X152897137Y-105466600D01*
X152897137Y-105466600D02*
X153087613Y-105466600D01*
X153087613Y-105466600D02*
X153182851Y-105418981D01*
X153182851Y-105418981D02*
X153230470Y-105371361D01*
X153230470Y-105371361D02*
X153278089Y-105276123D01*
X153278089Y-105276123D02*
X153278089Y-104466600D01*
X153659042Y-104466600D02*
X154278089Y-104466600D01*
X154278089Y-104466600D02*
X153944756Y-104847552D01*
X153944756Y-104847552D02*
X154087613Y-104847552D01*
X154087613Y-104847552D02*
X154182851Y-104895171D01*
X154182851Y-104895171D02*
X154230470Y-104942790D01*
X154230470Y-104942790D02*
X154278089Y-105038028D01*
X154278089Y-105038028D02*
X154278089Y-105276123D01*
X154278089Y-105276123D02*
X154230470Y-105371361D01*
X154230470Y-105371361D02*
X154182851Y-105418981D01*
X154182851Y-105418981D02*
X154087613Y-105466600D01*
X154087613Y-105466600D02*
X153801899Y-105466600D01*
X153801899Y-105466600D02*
X153706661Y-105418981D01*
X153706661Y-105418981D02*
X153659042Y-105371361D01*
X150407256Y-74346600D02*
X150407256Y-75156123D01*
X150407256Y-75156123D02*
X150454875Y-75251361D01*
X150454875Y-75251361D02*
X150502494Y-75298981D01*
X150502494Y-75298981D02*
X150597732Y-75346600D01*
X150597732Y-75346600D02*
X150788208Y-75346600D01*
X150788208Y-75346600D02*
X150883446Y-75298981D01*
X150883446Y-75298981D02*
X150931065Y-75251361D01*
X150931065Y-75251361D02*
X150978684Y-75156123D01*
X150978684Y-75156123D02*
X150978684Y-74346600D01*
X151407256Y-75298981D02*
X151550113Y-75346600D01*
X151550113Y-75346600D02*
X151788208Y-75346600D01*
X151788208Y-75346600D02*
X151883446Y-75298981D01*
X151883446Y-75298981D02*
X151931065Y-75251361D01*
X151931065Y-75251361D02*
X151978684Y-75156123D01*
X151978684Y-75156123D02*
X151978684Y-75060885D01*
X151978684Y-75060885D02*
X151931065Y-74965647D01*
X151931065Y-74965647D02*
X151883446Y-74918028D01*
X151883446Y-74918028D02*
X151788208Y-74870409D01*
X151788208Y-74870409D02*
X151597732Y-74822790D01*
X151597732Y-74822790D02*
X151502494Y-74775171D01*
X151502494Y-74775171D02*
X151454875Y-74727552D01*
X151454875Y-74727552D02*
X151407256Y-74632314D01*
X151407256Y-74632314D02*
X151407256Y-74537076D01*
X151407256Y-74537076D02*
X151454875Y-74441838D01*
X151454875Y-74441838D02*
X151502494Y-74394219D01*
X151502494Y-74394219D02*
X151597732Y-74346600D01*
X151597732Y-74346600D02*
X151835827Y-74346600D01*
X151835827Y-74346600D02*
X151978684Y-74394219D01*
X152740589Y-74822790D02*
X152883446Y-74870409D01*
X152883446Y-74870409D02*
X152931065Y-74918028D01*
X152931065Y-74918028D02*
X152978684Y-75013266D01*
X152978684Y-75013266D02*
X152978684Y-75156123D01*
X152978684Y-75156123D02*
X152931065Y-75251361D01*
X152931065Y-75251361D02*
X152883446Y-75298981D01*
X152883446Y-75298981D02*
X152788208Y-75346600D01*
X152788208Y-75346600D02*
X152407256Y-75346600D01*
X152407256Y-75346600D02*
X152407256Y-74346600D01*
X152407256Y-74346600D02*
X152740589Y-74346600D01*
X152740589Y-74346600D02*
X152835827Y-74394219D01*
X152835827Y-74394219D02*
X152883446Y-74441838D01*
X152883446Y-74441838D02*
X152931065Y-74537076D01*
X152931065Y-74537076D02*
X152931065Y-74632314D01*
X152931065Y-74632314D02*
X152883446Y-74727552D01*
X152883446Y-74727552D02*
X152835827Y-74775171D01*
X152835827Y-74775171D02*
X152740589Y-74822790D01*
X152740589Y-74822790D02*
X152407256Y-74822790D01*
X153169161Y-75441838D02*
X153931065Y-75441838D01*
X154502494Y-74822790D02*
X154645351Y-74870409D01*
X154645351Y-74870409D02*
X154692970Y-74918028D01*
X154692970Y-74918028D02*
X154740589Y-75013266D01*
X154740589Y-75013266D02*
X154740589Y-75156123D01*
X154740589Y-75156123D02*
X154692970Y-75251361D01*
X154692970Y-75251361D02*
X154645351Y-75298981D01*
X154645351Y-75298981D02*
X154550113Y-75346600D01*
X154550113Y-75346600D02*
X154169161Y-75346600D01*
X154169161Y-75346600D02*
X154169161Y-74346600D01*
X154169161Y-74346600D02*
X154502494Y-74346600D01*
X154502494Y-74346600D02*
X154597732Y-74394219D01*
X154597732Y-74394219D02*
X154645351Y-74441838D01*
X154645351Y-74441838D02*
X154692970Y-74537076D01*
X154692970Y-74537076D02*
X154692970Y-74632314D01*
X154692970Y-74632314D02*
X154645351Y-74727552D01*
X154645351Y-74727552D02*
X154597732Y-74775171D01*
X154597732Y-74775171D02*
X154502494Y-74822790D01*
X154502494Y-74822790D02*
X154169161Y-74822790D01*
X154931066Y-75441838D02*
X155692970Y-75441838D01*
X155931066Y-75346600D02*
X155931066Y-74346600D01*
X155931066Y-74346600D02*
X156264399Y-75060885D01*
X156264399Y-75060885D02*
X156597732Y-74346600D01*
X156597732Y-74346600D02*
X156597732Y-75346600D01*
X157073923Y-75346600D02*
X157073923Y-74679933D01*
X157073923Y-74346600D02*
X157026304Y-74394219D01*
X157026304Y-74394219D02*
X157073923Y-74441838D01*
X157073923Y-74441838D02*
X157121542Y-74394219D01*
X157121542Y-74394219D02*
X157073923Y-74346600D01*
X157073923Y-74346600D02*
X157073923Y-74441838D01*
X157978684Y-75298981D02*
X157883446Y-75346600D01*
X157883446Y-75346600D02*
X157692970Y-75346600D01*
X157692970Y-75346600D02*
X157597732Y-75298981D01*
X157597732Y-75298981D02*
X157550113Y-75251361D01*
X157550113Y-75251361D02*
X157502494Y-75156123D01*
X157502494Y-75156123D02*
X157502494Y-74870409D01*
X157502494Y-74870409D02*
X157550113Y-74775171D01*
X157550113Y-74775171D02*
X157597732Y-74727552D01*
X157597732Y-74727552D02*
X157692970Y-74679933D01*
X157692970Y-74679933D02*
X157883446Y-74679933D01*
X157883446Y-74679933D02*
X157978684Y-74727552D01*
X158407256Y-75346600D02*
X158407256Y-74679933D01*
X158407256Y-74870409D02*
X158454875Y-74775171D01*
X158454875Y-74775171D02*
X158502494Y-74727552D01*
X158502494Y-74727552D02*
X158597732Y-74679933D01*
X158597732Y-74679933D02*
X158692970Y-74679933D01*
X159169161Y-75346600D02*
X159073923Y-75298981D01*
X159073923Y-75298981D02*
X159026304Y-75251361D01*
X159026304Y-75251361D02*
X158978685Y-75156123D01*
X158978685Y-75156123D02*
X158978685Y-74870409D01*
X158978685Y-74870409D02*
X159026304Y-74775171D01*
X159026304Y-74775171D02*
X159073923Y-74727552D01*
X159073923Y-74727552D02*
X159169161Y-74679933D01*
X159169161Y-74679933D02*
X159312018Y-74679933D01*
X159312018Y-74679933D02*
X159407256Y-74727552D01*
X159407256Y-74727552D02*
X159454875Y-74775171D01*
X159454875Y-74775171D02*
X159502494Y-74870409D01*
X159502494Y-74870409D02*
X159502494Y-75156123D01*
X159502494Y-75156123D02*
X159454875Y-75251361D01*
X159454875Y-75251361D02*
X159407256Y-75298981D01*
X159407256Y-75298981D02*
X159312018Y-75346600D01*
X159312018Y-75346600D02*
X159169161Y-75346600D01*
X154597732Y-78796600D02*
X154597732Y-79510885D01*
X154597732Y-79510885D02*
X154550113Y-79653742D01*
X154550113Y-79653742D02*
X154454875Y-79748981D01*
X154454875Y-79748981D02*
X154312018Y-79796600D01*
X154312018Y-79796600D02*
X154216780Y-79796600D01*
X155026304Y-78891838D02*
X155073923Y-78844219D01*
X155073923Y-78844219D02*
X155169161Y-78796600D01*
X155169161Y-78796600D02*
X155407256Y-78796600D01*
X155407256Y-78796600D02*
X155502494Y-78844219D01*
X155502494Y-78844219D02*
X155550113Y-78891838D01*
X155550113Y-78891838D02*
X155597732Y-78987076D01*
X155597732Y-78987076D02*
X155597732Y-79082314D01*
X155597732Y-79082314D02*
X155550113Y-79225171D01*
X155550113Y-79225171D02*
X154978685Y-79796600D01*
X154978685Y-79796600D02*
X155597732Y-79796600D01*
X148696542Y-120480885D02*
X149172732Y-120480885D01*
X148601304Y-120766600D02*
X148934637Y-119766600D01*
X148934637Y-119766600D02*
X149267970Y-120766600D01*
X149934637Y-120242790D02*
X150077494Y-120290409D01*
X150077494Y-120290409D02*
X150125113Y-120338028D01*
X150125113Y-120338028D02*
X150172732Y-120433266D01*
X150172732Y-120433266D02*
X150172732Y-120576123D01*
X150172732Y-120576123D02*
X150125113Y-120671361D01*
X150125113Y-120671361D02*
X150077494Y-120718981D01*
X150077494Y-120718981D02*
X149982256Y-120766600D01*
X149982256Y-120766600D02*
X149601304Y-120766600D01*
X149601304Y-120766600D02*
X149601304Y-119766600D01*
X149601304Y-119766600D02*
X149934637Y-119766600D01*
X149934637Y-119766600D02*
X150029875Y-119814219D01*
X150029875Y-119814219D02*
X150077494Y-119861838D01*
X150077494Y-119861838D02*
X150125113Y-119957076D01*
X150125113Y-119957076D02*
X150125113Y-120052314D01*
X150125113Y-120052314D02*
X150077494Y-120147552D01*
X150077494Y-120147552D02*
X150029875Y-120195171D01*
X150029875Y-120195171D02*
X149934637Y-120242790D01*
X149934637Y-120242790D02*
X149601304Y-120242790D01*
X150601304Y-120766600D02*
X150601304Y-119766600D01*
X150601304Y-119766600D02*
X150934637Y-120480885D01*
X150934637Y-120480885D02*
X151267970Y-119766600D01*
X151267970Y-119766600D02*
X151267970Y-120766600D01*
X151887018Y-120195171D02*
X151791780Y-120147552D01*
X151791780Y-120147552D02*
X151744161Y-120099933D01*
X151744161Y-120099933D02*
X151696542Y-120004695D01*
X151696542Y-120004695D02*
X151696542Y-119957076D01*
X151696542Y-119957076D02*
X151744161Y-119861838D01*
X151744161Y-119861838D02*
X151791780Y-119814219D01*
X151791780Y-119814219D02*
X151887018Y-119766600D01*
X151887018Y-119766600D02*
X152077494Y-119766600D01*
X152077494Y-119766600D02*
X152172732Y-119814219D01*
X152172732Y-119814219D02*
X152220351Y-119861838D01*
X152220351Y-119861838D02*
X152267970Y-119957076D01*
X152267970Y-119957076D02*
X152267970Y-120004695D01*
X152267970Y-120004695D02*
X152220351Y-120099933D01*
X152220351Y-120099933D02*
X152172732Y-120147552D01*
X152172732Y-120147552D02*
X152077494Y-120195171D01*
X152077494Y-120195171D02*
X151887018Y-120195171D01*
X151887018Y-120195171D02*
X151791780Y-120242790D01*
X151791780Y-120242790D02*
X151744161Y-120290409D01*
X151744161Y-120290409D02*
X151696542Y-120385647D01*
X151696542Y-120385647D02*
X151696542Y-120576123D01*
X151696542Y-120576123D02*
X151744161Y-120671361D01*
X151744161Y-120671361D02*
X151791780Y-120718981D01*
X151791780Y-120718981D02*
X151887018Y-120766600D01*
X151887018Y-120766600D02*
X152077494Y-120766600D01*
X152077494Y-120766600D02*
X152172732Y-120718981D01*
X152172732Y-120718981D02*
X152220351Y-120671361D01*
X152220351Y-120671361D02*
X152267970Y-120576123D01*
X152267970Y-120576123D02*
X152267970Y-120385647D01*
X152267970Y-120385647D02*
X152220351Y-120290409D01*
X152220351Y-120290409D02*
X152172732Y-120242790D01*
X152172732Y-120242790D02*
X152077494Y-120195171D01*
X152696542Y-120385647D02*
X153458447Y-120385647D01*
X153887018Y-119861838D02*
X153934637Y-119814219D01*
X153934637Y-119814219D02*
X154029875Y-119766600D01*
X154029875Y-119766600D02*
X154267970Y-119766600D01*
X154267970Y-119766600D02*
X154363208Y-119814219D01*
X154363208Y-119814219D02*
X154410827Y-119861838D01*
X154410827Y-119861838D02*
X154458446Y-119957076D01*
X154458446Y-119957076D02*
X154458446Y-120052314D01*
X154458446Y-120052314D02*
X154410827Y-120195171D01*
X154410827Y-120195171D02*
X153839399Y-120766600D01*
X153839399Y-120766600D02*
X154458446Y-120766600D01*
X154791780Y-119766600D02*
X155458446Y-119766600D01*
X155458446Y-119766600D02*
X155029875Y-120766600D01*
X155791780Y-119861838D02*
X155839399Y-119814219D01*
X155839399Y-119814219D02*
X155934637Y-119766600D01*
X155934637Y-119766600D02*
X156172732Y-119766600D01*
X156172732Y-119766600D02*
X156267970Y-119814219D01*
X156267970Y-119814219D02*
X156315589Y-119861838D01*
X156315589Y-119861838D02*
X156363208Y-119957076D01*
X156363208Y-119957076D02*
X156363208Y-120052314D01*
X156363208Y-120052314D02*
X156315589Y-120195171D01*
X156315589Y-120195171D02*
X155744161Y-120766600D01*
X155744161Y-120766600D02*
X156363208Y-120766600D01*
X156791780Y-120385647D02*
X157553685Y-120385647D01*
X157887018Y-119766600D02*
X158458446Y-119766600D01*
X158172732Y-120766600D02*
X158172732Y-119766600D01*
X158696542Y-119766600D02*
X159315589Y-119766600D01*
X159315589Y-119766600D02*
X158982256Y-120147552D01*
X158982256Y-120147552D02*
X159125113Y-120147552D01*
X159125113Y-120147552D02*
X159220351Y-120195171D01*
X159220351Y-120195171D02*
X159267970Y-120242790D01*
X159267970Y-120242790D02*
X159315589Y-120338028D01*
X159315589Y-120338028D02*
X159315589Y-120576123D01*
X159315589Y-120576123D02*
X159267970Y-120671361D01*
X159267970Y-120671361D02*
X159220351Y-120718981D01*
X159220351Y-120718981D02*
X159125113Y-120766600D01*
X159125113Y-120766600D02*
X158839399Y-120766600D01*
X158839399Y-120766600D02*
X158744161Y-120718981D01*
X158744161Y-120718981D02*
X158696542Y-120671361D01*
D15*
X153672733Y-117846821D02*
X153672733Y-118180154D01*
X153439399Y-117480154D02*
X153672733Y-117846821D01*
X153672733Y-117846821D02*
X153906066Y-117480154D01*
X154506066Y-118180154D02*
X154106066Y-118180154D01*
X154306066Y-118180154D02*
X154306066Y-117480154D01*
X154306066Y-117480154D02*
X154239399Y-117580154D01*
X154239399Y-117580154D02*
X154172733Y-117646821D01*
X154172733Y-117646821D02*
X154106066Y-117680154D01*
D10*
X167620351Y-125866600D02*
X167620351Y-124866600D01*
X167620351Y-124866600D02*
X167953684Y-125580885D01*
X167953684Y-125580885D02*
X168287017Y-124866600D01*
X168287017Y-124866600D02*
X168287017Y-125866600D01*
X168906065Y-125866600D02*
X168810827Y-125818981D01*
X168810827Y-125818981D02*
X168763208Y-125771361D01*
X168763208Y-125771361D02*
X168715589Y-125676123D01*
X168715589Y-125676123D02*
X168715589Y-125390409D01*
X168715589Y-125390409D02*
X168763208Y-125295171D01*
X168763208Y-125295171D02*
X168810827Y-125247552D01*
X168810827Y-125247552D02*
X168906065Y-125199933D01*
X168906065Y-125199933D02*
X169048922Y-125199933D01*
X169048922Y-125199933D02*
X169144160Y-125247552D01*
X169144160Y-125247552D02*
X169191779Y-125295171D01*
X169191779Y-125295171D02*
X169239398Y-125390409D01*
X169239398Y-125390409D02*
X169239398Y-125676123D01*
X169239398Y-125676123D02*
X169191779Y-125771361D01*
X169191779Y-125771361D02*
X169144160Y-125818981D01*
X169144160Y-125818981D02*
X169048922Y-125866600D01*
X169048922Y-125866600D02*
X168906065Y-125866600D01*
X170096541Y-125199933D02*
X170096541Y-125866600D01*
X169667970Y-125199933D02*
X169667970Y-125723742D01*
X169667970Y-125723742D02*
X169715589Y-125818981D01*
X169715589Y-125818981D02*
X169810827Y-125866600D01*
X169810827Y-125866600D02*
X169953684Y-125866600D01*
X169953684Y-125866600D02*
X170048922Y-125818981D01*
X170048922Y-125818981D02*
X170096541Y-125771361D01*
X170572732Y-125199933D02*
X170572732Y-125866600D01*
X170572732Y-125295171D02*
X170620351Y-125247552D01*
X170620351Y-125247552D02*
X170715589Y-125199933D01*
X170715589Y-125199933D02*
X170858446Y-125199933D01*
X170858446Y-125199933D02*
X170953684Y-125247552D01*
X170953684Y-125247552D02*
X171001303Y-125342790D01*
X171001303Y-125342790D02*
X171001303Y-125866600D01*
X171334637Y-125199933D02*
X171715589Y-125199933D01*
X171477494Y-124866600D02*
X171477494Y-125723742D01*
X171477494Y-125723742D02*
X171525113Y-125818981D01*
X171525113Y-125818981D02*
X171620351Y-125866600D01*
X171620351Y-125866600D02*
X171715589Y-125866600D01*
X172048923Y-125866600D02*
X172048923Y-125199933D01*
X172048923Y-124866600D02*
X172001304Y-124914219D01*
X172001304Y-124914219D02*
X172048923Y-124961838D01*
X172048923Y-124961838D02*
X172096542Y-124914219D01*
X172096542Y-124914219D02*
X172048923Y-124866600D01*
X172048923Y-124866600D02*
X172048923Y-124961838D01*
X172525113Y-125199933D02*
X172525113Y-125866600D01*
X172525113Y-125295171D02*
X172572732Y-125247552D01*
X172572732Y-125247552D02*
X172667970Y-125199933D01*
X172667970Y-125199933D02*
X172810827Y-125199933D01*
X172810827Y-125199933D02*
X172906065Y-125247552D01*
X172906065Y-125247552D02*
X172953684Y-125342790D01*
X172953684Y-125342790D02*
X172953684Y-125866600D01*
X173858446Y-125199933D02*
X173858446Y-126009457D01*
X173858446Y-126009457D02*
X173810827Y-126104695D01*
X173810827Y-126104695D02*
X173763208Y-126152314D01*
X173763208Y-126152314D02*
X173667970Y-126199933D01*
X173667970Y-126199933D02*
X173525113Y-126199933D01*
X173525113Y-126199933D02*
X173429875Y-126152314D01*
X173858446Y-125818981D02*
X173763208Y-125866600D01*
X173763208Y-125866600D02*
X173572732Y-125866600D01*
X173572732Y-125866600D02*
X173477494Y-125818981D01*
X173477494Y-125818981D02*
X173429875Y-125771361D01*
X173429875Y-125771361D02*
X173382256Y-125676123D01*
X173382256Y-125676123D02*
X173382256Y-125390409D01*
X173382256Y-125390409D02*
X173429875Y-125295171D01*
X173429875Y-125295171D02*
X173477494Y-125247552D01*
X173477494Y-125247552D02*
X173572732Y-125199933D01*
X173572732Y-125199933D02*
X173763208Y-125199933D01*
X173763208Y-125199933D02*
X173858446Y-125247552D01*
X174334637Y-125866600D02*
X174334637Y-124866600D01*
X174334637Y-125342790D02*
X174906065Y-125342790D01*
X174906065Y-125866600D02*
X174906065Y-124866600D01*
X175525113Y-125866600D02*
X175429875Y-125818981D01*
X175429875Y-125818981D02*
X175382256Y-125771361D01*
X175382256Y-125771361D02*
X175334637Y-125676123D01*
X175334637Y-125676123D02*
X175334637Y-125390409D01*
X175334637Y-125390409D02*
X175382256Y-125295171D01*
X175382256Y-125295171D02*
X175429875Y-125247552D01*
X175429875Y-125247552D02*
X175525113Y-125199933D01*
X175525113Y-125199933D02*
X175667970Y-125199933D01*
X175667970Y-125199933D02*
X175763208Y-125247552D01*
X175763208Y-125247552D02*
X175810827Y-125295171D01*
X175810827Y-125295171D02*
X175858446Y-125390409D01*
X175858446Y-125390409D02*
X175858446Y-125676123D01*
X175858446Y-125676123D02*
X175810827Y-125771361D01*
X175810827Y-125771361D02*
X175763208Y-125818981D01*
X175763208Y-125818981D02*
X175667970Y-125866600D01*
X175667970Y-125866600D02*
X175525113Y-125866600D01*
X176429875Y-125866600D02*
X176334637Y-125818981D01*
X176334637Y-125818981D02*
X176287018Y-125723742D01*
X176287018Y-125723742D02*
X176287018Y-124866600D01*
X177191780Y-125818981D02*
X177096542Y-125866600D01*
X177096542Y-125866600D02*
X176906066Y-125866600D01*
X176906066Y-125866600D02*
X176810828Y-125818981D01*
X176810828Y-125818981D02*
X176763209Y-125723742D01*
X176763209Y-125723742D02*
X176763209Y-125342790D01*
X176763209Y-125342790D02*
X176810828Y-125247552D01*
X176810828Y-125247552D02*
X176906066Y-125199933D01*
X176906066Y-125199933D02*
X177096542Y-125199933D01*
X177096542Y-125199933D02*
X177191780Y-125247552D01*
X177191780Y-125247552D02*
X177239399Y-125342790D01*
X177239399Y-125342790D02*
X177239399Y-125438028D01*
X177239399Y-125438028D02*
X176763209Y-125533266D01*
X171644161Y-122166600D02*
X171644161Y-121166600D01*
X171644161Y-121642790D02*
X172215589Y-121642790D01*
X172215589Y-122166600D02*
X172215589Y-121166600D01*
X172596542Y-121166600D02*
X173215589Y-121166600D01*
X173215589Y-121166600D02*
X172882256Y-121547552D01*
X172882256Y-121547552D02*
X173025113Y-121547552D01*
X173025113Y-121547552D02*
X173120351Y-121595171D01*
X173120351Y-121595171D02*
X173167970Y-121642790D01*
X173167970Y-121642790D02*
X173215589Y-121738028D01*
X173215589Y-121738028D02*
X173215589Y-121976123D01*
X173215589Y-121976123D02*
X173167970Y-122071361D01*
X173167970Y-122071361D02*
X173120351Y-122118981D01*
X173120351Y-122118981D02*
X173025113Y-122166600D01*
X173025113Y-122166600D02*
X172739399Y-122166600D01*
X172739399Y-122166600D02*
X172644161Y-122118981D01*
X172644161Y-122118981D02*
X172596542Y-122071361D01*
X152690885Y-111340828D02*
X152690885Y-111912256D01*
X152690885Y-111626542D02*
X151690885Y-111626542D01*
X151690885Y-111626542D02*
X151833742Y-111721780D01*
X151833742Y-111721780D02*
X151928980Y-111817018D01*
X151928980Y-111817018D02*
X151976599Y-111912256D01*
X152690885Y-110912256D02*
X151690885Y-110912256D01*
X152309932Y-110817018D02*
X152690885Y-110531304D01*
X152024218Y-110531304D02*
X152405170Y-110912256D01*
D11*
X153524266Y-111265113D02*
X153400457Y-111351780D01*
X153524266Y-111413685D02*
X153264266Y-111413685D01*
X153264266Y-111413685D02*
X153264266Y-111314637D01*
X153264266Y-111314637D02*
X153276647Y-111289875D01*
X153276647Y-111289875D02*
X153289028Y-111277494D01*
X153289028Y-111277494D02*
X153313790Y-111265113D01*
X153313790Y-111265113D02*
X153350933Y-111265113D01*
X153350933Y-111265113D02*
X153375695Y-111277494D01*
X153375695Y-111277494D02*
X153388076Y-111289875D01*
X153388076Y-111289875D02*
X153400457Y-111314637D01*
X153400457Y-111314637D02*
X153400457Y-111413685D01*
X153264266Y-111178447D02*
X153264266Y-111017494D01*
X153264266Y-111017494D02*
X153363314Y-111104161D01*
X153363314Y-111104161D02*
X153363314Y-111067018D01*
X153363314Y-111067018D02*
X153375695Y-111042256D01*
X153375695Y-111042256D02*
X153388076Y-111029875D01*
X153388076Y-111029875D02*
X153412838Y-111017494D01*
X153412838Y-111017494D02*
X153474743Y-111017494D01*
X153474743Y-111017494D02*
X153499505Y-111029875D01*
X153499505Y-111029875D02*
X153511886Y-111042256D01*
X153511886Y-111042256D02*
X153524266Y-111067018D01*
X153524266Y-111067018D02*
X153524266Y-111141304D01*
X153524266Y-111141304D02*
X153511886Y-111166066D01*
X153511886Y-111166066D02*
X153499505Y-111178447D01*
D10*
X145902256Y-102329933D02*
X145902256Y-102996600D01*
X145664161Y-101948981D02*
X145426066Y-102663266D01*
X145426066Y-102663266D02*
X146045113Y-102663266D01*
X146426066Y-102901361D02*
X146473685Y-102948981D01*
X146473685Y-102948981D02*
X146426066Y-102996600D01*
X146426066Y-102996600D02*
X146378447Y-102948981D01*
X146378447Y-102948981D02*
X146426066Y-102901361D01*
X146426066Y-102901361D02*
X146426066Y-102996600D01*
X146807018Y-101996600D02*
X147473684Y-101996600D01*
X147473684Y-101996600D02*
X147045113Y-102996600D01*
D11*
X146382733Y-103829981D02*
X146296066Y-103706172D01*
X146234161Y-103829981D02*
X146234161Y-103569981D01*
X146234161Y-103569981D02*
X146333209Y-103569981D01*
X146333209Y-103569981D02*
X146357971Y-103582362D01*
X146357971Y-103582362D02*
X146370352Y-103594743D01*
X146370352Y-103594743D02*
X146382733Y-103619505D01*
X146382733Y-103619505D02*
X146382733Y-103656648D01*
X146382733Y-103656648D02*
X146370352Y-103681410D01*
X146370352Y-103681410D02*
X146357971Y-103693791D01*
X146357971Y-103693791D02*
X146333209Y-103706172D01*
X146333209Y-103706172D02*
X146234161Y-103706172D01*
X146481780Y-103594743D02*
X146494161Y-103582362D01*
X146494161Y-103582362D02*
X146518923Y-103569981D01*
X146518923Y-103569981D02*
X146580828Y-103569981D01*
X146580828Y-103569981D02*
X146605590Y-103582362D01*
X146605590Y-103582362D02*
X146617971Y-103594743D01*
X146617971Y-103594743D02*
X146630352Y-103619505D01*
X146630352Y-103619505D02*
X146630352Y-103644267D01*
X146630352Y-103644267D02*
X146617971Y-103681410D01*
X146617971Y-103681410D02*
X146469399Y-103829981D01*
X146469399Y-103829981D02*
X146630352Y-103829981D01*
D10*
X147797018Y-99496600D02*
X147225590Y-99496600D01*
X147511304Y-99496600D02*
X147511304Y-98496600D01*
X147511304Y-98496600D02*
X147416066Y-98639457D01*
X147416066Y-98639457D02*
X147320828Y-98734695D01*
X147320828Y-98734695D02*
X147225590Y-98782314D01*
X148225590Y-99496600D02*
X148225590Y-98496600D01*
X148320828Y-99115647D02*
X148606542Y-99496600D01*
X148606542Y-98829933D02*
X148225590Y-99210885D01*
D11*
X147872733Y-100329981D02*
X147786066Y-100206172D01*
X147724161Y-100329981D02*
X147724161Y-100069981D01*
X147724161Y-100069981D02*
X147823209Y-100069981D01*
X147823209Y-100069981D02*
X147847971Y-100082362D01*
X147847971Y-100082362D02*
X147860352Y-100094743D01*
X147860352Y-100094743D02*
X147872733Y-100119505D01*
X147872733Y-100119505D02*
X147872733Y-100156648D01*
X147872733Y-100156648D02*
X147860352Y-100181410D01*
X147860352Y-100181410D02*
X147847971Y-100193791D01*
X147847971Y-100193791D02*
X147823209Y-100206172D01*
X147823209Y-100206172D02*
X147724161Y-100206172D01*
X148120352Y-100329981D02*
X147971780Y-100329981D01*
X148046066Y-100329981D02*
X148046066Y-100069981D01*
X148046066Y-100069981D02*
X148021304Y-100107124D01*
X148021304Y-100107124D02*
X147996542Y-100131886D01*
X147996542Y-100131886D02*
X147971780Y-100144267D01*
D16*
G04 #@! TO.C,R5*
X155230000Y-98136781D02*
X155770000Y-98136781D01*
X155230000Y-99186781D02*
X155230000Y-98136781D01*
X155770000Y-98136781D02*
X155770000Y-99186781D01*
X155770000Y-99186781D02*
X155230000Y-99186781D01*
G04 #@! TO.C,C4*
X164406066Y-96086781D02*
X166406066Y-96086781D01*
X164406066Y-97336781D02*
X164406066Y-96086781D01*
X166406066Y-96086781D02*
X166406066Y-97336781D01*
X166406066Y-97336781D02*
X164406066Y-97336781D01*
G04 #@! TO.C,C15*
X146906066Y-105961781D02*
X147906066Y-105961781D01*
X146906066Y-106461781D02*
X146906066Y-105961781D01*
X147906066Y-105961781D02*
X147906066Y-106461781D01*
X147906066Y-106461781D02*
X146906066Y-106461781D01*
G04 #@! TO.C,C2*
X154906066Y-114461781D02*
X155906066Y-114461781D01*
X154906066Y-114961781D02*
X154906066Y-114461781D01*
X155906066Y-114461781D02*
X155906066Y-114961781D01*
X155906066Y-114961781D02*
X154906066Y-114961781D01*
G04 #@! TO.C,SW2*
X141861066Y-88461781D02*
X141861066Y-94461781D01*
X141861066Y-94461781D02*
X147861066Y-94461781D01*
X147861066Y-88461781D02*
X141861066Y-88461781D01*
X147861066Y-94461781D02*
X147861066Y-88461781D01*
X146611780Y-91461781D02*
G75*
G02*
X143110352Y-91461781I-1750714J0D01*
G01*
X143110352Y-91461781D02*
G75*
G02*
X146611780Y-91461781I1750714J0D01*
G01*
G04 #@! TO.C,C13*
X154656066Y-110681781D02*
X155156066Y-110681781D01*
X154656066Y-111681781D02*
X154656066Y-110681781D01*
X155156066Y-110681781D02*
X155156066Y-111681781D01*
X155156066Y-111681781D02*
X154656066Y-111681781D01*
G04 #@! TO.C,C9*
X158880000Y-105000000D02*
X159880000Y-105000000D01*
X158880000Y-105500000D02*
X158880000Y-105000000D01*
X159880000Y-105000000D02*
X159880000Y-105500000D01*
X159880000Y-105500000D02*
X158880000Y-105500000D01*
G04 #@! TO.C,C10*
X160980000Y-100650000D02*
X161980000Y-100650000D01*
X160980000Y-101150000D02*
X160980000Y-100650000D01*
X161980000Y-100650000D02*
X161980000Y-101150000D01*
X161980000Y-101150000D02*
X160980000Y-101150000D01*
G04 #@! TO.C,C6*
X156156066Y-110701781D02*
X156656066Y-110701781D01*
X156156066Y-111701781D02*
X156156066Y-110701781D01*
X156656066Y-110701781D02*
X156656066Y-111701781D01*
X156656066Y-111701781D02*
X156156066Y-111701781D01*
G04 #@! TO.C,C16*
X157450000Y-98151781D02*
X157950000Y-98151781D01*
X157450000Y-99151781D02*
X157450000Y-98151781D01*
X157950000Y-98151781D02*
X157950000Y-99151781D01*
X157950000Y-99151781D02*
X157450000Y-99151781D01*
G04 #@! TO.C,R4*
X154130000Y-98115000D02*
X154670000Y-98115000D01*
X154130000Y-99165000D02*
X154130000Y-98115000D01*
X154670000Y-98115000D02*
X154670000Y-99165000D01*
X154670000Y-99165000D02*
X154130000Y-99165000D01*
G04 #@! TO.C,C11*
X158906066Y-106461781D02*
X159906066Y-106461781D01*
X158906066Y-106961781D02*
X158906066Y-106461781D01*
X159906066Y-106461781D02*
X159906066Y-106961781D01*
X159906066Y-106961781D02*
X158906066Y-106961781D01*
G04 #@! TO.C,C3*
X163356066Y-83086781D02*
X165356066Y-83086781D01*
X163356066Y-84336781D02*
X163356066Y-83086781D01*
X165356066Y-83086781D02*
X165356066Y-84336781D01*
X165356066Y-84336781D02*
X163356066Y-84336781D01*
G04 #@! TO.C,R6*
X145881066Y-102441781D02*
X146931066Y-102441781D01*
X145881066Y-102981781D02*
X145881066Y-102441781D01*
X146931066Y-102441781D02*
X146931066Y-102981781D01*
X146931066Y-102981781D02*
X145881066Y-102981781D01*
G04 #@! TO.C,C1*
X151886066Y-114461781D02*
X152886066Y-114461781D01*
X151886066Y-114961781D02*
X151886066Y-114461781D01*
X152886066Y-114461781D02*
X152886066Y-114961781D01*
X152886066Y-114961781D02*
X151886066Y-114961781D01*
G04 #@! TO.C,C14*
X160970000Y-99400000D02*
X161970000Y-99400000D01*
X160970000Y-99900000D02*
X160970000Y-99400000D01*
X161970000Y-99400000D02*
X161970000Y-99900000D01*
X161970000Y-99900000D02*
X160970000Y-99900000D01*
G04 #@! TO.C,C8*
X156350000Y-98160000D02*
X156850000Y-98160000D01*
X156350000Y-99160000D02*
X156350000Y-98160000D01*
X156850000Y-98160000D02*
X156850000Y-99160000D01*
X156850000Y-99160000D02*
X156350000Y-99160000D01*
G04 #@! TO.C,U1*
X161356066Y-88861781D02*
X161356066Y-92561781D01*
X167056066Y-88861781D02*
X161356066Y-88861781D01*
X167056066Y-88861781D02*
X168056066Y-89861781D01*
X168056066Y-89861781D02*
X168056066Y-92561781D01*
X168056066Y-92561781D02*
X161356066Y-92561781D01*
G04 #@! TO.C,C12*
X153050000Y-97220000D02*
X153550000Y-97220000D01*
X153050000Y-98220000D02*
X153050000Y-97220000D01*
X153550000Y-97220000D02*
X153550000Y-98220000D01*
X153550000Y-98220000D02*
X153050000Y-98220000D01*
G04 #@! TO.C,C5*
X140050000Y-101020000D02*
X141050000Y-101020000D01*
X140050000Y-101520000D02*
X140050000Y-101020000D01*
X141050000Y-101020000D02*
X141050000Y-101520000D01*
X141050000Y-101520000D02*
X140050000Y-101520000D01*
G04 #@! TO.C,C7*
X151900000Y-97191781D02*
X152400000Y-97191781D01*
X151900000Y-98191781D02*
X151900000Y-97191781D01*
X152400000Y-97191781D02*
X152400000Y-98191781D01*
X152400000Y-98191781D02*
X151900000Y-98191781D01*
G04 #@! TO.C,U4*
X140981066Y-102211781D02*
X143481066Y-102211781D01*
X140981066Y-104711781D02*
X140981066Y-102211781D01*
X142981066Y-104711781D02*
X140981066Y-104711781D01*
X143481066Y-102211781D02*
X143481066Y-104211781D01*
X143481066Y-104211781D02*
X142981066Y-104711781D01*
G04 #@! TO.C,U3*
X149968566Y-102511781D02*
X150968566Y-101511781D01*
X149968566Y-108511781D02*
X149968566Y-102511781D01*
X150968566Y-101511781D02*
X156968566Y-101511781D01*
X156968566Y-101511781D02*
X156968566Y-108511781D01*
X156968566Y-108511781D02*
X149968566Y-108511781D01*
D13*
G04 #@! TO.C,J2*
X151181066Y-75991781D02*
X158681066Y-75991781D01*
X151181066Y-80941781D02*
X151181066Y-75991781D01*
X157881066Y-80941781D02*
X151181066Y-80941781D01*
X158681066Y-75991781D02*
X158681066Y-80191781D01*
X158681066Y-80191781D02*
X157881066Y-80941781D01*
D16*
G04 #@! TO.C,Y1*
X152406066Y-116611781D02*
X152406066Y-119111781D01*
X152406066Y-118111781D02*
X153406066Y-119111781D01*
X152406066Y-119111781D02*
X155606066Y-119111781D01*
X155606066Y-116611781D02*
X152406066Y-116611781D01*
X155606066Y-119111781D02*
X155606066Y-116611781D01*
G04 #@! TO.C,R3*
X153136066Y-110696781D02*
X153676066Y-110696781D01*
X153136066Y-111746781D02*
X153136066Y-110696781D01*
X153676066Y-110696781D02*
X153676066Y-111746781D01*
X153676066Y-111746781D02*
X153136066Y-111746781D01*
G04 #@! TO.C,R2*
X145901066Y-103441781D02*
X146951066Y-103441781D01*
X145901066Y-103981781D02*
X145901066Y-103441781D01*
X146951066Y-103441781D02*
X146951066Y-103981781D01*
X146951066Y-103981781D02*
X145901066Y-103981781D01*
G04 #@! TO.C,R1*
X147391066Y-99941781D02*
X148441066Y-99941781D01*
X147391066Y-100481781D02*
X147391066Y-99941781D01*
X148441066Y-99941781D02*
X148441066Y-100481781D01*
X148441066Y-100481781D02*
X147391066Y-100481781D01*
G04 #@! TD*
M02*
