%TF.GenerationSoftware,KiCad,Pcbnew,8.0.5*%
%TF.CreationDate,2024-09-17T16:22:35-07:00*%
%TF.ProjectId,RP2040_PCB,52503230-3430-45f5-9043-422e6b696361,rev?*%
%TF.SameCoordinates,Original*%
%TF.FileFunction,Drillmap*%
%TF.FilePolarity,Positive*%
%FSLAX45Y45*%
G04 Gerber Fmt 4.5, Leading zero omitted, Abs format (unit mm)*
G04 Created by KiCad (PCBNEW 8.0.5) date 2024-09-17 16:22:35*
%MOMM*%
%LPD*%
G01*
G04 APERTURE LIST*
%ADD10C,0.600000*%
%ADD11C,0.200000*%
%ADD12C,0.270000*%
G04 APERTURE END LIST*
D10*
X12690607Y-7621178D02*
X17690607Y-7621178D01*
X17690607Y-12621178D01*
X12690607Y-12621178D01*
X12690607Y-7621178D01*
D11*
D12*
X13055607Y-7986178D02*
X13325607Y-8256178D01*
X13325607Y-7986178D02*
X13055607Y-8256178D01*
X13055607Y-12036178D02*
X13325607Y-12306178D01*
X13325607Y-12036178D02*
X13055607Y-12306178D01*
X17055607Y-7986178D02*
X17325607Y-8256178D01*
X17325607Y-7986178D02*
X17055607Y-8256178D01*
X17105607Y-12036178D02*
X17375607Y-12306178D01*
X17375607Y-12036178D02*
X17105607Y-12306178D01*
D11*
X12921383Y-12962662D02*
X12921383Y-12762662D01*
X12921383Y-12762662D02*
X12969002Y-12762662D01*
X12969002Y-12762662D02*
X12997574Y-12772186D01*
X12997574Y-12772186D02*
X13016621Y-12791233D01*
X13016621Y-12791233D02*
X13026145Y-12810281D01*
X13026145Y-12810281D02*
X13035669Y-12848376D01*
X13035669Y-12848376D02*
X13035669Y-12876948D01*
X13035669Y-12876948D02*
X13026145Y-12915043D01*
X13026145Y-12915043D02*
X13016621Y-12934090D01*
X13016621Y-12934090D02*
X12997574Y-12953138D01*
X12997574Y-12953138D02*
X12969002Y-12962662D01*
X12969002Y-12962662D02*
X12921383Y-12962662D01*
X13121383Y-12962662D02*
X13121383Y-12829328D01*
X13121383Y-12867424D02*
X13130907Y-12848376D01*
X13130907Y-12848376D02*
X13140431Y-12838852D01*
X13140431Y-12838852D02*
X13159479Y-12829328D01*
X13159479Y-12829328D02*
X13178526Y-12829328D01*
X13245193Y-12962662D02*
X13245193Y-12829328D01*
X13245193Y-12762662D02*
X13235669Y-12772186D01*
X13235669Y-12772186D02*
X13245193Y-12781709D01*
X13245193Y-12781709D02*
X13254717Y-12772186D01*
X13254717Y-12772186D02*
X13245193Y-12762662D01*
X13245193Y-12762662D02*
X13245193Y-12781709D01*
X13369002Y-12962662D02*
X13349955Y-12953138D01*
X13349955Y-12953138D02*
X13340431Y-12934090D01*
X13340431Y-12934090D02*
X13340431Y-12762662D01*
X13473764Y-12962662D02*
X13454717Y-12953138D01*
X13454717Y-12953138D02*
X13445193Y-12934090D01*
X13445193Y-12934090D02*
X13445193Y-12762662D01*
X13702336Y-12962662D02*
X13702336Y-12762662D01*
X13702336Y-12762662D02*
X13769002Y-12905519D01*
X13769002Y-12905519D02*
X13835669Y-12762662D01*
X13835669Y-12762662D02*
X13835669Y-12962662D01*
X14016621Y-12962662D02*
X14016621Y-12857900D01*
X14016621Y-12857900D02*
X14007098Y-12838852D01*
X14007098Y-12838852D02*
X13988050Y-12829328D01*
X13988050Y-12829328D02*
X13949955Y-12829328D01*
X13949955Y-12829328D02*
X13930907Y-12838852D01*
X14016621Y-12953138D02*
X13997574Y-12962662D01*
X13997574Y-12962662D02*
X13949955Y-12962662D01*
X13949955Y-12962662D02*
X13930907Y-12953138D01*
X13930907Y-12953138D02*
X13921383Y-12934090D01*
X13921383Y-12934090D02*
X13921383Y-12915043D01*
X13921383Y-12915043D02*
X13930907Y-12895995D01*
X13930907Y-12895995D02*
X13949955Y-12886471D01*
X13949955Y-12886471D02*
X13997574Y-12886471D01*
X13997574Y-12886471D02*
X14016621Y-12876948D01*
X14111860Y-12829328D02*
X14111860Y-13029328D01*
X14111860Y-12838852D02*
X14130907Y-12829328D01*
X14130907Y-12829328D02*
X14169002Y-12829328D01*
X14169002Y-12829328D02*
X14188050Y-12838852D01*
X14188050Y-12838852D02*
X14197574Y-12848376D01*
X14197574Y-12848376D02*
X14207098Y-12867424D01*
X14207098Y-12867424D02*
X14207098Y-12924567D01*
X14207098Y-12924567D02*
X14197574Y-12943614D01*
X14197574Y-12943614D02*
X14188050Y-12953138D01*
X14188050Y-12953138D02*
X14169002Y-12962662D01*
X14169002Y-12962662D02*
X14130907Y-12962662D01*
X14130907Y-12962662D02*
X14111860Y-12953138D01*
X14292812Y-12943614D02*
X14302336Y-12953138D01*
X14302336Y-12953138D02*
X14292812Y-12962662D01*
X14292812Y-12962662D02*
X14283288Y-12953138D01*
X14283288Y-12953138D02*
X14292812Y-12943614D01*
X14292812Y-12943614D02*
X14292812Y-12962662D01*
X14292812Y-12838852D02*
X14302336Y-12848376D01*
X14302336Y-12848376D02*
X14292812Y-12857900D01*
X14292812Y-12857900D02*
X14283288Y-12848376D01*
X14283288Y-12848376D02*
X14292812Y-12838852D01*
X14292812Y-12838852D02*
X14292812Y-12857900D01*
X12460607Y-13191178D02*
X12660607Y-13391178D01*
X12660607Y-13191178D02*
X12460607Y-13391178D01*
X12911860Y-13201709D02*
X12921383Y-13192186D01*
X12921383Y-13192186D02*
X12940431Y-13182662D01*
X12940431Y-13182662D02*
X12988050Y-13182662D01*
X12988050Y-13182662D02*
X13007098Y-13192186D01*
X13007098Y-13192186D02*
X13016621Y-13201709D01*
X13016621Y-13201709D02*
X13026145Y-13220757D01*
X13026145Y-13220757D02*
X13026145Y-13239805D01*
X13026145Y-13239805D02*
X13016621Y-13268376D01*
X13016621Y-13268376D02*
X12902336Y-13382662D01*
X12902336Y-13382662D02*
X13026145Y-13382662D01*
X13111860Y-13363614D02*
X13121383Y-13373138D01*
X13121383Y-13373138D02*
X13111860Y-13382662D01*
X13111860Y-13382662D02*
X13102336Y-13373138D01*
X13102336Y-13373138D02*
X13111860Y-13363614D01*
X13111860Y-13363614D02*
X13111860Y-13382662D01*
X13188050Y-13182662D02*
X13321383Y-13182662D01*
X13321383Y-13182662D02*
X13235669Y-13382662D01*
X13435669Y-13182662D02*
X13454717Y-13182662D01*
X13454717Y-13182662D02*
X13473764Y-13192186D01*
X13473764Y-13192186D02*
X13483288Y-13201709D01*
X13483288Y-13201709D02*
X13492812Y-13220757D01*
X13492812Y-13220757D02*
X13502336Y-13258852D01*
X13502336Y-13258852D02*
X13502336Y-13306471D01*
X13502336Y-13306471D02*
X13492812Y-13344567D01*
X13492812Y-13344567D02*
X13483288Y-13363614D01*
X13483288Y-13363614D02*
X13473764Y-13373138D01*
X13473764Y-13373138D02*
X13454717Y-13382662D01*
X13454717Y-13382662D02*
X13435669Y-13382662D01*
X13435669Y-13382662D02*
X13416621Y-13373138D01*
X13416621Y-13373138D02*
X13407098Y-13363614D01*
X13407098Y-13363614D02*
X13397574Y-13344567D01*
X13397574Y-13344567D02*
X13388050Y-13306471D01*
X13388050Y-13306471D02*
X13388050Y-13258852D01*
X13388050Y-13258852D02*
X13397574Y-13220757D01*
X13397574Y-13220757D02*
X13407098Y-13201709D01*
X13407098Y-13201709D02*
X13416621Y-13192186D01*
X13416621Y-13192186D02*
X13435669Y-13182662D01*
X13626145Y-13182662D02*
X13645193Y-13182662D01*
X13645193Y-13182662D02*
X13664241Y-13192186D01*
X13664241Y-13192186D02*
X13673764Y-13201709D01*
X13673764Y-13201709D02*
X13683288Y-13220757D01*
X13683288Y-13220757D02*
X13692812Y-13258852D01*
X13692812Y-13258852D02*
X13692812Y-13306471D01*
X13692812Y-13306471D02*
X13683288Y-13344567D01*
X13683288Y-13344567D02*
X13673764Y-13363614D01*
X13673764Y-13363614D02*
X13664241Y-13373138D01*
X13664241Y-13373138D02*
X13645193Y-13382662D01*
X13645193Y-13382662D02*
X13626145Y-13382662D01*
X13626145Y-13382662D02*
X13607098Y-13373138D01*
X13607098Y-13373138D02*
X13597574Y-13363614D01*
X13597574Y-13363614D02*
X13588050Y-13344567D01*
X13588050Y-13344567D02*
X13578526Y-13306471D01*
X13578526Y-13306471D02*
X13578526Y-13258852D01*
X13578526Y-13258852D02*
X13588050Y-13220757D01*
X13588050Y-13220757D02*
X13597574Y-13201709D01*
X13597574Y-13201709D02*
X13607098Y-13192186D01*
X13607098Y-13192186D02*
X13626145Y-13182662D01*
X13778526Y-13382662D02*
X13778526Y-13249328D01*
X13778526Y-13268376D02*
X13788050Y-13258852D01*
X13788050Y-13258852D02*
X13807098Y-13249328D01*
X13807098Y-13249328D02*
X13835669Y-13249328D01*
X13835669Y-13249328D02*
X13854717Y-13258852D01*
X13854717Y-13258852D02*
X13864241Y-13277900D01*
X13864241Y-13277900D02*
X13864241Y-13382662D01*
X13864241Y-13277900D02*
X13873764Y-13258852D01*
X13873764Y-13258852D02*
X13892812Y-13249328D01*
X13892812Y-13249328D02*
X13921383Y-13249328D01*
X13921383Y-13249328D02*
X13940431Y-13258852D01*
X13940431Y-13258852D02*
X13949955Y-13277900D01*
X13949955Y-13277900D02*
X13949955Y-13382662D01*
X14045193Y-13382662D02*
X14045193Y-13249328D01*
X14045193Y-13268376D02*
X14054717Y-13258852D01*
X14054717Y-13258852D02*
X14073764Y-13249328D01*
X14073764Y-13249328D02*
X14102336Y-13249328D01*
X14102336Y-13249328D02*
X14121383Y-13258852D01*
X14121383Y-13258852D02*
X14130907Y-13277900D01*
X14130907Y-13277900D02*
X14130907Y-13382662D01*
X14130907Y-13277900D02*
X14140431Y-13258852D01*
X14140431Y-13258852D02*
X14159479Y-13249328D01*
X14159479Y-13249328D02*
X14188050Y-13249328D01*
X14188050Y-13249328D02*
X14207098Y-13258852D01*
X14207098Y-13258852D02*
X14216622Y-13277900D01*
X14216622Y-13277900D02*
X14216622Y-13382662D01*
X14607098Y-13173138D02*
X14435669Y-13430281D01*
X14864241Y-13182662D02*
X14883288Y-13182662D01*
X14883288Y-13182662D02*
X14902336Y-13192186D01*
X14902336Y-13192186D02*
X14911860Y-13201709D01*
X14911860Y-13201709D02*
X14921384Y-13220757D01*
X14921384Y-13220757D02*
X14930907Y-13258852D01*
X14930907Y-13258852D02*
X14930907Y-13306471D01*
X14930907Y-13306471D02*
X14921384Y-13344567D01*
X14921384Y-13344567D02*
X14911860Y-13363614D01*
X14911860Y-13363614D02*
X14902336Y-13373138D01*
X14902336Y-13373138D02*
X14883288Y-13382662D01*
X14883288Y-13382662D02*
X14864241Y-13382662D01*
X14864241Y-13382662D02*
X14845193Y-13373138D01*
X14845193Y-13373138D02*
X14835669Y-13363614D01*
X14835669Y-13363614D02*
X14826145Y-13344567D01*
X14826145Y-13344567D02*
X14816622Y-13306471D01*
X14816622Y-13306471D02*
X14816622Y-13258852D01*
X14816622Y-13258852D02*
X14826145Y-13220757D01*
X14826145Y-13220757D02*
X14835669Y-13201709D01*
X14835669Y-13201709D02*
X14845193Y-13192186D01*
X14845193Y-13192186D02*
X14864241Y-13182662D01*
X15016622Y-13363614D02*
X15026145Y-13373138D01*
X15026145Y-13373138D02*
X15016622Y-13382662D01*
X15016622Y-13382662D02*
X15007098Y-13373138D01*
X15007098Y-13373138D02*
X15016622Y-13363614D01*
X15016622Y-13363614D02*
X15016622Y-13382662D01*
X15216622Y-13382662D02*
X15102336Y-13382662D01*
X15159479Y-13382662D02*
X15159479Y-13182662D01*
X15159479Y-13182662D02*
X15140431Y-13211233D01*
X15140431Y-13211233D02*
X15121384Y-13230281D01*
X15121384Y-13230281D02*
X15102336Y-13239805D01*
X15340431Y-13182662D02*
X15359479Y-13182662D01*
X15359479Y-13182662D02*
X15378526Y-13192186D01*
X15378526Y-13192186D02*
X15388050Y-13201709D01*
X15388050Y-13201709D02*
X15397574Y-13220757D01*
X15397574Y-13220757D02*
X15407098Y-13258852D01*
X15407098Y-13258852D02*
X15407098Y-13306471D01*
X15407098Y-13306471D02*
X15397574Y-13344567D01*
X15397574Y-13344567D02*
X15388050Y-13363614D01*
X15388050Y-13363614D02*
X15378526Y-13373138D01*
X15378526Y-13373138D02*
X15359479Y-13382662D01*
X15359479Y-13382662D02*
X15340431Y-13382662D01*
X15340431Y-13382662D02*
X15321384Y-13373138D01*
X15321384Y-13373138D02*
X15311860Y-13363614D01*
X15311860Y-13363614D02*
X15302336Y-13344567D01*
X15302336Y-13344567D02*
X15292812Y-13306471D01*
X15292812Y-13306471D02*
X15292812Y-13258852D01*
X15292812Y-13258852D02*
X15302336Y-13220757D01*
X15302336Y-13220757D02*
X15311860Y-13201709D01*
X15311860Y-13201709D02*
X15321384Y-13192186D01*
X15321384Y-13192186D02*
X15340431Y-13182662D01*
X15578526Y-13182662D02*
X15540431Y-13182662D01*
X15540431Y-13182662D02*
X15521384Y-13192186D01*
X15521384Y-13192186D02*
X15511860Y-13201709D01*
X15511860Y-13201709D02*
X15492812Y-13230281D01*
X15492812Y-13230281D02*
X15483288Y-13268376D01*
X15483288Y-13268376D02*
X15483288Y-13344567D01*
X15483288Y-13344567D02*
X15492812Y-13363614D01*
X15492812Y-13363614D02*
X15502336Y-13373138D01*
X15502336Y-13373138D02*
X15521384Y-13382662D01*
X15521384Y-13382662D02*
X15559479Y-13382662D01*
X15559479Y-13382662D02*
X15578526Y-13373138D01*
X15578526Y-13373138D02*
X15588050Y-13363614D01*
X15588050Y-13363614D02*
X15597574Y-13344567D01*
X15597574Y-13344567D02*
X15597574Y-13296948D01*
X15597574Y-13296948D02*
X15588050Y-13277900D01*
X15588050Y-13277900D02*
X15578526Y-13268376D01*
X15578526Y-13268376D02*
X15559479Y-13258852D01*
X15559479Y-13258852D02*
X15521384Y-13258852D01*
X15521384Y-13258852D02*
X15502336Y-13268376D01*
X15502336Y-13268376D02*
X15492812Y-13277900D01*
X15492812Y-13277900D02*
X15483288Y-13296948D01*
X15664241Y-13182662D02*
X15788050Y-13182662D01*
X15788050Y-13182662D02*
X15721384Y-13258852D01*
X15721384Y-13258852D02*
X15749955Y-13258852D01*
X15749955Y-13258852D02*
X15769003Y-13268376D01*
X15769003Y-13268376D02*
X15778526Y-13277900D01*
X15778526Y-13277900D02*
X15788050Y-13296948D01*
X15788050Y-13296948D02*
X15788050Y-13344567D01*
X15788050Y-13344567D02*
X15778526Y-13363614D01*
X15778526Y-13363614D02*
X15769003Y-13373138D01*
X15769003Y-13373138D02*
X15749955Y-13382662D01*
X15749955Y-13382662D02*
X15692812Y-13382662D01*
X15692812Y-13382662D02*
X15673765Y-13373138D01*
X15673765Y-13373138D02*
X15664241Y-13363614D01*
X15864241Y-13182662D02*
X15864241Y-13220757D01*
X15940431Y-13182662D02*
X15940431Y-13220757D01*
X16235669Y-13458852D02*
X16226146Y-13449328D01*
X16226146Y-13449328D02*
X16207098Y-13420757D01*
X16207098Y-13420757D02*
X16197574Y-13401709D01*
X16197574Y-13401709D02*
X16188050Y-13373138D01*
X16188050Y-13373138D02*
X16178527Y-13325519D01*
X16178527Y-13325519D02*
X16178527Y-13287424D01*
X16178527Y-13287424D02*
X16188050Y-13239805D01*
X16188050Y-13239805D02*
X16197574Y-13211233D01*
X16197574Y-13211233D02*
X16207098Y-13192186D01*
X16207098Y-13192186D02*
X16226146Y-13163614D01*
X16226146Y-13163614D02*
X16235669Y-13154090D01*
X16397574Y-13249328D02*
X16397574Y-13382662D01*
X16349955Y-13173138D02*
X16302336Y-13315995D01*
X16302336Y-13315995D02*
X16426146Y-13315995D01*
X16654717Y-13382662D02*
X16654717Y-13182662D01*
X16740431Y-13382662D02*
X16740431Y-13277900D01*
X16740431Y-13277900D02*
X16730908Y-13258852D01*
X16730908Y-13258852D02*
X16711860Y-13249328D01*
X16711860Y-13249328D02*
X16683288Y-13249328D01*
X16683288Y-13249328D02*
X16664241Y-13258852D01*
X16664241Y-13258852D02*
X16654717Y-13268376D01*
X16864241Y-13382662D02*
X16845193Y-13373138D01*
X16845193Y-13373138D02*
X16835670Y-13363614D01*
X16835670Y-13363614D02*
X16826146Y-13344567D01*
X16826146Y-13344567D02*
X16826146Y-13287424D01*
X16826146Y-13287424D02*
X16835670Y-13268376D01*
X16835670Y-13268376D02*
X16845193Y-13258852D01*
X16845193Y-13258852D02*
X16864241Y-13249328D01*
X16864241Y-13249328D02*
X16892812Y-13249328D01*
X16892812Y-13249328D02*
X16911860Y-13258852D01*
X16911860Y-13258852D02*
X16921384Y-13268376D01*
X16921384Y-13268376D02*
X16930908Y-13287424D01*
X16930908Y-13287424D02*
X16930908Y-13344567D01*
X16930908Y-13344567D02*
X16921384Y-13363614D01*
X16921384Y-13363614D02*
X16911860Y-13373138D01*
X16911860Y-13373138D02*
X16892812Y-13382662D01*
X16892812Y-13382662D02*
X16864241Y-13382662D01*
X17045193Y-13382662D02*
X17026146Y-13373138D01*
X17026146Y-13373138D02*
X17016622Y-13354090D01*
X17016622Y-13354090D02*
X17016622Y-13182662D01*
X17197574Y-13373138D02*
X17178527Y-13382662D01*
X17178527Y-13382662D02*
X17140431Y-13382662D01*
X17140431Y-13382662D02*
X17121384Y-13373138D01*
X17121384Y-13373138D02*
X17111860Y-13354090D01*
X17111860Y-13354090D02*
X17111860Y-13277900D01*
X17111860Y-13277900D02*
X17121384Y-13258852D01*
X17121384Y-13258852D02*
X17140431Y-13249328D01*
X17140431Y-13249328D02*
X17178527Y-13249328D01*
X17178527Y-13249328D02*
X17197574Y-13258852D01*
X17197574Y-13258852D02*
X17207098Y-13277900D01*
X17207098Y-13277900D02*
X17207098Y-13296948D01*
X17207098Y-13296948D02*
X17111860Y-13315995D01*
X17283289Y-13373138D02*
X17302336Y-13382662D01*
X17302336Y-13382662D02*
X17340431Y-13382662D01*
X17340431Y-13382662D02*
X17359479Y-13373138D01*
X17359479Y-13373138D02*
X17369003Y-13354090D01*
X17369003Y-13354090D02*
X17369003Y-13344567D01*
X17369003Y-13344567D02*
X17359479Y-13325519D01*
X17359479Y-13325519D02*
X17340431Y-13315995D01*
X17340431Y-13315995D02*
X17311860Y-13315995D01*
X17311860Y-13315995D02*
X17292812Y-13306471D01*
X17292812Y-13306471D02*
X17283289Y-13287424D01*
X17283289Y-13287424D02*
X17283289Y-13277900D01*
X17283289Y-13277900D02*
X17292812Y-13258852D01*
X17292812Y-13258852D02*
X17311860Y-13249328D01*
X17311860Y-13249328D02*
X17340431Y-13249328D01*
X17340431Y-13249328D02*
X17359479Y-13258852D01*
X17435670Y-13458852D02*
X17445193Y-13449328D01*
X17445193Y-13449328D02*
X17464241Y-13420757D01*
X17464241Y-13420757D02*
X17473765Y-13401709D01*
X17473765Y-13401709D02*
X17483289Y-13373138D01*
X17483289Y-13373138D02*
X17492812Y-13325519D01*
X17492812Y-13325519D02*
X17492812Y-13287424D01*
X17492812Y-13287424D02*
X17483289Y-13239805D01*
X17483289Y-13239805D02*
X17473765Y-13211233D01*
X17473765Y-13211233D02*
X17464241Y-13192186D01*
X17464241Y-13192186D02*
X17445193Y-13163614D01*
X17445193Y-13163614D02*
X17435670Y-13154090D01*
X17797574Y-13458852D02*
X17788051Y-13449328D01*
X17788051Y-13449328D02*
X17769003Y-13420757D01*
X17769003Y-13420757D02*
X17759479Y-13401709D01*
X17759479Y-13401709D02*
X17749955Y-13373138D01*
X17749955Y-13373138D02*
X17740432Y-13325519D01*
X17740432Y-13325519D02*
X17740432Y-13287424D01*
X17740432Y-13287424D02*
X17749955Y-13239805D01*
X17749955Y-13239805D02*
X17759479Y-13211233D01*
X17759479Y-13211233D02*
X17769003Y-13192186D01*
X17769003Y-13192186D02*
X17788051Y-13163614D01*
X17788051Y-13163614D02*
X17797574Y-13154090D01*
X17873765Y-13249328D02*
X17873765Y-13382662D01*
X17873765Y-13268376D02*
X17883289Y-13258852D01*
X17883289Y-13258852D02*
X17902336Y-13249328D01*
X17902336Y-13249328D02*
X17930908Y-13249328D01*
X17930908Y-13249328D02*
X17949955Y-13258852D01*
X17949955Y-13258852D02*
X17959479Y-13277900D01*
X17959479Y-13277900D02*
X17959479Y-13382662D01*
X18083289Y-13382662D02*
X18064241Y-13373138D01*
X18064241Y-13373138D02*
X18054717Y-13363614D01*
X18054717Y-13363614D02*
X18045193Y-13344567D01*
X18045193Y-13344567D02*
X18045193Y-13287424D01*
X18045193Y-13287424D02*
X18054717Y-13268376D01*
X18054717Y-13268376D02*
X18064241Y-13258852D01*
X18064241Y-13258852D02*
X18083289Y-13249328D01*
X18083289Y-13249328D02*
X18111860Y-13249328D01*
X18111860Y-13249328D02*
X18130908Y-13258852D01*
X18130908Y-13258852D02*
X18140432Y-13268376D01*
X18140432Y-13268376D02*
X18149955Y-13287424D01*
X18149955Y-13287424D02*
X18149955Y-13344567D01*
X18149955Y-13344567D02*
X18140432Y-13363614D01*
X18140432Y-13363614D02*
X18130908Y-13373138D01*
X18130908Y-13373138D02*
X18111860Y-13382662D01*
X18111860Y-13382662D02*
X18083289Y-13382662D01*
X18207098Y-13249328D02*
X18283289Y-13249328D01*
X18235670Y-13182662D02*
X18235670Y-13354090D01*
X18235670Y-13354090D02*
X18245193Y-13373138D01*
X18245193Y-13373138D02*
X18264241Y-13382662D01*
X18264241Y-13382662D02*
X18283289Y-13382662D01*
X18502336Y-13249328D02*
X18502336Y-13449328D01*
X18502336Y-13258852D02*
X18521384Y-13249328D01*
X18521384Y-13249328D02*
X18559479Y-13249328D01*
X18559479Y-13249328D02*
X18578527Y-13258852D01*
X18578527Y-13258852D02*
X18588051Y-13268376D01*
X18588051Y-13268376D02*
X18597574Y-13287424D01*
X18597574Y-13287424D02*
X18597574Y-13344567D01*
X18597574Y-13344567D02*
X18588051Y-13363614D01*
X18588051Y-13363614D02*
X18578527Y-13373138D01*
X18578527Y-13373138D02*
X18559479Y-13382662D01*
X18559479Y-13382662D02*
X18521384Y-13382662D01*
X18521384Y-13382662D02*
X18502336Y-13373138D01*
X18711860Y-13382662D02*
X18692813Y-13373138D01*
X18692813Y-13373138D02*
X18683289Y-13354090D01*
X18683289Y-13354090D02*
X18683289Y-13182662D01*
X18873765Y-13382662D02*
X18873765Y-13277900D01*
X18873765Y-13277900D02*
X18864241Y-13258852D01*
X18864241Y-13258852D02*
X18845194Y-13249328D01*
X18845194Y-13249328D02*
X18807098Y-13249328D01*
X18807098Y-13249328D02*
X18788051Y-13258852D01*
X18873765Y-13373138D02*
X18854717Y-13382662D01*
X18854717Y-13382662D02*
X18807098Y-13382662D01*
X18807098Y-13382662D02*
X18788051Y-13373138D01*
X18788051Y-13373138D02*
X18778527Y-13354090D01*
X18778527Y-13354090D02*
X18778527Y-13335043D01*
X18778527Y-13335043D02*
X18788051Y-13315995D01*
X18788051Y-13315995D02*
X18807098Y-13306471D01*
X18807098Y-13306471D02*
X18854717Y-13306471D01*
X18854717Y-13306471D02*
X18873765Y-13296948D01*
X18940432Y-13249328D02*
X19016622Y-13249328D01*
X18969003Y-13182662D02*
X18969003Y-13354090D01*
X18969003Y-13354090D02*
X18978527Y-13373138D01*
X18978527Y-13373138D02*
X18997574Y-13382662D01*
X18997574Y-13382662D02*
X19016622Y-13382662D01*
X19159479Y-13373138D02*
X19140432Y-13382662D01*
X19140432Y-13382662D02*
X19102336Y-13382662D01*
X19102336Y-13382662D02*
X19083289Y-13373138D01*
X19083289Y-13373138D02*
X19073765Y-13354090D01*
X19073765Y-13354090D02*
X19073765Y-13277900D01*
X19073765Y-13277900D02*
X19083289Y-13258852D01*
X19083289Y-13258852D02*
X19102336Y-13249328D01*
X19102336Y-13249328D02*
X19140432Y-13249328D01*
X19140432Y-13249328D02*
X19159479Y-13258852D01*
X19159479Y-13258852D02*
X19169003Y-13277900D01*
X19169003Y-13277900D02*
X19169003Y-13296948D01*
X19169003Y-13296948D02*
X19073765Y-13315995D01*
X19340432Y-13382662D02*
X19340432Y-13182662D01*
X19340432Y-13373138D02*
X19321384Y-13382662D01*
X19321384Y-13382662D02*
X19283289Y-13382662D01*
X19283289Y-13382662D02*
X19264241Y-13373138D01*
X19264241Y-13373138D02*
X19254717Y-13363614D01*
X19254717Y-13363614D02*
X19245194Y-13344567D01*
X19245194Y-13344567D02*
X19245194Y-13287424D01*
X19245194Y-13287424D02*
X19254717Y-13268376D01*
X19254717Y-13268376D02*
X19264241Y-13258852D01*
X19264241Y-13258852D02*
X19283289Y-13249328D01*
X19283289Y-13249328D02*
X19321384Y-13249328D01*
X19321384Y-13249328D02*
X19340432Y-13258852D01*
X19416622Y-13458852D02*
X19426146Y-13449328D01*
X19426146Y-13449328D02*
X19445194Y-13420757D01*
X19445194Y-13420757D02*
X19454717Y-13401709D01*
X19454717Y-13401709D02*
X19464241Y-13373138D01*
X19464241Y-13373138D02*
X19473765Y-13325519D01*
X19473765Y-13325519D02*
X19473765Y-13287424D01*
X19473765Y-13287424D02*
X19464241Y-13239805D01*
X19464241Y-13239805D02*
X19454717Y-13211233D01*
X19454717Y-13211233D02*
X19445194Y-13192186D01*
X19445194Y-13192186D02*
X19426146Y-13163614D01*
X19426146Y-13163614D02*
X19416622Y-13154090D01*
M02*
