G04 #@! TF.GenerationSoftware,KiCad,Pcbnew,8.0.5*
G04 #@! TF.CreationDate,2024-09-17T16:22:35-07:00*
G04 #@! TF.ProjectId,RP2040_PCB,52503230-3430-45f5-9043-422e6b696361,rev?*
G04 #@! TF.SameCoordinates,Original*
G04 #@! TF.FileFunction,Soldermask,Top*
G04 #@! TF.FilePolarity,Negative*
%FSLAX46Y46*%
G04 Gerber Fmt 4.6, Leading zero omitted, Abs format (unit mm)*
G04 Created by KiCad (PCBNEW 8.0.5) date 2024-09-17 16:22:35*
%MOMM*%
%LPD*%
G01*
G04 APERTURE LIST*
G04 Aperture macros list*
%AMRoundRect*
0 Rectangle with rounded corners*
0 $1 Rounding radius*
0 $2 $3 $4 $5 $6 $7 $8 $9 X,Y pos of 4 corners*
0 Add a 4 corners polygon primitive as box body*
4,1,4,$2,$3,$4,$5,$6,$7,$8,$9,$2,$3,0*
0 Add four circle primitives for the rounded corners*
1,1,$1+$1,$2,$3*
1,1,$1+$1,$4,$5*
1,1,$1+$1,$6,$7*
1,1,$1+$1,$8,$9*
0 Add four rect primitives between the rounded corners*
20,1,$1+$1,$2,$3,$4,$5,0*
20,1,$1+$1,$4,$5,$6,$7,0*
20,1,$1+$1,$6,$7,$8,$9,0*
20,1,$1+$1,$8,$9,$2,$3,0*%
%AMFreePoly0*
4,1,14,0.526870,0.876870,0.538000,0.850000,0.538000,-0.850000,0.526870,-0.876870,0.500000,-0.888000,-0.500000,-0.888000,-0.526870,-0.876870,-0.538000,-0.850000,-0.538000,0.550000,-0.526870,0.576870,-0.226870,0.876870,-0.200000,0.888000,0.500000,0.888000,0.526870,0.876870,0.526870,0.876870,$1*%
G04 Aperture macros list end*
%ADD10C,2.776000*%
%ADD11RoundRect,0.154000X-0.204000X0.154000X-0.204000X-0.154000X0.204000X-0.154000X0.204000X0.154000X0*%
%ADD12RoundRect,0.269000X-0.269000X-0.494000X0.269000X-0.494000X0.269000X0.494000X-0.269000X0.494000X0*%
%ADD13RoundRect,0.159000X0.159000X0.189000X-0.159000X0.189000X-0.159000X-0.189000X0.159000X-0.189000X0*%
%ADD14RoundRect,0.159000X-0.159000X-0.189000X0.159000X-0.189000X0.159000X0.189000X-0.159000X0.189000X0*%
%ADD15RoundRect,0.038000X-0.775000X-0.650000X0.775000X-0.650000X0.775000X0.650000X-0.775000X0.650000X0*%
%ADD16RoundRect,0.159000X-0.189000X0.159000X-0.189000X-0.159000X0.189000X-0.159000X0.189000X0.159000X0*%
%ADD17RoundRect,0.159000X0.189000X-0.159000X0.189000X0.159000X-0.189000X0.159000X-0.189000X-0.159000X0*%
%ADD18RoundRect,0.154000X0.154000X0.204000X-0.154000X0.204000X-0.154000X-0.204000X0.154000X-0.204000X0*%
%ADD19RoundRect,0.394000X-0.394000X0.644000X-0.394000X-0.644000X0.394000X-0.644000X0.394000X0.644000X0*%
%ADD20RoundRect,0.519000X-1.419000X0.519000X-1.419000X-0.519000X1.419000X-0.519000X1.419000X0.519000X0*%
%ADD21RoundRect,0.038000X0.275000X0.125000X-0.275000X0.125000X-0.275000X-0.125000X0.275000X-0.125000X0*%
%ADD22RoundRect,0.038000X-0.275000X-0.125000X0.275000X-0.125000X0.275000X0.125000X-0.275000X0.125000X0*%
%ADD23FreePoly0,180.000000*%
%ADD24RoundRect,0.069000X-0.406500X-0.069000X0.406500X-0.069000X0.406500X0.069000X-0.406500X0.069000X0*%
%ADD25RoundRect,0.069000X-0.069000X-0.406500X0.069000X-0.406500X0.069000X0.406500X-0.069000X0.406500X0*%
%ADD26RoundRect,0.147420X-1.490580X-1.490580X1.490580X-1.490580X1.490580X1.490580X-1.490580X1.490580X0*%
%ADD27RoundRect,0.038000X-0.200000X0.875000X-0.200000X-0.875000X0.200000X-0.875000X0.200000X0.875000X0*%
%ADD28RoundRect,0.038000X0.912500X0.350000X-0.912500X0.350000X-0.912500X-0.350000X0.912500X-0.350000X0*%
%ADD29RoundRect,0.038000X1.000000X0.730000X-1.000000X0.730000X-1.000000X-0.730000X1.000000X-0.730000X0*%
%ADD30RoundRect,0.407296X0.280704X1.255704X-0.280704X1.255704X-0.280704X-1.255704X0.280704X-1.255704X0*%
%ADD31O,1.376000X1.876000*%
%ADD32O,1.126000X1.526000*%
%ADD33RoundRect,0.038000X-0.712500X1.250000X-0.712500X-1.250000X0.712500X-1.250000X0.712500X1.250000X0*%
%ADD34RoundRect,0.038000X-0.700000X-0.600000X0.700000X-0.600000X0.700000X0.600000X-0.700000X0.600000X0*%
G04 APERTURE END LIST*
D10*
G04 #@! TO.C,H2*
X171906066Y-81211781D03*
G04 #@! TD*
D11*
G04 #@! TO.C,R5*
X155500000Y-98151781D03*
X155500000Y-99171781D03*
G04 #@! TD*
D10*
G04 #@! TO.C,H4*
X131906066Y-121711781D03*
G04 #@! TD*
D12*
G04 #@! TO.C,C4*
X164456066Y-96711781D03*
X166356066Y-96711781D03*
G04 #@! TD*
D13*
G04 #@! TO.C,C15*
X147886066Y-106211781D03*
X146926066Y-106211781D03*
G04 #@! TD*
D14*
G04 #@! TO.C,C2*
X154926066Y-114711781D03*
X155886066Y-114711781D03*
G04 #@! TD*
D15*
G04 #@! TO.C,SW2*
X140886066Y-89211781D03*
X148836066Y-89211781D03*
X140886066Y-93711781D03*
X148836066Y-93711781D03*
G04 #@! TD*
D16*
G04 #@! TO.C,C13*
X154906066Y-110701781D03*
X154906066Y-111661781D03*
G04 #@! TD*
D14*
G04 #@! TO.C,C9*
X158900000Y-105250000D03*
X159860000Y-105250000D03*
G04 #@! TD*
G04 #@! TO.C,C10*
X161000000Y-100900000D03*
X161960000Y-100900000D03*
G04 #@! TD*
D16*
G04 #@! TO.C,C6*
X156406066Y-110721781D03*
X156406066Y-111681781D03*
G04 #@! TD*
D17*
G04 #@! TO.C,C16*
X157700000Y-99131781D03*
X157700000Y-98171781D03*
G04 #@! TD*
D11*
G04 #@! TO.C,R4*
X154400000Y-98130000D03*
X154400000Y-99150000D03*
G04 #@! TD*
D14*
G04 #@! TO.C,C11*
X158926066Y-106711781D03*
X159886066Y-106711781D03*
G04 #@! TD*
D12*
G04 #@! TO.C,C3*
X163406066Y-83711781D03*
X165306066Y-83711781D03*
G04 #@! TD*
D18*
G04 #@! TO.C,R6*
X146916066Y-102711781D03*
X145896066Y-102711781D03*
G04 #@! TD*
D13*
G04 #@! TO.C,C1*
X152866066Y-114711781D03*
X151906066Y-114711781D03*
G04 #@! TD*
D14*
G04 #@! TO.C,C14*
X160990000Y-99650000D03*
X161950000Y-99650000D03*
G04 #@! TD*
D17*
G04 #@! TO.C,C8*
X156600000Y-99140000D03*
X156600000Y-98180000D03*
G04 #@! TD*
D19*
G04 #@! TO.C,U1*
X167006066Y-87561781D03*
X164706066Y-87561781D03*
D20*
X164706066Y-93861781D03*
D19*
X162406066Y-87561781D03*
G04 #@! TD*
D17*
G04 #@! TO.C,C12*
X153300000Y-98200000D03*
X153300000Y-97240000D03*
G04 #@! TD*
D13*
G04 #@! TO.C,C5*
X141030000Y-101270000D03*
X140070000Y-101270000D03*
G04 #@! TD*
D17*
G04 #@! TO.C,C7*
X152150000Y-98171781D03*
X152150000Y-97211781D03*
G04 #@! TD*
D10*
G04 #@! TO.C,H1*
X131906066Y-81211781D03*
G04 #@! TD*
D21*
G04 #@! TO.C,U4*
X143406066Y-104211781D03*
X143406066Y-103711781D03*
X143406066Y-103211781D03*
D22*
X143406066Y-102711781D03*
D21*
X141056066Y-102711781D03*
X141056066Y-103211781D03*
X141056066Y-103711781D03*
X141056066Y-104211781D03*
D23*
X142231066Y-103461781D03*
G04 #@! TD*
D24*
G04 #@! TO.C,U3*
X150031066Y-102411781D03*
X150031066Y-102811781D03*
X150031066Y-103211781D03*
X150031066Y-103611781D03*
X150031066Y-104011781D03*
X150031066Y-104411781D03*
X150031066Y-104811781D03*
X150031066Y-105211781D03*
X150031066Y-105611781D03*
X150031066Y-106011781D03*
X150031066Y-106411781D03*
X150031066Y-106811781D03*
X150031066Y-107211781D03*
X150031066Y-107611781D03*
D25*
X150868566Y-108449281D03*
X151268566Y-108449281D03*
X151668566Y-108449281D03*
X152068566Y-108449281D03*
X152468566Y-108449281D03*
X152868566Y-108449281D03*
X153268566Y-108449281D03*
X153668566Y-108449281D03*
X154068566Y-108449281D03*
X154468566Y-108449281D03*
X154868566Y-108449281D03*
X155268566Y-108449281D03*
X155668566Y-108449281D03*
X156068566Y-108449281D03*
D24*
X156906066Y-107611781D03*
X156906066Y-107211781D03*
X156906066Y-106811781D03*
X156906066Y-106411781D03*
X156906066Y-106011781D03*
X156906066Y-105611781D03*
X156906066Y-105211781D03*
X156906066Y-104811781D03*
X156906066Y-104411781D03*
X156906066Y-104011781D03*
X156906066Y-103611781D03*
X156906066Y-103211781D03*
X156906066Y-102811781D03*
X156906066Y-102411781D03*
D25*
X156068566Y-101574281D03*
X155668566Y-101574281D03*
X155268566Y-101574281D03*
X154868566Y-101574281D03*
X154468566Y-101574281D03*
X154068566Y-101574281D03*
X153668566Y-101574281D03*
X153268566Y-101574281D03*
X152868566Y-101574281D03*
X152468566Y-101574281D03*
X152068566Y-101574281D03*
X151668566Y-101574281D03*
X151268566Y-101574281D03*
X150868566Y-101574281D03*
D26*
X153468566Y-105011781D03*
G04 #@! TD*
D27*
G04 #@! TO.C,J2*
X156206066Y-81036781D03*
X155556066Y-81036781D03*
X154906066Y-81036781D03*
X154256066Y-81036781D03*
X153606066Y-81036781D03*
D28*
X157893566Y-79911781D03*
D29*
X157806066Y-81241781D03*
D30*
X157631066Y-78636781D03*
D31*
X157631066Y-78211781D03*
D32*
X157331066Y-81241781D03*
D33*
X155868566Y-77961781D03*
X153943566Y-77961781D03*
D32*
X152481066Y-81241781D03*
D30*
X152181066Y-78636781D03*
D31*
X152181066Y-78211781D03*
D29*
X152006066Y-81241781D03*
D28*
X151918566Y-79911781D03*
G04 #@! TD*
D34*
G04 #@! TO.C,Y1*
X152906066Y-118711781D03*
X155106066Y-118711781D03*
X155106066Y-117011781D03*
X152906066Y-117011781D03*
G04 #@! TD*
D10*
G04 #@! TO.C,H3*
X172406066Y-121711781D03*
G04 #@! TD*
D11*
G04 #@! TO.C,R3*
X153406066Y-110711781D03*
X153406066Y-111731781D03*
G04 #@! TD*
D18*
G04 #@! TO.C,R2*
X146936066Y-103711781D03*
X145916066Y-103711781D03*
G04 #@! TD*
G04 #@! TO.C,R1*
X148426066Y-100211781D03*
X147406066Y-100211781D03*
G04 #@! TD*
M02*
